<?xml version="1.0" encoding="utf-8"?>
<!-- Generator: Adobe Illustrator 26.3.1, SVG Export Plug-In . SVG Version: 6.00 Build 0)  -->
<svg version="1.1" id="Layer_1" xmlns="http://www.w3.org/2000/svg" xmlns:xlink="http://www.w3.org/1999/xlink" x="0px" y="0px"
	 viewBox="0 0 94 24" style="enable-background:new 0 0 94 24;" xml:space="preserve">
<style type="text/css">
	.st0{fill-rule:evenodd;clip-rule:evenodd;fill:#DF0629;}
	.st1{filter:url(#Adobe_OpacityMaskFilter);}
	.st2{fill-rule:evenodd;clip-rule:evenodd;fill:#FFFFFF;}
	.st3{mask:url(#mask-2_00000031207976923672327060000010806566888918896785_);fill-rule:evenodd;clip-rule:evenodd;fill:#DF0629;}
	.st4{filter:url(#Adobe_OpacityMaskFilter_00000135652165841661215100000006219641020709017267_);}
	.st5{mask:url(#mask-2_00000160169908053808419850000009385835865995969189_);fill-rule:evenodd;clip-rule:evenodd;fill:#DF0629;}
	.st6{filter:url(#Adobe_OpacityMaskFilter_00000103224488423128263950000000035568534435533703_);}
	.st7{mask:url(#mask-2_00000177446907644927654930000014311879230010210707_);fill-rule:evenodd;clip-rule:evenodd;fill:#DF0629;}
	.st8{filter:url(#Adobe_OpacityMaskFilter_00000096747464921853464120000008375598932741316787_);}
	.st9{mask:url(#mask-2_00000171681930712190660420000001417842002774474645_);fill-rule:evenodd;clip-rule:evenodd;fill:#DF0629;}
	.st10{filter:url(#Adobe_OpacityMaskFilter_00000049207287118962497500000012721582257914746519_);}
	.st11{mask:url(#mask-2_00000171705157991857216230000005455155621162027905_);fill-rule:evenodd;clip-rule:evenodd;fill:#DF0629;}
	.st12{filter:url(#Adobe_OpacityMaskFilter_00000087401196228955019730000001418584015085387436_);}
	.st13{mask:url(#mask-2_00000165233548148297736650000004384749984193325754_);fill-rule:evenodd;clip-rule:evenodd;fill:#DF0629;}
</style>
<g id="页面-1">
	<g id="首页2" transform="translate(-169.000000, -16.000000)">
		<g id="红" transform="translate(169.000000, 16.000000)">
			<g id="Clip-4">
			</g>
			<path id="Fill-1" class="st0" d="M52.5,10.2V6.1h6.1V4.7H43.9v1.4h6.1v4.1c0,0,0,0,0,0h-6.6v1.4h6.4c-0.4,2.1-1.8,4.9-6.4,6.2
				v1.5c4.5-0.7,6.7-3.1,7.8-5.3c1.1,2.2,3.3,4.6,7.8,5.3v-1.5c-4.6-1.3-6-4.1-6.4-6.2h6.4v-1.4L52.5,10.2
				C52.5,10.2,52.5,10.2,52.5,10.2"/>
			<defs>
				<filter id="Adobe_OpacityMaskFilter" filterUnits="userSpaceOnUse" x="78" y="4.7" width="14.7" height="1.4">
					<feColorMatrix  type="matrix" values="1 0 0 0 0  0 1 0 0 0  0 0 1 0 0  0 0 0 1 0"/>
				</filter>
			</defs>
			
				<mask maskUnits="userSpaceOnUse" x="78" y="4.7" width="14.7" height="1.4" id="mask-2_00000031207976923672327060000010806566888918896785_">
				<g class="st1">
					<polygon id="path-1_00000096025873734962142940000017934495158158213762_" class="st2" points="0,21.3 93.2,21.3 93.2,-1.8 
						0,-1.8 					"/>
				</g>
			</mask>
			<polygon id="Fill-3" class="st3" points="78,6.1 92.8,6.1 92.8,4.7 78,4.7 			"/>
			<defs>
				
					<filter id="Adobe_OpacityMaskFilter_00000170993304971223012470000011402953157064072636_" filterUnits="userSpaceOnUse" x="77.6" y="10" width="15.7" height="9.3">
					<feColorMatrix  type="matrix" values="1 0 0 0 0  0 1 0 0 0  0 0 1 0 0  0 0 0 1 0"/>
				</filter>
			</defs>
			
				<mask maskUnits="userSpaceOnUse" x="77.6" y="10" width="15.7" height="9.3" id="mask-2_00000160169908053808419850000009385835865995969189_">
				<g style="filter:url(#Adobe_OpacityMaskFilter_00000170993304971223012470000011402953157064072636_);">
					<polygon id="path-1_00000123404908475892422230000003254200365260121527_" class="st2" points="0,21.3 93.2,21.3 93.2,-1.8 
						0,-1.8 					"/>
				</g>
			</mask>
			<path id="Fill-5" class="st5" d="M93.2,11.5V10H77.6v1.4h2.9l-2,5.9c-0.2,0.4-0.1,0.9,0.2,1.3c0.3,0.4,0.7,0.6,1.2,0.6h5.3h0.9
				h5.3c0.5,0,0.9-0.2,1.2-0.6c0.3-0.4,0.3-0.9,0.2-1.3l-1.5-3.8h-2.1l1.6,4.2h-4.6h-0.9h-4.7l2.1-6.2H93.2z"/>
			<defs>
				
					<filter id="Adobe_OpacityMaskFilter_00000115491724866138406190000002998832936093935796_" filterUnits="userSpaceOnUse" x="60.8" y="9.5" width="15.3" height="9.8">
					<feColorMatrix  type="matrix" values="1 0 0 0 0  0 1 0 0 0  0 0 1 0 0  0 0 0 1 0"/>
				</filter>
			</defs>
			
				<mask maskUnits="userSpaceOnUse" x="60.8" y="9.5" width="15.3" height="9.8" id="mask-2_00000177446907644927654930000014311879230010210707_">
				<g style="filter:url(#Adobe_OpacityMaskFilter_00000115491724866138406190000002998832936093935796_);">
					<polygon id="path-1_00000032635350984916850480000018350518982398246050_" class="st2" points="0,21.3 93.2,21.3 93.2,-1.8 
						0,-1.8 					"/>
				</g>
			</mask>
			<path id="Fill-6" class="st7" d="M66.1,16.1h4.6v-0.8h-4.6V16.1z M66.1,14.3h4.6v-0.8h-4.6V14.3z M62.7,12.6h4.8v-0.7h-4.8V12.6z
				 M62.7,11.1h4.8v-0.7h-4.8V11.1z M69.3,11.1h4.8v-0.7h-4.8V11.1z M69.3,12.6h4.8v-0.7h-4.8V12.6z M72.9,17H76v-1h-3.3v-0.8H76v-1
				h-3.3v-0.8h1.3h0.6h0.6c0.3,0,0.6-0.3,0.6-0.6v-2.9c0-0.3-0.3-0.6-0.6-0.6h-0.6h-0.6H62.7h-0.3h-0.9c-0.3,0-0.6,0.3-0.6,0.6v2.9
				c0,0.3,0.3,0.6,0.6,0.6h0.9h0.3H64v0.8h-3.3v1H64v0.8h-3.3v1h3.2c-0.2,0.5-0.8,1-1.7,1.2c-0.5,0.1-0.8,0.1-1.5,0.1v1
				c1,0,1.8-0.1,2.6-0.2c1.3-0.3,2.3-1.1,2.6-2.1h4.9c0.3,1,1.3,1.8,2.6,2.1c0.8,0.2,1.6,0.2,2.6,0.2v-1c-0.6,0-1-0.1-1.5-0.1
				C73.7,18,73,17.5,72.9,17L72.9,17z"/>
			<defs>
				
					<filter id="Adobe_OpacityMaskFilter_00000182494813443457085690000011774096577155770262_" filterUnits="userSpaceOnUse" x="60.8" y="4.7" width="7.2" height="4.1">
					<feColorMatrix  type="matrix" values="1 0 0 0 0  0 1 0 0 0  0 0 1 0 0  0 0 0 1 0"/>
				</filter>
			</defs>
			
				<mask maskUnits="userSpaceOnUse" x="60.8" y="4.7" width="7.2" height="4.1" id="mask-2_00000171681930712190660420000001417842002774474645_">
				<g style="filter:url(#Adobe_OpacityMaskFilter_00000182494813443457085690000011774096577155770262_);">
					<polygon id="path-1_00000183952868846540212450000011275477847495882430_" class="st2" points="0,21.3 93.2,21.3 93.2,-1.8 
						0,-1.8 					"/>
				</g>
			</mask>
			<path id="Fill-7" class="st9" d="M66.6,8.8h0.2c0.7,0,1.2-0.6,1.2-1.2V5.9c0-0.7-0.6-1.2-1.2-1.2h-0.2h-0.4h-5.4v0.9h5.1
				c0.2,0,0.4,0.2,0.4,0.4v0.4h-5.1v0.7h5.1v0.4c0,0.2-0.2,0.4-0.4,0.4h-5.1v0.9h5.4H66.6z"/>
			<defs>
				
					<filter id="Adobe_OpacityMaskFilter_00000056392776163539410800000007017179731764362410_" filterUnits="userSpaceOnUse" x="68.8" y="4.7" width="7.2" height="4.1">
					<feColorMatrix  type="matrix" values="1 0 0 0 0  0 1 0 0 0  0 0 1 0 0  0 0 0 1 0"/>
				</filter>
			</defs>
			
				<mask maskUnits="userSpaceOnUse" x="68.8" y="4.7" width="7.2" height="4.1" id="mask-2_00000171705157991857216230000005455155621162027905_">
				<g style="filter:url(#Adobe_OpacityMaskFilter_00000056392776163539410800000007017179731764362410_);">
					<polygon id="path-1_00000106128434460062454240000010502637734456278424_" class="st2" points="0,21.3 93.2,21.3 93.2,-1.8 
						0,-1.8 					"/>
				</g>
			</mask>
			<path id="Fill-8" class="st11" d="M74.6,8.8h0.2c0.7,0,1.2-0.6,1.2-1.2V5.9c0-0.7-0.6-1.2-1.2-1.2h-0.2h-0.4h-5.4v0.9h5.1
				c0.2,0,0.4,0.2,0.4,0.4v0.4h-5.1v0.7h5.1v0.4c0,0.2-0.2,0.4-0.4,0.4h-5.1v0.9h5.4H74.6z"/>
			<defs>
				
					<filter id="Adobe_OpacityMaskFilter_00000136395993822845169470000016262348112570736318_" filterUnits="userSpaceOnUse" x="0" y="0" width="37.3" height="23.1">
					<feColorMatrix  type="matrix" values="1 0 0 0 0  0 1 0 0 0  0 0 1 0 0  0 0 0 1 0"/>
				</filter>
			</defs>
			
				<mask maskUnits="userSpaceOnUse" x="0" y="0" width="37.3" height="23.1" id="mask-2_00000165233548148297736650000004384749984193325754_">
				<g style="filter:url(#Adobe_OpacityMaskFilter_00000136395993822845169470000016262348112570736318_);">
					<polygon id="path-1_00000124861603575533389050000001569397206152402357_" class="st2" points="0,23.1 93.2,23.1 93.2,0 0,0 
											"/>
				</g>
			</mask>
			<path id="Fill-9" class="st13" d="M31,6.9c-1.1-2.8-4.1-4.4-7-3.8C22.3,1.2,19.8,0,17,0c-3.7,0-6.9,2.1-8.5,5.1h0
				C3.8,5.1,0,8.9,0,13.7c0,4.7,3.8,8.5,8.5,8.5c0,0,0,0,0,0H22c0.1,0,0.2-0.1,0.1-0.2c-0.9-0.9-1.7-2-2.2-3.2
				c0-0.1-0.1-0.1-0.2-0.1H8.5c-2.1,0-4.1-1.4-4.8-3.6C3.1,12.9,4,10.7,5.8,9.5c1.6-1.1,3.6-1,5.1-0.2c0.2-3,2.4-5.5,5.5-5.9
				c2.8-0.3,5.5,1.3,6.5,3.8c0,0,0,0,0,0c0.9-1.1,2.6-1.4,3.9-0.7c1.3,0.7,1.9,2.3,1.5,3.6c2.1-0.6,4.4,0.4,5.3,2.5
				c0.9,2,0.1,4.4-1.8,5.5c-2.2,1.3-4.9,0.5-6.1-1.7c-0.3-0.5-0.4-1-0.5-1.5h2.2c0.1,0,0.2-0.2,0.1-0.3l-4.2-4.2
				c-0.1-0.1-0.2-0.1-0.3,0l-4.2,4.2c-0.1,0.1,0,0.3,0.1,0.3h2.1c0,1,0.2,2,0.6,2.9c1.2,3,4.2,5.1,7.6,5.1c4.6,0,8.2-3.7,8.2-8.2
				C37.3,11,34.6,7.8,31,6.9"/>
		</g>
	</g>
</g>
</svg>
