<?xml version="1.0" encoding="utf-8"?>
<!-- Generator: Adobe Illustrator 24.2.3, SVG Export Plug-In . SVG Version: 6.00 Build 0)  -->
<svg version="1.1" id="Layer_1" xmlns="http://www.w3.org/2000/svg" xmlns:xlink="http://www.w3.org/1999/xlink" x="0px" y="0px"
	 viewBox="0 0 71.1 20.1" style="enable-background:new 0 0 71.1 20.1;" xml:space="preserve">
<style type="text/css">
	.st0{fill:#DE0529;}
</style>
<desc>Created with Sketch.</desc>
<g>
	<g>
		<g>
			<g>
				<path class="st0" d="M35.4,3.6v1.3h4.5V7h-4.6v1.3h4.6c-0.3,2.7-2.2,3.8-4.5,4.4l0,1c3-0.5,4.3-2,5.4-3.7
					c1.5,1.9,1.7,2.8,5.7,3.7v-1c-2-0.3-4.7-1.9-4.8-4.3h4.9V7h-4.9V4.9h4.5V3.6H35.4z"/>
			</g>
		</g>
		<g>
			<g>
				<path class="st0" d="M59.7,6.6v1.3h1.1L60.1,12c-0.2,1.2,0.4,1.7,1.6,1.7h8c0.8-0.1,1.1-0.4,0.9-1.3l-0.8-3.1h-1.1l0.6,2.6
					c0.1,0.3,0,0.4-0.3,0.4h-7.7L62,7.8h8.7V6.6H59.7z M59.9,4.9h10.4V3.6H59.9V4.9z"/>
			</g>
		</g>
		<g>
			<g>
				<g>
					<path class="st0" d="M51.8,6.6h-4.1l0-0.6h3.9c0.2,0,0.3-0.1,0.3-0.2V4.9c0-0.4-0.3-0.6-0.9-0.6h-3.2V3.6h3.8
						c0.9,0,1.4,0.1,1.4,0.9v1.1C52.9,6.3,52.5,6.6,51.8,6.6"/>
				</g>
			</g>
			<g>
				<g>
					<path class="st0" d="M57.5,6.6h-4l0-0.6h3c0.2,0,0.3-0.1,0.3-0.2V4.9c0-0.4-0.3-0.6-0.8-0.6h-2.6V3.6h3.8
						c0.9,0,1.4,0.1,1.4,0.9v1.3C58.6,6.3,58.2,6.6,57.5,6.6"/>
				</g>
			</g>
			<g>
				<g>
					<path class="st0" d="M56,11.2h2.6v-0.7H56v-0.5h1.2h1.4l0-1.7c0-0.9,0-1.2,0-1.2h-11v1.3v1.3v0.4h2.7c0,0,0,0.3,0,0.5l-0.6,0
						h-2.2v0.7h2.8c0,0,0,0.2,0,0.4l-0.6,0h-2.2v0.7h2.4c0,0-0.1,0.3-0.6,0.5C49,13,47.6,13,47.6,13v0.7c0,0,1.6,0.2,2.6-0.2
						c0.5-0.2,1.1-1.2,1.1-1.2h3.5c0,0,0.4,0.9,1.3,1.2c0.8,0.3,2.5,0.2,2.5,0.2l0-0.7c0,0-1.7,0-2-0.2c-0.4-0.3-0.6-0.5-0.6-0.5
						h2.6v-0.7H56V11.2z M53.6,7.8h3.8v0.4h-3.8V7.8z M49.1,7.8h3.6v0.4h-3.6V7.8z M49.1,9.2V8.8h3.6v0.4H49.1z M54.5,11.6h-3.1
						v-0.3h3.1C54.5,11.3,54.5,11.3,54.5,11.6L54.5,11.6z M51.5,10.5v-0.5h3.1c0,0,0,0.3,0,0.5H51.5z M53.6,9.2V8.8h3.8v0.4H53.6z"
						/>
				</g>
			</g>
			<g>
				<g>
					<rect x="48.2" y="5" class="st0" width="3.4" height="0.3"/>
				</g>
			</g>
			<g>
				<g>
					<rect x="54" y="5" class="st0" width="3.2" height="0.3"/>
				</g>
			</g>
		</g>
	</g>
	<g>
		<g>
			<path class="st0" d="M26.2,6.4c-0.7-2-2.7-3.5-5-3.5c-0.3,0-0.6,0-0.8,0.1c-1.5-1.7-3.6-2.7-6-2.7c-3.2,0-5.9,1.9-7.2,4.5
				c0,0,0,0,0,0c-3.9,0-7.1,3.1-7.2,7c-0.1,4,3.3,7.3,7.3,7.3l12.2,0c0.1,0,0.2-0.1,0.1-0.2c-0.8-0.7-1.4-1.6-1.9-2.6
				c-0.1-0.1-0.2-0.2-0.3-0.2l-4.3,0l-5.8,0C5,16.1,3,14.2,3,11.9c0-2,1.5-3.7,3.4-4.1c0.2,0,0.5-0.1,0.7-0.1C8,7.8,8.8,8,9.5,8.5
				c0-0.1,0-0.2,0-0.3c0-1,0.3-1.9,0.8-2.7c0.9-1.3,2.4-2.2,4.1-2.2c1.2,0,2.3,0.4,3.1,1.1c0.7,0.6,1.2,1.4,1.5,2.2
				c0.5-0.7,1.3-1.1,2.1-1.1c0.2,0,0.5,0,0.7,0.1c0.5,0.1,1,0.5,1.3,0.9c0.4,0.5,0.6,1,0.6,1.7c0,0.4-0.1,0.9-0.3,1.2
				c0.5-0.3,1.2-0.5,1.8-0.5c0.4,0,0.7,0.1,1.1,0.2c1.7,0.5,2.9,2.2,2.7,4.1c-0.2,1.7-1.6,3.1-3.3,3.3c-2,0.2-3.7-1.2-4.1-3
				c0-0.2-0.1-0.5-0.1-0.7h1.9c0.1,0,0.2-0.2,0.1-0.3L22,10.9l-1.9-1.8C20,9,19.7,9,19.6,9.2l-0.5,0.5l-2.9,2.8
				c-0.1,0.1,0,0.3,0.1,0.3h1.9c0,0.1,0,0.3,0,0.4c0,3.9,3.3,7,7.3,6.8c3.4-0.2,6.1-3,6.3-6.3C32,10,29.5,7,26.2,6.4z"/>
		</g>
	</g>
	<g>
		<g>
			<path class="st0" d="M35.9,18.8c-0.2-0.1-0.4-0.3-0.5-0.5c-0.1-0.2-0.2-0.4-0.2-0.6c0-0.2,0.1-0.5,0.2-0.6
				c0.1-0.2,0.3-0.3,0.5-0.5c0.2-0.1,0.4-0.2,0.7-0.2c0.2,0,0.4,0,0.5,0.1c0.2,0.1,0.3,0.2,0.4,0.3l-0.3,0.3
				c-0.2-0.2-0.4-0.3-0.7-0.3c-0.2,0-0.3,0-0.5,0.1c-0.1,0.1-0.2,0.2-0.3,0.3c-0.1,0.1-0.1,0.3-0.1,0.4c0,0.2,0,0.3,0.1,0.4
				c0.1,0.1,0.2,0.2,0.3,0.3c0.1,0.1,0.3,0.1,0.5,0.1c0.3,0,0.5-0.1,0.7-0.3l0.3,0.3c-0.1,0.1-0.3,0.2-0.4,0.3
				c-0.2,0.1-0.4,0.1-0.6,0.1C36.3,18.9,36.1,18.9,35.9,18.8z"/>
			<path class="st0" d="M39.5,17.2c0.1,0.1,0.2,0.3,0.2,0.6v1.1h-0.4v-1c0-0.2,0-0.3-0.1-0.4c-0.1-0.1-0.2-0.1-0.3-0.1
				c-0.2,0-0.3,0-0.4,0.1c-0.1,0.1-0.1,0.2-0.1,0.4v0.9h-0.4v-2.6h0.4v0.9c0.1-0.1,0.2-0.1,0.3-0.2c0.1,0,0.2-0.1,0.4-0.1
				C39.2,17,39.4,17.1,39.5,17.2z"/>
			<path class="st0" d="M40.2,16.6c-0.1-0.1-0.1-0.1-0.1-0.2c0-0.1,0-0.1,0.1-0.2c0.1-0.1,0.1-0.1,0.2-0.1c0.1,0,0.1,0,0.2,0.1
				c0.1,0,0.1,0.1,0.1,0.2c0,0.1,0,0.1-0.1,0.2c-0.1,0.1-0.1,0.1-0.2,0.1C40.3,16.7,40.3,16.7,40.2,16.6z M40.2,17h0.4v1.9h-0.4V17z
				"/>
			<path class="st0" d="M42.8,17.2c0.1,0.1,0.2,0.3,0.2,0.6v1.1h-0.4v-1c0-0.2,0-0.3-0.1-0.4c-0.1-0.1-0.2-0.1-0.3-0.1
				c-0.2,0-0.3,0-0.4,0.1c-0.1,0.1-0.1,0.2-0.1,0.4v0.9h-0.4V17h0.4v0.2c0.1-0.1,0.2-0.2,0.3-0.2c0.1,0,0.2-0.1,0.4-0.1
				C42.4,17,42.6,17.1,42.8,17.2z"/>
			<path class="st0" d="M44.8,17.2c0.1,0.1,0.2,0.3,0.2,0.6v1.1h-0.4v-0.2c-0.1,0.1-0.1,0.1-0.2,0.2s-0.2,0.1-0.4,0.1
				c-0.1,0-0.3,0-0.4-0.1c-0.1,0-0.2-0.1-0.2-0.2c-0.1-0.1-0.1-0.2-0.1-0.3c0-0.2,0.1-0.3,0.2-0.4c0.1-0.1,0.3-0.2,0.6-0.2h0.5v0
				c0-0.1,0-0.2-0.1-0.3c-0.1-0.1-0.2-0.1-0.3-0.1c-0.1,0-0.2,0-0.3,0c-0.1,0-0.2,0.1-0.3,0.1l-0.2-0.3c0.1-0.1,0.2-0.1,0.4-0.2
				c0.1,0,0.3-0.1,0.4-0.1C44.5,17,44.7,17.1,44.8,17.2z M44.4,18.5c0.1-0.1,0.1-0.1,0.2-0.2v-0.2h-0.5c-0.3,0-0.4,0.1-0.4,0.2
				c0,0.1,0,0.1,0.1,0.2c0.1,0,0.2,0.1,0.3,0.1C44.2,18.6,44.3,18.6,44.4,18.5z"/>
			<path class="st0" d="M46.7,18.8c-0.1,0-0.1,0.1-0.2,0.1c-0.1,0-0.2,0-0.2,0c-0.2,0-0.4-0.1-0.5-0.2c-0.1-0.1-0.2-0.3-0.2-0.5
				v-0.9h-0.3V17h0.3v-0.4H46V17h0.5v0.4H46v0.9c0,0.1,0,0.2,0.1,0.2c0,0,0.1,0.1,0.2,0.1c0.1,0,0.2,0,0.2-0.1L46.7,18.8z"/>
			<path class="st0" d="M48.6,18.1h-1.5c0,0.1,0.1,0.2,0.2,0.3c0.1,0.1,0.2,0.1,0.4,0.1c0.2,0,0.4-0.1,0.5-0.2l0.2,0.3
				c-0.1,0.1-0.2,0.2-0.3,0.2c-0.1,0.1-0.3,0.1-0.4,0.1c-0.2,0-0.4,0-0.5-0.1c-0.2-0.1-0.3-0.2-0.4-0.3c-0.1-0.1-0.1-0.3-0.1-0.5
				c0-0.2,0-0.3,0.1-0.5c0.1-0.1,0.2-0.3,0.3-0.3c0.1-0.1,0.3-0.1,0.5-0.1c0.2,0,0.3,0,0.5,0.1c0.1,0.1,0.3,0.2,0.3,0.3
				c0.1,0.1,0.1,0.3,0.1,0.5C48.6,18,48.6,18,48.6,18.1z M47.3,17.5c-0.1,0.1-0.2,0.2-0.2,0.3h1.1c0-0.1-0.1-0.2-0.2-0.3
				c-0.1-0.1-0.2-0.1-0.4-0.1C47.6,17.4,47.4,17.4,47.3,17.5z"/>
			<path class="st0" d="M49,16.3h0.4v2.6H49V16.3z"/>
			<path class="st0" d="M51.7,18.1h-1.5c0,0.1,0.1,0.2,0.2,0.3c0.1,0.1,0.2,0.1,0.4,0.1c0.2,0,0.4-0.1,0.5-0.2l0.2,0.3
				c-0.1,0.1-0.2,0.2-0.3,0.2c-0.1,0.1-0.3,0.1-0.4,0.1c-0.2,0-0.4,0-0.5-0.1c-0.2-0.1-0.3-0.2-0.4-0.3c-0.1-0.1-0.1-0.3-0.1-0.5
				c0-0.2,0-0.3,0.1-0.5c0.1-0.1,0.2-0.3,0.3-0.3c0.1-0.1,0.3-0.1,0.5-0.1c0.2,0,0.3,0,0.5,0.1c0.1,0.1,0.3,0.2,0.3,0.3
				c0.1,0.1,0.1,0.3,0.1,0.5C51.7,18,51.7,18,51.7,18.1z M50.4,17.5c-0.1,0.1-0.2,0.2-0.2,0.3h1.1c0-0.1-0.1-0.2-0.2-0.3
				c-0.1-0.1-0.2-0.1-0.4-0.1C50.6,17.4,50.5,17.4,50.4,17.5z"/>
			<path class="st0" d="M52.4,18.8c-0.2-0.1-0.3-0.2-0.4-0.3c-0.1-0.1-0.1-0.3-0.1-0.5c0-0.2,0-0.3,0.1-0.5c0.1-0.1,0.2-0.3,0.4-0.3
				c0.2-0.1,0.3-0.1,0.5-0.1c0.2,0,0.3,0,0.5,0.1c0.1,0.1,0.2,0.2,0.3,0.3l-0.3,0.2c-0.1-0.1-0.1-0.2-0.2-0.2
				c-0.1,0-0.2-0.1-0.3-0.1c-0.2,0-0.3,0.1-0.4,0.2c-0.1,0.1-0.2,0.2-0.2,0.4c0,0.2,0.1,0.3,0.2,0.4c0.1,0.1,0.2,0.2,0.4,0.2
				c0.1,0,0.2,0,0.3-0.1c0.1,0,0.1-0.1,0.2-0.2l0.3,0.2c-0.1,0.1-0.2,0.2-0.3,0.3c-0.1,0.1-0.3,0.1-0.5,0.1
				C52.7,18.9,52.5,18.9,52.4,18.8z"/>
			<path class="st0" d="M54.3,18.8c-0.2-0.1-0.3-0.2-0.4-0.3c-0.1-0.1-0.1-0.3-0.1-0.5c0-0.2,0-0.3,0.1-0.5c0.1-0.1,0.2-0.3,0.4-0.3
				c0.2-0.1,0.3-0.1,0.5-0.1c0.2,0,0.4,0,0.5,0.1c0.2,0.1,0.3,0.2,0.4,0.3c0.1,0.1,0.1,0.3,0.1,0.5c0,0.2,0,0.3-0.1,0.5
				c-0.1,0.1-0.2,0.3-0.4,0.3c-0.2,0.1-0.3,0.1-0.5,0.1C54.6,18.9,54.5,18.9,54.3,18.8z M55.2,18.4c0.1-0.1,0.2-0.2,0.2-0.4
				c0-0.2-0.1-0.3-0.2-0.4c-0.1-0.1-0.2-0.2-0.4-0.2s-0.3,0.1-0.4,0.2c-0.1,0.1-0.2,0.2-0.2,0.4c0,0.2,0.1,0.3,0.2,0.4
				c0.1,0.1,0.2,0.2,0.4,0.2S55.1,18.5,55.2,18.4z"/>
			<path class="st0" d="M59.1,17.2c0.1,0.1,0.2,0.3,0.2,0.6v1.1h-0.4v-1c0-0.2,0-0.3-0.1-0.4c-0.1-0.1-0.2-0.1-0.3-0.1
				c-0.1,0-0.3,0-0.4,0.1C58,17.6,58,17.8,58,17.9v0.9h-0.4v-1c0-0.2,0-0.3-0.1-0.4c-0.1-0.1-0.2-0.1-0.3-0.1c-0.1,0-0.3,0-0.4,0.1
				c-0.1,0.1-0.1,0.2-0.1,0.4v0.9h-0.4V17h0.4v0.2c0.1-0.1,0.2-0.1,0.3-0.2c0.1,0,0.2-0.1,0.4-0.1c0.1,0,0.3,0,0.4,0.1
				c0.1,0.1,0.2,0.1,0.3,0.2c0.1-0.1,0.2-0.2,0.3-0.2c0.1-0.1,0.3-0.1,0.4-0.1C58.8,17,59,17.1,59.1,17.2z"/>
			<path class="st0" d="M61.2,18.8c-0.2-0.1-0.4-0.3-0.5-0.5c-0.1-0.2-0.2-0.4-0.2-0.6c0-0.2,0.1-0.5,0.2-0.6
				c0.1-0.2,0.3-0.3,0.5-0.5c0.2-0.1,0.4-0.2,0.7-0.2c0.2,0,0.4,0,0.5,0.1c0.2,0.1,0.3,0.2,0.4,0.3l-0.3,0.3
				c-0.2-0.2-0.4-0.3-0.7-0.3c-0.2,0-0.3,0-0.5,0.1c-0.1,0.1-0.2,0.2-0.3,0.3C61,17.4,61,17.5,61,17.7c0,0.2,0,0.3,0.1,0.4
				c0.1,0.1,0.2,0.2,0.3,0.3c0.1,0.1,0.3,0.1,0.5,0.1c0.3,0,0.5-0.1,0.7-0.3l0.3,0.3c-0.1,0.1-0.3,0.2-0.4,0.3
				c-0.2,0.1-0.4,0.1-0.6,0.1C61.6,18.9,61.4,18.9,61.2,18.8z"/>
			<path class="st0" d="M63.2,16.3h0.4v2.6h-0.4V16.3z"/>
			<path class="st0" d="M64.4,18.8c-0.2-0.1-0.3-0.2-0.4-0.3c-0.1-0.1-0.1-0.3-0.1-0.5c0-0.2,0-0.3,0.1-0.5c0.1-0.1,0.2-0.3,0.4-0.3
				c0.2-0.1,0.3-0.1,0.5-0.1c0.2,0,0.4,0,0.5,0.1c0.2,0.1,0.3,0.2,0.4,0.3c0.1,0.1,0.1,0.3,0.1,0.5c0,0.2,0,0.3-0.1,0.5
				c-0.1,0.1-0.2,0.3-0.4,0.3c-0.2,0.1-0.3,0.1-0.5,0.1C64.8,18.9,64.6,18.9,64.4,18.8z M65.3,18.4c0.1-0.1,0.2-0.2,0.2-0.4
				c0-0.2-0.1-0.3-0.2-0.4c-0.1-0.1-0.2-0.2-0.4-0.2c-0.2,0-0.3,0.1-0.4,0.2c-0.1,0.1-0.2,0.2-0.2,0.4c0,0.2,0.1,0.3,0.2,0.4
				c0.1,0.1,0.2,0.2,0.4,0.2C65.1,18.5,65.2,18.5,65.3,18.4z"/>
			<path class="st0" d="M68.1,17v1.9h-0.4v-0.2c-0.1,0.1-0.2,0.1-0.3,0.2c-0.1,0-0.2,0.1-0.3,0.1c-0.2,0-0.4-0.1-0.6-0.2
				c-0.1-0.1-0.2-0.3-0.2-0.6V17h0.4v1c0,0.2,0,0.3,0.1,0.4c0.1,0.1,0.2,0.1,0.3,0.1c0.2,0,0.3,0,0.4-0.1c0.1-0.1,0.1-0.2,0.1-0.4
				V17H68.1z"/>
			<path class="st0" d="M70.4,16.3v2.6H70v-0.2c-0.1,0.1-0.2,0.2-0.3,0.2c-0.1,0-0.2,0.1-0.4,0.1c-0.2,0-0.3,0-0.5-0.1
				c-0.1-0.1-0.3-0.2-0.3-0.3c-0.1-0.1-0.1-0.3-0.1-0.5s0-0.4,0.1-0.5c0.1-0.1,0.2-0.3,0.3-0.3c0.1-0.1,0.3-0.1,0.5-0.1
				c0.1,0,0.2,0,0.3,0.1c0.1,0,0.2,0.1,0.3,0.2v-1H70.4z M69.7,18.5c0.1,0,0.2-0.1,0.2-0.2c0-0.1,0.1-0.2,0.1-0.3
				c0-0.1,0-0.2-0.1-0.3c0-0.1-0.1-0.2-0.2-0.2c-0.1,0-0.2-0.1-0.3-0.1c-0.1,0-0.2,0-0.3,0.1c-0.1,0-0.2,0.1-0.2,0.2
				c0,0.1-0.1,0.2-0.1,0.3c0,0.1,0,0.2,0.1,0.3c0,0.1,0.1,0.2,0.2,0.2c0.1,0,0.2,0.1,0.3,0.1C69.6,18.5,69.7,18.5,69.7,18.5z"/>
		</g>
	</g>
</g>
</svg>
