<?xml version="1.0" standalone="no"?><!DOCTYPE svg PUBLIC "-//W3C//DTD SVG 1.1//EN" "http://www.w3.org/Graphics/SVG/1.1/DTD/svg11.dtd"><svg t="1642129539553" class="icon" viewBox="0 0 1024 1024" version="1.1" xmlns="http://www.w3.org/2000/svg" p-id="15585" xmlns:xlink="http://www.w3.org/1999/xlink" width="200" height="200"><defs><style type="text/css"></style></defs><path d="M864.768 264.96L544.832 73.408a63.936 63.936 0 0 0-65.664 0L159.232 264.96a64 64 0 0 0-31.104 54.912v390.976a64 64 0 0 0 32 55.36L480 950.912a63.936 63.936 0 0 0 64 0l319.872-184.704a64 64 0 0 0 32-55.36v-391.04a64 64 0 0 0-31.104-54.848zM512 128.32l288.768 172.928-289.024 173.184-288.64-173.12L512 128.32zM192.128 357.248L479.744 529.92V876.8l-287.616-166.016V357.248z m351.552 519.936V529.92l288.192-172.736v353.728l-288.192 166.4z" p-id="15586"></path></svg>