<?xml version="1.0" standalone="no"?><!DOCTYPE svg PUBLIC "-//W3C//DTD SVG 1.1//EN" "http://www.w3.org/Graphics/SVG/1.1/DTD/svg11.dtd"><svg class="icon" width="200px" height="200.00px" viewBox="0 0 1024 1024" version="1.1" xmlns="http://www.w3.org/2000/svg"><path fill="#2c2c2c" d="M765.952 425.472L725.504 496.64H793.6V443.904c0-23.04 2.56-57.344 3.072-79.872h-2.048c-9.216 19.968-18.432 40.96-28.672 61.44zM487.424 352.256c-25.6 0-45.568 20.48-45.568 118.784 0 98.816 19.968 122.368 45.568 122.368s46.08-23.552 46.08-122.368c0-98.304-20.48-118.784-46.08-118.784zM992.256 350.72c-51.712-174.08-210.432-306.688-406.528-334.848h-1.536c-2.048-0.512-4.096-0.512-5.632-0.512-2.56-0.512-4.608-0.512-7.168-1.024-20.48-3.072-41.984-4.096-63.488-4.096h-0.512-0.512C240.128 10.24 20.992 202.24 5.12 445.952c-1.024 12.288-1.536 24.576-1.536 36.864v7.68c-0.512 7.168 0 15.872 1.024 24.576 13.824 189.44 146.432 348.16 329.216 411.136 25.6 31.744 1.024 67.584-44.544 79.36-1.536 0.512-5.12 1.024-5.12 1.024 126.976 37.376 241.664-16.896 350.208-66.56 217.6-52.736 378.368-237.568 378.368-457.216-0.512-46.08-7.168-90.112-20.48-132.096zM289.792 562.176v97.28H210.432v-97.28H60.928V502.272l123.904-218.112h104.96v211.968l44.544 0.512c1.536 24.576 5.632 46.592 11.264 65.536H289.792zM487.424 660.48c-75.264 0-125.952-65.024-125.952-189.44s50.688-185.344 125.952-185.344 126.464 61.952 126.464 185.344c0 124.416-51.2 189.44-126.464 189.44z m437.248-98.304h-52.224v97.28h-79.36v-97.28h-160.768c5.12-16.896 8.704-36.864 10.752-58.368L768 284.672h104.96V496.64h51.712v65.536zM183.296 424.96l-40.96 71.168h68.096V443.392c0-23.04 2.56-57.344 3.584-79.872h-2.048c-9.216 19.968-18.432 40.96-28.672 61.44z" /></svg>