<?xml version="1.0" standalone="no"?><!DOCTYPE svg PUBLIC "-//W3C//DTD SVG 1.1//EN" "http://www.w3.org/Graphics/SVG/1.1/DTD/svg11.dtd"><svg t="1609209433348" class="icon" viewBox="0 0 1024 1024" version="1.1" xmlns="http://www.w3.org/2000/svg" p-id="3772" xmlns:xlink="http://www.w3.org/1999/xlink" width="200" height="200"><defs><style type="text/css"></style></defs><path d="M97.364107 1023.819326a37.098394 37.098394 0 0 1 0-74.136564h118.823267a36.737046 36.737046 0 0 1 3.49303-14.213021l89.734753-192.417809a367.852261 367.852261 0 0 1-173.989061-312.023996A374.055402 374.055402 0 0 1 511.95071 60.224666c5.179321 0 10.418867 0 15.658413 0.301124A180.071752 180.071752 0 0 1 662.512375 0h120.449333a180.673999 180.673999 0 0 1 92.625536 335.752514 367.370464 367.370464 0 0 1-161.040757 407.299418l89.734753 192.718932a36.977945 36.977945 0 0 1 3.49303 14.152797h118.763042a37.098394 37.098394 0 0 1 0 74.136564z m197.476681-74.136564h434.340293l-80.881727-173.447039a382.245957 382.245957 0 0 1-272.576839 0zM210.827379 431.027936a301.123331 301.123331 0 0 0 602.246662 0 291.969182 291.969182 0 0 0-8.792801-70.884432A184.287479 184.287479 0 0 1 782.961708 361.347997h-56.550962a218.37464 218.37464 0 0 1 11.201788 69.55949 225.782274 225.782274 0 1 1-253.304946-220.663177 180.673999 180.673999 0 0 1 3.252132-74.618362A298.714345 298.714345 0 0 0 210.827379 431.027936z m188.141857 0a112.921249 112.921249 0 0 0 225.782274 0A110.692937 110.692937 0 0 0 575.186609 339.064871a154.416044 154.416044 0 0 1-10.117744-6.022467 113.282597 113.282597 0 0 0-53.118155-13.369876 112.138329 112.138329 0 0 0-112.921249 111.174734zM562.117857 180.673999a85.880374 85.880374 0 0 0 80.339704 90.336999h154.295595A85.880374 85.880374 0 0 0 877.092861 180.673999a85.820149 85.820149 0 0 0-80.339705-90.337H642.457561A85.820149 85.820149 0 0 0 562.117857 180.673999zM436.669877 430.847262a75.280833 75.280833 0 1 1 75.280833 74.07634 74.799035 74.799035 0 0 1-75.280833-74.07634zM597.951533 252.943598l59.321296-144.539199h53.419279l50.769394 143.033583h-46.734341l-7.768982-23.48762h-52.576134L644.444975 252.943598z m69.860613-60.224666h27.462448l-12.707405-38.604011z m122.075398 59.62242V108.404399h42.940187v143.936953z" p-id="3773" fill="#52c41a"></path></svg>