<?xml version="1.0" standalone="no"?><!DOCTYPE svg PUBLIC "-//W3C//DTD SVG 1.1//EN" "http://www.w3.org/Graphics/SVG/1.1/DTD/svg11.dtd"><svg t="1609209394545" class="icon" viewBox="0 0 1824 1024" version="1.1" xmlns="http://www.w3.org/2000/svg" p-id="3559" xmlns:xlink="http://www.w3.org/1999/xlink" width="356.25" height="200"><defs><style type="text/css"></style></defs><path d="M1420.667114 251.768199l230.369659-132.255754C1693.738039 93.866134 1727.879889 115.232737 1727.879889 157.870127v669.886095c0 46.933067-34.14185 63.988023-76.843116 38.38962L1420.667114 733.890088c-42.669328-25.614372-76.811178-51.212775-76.811178-93.850165V341.354625c-0.015969-42.653359 34.14185-64.019961 76.811178-89.586426z" p-id="3560" fill="#52c41a"></path><path d="M1053.746024 0H183.304504c-89.586426 0-162.133866 72.515501-162.133866 162.165804v699.70033c0 89.634333 72.547439 162.133866 162.133866 162.133866h870.457489c89.586426 0 162.101928-72.499532 162.101927-162.133866V162.165804c-0.015969-89.634333-72.515501-162.165804-162.117896-162.165804zM528.922868 392.551432c-12.823155 59.740253-59.756222 106.657351-115.232736 119.480506-106.657351 21.334664-196.259747-72.563408-174.909114-174.97299 12.759279-59.724284 59.724284-106.657351 115.216768-115.16886 106.609444-25.598403 196.243778 63.988023 174.925082 170.661344z m371.18483 519.1222l-42.110411-114.514129h-156.720355l-40.705133 114.514129h-58.766141l140.895016-399.130684h73.345892l146.963259 399.130684h-62.902127z m182.478448 0H1023.356903V512.542948h59.229243v399.130684z" p-id="3561" fill="#52c41a"></path><path d="M777.497256 559.188572c-9.773065 34.892396-32.497037 101.451438-61.640572 187.812114h127.624727c-36.201859-100.988335-56.578379-156.369035-65.409269-187.812114h-0.574886z" p-id="3562" fill="#52c41a"></path></svg>