<?xml version="1.0" standalone="no"?><!DOCTYPE svg PUBLIC "-//W3C//DTD SVG 1.1//EN" "http://www.w3.org/Graphics/SVG/1.1/DTD/svg11.dtd"><svg t="1670912657440" class="icon" viewBox="0 0 1024 1024" version="1.1" xmlns="http://www.w3.org/2000/svg" p-id="2599" xmlns:xlink="http://www.w3.org/1999/xlink" width="200" height="200"><path d="M589.351385 331.776a218.820923 218.820923 0 0 1 218.899692 218.820923l-0.078769 332.563692h155.963077c8.507077 0 15.753846 5.907692 17.565538 13.784616l0.472615 4.096v69.316923a17.959385 17.959385 0 0 1-18.116923 17.880615H55.138462a17.959385 17.959385 0 0 1-18.116924-17.880615v-69.316923c0-9.846154 8.034462-17.880615 18.116924-17.880616h153.6V550.596923a218.820923 218.820923 0 0 1 218.820923-218.820923h161.949538z m0 105.078154H427.559385c-62.227692 0-112.718769 49.860923-113.821539 111.852308v334.454153h389.513846V550.596923c0-62.227692-49.860923-112.718769-111.931077-113.742769h-1.96923zM185.107692 135.955692a17.880615 17.880615 0 0 1 25.284923 0l102.951385 103.030154c7.010462 6.931692 7.089231 18.274462 0.157538 25.284923l-48.994461 49.073231a18.038154 18.038154 0 0 1-25.442462-0.157538L136.113231 210.235077a17.959385 17.959385 0 0 1 0-25.363692l48.994461-48.994462z m649.29477 0l48.994461 48.915693a17.801846 17.801846 0 0 1-0.078769 25.363692L780.445538 313.186462a18.116923 18.116923 0 0 1-25.442461 0.157538l-48.994462-49.073231a17.959385 17.959385 0 0 1 0.157539-25.363692l102.872615-102.951385a17.959385 17.959385 0 0 1 25.363693 0zM545.083077 42.299077a18.116923 18.116923 0 0 1 18.116923 18.116923v145.486769a17.959385 17.959385 0 0 1-4.017231 11.264l-1.024 1.102769a17.801846 17.801846 0 0 1-14.020923 6.774154h-69.316923a17.959385 17.959385 0 0 1-17.801846-18.038154V60.494769a18.116923 18.116923 0 0 1 18.116923-18.116923h69.947077z" p-id="2600"></path></svg>