<?xml version="1.0" standalone="no"?><!DOCTYPE svg PUBLIC "-//W3C//DTD SVG 1.1//EN" "http://www.w3.org/Graphics/SVG/1.1/DTD/svg11.dtd"><svg t="1608875383436" class="icon" viewBox="0 0 1293 1024" version="1.1" xmlns="http://www.w3.org/2000/svg" p-id="6204" xmlns:xlink="http://www.w3.org/1999/xlink" width="252.5390625" height="200"><defs><style type="text/css"></style></defs><path d="M743.316 54.65l487.155 797.156A113.179 113.179 0 0 1 1133.89 1024H159.528a113.179 113.179 0 0 1-96.471-172.194L550.265 54.703a113.179 113.179 0 0 1 187.015-8.892l6.036 8.838z m395.156 853.369L651.318 110.915l-0.755-1.078-1.024-0.754a5.39 5.39 0 0 0-7.383 1.778L155 907.965a5.39 5.39 0 0 0 4.581 8.246h974.363a5.39 5.39 0 0 0 4.581-8.192z" p-id="6205"></path><path d="M646.737 323.368a75.29 75.29 0 0 1 75.075 80.627l-17.354 242.904a57.883 57.883 0 0 1-115.442 0L571.66 403.995a75.29 75.29 0 0 1 75.076-80.627zM592.842 808.421a53.895 53.895 0 1 0 107.79 0 53.895 53.895 0 1 0-107.79 0z" p-id="6206"></path></svg>