<?xml version="1.0" encoding="UTF-8"?>
<svg width="18px" height="15px" viewBox="0 0 18 15" version="1.1" xmlns="http://www.w3.org/2000/svg" xmlns:xlink="http://www.w3.org/1999/xlink">
    <!-- Generator: Sketch 64 (93537) - https://sketch.com -->
    <title>交叉箭头</title>
    <desc>Created with Sketch.</desc>
    <g id="视频监控windows客户端" stroke="none" stroke-width="1" fill="none" fill-rule="evenodd">
        <g id="实时预览-配色3-copy-3" transform="translate(-907.000000, -474.000000)" fill="#000000" fill-rule="nonzero">
            <g id="交叉箭头" transform="translate(907.000000, 474.000000)">
                <path d="M0.864739516,3.75095215 L3.3224026,3.75095215 L6.35656358,6.89003906 L7.5474809,5.66632324 L4.26678612,2.28021973 C4.11084493,2.11813726 3.89602455,2.02627216 3.67134208,2.02558594 L0.864739516,2.02558594 C0.387157066,2.02558594 0,2.41352421 0,2.89207031 C0,3.37061641 0.387157066,3.75855468 0.864739516,3.75855469 L0.864739516,3.75095215 Z M14.6170687,3.75095215 L15.1139226,3.75095215 L14.5867344,4.29440918 C14.427936,4.45825223 14.3394459,4.67786804 14.3402006,4.90625977 C14.3381766,5.1343562 14.4271906,5.35380787 14.5874481,5.51581369 C14.7477056,5.67781952 14.9659205,5.76894847 15.1935666,5.76893555 C15.418252,5.76825712 15.6330781,5.67639712 15.7890252,5.51431641 L17.7422618,3.49633301 C18.0707574,3.15482551 18.0707574,2.61411004 17.7422618,2.27260254 L15.7776371,0.254648437 C15.6247003,0.0950110404 15.4143839,0.0033153371 15.1935666,0 C14.9672347,0.00300245692 14.7513657,0.0959847177 14.5934595,0.258486917 C14.4355533,0.420989116 14.3485482,0.639696426 14.3515887,0.866484375 C14.3508263,1.0948791 14.4393113,1.31450058 14.5981079,1.47834961 L15.1252961,2.01799805 L12.6524586,2.01799805 C12.4266529,2.02065763 12.2116614,2.115328 12.0569999,2.28020508 L3.3224026,11.2528711 L0.864739516,11.2528711 C0.388549003,11.254833 0.00355547357,11.6421928 0.00355547357,12.1193481 C0.00355547357,12.5965035 0.388549003,12.9838633 0.864739516,12.9858252 L3.67134208,12.9858252 C3.89611225,12.9855809 4.11109594,12.8936512 4.26678612,12.7312061 L12.9900099,3.7509668 L14.6170687,3.75095215 Z M15.7776371,9.50088867 C15.627268,9.33564778 15.4166202,9.23833437 15.1935666,9.23106445 C14.9672347,9.23406691 14.7513657,9.32704917 14.5934595,9.48955137 C14.4355533,9.65205357 14.3485482,9.87076088 14.3515887,10.0975488 C14.3508301,10.3259385 14.4393148,10.545554 14.5981079,10.7093994 L15.1252961,11.2528564 L13.0013834,11.2528564 L9.9482617,8.11375488 L8.74597084,9.33748535 L12.0456118,12.7311914 C12.201559,12.8932721 12.416385,12.9851321 12.6410704,12.9858105 L15.1025344,12.9858105 L14.5867344,13.525459 C14.4279324,13.6893057 14.339442,13.9089274 14.3402006,14.1373242 C14.3381766,14.3654207 14.4271906,14.5848723 14.5874481,14.7468781 C14.7477056,14.908884 14.9659205,15 15.1935666,15 C15.418252,14.9993216 15.6330781,14.9074616 15.7890252,14.7453809 L17.7536353,12.7273828 C18.0821216,12.3858772 18.0821216,11.8451726 17.7536353,11.503667 L15.7776371,9.50088867 Z" id="Shape"></path>
            </g>
        </g>
    </g>
</svg>