<?xml version="1.0" encoding="utf-8"?>
<!-- Generator: Adobe Illustrator 24.2.3, SVG Export Plug-In . SVG Version: 6.00 Build 0)  -->
<svg version="1.1" id="Layer_1" xmlns="http://www.w3.org/2000/svg" xmlns:xlink="http://www.w3.org/1999/xlink" x="0px" y="0px"
	 viewBox="0 0 243 238" style="enable-background:new 0 0 243 238;" xml:space="preserve">
<path d="M123.8,1.1v22.2c52.8,0,95.7,42.9,95.7,95.7s-42.9,95.7-95.7,95.7S28.1,171.8,28.1,119c0-22.7,8.2-44.7,22.7-61.8v28.9h22.2
	v-69H1.4v22.2h35.4C17,61,5.9,89.5,5.9,119c0,65,52.9,117.9,117.9,117.9S241.7,184,241.7,119S188.8,1.1,123.8,1.1z"/>
<path d="M168.7,115L97.7,74c-0.6-0.4-1.4,0.1-1.4,0.9v82c0,0.7,0.7,1.1,1.4,0.9l70.9-41C169.3,116.4,169.3,115.4,168.7,115
	L168.7,115z"/>
</svg>
