<?xml version="1.0" standalone="no"?><!DOCTYPE svg PUBLIC "-//W3C//DTD SVG 1.1//EN" "http://www.w3.org/Graphics/SVG/1.1/DTD/svg11.dtd"><svg class="icon" width="200px" height="200.00px" viewBox="0 0 1024 1024" version="1.1" xmlns="http://www.w3.org/2000/svg"><path fill="#2c2c2c" d="M992.256 943.104c-1.024 3.584-2.048 7.68-4.608 10.752-4.096 5.12-10.752 9.216-18.944-6.656 0 0-139.776-421.376-479.232-333.824-11.776 3.072-20.48 14.336-20.48 26.624V757.248c-1.536 11.776-11.776 72.704-74.24 26.624-0.512-0.512-1.536-1.024-2.048-1.536L47.616 484.352c-1.024-1.024-2.048-1.536-3.584-2.56-10.24-6.144-64.512-44.032 5.12-93.696 0.512-0.512 1.024-1.024 2.048-1.536l349.696-300.544c1.024-1.024 2.048-1.536 3.072-2.56 9.216-6.144 50.688-28.672 62.976 22.528 0.512 2.048 0.512 4.096 0.512 6.144l0.512 118.784c0 13.824 10.24 25.6 24.064 27.136C609.28 271.872 1110.016 363.52 992.256 943.104z" /></svg>
