<?xml version="1.0" standalone="no"?><!DOCTYPE svg PUBLIC "-//W3C//DTD SVG 1.1//EN" "http://www.w3.org/Graphics/SVG/1.1/DTD/svg11.dtd"><svg t="1621345711233" class="icon" viewBox="0 0 1024 1024" version="1.1" xmlns="http://www.w3.org/2000/svg" p-id="5299" xmlns:xlink="http://www.w3.org/1999/xlink" width="200" height="200"><defs><style type="text/css"></style></defs><path d="M778.688 32a160 160 0 0 1 160 160v640a160 160 0 0 1-160 160H245.312a160 160 0 0 1-160-160V192a160 160 0 0 1 160-160h533.376z m0 80H245.312A80 80 0 0 0 165.76 184.32L165.312 192v640c0 41.6 31.744 75.776 72.32 79.616l7.68 0.384h533.376a80 80 0 0 0 79.616-72.32l0.384-7.68V192a80 80 0 0 0-72.32-79.616l-7.68-0.384zM338.688 583.616h346.624a40 40 0 0 1 0 80H338.688a40 40 0 1 1 0-80z m37.12-338.176l4.544 3.84 131.776 131.072 131.84-131.072a40 40 0 0 1 60.288 52.288l-3.84 4.48-118.336 117.504h103.232a40 40 0 1 1 0 80h-133.12v294.016a40 40 0 0 1-79.68 5.376l-0.32-5.376V503.552H338.624a40 40 0 1 1 0-80h103.488L323.968 306.048a40 40 0 0 1 51.84-60.608z" p-id="5300"></path></svg>