<?xml version="1.0" encoding="UTF-8"?>
<svg width="16px" height="16px" viewBox="0 0 16 16" version="1.1" xmlns="http://www.w3.org/2000/svg" xmlns:xlink="http://www.w3.org/1999/xlink">
    <title>back</title>
    <g id="Web端" stroke="none" stroke-width="1" fill="none" fill-rule="evenodd">
        <g id="电子地图--点位查看" transform="translate(-834.000000, -323.000000)" fill="#666666" fill-rule="nonzero">
            <g id="气泡提示/左边中部-copy" transform="translate(784.500000, 311.000000)">
                <g id="back" transform="translate(49.500000, 12.000000)">
                    <path d="M7.03670003,11.1503428 C6.84251346,11.1503428 6.6563731,11.0727669 6.51967137,10.93485 C6.38296964,10.7969332 6.30703944,10.6101135 6.30873675,10.4159346 L6.36457386,5.57678795 C6.36886769,5.30277199 6.52455699,5.0536691 6.7689819,4.92973507 C7.00436869,4.80753859 7.28758719,4.82303194 7.50823981,4.97017588 L11.3517339,7.35699218 C11.5445152,7.4926715 11.6596558,7.71330757 11.6607069,7.94904556 C11.6616015,8.18874656 11.5457199,8.41387063 11.3501163,8.55242236 L11.3282782,8.56698105 L7.45081387,11.0225467 C7.32895201,11.1062006 7.18451105,11.1507742 7.03670003,11.1503428 Z M7.33110909,6.00384285 L7.28743302,9.97755632 L10.4782125,7.95551609 L7.33110909,6.00384285 Z" id="Shape"></path>
                    <path d="M8,0 C5.73511767,-0.00111461974 3.57616614,0.959007342 2.0600546,2.64159434 L2.0552017,0.80396417 C2.0552017,0.535946093 1.83793012,0.318674513 1.56991204,0.318674513 C1.30189396,0.318674513 1.08462238,0.535946093 1.08462238,0.80396417 L1.09432818,4.2123152 L4.57223739,4.20180059 C4.84025546,4.20180059 5.05752704,3.98452901 5.05752704,3.71651093 C5.05752704,3.44849285 4.84025546,3.23122127 4.57223739,3.23122127 L2.83085633,3.24011825 C5.12182527,0.754380474 8.85780479,0.251612815 11.7244026,2.04327351 C14.5910004,3.8349342 15.7761225,7.41345399 14.5456006,10.5619849 C13.3150788,13.7105158 10.0175142,15.5370935 6.6957066,14.9101761 C3.37389903,14.2832586 0.968901338,11.3804489 0.970579315,8 C0.970579315,7.73198289 0.753307734,7.51471131 0.485289657,7.51471131 C0.21727158,7.51471131 0,7.73198289 0,8 C0,12.418279 3.581722,16 8,16 C12.418278,16 16,12.418279 16,8 C16,3.58172297 12.418278,0 8,0 Z" id="Path"></path>
                </g>
            </g>
        </g>
    </g>
</svg>