<?xml version="1.0" encoding="utf-8"?>
<!-- Generator: Adobe Illustrator 26.3.1, SVG Export Plug-In . SVG Version: 6.00 Build 0)  -->
<svg version="1.1" id="Layer_1" xmlns="http://www.w3.org/2000/svg" xmlns:xlink="http://www.w3.org/1999/xlink" x="0px" y="0px"
	 viewBox="0 0 39.9 64.7" style="enable-background:new 0 0 39.9 64.7;" xml:space="preserve">
<style type="text/css">
	.st0{fill-rule:evenodd;clip-rule:evenodd;fill:#F9F9F9;stroke:#178DE5;stroke-width:2;}
	.st1{filter:url(#filter-2);}
	.st2{fill:#1B9EFF;fill-opacity:0.3775;stroke:#178DE5;}
</style>
<filter  filterUnits="objectBoundingBox" height="152.2%" id="filter-2" width="169.8%" x="-34.9%" y="-19.8%">
	<feMorphology  in="SourceAlpha" operator="dilate" radius="0.5" result="shadowSpreadOuter1"></feMorphology>
	<feOffset  dx="0" dy="2" in="shadowSpreadOuter1" result="shadowOffsetOuter1"></feOffset>
	<feGaussianBlur  in="shadowOffsetOuter1" result="shadowBlurOuter1" stdDeviation="4"></feGaussianBlur>
	<feComposite  in="shadowBlurOuter1" in2="SourceAlpha" operator="out" result="shadowBlurOuter1"></feComposite>
	
		<feColorMatrix  in="shadowBlurOuter1" type="matrix" values="0 0 0 0 0.784313725   0 0 0 0 0.788235294   0 0 0 0 0.8  0 0 0 0.5 0">
		</feColorMatrix>
</filter>
<g id="Web端">
	<g id="电子地图--点位编辑" transform="translate(-730.000000, -262.000000)">
		<g id="Group-5" transform="translate(739.000000, 269.000000)">
			<circle id="圆点" class="st0" cx="10.6" cy="53.5" r="3"/>
			<g id="Path-Copy-2">
				<g class="st1">
					<path id="path-1_00000005241579104836221080000011534023266709669779_" d="M10.9-6.5C0.8-6.5-8.4,1.8-8.4,11.9
						C-8.4,27,7,28.6,10.9,51.5C14.8,28.6,30.2,27,30.2,11.9C30.2,1.8,21.1-6.5,10.9-6.5z"/>
				</g>
				<g>
					<path id="path-1_00000121278343756169946410000008942686890126679724_" class="st2" d="M10.9-6.5C0.8-6.5-8.4,1.8-8.4,11.9
						C-8.4,27,7,28.6,10.9,51.5C14.8,28.6,30.2,27,30.2,11.9C30.2,1.8,21.1-6.5,10.9-6.5z"/>
				</g>
			</g>
		</g>
	</g>
</g>
</svg>
