<?xml version="1.0" encoding="UTF-8"?>
<svg width="16px" height="16px" viewBox="0 0 16 16" version="1.1" xmlns="http://www.w3.org/2000/svg" xmlns:xlink="http://www.w3.org/1999/xlink">
    <title>play</title>
    <g id="Web端" stroke="none" stroke-width="1" fill="none" fill-rule="evenodd">
        <g id="电子地图--点位查看" transform="translate(-806.000000, -323.000000)" fill="#666666" fill-rule="nonzero">
            <g id="气泡提示/左边中部-copy" transform="translate(784.500000, 311.000000)">
                <g id="play" transform="translate(21.500000, 12.000000)">
                    <path d="M8,0 C3.57894736,0 0,3.57894736 0,8 C0,12.4210526 3.57894736,16 8,16 C12.4210526,16 16,12.4210526 16,8 C16,3.57894736 12.4210526,0 8,0 Z M8,14.9473684 C4.21052631,14.9473684 1.05263158,11.8596491 1.05263158,8 C1.05263158,4.14035088 4.21052631,1.05263158 8,1.05263158 C11.7894737,1.05263158 14.9473684,4.14035088 14.9473684,8 C14.9473684,11.8596491 11.7894737,14.9473684 8,14.9473684 Z" id="Shape"></path>
                    <path d="M7.50877193,4.84210526 C7.36842105,4.77192982 7.22807017,4.70175439 7.0877193,4.70175439 C6.7368421,4.70175439 6.45614035,4.98245614 6.45614035,5.33333334 L6.45614035,10.6666667 C6.45614035,10.8070175 6.52631579,10.9473684 6.59649122,11.0877193 C6.80701755,11.3684211 7.22807017,11.4385965 7.50877193,11.2280702 L11.0175439,8.5614035 C11.1578947,8.42105263 11.2982456,8.21052631 11.2982456,8 C11.2982456,7.78947368 11.2280702,7.57894737 11.0175439,7.4385965 L7.50877193,4.84210526 L7.50877193,4.84210526 Z M7.4385965,9.96491227 L7.4385965,5.96491227 L10.1052632,8 L7.4385965,9.96491227 L7.4385965,9.96491227 Z" id="Shape"></path>
                </g>
            </g>
        </g>
    </g>
</svg>