<svg t="1653294355926" class="icon" viewBox="0 0 1024 1024" version="1.1" xmlns="http://www.w3.org/2000/svg" p-id="3071" width="64" height="64"><path d="M737.235834 801.039999 737.235834 677.147294 286.765189 677.147294l0 123.892705L102.513792 801.039999 102.513792 677.147294 102.513792 573.945841 102.513792 470.688105l61.374836-82.58081-30.715559 0c-16.936741 0-30.659277-13.890358-30.659277-30.970362 0-17.081027 13.722536-30.975479 30.659277-30.975479l61.426001 0c4.732791 0 9.098215 1.266853 13.043061 3.149736l79.123059-106.35119 450.470645 0 79.122035 106.35119c3.944845-1.87879 8.31027-3.149736 13.043061-3.149736l61.421908 0c16.940834 0 30.66337 13.894452 30.66337 30.975479 0 17.080004-13.722536 30.970362-30.66337 30.970362l-30.710442 0 61.373813 82.58081 0 103.257735 0 103.201453 0 123.892705L737.235834 801.039999 737.235834 801.039999 737.235834 801.039999zM184.378288 470.688105c0 22.855544 18.351973 41.311895 40.959877 41.311895l61.427024 0c22.607904 0 40.955784-18.456351 40.955784-41.311895 0-22.765493-18.34788-41.268916-40.955784-41.268916l-61.427024 0C202.730261 429.41919 184.378288 447.922612 184.378288 470.688105L184.378288 470.688105 184.378288 470.688105zM707.775872 264.215614 312.379567 264.215614l-92.165096 123.891681 579.726497 0L707.775872 264.215614 707.775872 264.215614 707.775872 264.215614zM798.661835 429.41919l-61.426001 0c-22.608927 0-40.960901 18.503423-40.960901 41.268916 0 22.855544 18.351973 41.311895 40.960901 41.311895l61.426001 0c22.608927 0 40.955784-18.456351 40.955784-41.311895C839.617619 447.922612 821.270762 429.41919 798.661835 429.41919L798.661835 429.41919 798.661835 429.41919zM798.661835 429.41919" p-id="3072"></path></svg>
