<?xml version="1.0" standalone="no"?><!DOCTYPE svg PUBLIC "-//W3C//DTD SVG 1.1//EN" "http://www.w3.org/Graphics/SVG/1.1/DTD/svg11.dtd"><svg t="1646030612405" class="icon" viewBox="0 0 1024 1024" version="1.1" xmlns="http://www.w3.org/2000/svg" p-id="4311" xmlns:xlink="http://www.w3.org/1999/xlink" width="200" height="200"><defs><style type="text/css"></style></defs><path d="M618 768.1c0 26 21.1 47 47 47 26 0 47-21.1 47-47 0-26-21.1-47-47-47-26-0.1-47 21-47 47z m0 0M236 290.7h449.7v64H236zM235.7 479.4H581v64H235.7z" fill="#666666" p-id="4312"></path><path d="M350.5 926.3H174.4c-42.5 0-77-34.5-77-77V175.7c0-42.5 34.5-77 77-77h611.4c42.5 0 77 34.5 77 77v336.8h-61.3V175.7c0-8.7-7-15.7-15.7-15.7H174.4c-8.7 0-15.7 7-15.7 15.7v673.5c0 8.7 7 15.7 15.7 15.7h176.1v61.4z" fill="#666666" p-id="4313"></path><path d="M665.1 671.2c54.7 0 107.5 34.4 142.1 63.3 13.5 11.2 25.4 22.6 35.4 32.8-10 10.2-21.9 21.6-35.4 32.8-34.7 28.9-87.4 63.3-142.1 63.3S557.7 829 523 800.2c-13.5-11.2-25.4-22.6-35.4-32.8 10-10.2 21.9-21.6 35.4-32.8 34.7-29 87.4-63.4 142.1-63.4m0-64c-144.8 0-262.3 160.1-262.3 160.1s117.4 160.1 262.3 160.1 262.3-160.1 262.3-160.1S810 607.2 665.1 607.2z" fill="#666666" p-id="4314"></path></svg>