<?xml version="1.0" standalone="no"?><!DOCTYPE svg PUBLIC "-//W3C//DTD SVG 1.1//EN" "http://www.w3.org/Graphics/SVG/1.1/DTD/svg11.dtd"><svg class="icon" width="200px" height="200.00px" viewBox="0 0 1024 1024" version="1.1" xmlns="http://www.w3.org/2000/svg"><path fill="#2c2c2c" d="M704.512 462.336h-150.016v-215.04c0-22.528-18.432-40.96-40.96-40.96s-40.96 18.432-40.96 40.96v256c0 22.528 18.432 40.96 40.96 40.96h190.976c22.528 0 40.96-18.432 40.96-40.96s-17.92-40.96-40.96-40.96zM513.536 20.992C245.248 20.992 26.624 239.616 26.624 507.904s218.624 486.912 486.912 486.912 486.912-218.624 486.912-486.912-218.624-486.912-486.912-486.912z m0 891.904c-223.232 0-404.992-181.76-404.992-404.992s181.76-404.992 404.992-404.992 404.992 181.76 404.992 404.992-181.76 404.992-404.992 404.992z" /></svg>