<?xml version="1.0" standalone="no"?><!DOCTYPE svg PUBLIC "-//W3C//DTD SVG 1.1//EN" "http://www.w3.org/Graphics/SVG/1.1/DTD/svg11.dtd"><svg t="1600226372969" class="icon" viewBox="0 0 1024 1024" version="1.1" xmlns="http://www.w3.org/2000/svg" p-id="12545" xmlns:xlink="http://www.w3.org/1999/xlink" width="200" height="200"><defs><style type="text/css"></style></defs><path d="M512 121.6c217.6 0 390.4 172.8 390.4 390.4S729.6 902.4 512 902.4 121.6 729.6 121.6 512 294.4 121.6 512 121.6m0-89.6C246.4 32 32 249.6 32 512s217.6 480 480 480 480-217.6 480-480S774.4 32 512 32z" p-id="12546"></path><path d="M675.2 512H508.8V284.8c0-25.6-19.2-41.6-41.6-41.6H464c-25.6 0-41.6 19.2-41.6 41.6v272c0 25.6 19.2 41.6 41.6 41.6h214.4c25.6 0 44.8-22.4 44.8-44.8s-22.4-41.6-48-41.6z" p-id="12547"></path></svg>