<?xml version="1.0" standalone="no"?><!DOCTYPE svg PUBLIC "-//W3C//DTD SVG 1.1//EN" "http://www.w3.org/Graphics/SVG/1.1/DTD/svg11.dtd"><svg class="icon" width="200px" height="200.00px" viewBox="0 0 1024 1024" version="1.1" xmlns="http://www.w3.org/2000/svg"><path fill="#2c2c2c" d="M601.6 506.368l357.376-357.376c18.944-18.944 18.944-50.176 0-69.12s-50.176-18.944-69.12 0L532.48 437.248 175.104 80.384c-18.944-18.944-50.176-18.944-69.12 0s-18.944 50.176 0 69.12L463.36 506.88l-357.376 357.376c-18.944 18.944-18.944 50.176 0 69.12 9.728 9.728 22.016 14.336 34.304 14.336s25.088-4.608 34.304-14.336l357.376-357.376 357.376 357.376c9.728 9.728 22.016 14.336 34.304 14.336s25.088-4.608 34.304-14.336c18.944-18.944 18.944-50.176 0-69.12l-356.352-357.888z" /></svg>