<?xml version="1.0" encoding="utf-8"?>
<!-- Generator: Adobe Illustrator 24.2.3, SVG Export Plug-In . SVG Version: 6.00 Build 0)  -->
<svg version="1.1" id="Layer_1" xmlns="http://www.w3.org/2000/svg" xmlns:xlink="http://www.w3.org/1999/xlink" x="0px" y="0px"
	 viewBox="0 0 130 128" style="enable-background:new 0 0 130 128;" xml:space="preserve">
<path d="M121.4,2H28.8c-2.3,0-4.1,1.9-4.1,4.1v18.5h9.7V12h81.3v81.3H103v9.7h18.4c2.3,0,4.2-1.9,4.2-4.2V6.1
	C125.6,3.8,123.7,2,121.4,2z"/>
<path d="M93.6,34v82.3H11.3V34H93.6 M98.9,24.6H6c-2.2,0-4,1.8-4,4l0,0v92.9c0,2.2,1.8,4,4,4h92.9c2.2,0,4-1.8,4-4V28.6
	C102.9,26.4,101.2,24.6,98.9,24.6z"/>
<path d="M27.9,94.5l44.8-44.8l5.2,5.2L33.1,99.7L27.9,94.5z"/>
<path d="M72.7,99.7L27.9,54.9l5.2-5.2l44.8,44.8L72.7,99.7z"/>
</svg>
