<?xml version="1.0" standalone="no"?><!DOCTYPE svg PUBLIC "-//W3C//DTD SVG 1.1//EN" "http://www.w3.org/Graphics/SVG/1.1/DTD/svg11.dtd"><svg t="1615969667358" class="icon" viewBox="0 0 1024 1024" version="1.1" xmlns="http://www.w3.org/2000/svg" p-id="1620" xmlns:xlink="http://www.w3.org/1999/xlink" width="200" height="200"><defs><style type="text/css"></style></defs><path d="M128 42.666667c-47.36 0-85.333333 37.973333-85.333333 85.333333v469.333333c0 47.36 37.973333 85.333333 85.333333 85.333334h170.666667v170.666666c0 47.36 37.973333 85.333333 85.333333 85.333334h469.333333c47.36 0 85.333333-37.973333 85.333334-85.333334V384c0-47.36-37.973333-85.333333-85.333334-85.333333h-170.666666V128c0-47.36-37.973333-85.333333-85.333334-85.333333H128m0 85.333333h469.333333v170.666667H384c-47.36 0-85.333333 37.973333-85.333333 85.333333v213.333333H128V128m256 256h213.333333v213.333333H384V384m298.666667 0h170.666666v469.333333H384v-170.666666h213.333333c47.36 0 85.333333-37.973333 85.333334-85.333334V384z" fill="" p-id="1621"></path></svg>