<?xml version="1.0" standalone="no"?><!DOCTYPE svg PUBLIC "-//W3C//DTD SVG 1.1//EN" "http://www.w3.org/Graphics/SVG/1.1/DTD/svg11.dtd"><svg class="icon" width="200px" height="200.00px" viewBox="0 0 1024 1024" version="1.1" xmlns="http://www.w3.org/2000/svg"><path fill="#2c2c2c" d="M64.512 6.144h323.072C419.84 6.144 445.44 32.256 445.44 64v323.072C445.44 419.328 419.84 445.44 387.584 445.44H64.512C32.256 445.44 6.656 419.328 6.656 387.072V64c0-31.744 25.6-57.856 57.856-57.856zM64.512 570.368h323.072c32.256 0 57.856 26.112 57.856 57.856v323.072c0 32.256-26.112 57.856-57.856 57.856H64.512c-32.256 0-57.856-26.112-57.856-57.856v-323.072c0-31.744 25.6-57.856 57.856-57.856zM634.368 570.368H957.44c32.256 0 57.856 26.112 57.856 57.856v323.072c0 32.256-26.112 57.856-57.856 57.856h-323.072c-32.256 0-57.856-26.112-57.856-57.856v-323.072c0-31.744 26.112-57.856 57.856-57.856zM796.16 445.952c121.344 0 219.648-98.304 219.648-219.648S917.504 7.168 796.16 7.168s-219.648 98.304-219.648 219.648 98.304 219.136 219.648 219.136z" /></svg>