<?xml version="1.0" standalone="no"?><!DOCTYPE svg PUBLIC "-//W3C//DTD SVG 1.1//EN" "http://www.w3.org/Graphics/SVG/1.1/DTD/svg11.dtd"><svg t="1606284569757" class="icon" viewBox="0 0 1024 1024" version="1.1" xmlns="http://www.w3.org/2000/svg" p-id="2706" xmlns:xlink="http://www.w3.org/1999/xlink" width="200" height="200"><defs><style type="text/css"></style></defs><path d="M631.71758458 1005.16795734H255.57654439c-79.53643141 0-144.15978192-64.62335052-144.15978192-144.15978192V329.10829037c0-79.53643141 64.62335052-144.15978192 144.15978192-144.15978192h376.14104019c79.53643141 0 144.15978192 64.62335052 144.15978193 144.15978192v531.89988505c0 79.53643141-64.62335052 144.15978192-144.15978193 144.15978192z m-376.14104019-737.3689995c-33.96868425 0-61.30933253 27.3406483-61.30933255 61.30933253v531.89988505c0 33.96868425 27.3406483 61.30933253 61.30933255 61.30933253h376.14104019c33.96868425 0 61.30933253-27.3406483 61.30933255-61.30933253V329.10829037c0-33.96868425-27.3406483-61.30933253-61.30933255-61.30933253H255.57654439z" p-id="2707"></path><path d="M896.01051813 788.92828445c-23.19812583 0-41.42522469-18.22709886-41.42522471-41.42522469V259.51391289c0-86.16446736-69.59437748-155.75884483-155.75884484-155.75884483h-331.40179753c-23.19812583 0-41.42522469-18.22709886-41.42522469-41.4252247s18.22709886-41.42522469 41.42522469-41.42522469h331.40179753c131.73221452 0 238.60929422 106.8770797 238.60929423 238.60929422V747.50305976c0 22.36962133-18.22709886 41.42522469-41.42522468 41.42522469z" p-id="2708"></path></svg>