<?xml version="1.0" standalone="no"?><!DOCTYPE svg PUBLIC "-//W3C//DTD SVG 1.1//EN" "http://www.w3.org/Graphics/SVG/1.1/DTD/svg11.dtd"><svg t="1640861932883" class="icon" viewBox="0 0 1024 1024" version="1.1" xmlns="http://www.w3.org/2000/svg" p-id="15716" xmlns:xlink="http://www.w3.org/1999/xlink" width="200" height="200"><defs><style type="text/css"></style></defs><path d="M872.682 279.302c-19.293 0-34.904 15.634-34.904 34.905v639.92H186.223v-639.92c0-19.271-15.634-34.905-34.905-34.905-19.293 0-34.905 15.634-34.905 34.905v674.825c0 16.861 11.953 30.939 27.86 34.188a34.17 34.17 0 0 0 7.044 0.717h721.364c19.271 0 34.904-15.623 34.904-34.904V314.207c0.001-19.271-15.633-34.905-34.903-34.905z" p-id="15717"></path><path d="M418.921 826.143V430.556c0-19.271-15.635-34.905-34.905-34.905-19.293 0-34.904 15.634-34.904 34.905v395.587c0 19.27 15.611 34.904 34.904 34.904 19.27 0 34.905-15.635 34.905-34.904zM674.889 826.143V430.556c0-19.271-15.635-34.905-34.905-34.905-19.293 0-34.904 15.634-34.904 34.905v395.587c0 19.27 15.611 34.904 34.904 34.904 19.27 0 34.905-15.635 34.905-34.904zM989.03 159.067H826.143V34.969c0-19.282-15.635-34.905-34.905-34.905H232.762c-19.27 0-34.905 15.623-34.905 34.905v124.098H34.969c-19.27 0-34.904 15.623-34.904 34.905s15.634 34.905 34.904 34.905H989.03c19.271 0 34.905-15.623 34.905-34.905s-15.634-34.905-34.905-34.905zM267.667 69.874h488.666v89.193H267.667V69.874z" p-id="15718"></path></svg>