<?xml version="1.0" encoding="utf-8"?>
<!-- Generator: Adobe Illustrator 24.2.3, SVG Export Plug-In . SVG Version: 6.00 Build 0)  -->
<svg version="1.1" id="Layer_1" xmlns="http://www.w3.org/2000/svg" xmlns:xlink="http://www.w3.org/1999/xlink" x="0px" y="0px"
	 viewBox="0 0 169.9 130.6" style="enable-background:new 0 0 169.9 130.6;" xml:space="preserve">
<style type="text/css">
	.st0{fill:#2C2C2C;}
</style>
<path class="st0" d="M169.9,40.9c0-9.7-8-17.7-17.7-17.7H90.5c-3,0-5.5-2.5-5.5-5.5C85,8,77,0,67.3,0H12.2C5.5,0.1,0,5.6,0,12.3
	v31.5v61v9.9c0,8.8,7.1,15.9,15.9,15.9H154c8.8,0,15.9-7.1,15.9-15.9V43.8c0-0.4,0-0.8-0.1-1.2c0-0.2,0.1-0.5,0.1-0.7V40.9z"/>
</svg>
