<?xml version="1.0" standalone="no"?><!DOCTYPE svg PUBLIC "-//W3C//DTD SVG 1.1//EN" "http://www.w3.org/Graphics/SVG/1.1/DTD/svg11.dtd"><svg class="icon" width="200px" height="200.00px" viewBox="0 0 1024 1024" version="1.1" xmlns="http://www.w3.org/2000/svg"><path fill="#2c2c2c" d="M908.8 881.152c0 34.304-28.16 62.464-62.464 62.464H104.96c-17.92 0-31.232-16.384-27.648-34.304l100.864-466.944c0.512-1.536 0.512-3.584 0.512-5.12 1.536-32.768 28.672-59.392 61.952-59.392h714.752c32.768 0 59.904 26.112 61.952 58.368 0 2.56 0 5.12-1.024 7.68l-107.52 437.248zM179.2 310.784h670.72c15.36 0 28.16-12.8 28.16-28.16v-5.12c0-49.664-40.96-90.624-90.624-90.624H471.552c-15.36 0-28.16-12.8-28.16-28.16 0-49.664-40.96-90.624-90.624-90.624H70.656c-34.304 0.512-62.464 28.672-62.464 62.976v473.6c0 33.792 48.128 38.912 55.808 6.144l52.224-235.008c0.512-1.536 0.512-3.072 0.512-4.608 1.536-33.792 28.672-60.416 62.464-60.416z" /></svg>