<?xml version="1.0" standalone="no"?><!DOCTYPE svg PUBLIC "-//W3C//DTD SVG 1.1//EN" "http://www.w3.org/Graphics/SVG/1.1/DTD/svg11.dtd"><svg class="icon" width="200px" height="200.00px" viewBox="0 0 1024 1024" version="1.1" xmlns="http://www.w3.org/2000/svg"><path fill="#2c2c2c" d="M888.32 293.376L625.664 31.744C614.4 20.48 599.04 13.824 582.656 13.824H208.384c-55.808 0-100.352 45.056-100.352 99.84v797.184c0 26.624 10.752 51.2 29.184 70.144 18.944 18.432 44.544 28.672 70.656 28.672h599.552c31.232 0 59.904-13.824 79.36-38.4 13.824-17.92 20.992-40.448 20.992-63.488V340.48c0-17.408-7.168-34.304-19.456-47.104z m-330.752-152.064c0-19.456 23.552-29.184 37.376-15.36l198.144 197.632c14.336 14.336 4.096 39.424-16.384 39.424h-184.832c-18.944 0-34.816-15.36-34.816-34.816V141.312h0.512zM540.16 834.56h-276.48c-22.528 0-40.96-18.432-40.96-40.96s18.432-40.96 40.96-40.96h276.48c22.528 0 40.96 18.432 40.96 40.96s-18.432 40.96-40.96 40.96z m234.496-221.696H263.68c-22.528 0-40.96-18.432-40.96-40.96s18.432-40.96 40.96-40.96h511.488c22.528 0 40.96 18.432 40.96 40.96s-18.944 40.96-41.472 40.96z" /></svg>