<?xml version="1.0" standalone="no"?><!DOCTYPE svg PUBLIC "-//W3C//DTD SVG 1.1//EN" "http://www.w3.org/Graphics/SVG/1.1/DTD/svg11.dtd"><svg class="icon" width="200px" height="200.00px" viewBox="0 0 1024 1024" version="1.1" xmlns="http://www.w3.org/2000/svg"><path fill="#2c2c2c" d="M535.552 527.36l176.64-176.64c18.432-18.432 5.12-49.664-20.48-49.664h-85.504c-15.872 0-29.184-12.8-29.184-29.184V58.368c0-15.872-12.8-29.184-29.184-29.184H482.304c-15.872 0-29.184 12.8-29.184 29.184v214.016c0 15.872-12.8 29.184-29.184 29.184H338.432c-26.112 0-38.912 31.232-20.48 49.664L494.592 527.36c11.264 11.264 29.696 11.264 40.96 0z m190.464-67.072l-24.064 24.064c-14.848 14.848-9.216 40.448 10.24 48.128l135.168 50.176c25.088 9.216 25.088 45.056 0 54.784l-290.304 108.032c-27.648 10.24-57.856 10.24-84.992 0l-290.304-108.032c-25.088-9.216-25.088-45.056 0-54.784l135.168-50.176c19.968-7.168 25.6-32.768 10.24-48.128l-24.064-24.064c-8.192-8.192-19.968-10.752-30.72-6.656l-232.448 87.04c-11.264 4.096-18.944 15.36-18.944 27.136v206.336c0 12.288 7.68 23.04 18.944 27.136l464.384 174.08c6.656 2.56 13.824 2.56 20.48 0l464.384-174.08c11.264-4.096 18.944-15.36 18.944-27.136V568.32c0-12.288-7.68-23.04-18.944-27.136l-232.448-87.04c-10.752-4.608-22.528-2.048-30.72 6.144z" /></svg>