<?xml version="1.0" encoding="utf-8"?>
<!-- Generator: Adobe Illustrator 24.2.3, SVG Export Plug-In . SVG Version: 6.00 Build 0)  -->
<svg version="1.1" id="Layer_1" xmlns="http://www.w3.org/2000/svg" xmlns:xlink="http://www.w3.org/1999/xlink" x="0px" y="0px"
	 viewBox="0 0 128 128" style="enable-background:new 0 0 128 128;" xml:space="preserve">
<path d="M13.5,0L0,13.5l23.6,23.7L8.8,52H52V8.9L37.2,23.7L13.5,0z M90.8,104.3l23.7,23.7l13.5-13.5l-23.6-23.7L119.2,76H76v43.1
	C76,119.1,90.8,104.3,90.8,104.3z M114.5,0L90.8,23.6L76,8.8V52h43.1l-14.8-14.8L128,13.5L114.5,0z M13.5,128l23.7-23.7l14.8,15V76
	H8.9l14.8,14.8L0,114.5L13.5,128z"/>
</svg>
