<?xml version="1.0" encoding="UTF-8"?>
<svg width="17px" height="17px" viewBox="0 0 17 17" version="1.1" xmlns="http://www.w3.org/2000/svg" xmlns:xlink="http://www.w3.org/1999/xlink">
    <title>Shape</title>
    <g id="Web端" stroke="none" stroke-width="1" fill="none" fill-rule="evenodd">
        <g id="fullscreen-exit" transform="translate(-2.000000, -2.000000)" fill="#333333" fill-rule="nonzero">
            <path d="M7.61935328,4.35653146 C7.60196316,4.21306294 7.42588816,4.15219751 7.32372119,4.25436449 L6.37378572,5.20429995 L3.46746142,2.30014942 C3.4000747,2.23276269 3.28921266,2.23276269 3.22182594,2.30014942 L2.30014942,3.21965217 C2.23276269,3.2870389 2.23276269,3.39790093 2.30014942,3.46528766 L5.20647372,6.37161196 L4.25219072,7.32589495 C4.15002375,7.42806193 4.21088918,7.60413692 4.35435769,7.62152704 L7.83672982,8.0323687 C7.94759185,8.04541129 8.04323753,7.95193938 8.03019493,7.83890358 L7.61935328,4.35653146 Z M7.83890358,12.4690238 L4.35435769,12.8798655 C4.21088918,12.8972556 4.15002375,13.0733306 4.25219072,13.1754976 L5.20647372,14.1297806 L2.30014942,17.0317573 C2.23276269,17.0991441 2.23276269,17.2100061 2.30014942,17.2773928 L3.22182594,18.1968956 C3.28921266,18.2642823 3.4000747,18.2642823 3.46746142,18.1968956 L6.37378572,15.292745 L7.32372119,16.2426805 C7.42588816,16.3448475 7.60196316,16.283982 7.61935328,16.1405135 L8.03019493,12.6603152 C8.04323753,12.5494531 7.94976561,12.4559812 7.83890358,12.4690238 Z M12.6603152,8.03019493 L16.1448611,7.61935328 C16.2883296,7.60196316 16.349195,7.42588816 16.247028,7.32372119 L15.292745,6.37161196 L18.1990693,3.46746142 C18.2664561,3.4000747 18.2664561,3.28921266 18.1990693,3.22182594 L17.2773928,2.30232319 C17.2100061,2.23493646 17.0991441,2.23493646 17.0317573,2.30232319 L14.125433,5.20429995 L13.1754976,4.25436449 C13.0733306,4.15219751 12.8972556,4.21306294 12.8798655,4.35653146 L12.4690238,7.83672982 C12.4559812,7.94976561 12.5494531,8.04323753 12.6603152,8.03019493 Z M15.292745,14.1276068 L16.247028,13.1733238 C16.349195,13.0711568 16.2883296,12.8950818 16.1448611,12.8776917 L12.6624889,12.4668501 C12.5516269,12.4538075 12.4559812,12.5472794 12.4690238,12.6603152 L12.8798655,16.1426873 C12.8972556,16.2861558 13.0733306,16.3470212 13.1754976,16.2448543 L14.125433,15.2949188 L17.0317573,18.1990693 C17.0991441,18.2664561 17.2100061,18.2664561 17.2773928,18.1990693 L18.1990693,17.2795666 C18.2664561,17.2121799 18.2664561,17.1013178 18.1990693,17.0339311 L15.292745,14.1276068 Z" id="Shape"></path>
        </g>
    </g>
</svg>