<?xml version="1.0" standalone="no"?><!DOCTYPE svg PUBLIC "-//W3C//DTD SVG 1.1//EN" "http://www.w3.org/Graphics/SVG/1.1/DTD/svg11.dtd"><svg class="icon" width="200px" height="200.00px" viewBox="0 0 1024 1024" version="1.1" xmlns="http://www.w3.org/2000/svg"><path fill="#2c2c2c" d="M87.552 19.456L20.48 86.528c-11.264 11.264-11.264 29.696 0 40.96l147.968 148.48c11.264 11.264 11.264 29.696 0 40.96l-48.128 48.128c-18.432 18.432-5.12 49.664 20.48 49.664h246.272c15.872 0 29.184-12.8 29.184-29.184v-245.76c0-26.112-31.232-38.912-49.664-20.48l-48.128 48.128c-11.264 11.264-29.696 11.264-40.96 0l-148.48-148.48c-11.776-10.752-30.208-10.752-41.472 0.512z m638.976 814.08l168.96 168.96c11.264 11.264 29.696 11.264 40.96 0l67.072-67.072c11.264-11.264 11.264-29.696 0-40.96l-147.968-148.48c-11.264-11.264-11.264-29.696 0-40.96l48.128-48.128c18.432-18.432 5.12-49.664-20.48-49.664h-246.272c-15.872 0-29.184 12.8-29.184 29.184v245.76c0 26.112 31.232 38.912 49.664 20.48l69.12-69.12z m168.96-814.08l-148.48 147.968c-11.264 11.264-29.696 11.264-40.96 0l-48.128-48.128c-18.432-18.432-49.664-5.12-49.664 20.48v246.272c0 15.872 12.8 29.184 29.184 29.184h245.76c26.112 0 38.912-31.232 20.48-49.664l-48.128-48.128c-11.264-11.264-11.264-29.696 0-40.96l148.48-148.48c11.264-11.264 11.264-29.696 0-40.96L936.448 19.456c-11.264-11.264-29.696-11.264-40.96 0z m-766.976 983.04l148.48-148.48c11.264-11.264 29.696-11.264 40.96 0l48.128 48.64c18.432 18.432 49.664 5.632 49.664-20.48v-246.784c0-15.872-12.8-29.184-29.184-29.184h-245.76c-26.112 0-38.912 31.232-20.48 49.664l48.128 48.128c11.264 11.264 11.264 29.696 0 40.96l-148.48 148.48c-11.264 11.264-11.264 29.696 0 40.96L87.04 1001.472c11.776 12.288 30.208 12.288 41.472 1.024z" /></svg>