<?xml version="1.0" standalone="no"?><!DOCTYPE svg PUBLIC "-//W3C//DTD SVG 1.1//EN" "http://www.w3.org/Graphics/SVG/1.1/DTD/svg11.dtd"><svg class="icon" width="200px" height="200.00px" viewBox="0 0 1024 1024" version="1.1" xmlns="http://www.w3.org/2000/svg"><path fill="#2c2c2c" d="M972.569715 276.341829c-22.516742 0-40.93953-18.422789-40.93953-40.93953V92.113943h-138.170915c-22.516742 0-40.93953-18.422789-40.93953-40.93953s18.422789-40.93953 40.93953-40.93953h145.335333c40.93953 0 74.714643 31.728136 74.714642 71.132433V235.402299c0 23.028486-18.422789 40.93953-40.93953 40.93953zM49.895052 276.341829c-22.516742 0-40.93953-18.422789-40.93953-40.93953V81.87906c0-39.404298 33.263368-71.132434 74.714643-71.132433h145.335332c22.516742 0 40.93953 18.422789 40.93953 40.93953s-18.422789 40.93953-40.93953 40.93953h-138.170914v143.288356c0 22.516742-18.422789 40.427786-40.939531 40.427786zM972.569715 560.871564c-22.516742 0-40.93953 18.422789-40.93953 40.93953v143.288356h-110.536732c24.051974 24.563718 44.521739 51.686157 61.409296 81.879061h56.291854c40.93953 0 74.714643-31.728136 74.714642-71.132434v-154.034983c0-22.516742-18.422789-40.93953-40.93953-40.93953zM197.789105 745.09945H90.834583v-143.288356c0-22.516742-18.422789-40.93953-40.939531-40.93953s-40.93953 18.422789-40.93953 40.93953v154.034983c0 39.404298 33.263368 71.132434 74.714643 71.132434h52.709645c16.887556-30.192904 37.357321-57.827086 61.409295-81.879061zM1014.02099 421.165417v-20.469765h-251.778111c-7.676162-126.4008-111.048476-228.749625-238.472764-233.867066-136.635682-5.117441-250.242879 100.301849-257.919041 233.867066H8.955522v20.469765h1005.065468zM659.382309 670.384808c-20.981509-8.69965-23.54023-36.845577-4.605697-49.639181 60.897551-41.963018 101.837081-110.536732 106.954522-188.833583H265.851074c5.117441 82.390805 50.150925 153.523238 116.165918 194.974513 15.352324 9.723138 13.817091 33.263368-3.582209 39.916042-122.306847 46.568716-214.42079 153.523238-239.496252 285.041479-7.164418 37.357321 21.493253 72.155922 59.362319 72.155922h630.468765c37.869065 0 66.526737-34.798601 59.362319-72.155922-24.051974-127.936032-111.56022-232.843578-228.749625-281.45927z m-39.916042-150.452774c-28.145927 28.145927-65.503248 44.009995-105.931035 44.009995s-77.273363-15.352324-105.931034-44.009995c-6.652674-6.652674-6.652674-16.887556 0-23.028486 6.652674-6.652674 16.887556-6.652674 23.028486 0 22.004998 22.004998 51.174413 34.286857 82.390804 34.286857s60.385807-12.281859 82.390805-34.286857c6.652674-6.652674 16.887556-6.652674 23.028486 0 7.164418 6.14093 7.164418 16.887556 1.023488 23.028486z" /></svg>