<?xml version="1.0" standalone="no"?><!DOCTYPE svg PUBLIC "-//W3C//DTD SVG 1.1//EN" "http://www.w3.org/Graphics/SVG/1.1/DTD/svg11.dtd"><svg t="1600938332916" class="icon" viewBox="0 0 1024 1024" version="1.1" xmlns="http://www.w3.org/2000/svg" p-id="3113" xmlns:xlink="http://www.w3.org/1999/xlink" width="200" height="200"><defs><style type="text/css"></style></defs><path d="M428.194 453.735V730.85h-60V473.591L232.996 291.696c-18.687-29.315-10.337-67.025 18.071-85.134a61 61 0 0 1 32.79-9.562h390.689c33.689 0 61 27.31 61 61a61 61 0 0 1-7.727 29.714l-121.618 185.26v354.83h-60V455.027l129.33-196.853c0.01-0.484-130.549-0.876-391.675-1.174-0.605 0.262 47.508 65.84 144.338 196.735zM660.333 478h110c16.568 0 30 13.431 30 30 0 16.569-13.432 30-30 30h-110c-16.569 0-30-13.431-30-30 0-16.569 13.431-30 30-30z m0 115h110c16.568 0 30 13.431 30 30 0 16.569-13.432 30-30 30h-110c-16.569 0-30-13.431-30-30 0-16.569 13.431-30 30-30z m0 105h110c16.568 0 30 13.431 30 30 0 16.569-13.432 30-30 30h-110c-16.569 0-30-13.431-30-30 0-16.569 13.431-30 30-30z" p-id="3114"></path></svg>