<?xml version="1.0" encoding="UTF-8"?>
<svg width="16px" height="14px" viewBox="0 0 16 14" version="1.1" xmlns="http://www.w3.org/2000/svg" xmlns:xlink="http://www.w3.org/1999/xlink">
    <title>font</title>
    <g id="Web端" stroke="none" stroke-width="1" fill="none" fill-rule="evenodd">
        <g id="电子地图--点位编辑" transform="translate(-1258.000000, -74.000000)" fill="#333333" fill-rule="nonzero">
            <g id="工具" transform="translate(1174.000000, 68.000000)">
                <path d="M99.8461538,10.9230769 L94,10.9230769 C93.9153846,10.9230769 93.8461538,10.9923077 93.8461538,11.0769231 L93.8461538,13.2307692 C93.8461538,13.3153846 93.9153846,13.3846154 94,13.3846154 L94.9230769,13.3846154 C95.0076923,13.3846154 95.0769231,13.3153846 95.0769231,13.2307692 L95.0769231,12.1538462 L96.2307692,12.1538462 L96.2307692,18.3076923 L95.3461538,18.3076923 C95.2615385,18.3076923 95.1923077,18.3769231 95.1923077,18.4615385 L95.1923077,19.3846154 C95.1923077,19.4692308 95.2615385,19.5384615 95.3461538,19.5384615 L98.5,19.5384615 C98.5846154,19.5384615 98.6538462,19.4692308 98.6538462,19.3846154 L98.6538462,18.4615385 C98.6538462,18.3769231 98.5846154,18.3076923 98.5,18.3076923 L97.6153846,18.3076923 L97.6153846,12.1538462 L98.7692308,12.1538462 L98.7692308,13.2307692 C98.7692308,13.3153846 98.8384615,13.3846154 98.9230769,13.3846154 L99.8461538,13.3846154 C99.9307692,13.3846154 100,13.3153846 100,13.2307692 L100,11.0769231 C100,10.9923077 99.9307692,10.9230769 99.8461538,10.9230769 Z M94.7692308,8.61538462 L94.7692308,6.15384615 C94.7692308,6.06923077 94.7,6 94.6153846,6 L84.1538462,6 C84.0692308,6 84,6.06923077 84,6.15384615 L84,8.61538462 C84,8.7 84.0692308,8.76923077 84.1538462,8.76923077 L85.2307692,8.76923077 C85.3153846,8.76923077 85.3846154,8.7 85.3846154,8.61538462 L85.3846154,7.38461538 L88.6153846,7.38461538 L88.6153846,18.1538462 L86.8461538,18.1538462 C86.7615385,18.1538462 86.6923077,18.2230769 86.6923077,18.3076923 L86.6923077,19.3846154 C86.6923077,19.4692308 86.7615385,19.5384615 86.8461538,19.5384615 L91.9230769,19.5384615 C92.0076923,19.5384615 92.0769231,19.4692308 92.0769231,19.3846154 L92.0769231,18.3076923 C92.0769231,18.2230769 92.0076923,18.1538462 91.9230769,18.1538462 L90.1538462,18.1538462 L90.1538462,7.38461538 L93.3846154,7.38461538 L93.3846154,8.61538462 C93.3846154,8.7 93.4538462,8.76923077 93.5384615,8.76923077 L94.6153846,8.76923077 C94.7,8.76923077 94.7692308,8.7 94.7692308,8.61538462 Z" id="font"></path>
            </g>
        </g>
    </g>
</svg>