<?xml version="1.0" encoding="utf-8"?>
<!-- Generator: Adobe Illustrator 24.2.3, SVG Export Plug-In . SVG Version: 6.00 Build 0)  -->
<svg version="1.1" id="Layer_1" xmlns="http://www.w3.org/2000/svg" xmlns:xlink="http://www.w3.org/1999/xlink" x="0px" y="0px"
	 viewBox="0 0 16 16" style="enable-background:new 0 0 16 16;" xml:space="preserve">
<style type="text/css">
	.st0{fill:#333333;}
</style>
<g id="Web端">
	<g id="电子地图--点位查看" transform="translate(-1373.000000, -71.000000)">
		<g id="zoom-in" transform="translate(1373.000000, 71.000000)">
			<path class="st0" d="M3.4,2.3l0.9-0.9c0.1-0.1,0-0.3-0.1-0.3L1,0.8C0.8,0.8,0.8,0.8,0.8,1l0.4,3.3c0,0.1,0.2,0.2,0.3,0.1l0.9-0.9
				l2.7,2.7c0.1,0.1,0.2,0.1,0.2,0l0.9-0.9c0.1-0.1,0.1-0.2,0-0.2L3.4,2.3z M10.7,6.2c0.1,0.1,0.2,0.1,0.2,0l2.7-2.7l0.9,0.9
				c0.1,0.1,0.3,0,0.3-0.1L15.2,1c0-0.1-0.1-0.2-0.2-0.2l-3.3,0.4c-0.1,0-0.2,0.2-0.1,0.3l0.9,0.9L9.8,5.1c-0.1,0.1-0.1,0.2,0,0.2
				L10.7,6.2L10.7,6.2z M14.8,11.8c0-0.1-0.2-0.2-0.3-0.1l-0.9,0.9l-2.7-2.7c-0.1-0.1-0.2-0.1-0.2,0l-0.9,0.9
				c-0.1,0.1-0.1,0.2,0,0.2l2.7,2.7l-0.9,0.9c-0.1,0.1,0,0.3,0.1,0.3l3.3,0.4c0.1,0,0.2-0.1,0.2-0.2L14.8,11.8z M5.3,9.8
				c-0.1-0.1-0.2-0.1-0.2,0l-2.7,2.7l-0.9-0.9c-0.1-0.1-0.3,0-0.3,0.1l-0.4,3.3c0,0.1,0.1,0.2,0.2,0.2l3.3-0.4
				c0.1,0,0.2-0.2,0.1-0.3l-0.9-0.9l2.7-2.7c0.1-0.1,0.1-0.2,0-0.2L5.3,9.8L5.3,9.8z"/>
		</g>
	</g>
</g>
</svg>
