<?xml version="1.0" encoding="utf-8"?>
<!-- Generator: Adobe Illustrator 24.2.3, SVG Export Plug-In . SVG Version: 6.00 Build 0)  -->
<svg version="1.1" id="Layer_1" xmlns="http://www.w3.org/2000/svg" xmlns:xlink="http://www.w3.org/1999/xlink" x="0px" y="0px"
	 viewBox="0 0 200 200" style="enable-background:new 0 0 200 200;" xml:space="preserve">
<style type="text/css">
	.st0{fill:#2C2C2C;}
</style>
<path class="st0" d="M71.3,82.3L81.6,72c1.8-1.8,1.8-4.6,0-6.4L59,42.9c-1.8-1.8-1.8-4.6,0-6.4l7.3-7.3c2.8-2.8,0.8-7.7-3.1-7.7
	H25.4c-2.5,0-4.5,2-4.5,4.5v37.7c0,4,4.8,6,7.7,3.1l7.3-7.3c1.8-1.8,4.6-1.8,6.4,0L65,82.3C66.7,84.1,69.6,84.1,71.3,82.3z
	 M159.8,144l-25.9-25.9c-1.8-1.8-4.6-1.8-6.4,0l-10.2,10.2c-1.8,1.8-1.8,4.6,0,6.4l22.6,22.8c1.8,1.8,1.8,4.6,0,6.4l-7.3,7.3
	c-2.8,2.8-0.8,7.7,3.1,7.7h37.7c2.5,0,4.5-2,4.5-4.5v-37.5c0-4-4.8-6-7.7-3.1L159.8,144L159.8,144z M133.9,82.4l22.8-22.6
	c1.8-1.8,4.6-1.8,6.4,0l7.3,7.3c2.8,2.8,7.7,0.8,7.7-3.1V26.2c0-2.5-2-4.5-4.5-4.5H136c-4,0-6,4.8-3.1,7.7l7.3,7.3
	c1.8,1.8,1.8,4.6,0,6.4l-22.8,22.8c-1.8,1.8-1.8,4.6,0,6.4l10.2,10.1C129.3,84.1,132.1,84.1,133.9,82.4z M65,118.1l-22.7,22.7
	c-1.8,1.8-4.6,1.8-6.4,0l-7.3-7.4c-2.8-2.8-7.7-0.9-7.7,3.1v37.7c0,2.5,2,4.5,4.5,4.5H63c4,0,6-4.8,3.1-7.7l-7.3-7.3
	c-1.8-1.8-1.8-4.6,0-6.4l22.8-22.8c1.8-1.8,1.8-4.6,0-6.4l-10.2-10.2C69.6,116.3,66.7,116.3,65,118.1z"/>
</svg>
