<?xml version="1.0" encoding="utf-8"?>
<!-- Generator: Adobe Illustrator 24.2.3, SVG Export Plug-In . SVG Version: 6.00 Build 0)  -->
<svg version="1.1" id="Layer_1" xmlns="http://www.w3.org/2000/svg" xmlns:xlink="http://www.w3.org/1999/xlink" x="0px" y="0px"
	 viewBox="0 0 128 128" style="enable-background:new 0 0 128 128;" xml:space="preserve">
<path d="M38.5,52L52,38.5L28.4,14.8L43.2,0H0v43.1l14.8-14.8L38.5,52z M113.2,99.7L89.5,76L76,89.5l23.6,23.7L84.8,128H128V84.9
	C128,84.9,113.2,99.7,113.2,99.7z M89.5,52l23.7-23.6L128,43.2V0H84.9l14.8,14.8L76,38.5L89.5,52z M38.5,76L14.8,99.7L0,84.7V128
	h43.1l-14.8-14.8L52,89.5L38.5,76z"/>
</svg>
