<?xml version="1.0" encoding="utf-8"?>
<!-- Generator: Adobe Illustrator 24.2.3, SVG Export Plug-In . SVG Version: 6.00 Build 0)  -->
<svg version="1.1" id="Layer_1" xmlns="http://www.w3.org/2000/svg" xmlns:xlink="http://www.w3.org/1999/xlink" x="0px" y="0px"
	 viewBox="0 0 243.5 107.3" xml:space="preserve">
<g>
	<path d="M47.8,25v21.6h13.3V25h11.4v56.4H61.1v-25H47.8v25H36.4V25H47.8z"/>
	<path d="M91.1,81.4H80.7V69.1h10.4V81.4z"/>
	<path d="M96.8,81.4c0-2.5,0.2-4.8,0.8-7c0.5-2.2,1.3-4.2,2.3-6.2c1-1.9,2.3-3.9,3.9-5.7c1.6-1.9,3.4-3.8,5.4-5.6l4.6-4.3
		c1.3-1.1,2.3-2.1,3-3.1c0.8-0.9,1.4-1.9,1.8-2.8c0.4-0.9,0.7-2,0.8-3.1c0.1-1.1,0.2-2.4,0.2-3.8c0-4.6-1.8-7-5.5-7
		c-1.4,0-2.5,0.3-3.4,0.9c-0.8,0.6-1.4,1.4-1.9,2.4c-0.4,1-0.7,2.2-0.9,3.5c-0.1,1.3-0.2,2.7-0.2,4.2H96.8v-2.1
		c0-5.2,1.4-9.2,4.2-12c2.8-2.8,7.2-4.2,13.2-4.2c5.7,0,9.9,1.3,12.6,4c2.7,2.6,4.1,6.4,4.1,11.3c0,1.8-0.2,3.5-0.5,5
		c-0.3,1.6-0.8,3-1.5,4.5c-0.7,1.4-1.6,2.8-2.7,4.1s-2.4,2.7-4,4.1l-6.3,5.8c-1.7,1.5-3,3-4,4.5c-0.9,1.4-1.6,2.7-1.8,3.8h21.1v8.8
		H96.8z"/>
	<path d="M156.7,34.7c-0.8-1.2-2.1-1.7-4-1.7c-1.5,0-2.7,0.4-3.6,1.1c-0.9,0.7-1.6,1.7-2.1,3c-0.5,1.3-0.8,2.8-1,4.5
		c-0.2,1.7-0.2,3.6-0.2,5.7v2.8h0.2c0.9-1.5,2.3-2.6,4.1-3.5c1.8-0.9,3.9-1.3,6.4-1.3c2.5,0,4.6,0.4,6.3,1.3
		c1.7,0.9,3.1,2.1,4.2,3.6c1.1,1.6,1.9,3.4,2.4,5.5c0.5,2.1,0.8,4.5,0.8,7c0,6.5-1.4,11.4-4.3,14.7c-2.9,3.3-7.5,5-13.8,5
		c-3.9,0-7-0.7-9.3-2.1c-2.3-1.4-4.1-3.3-5.3-5.6c-1.2-2.4-2-5.2-2.4-8.3c-0.4-3.2-0.6-6.5-0.6-9.9c0-4,0.1-7.8,0.4-11.5
		c0.2-3.7,0.9-7,2.1-9.9c1.2-2.9,3-5.2,5.6-6.9c2.5-1.7,6.1-2.6,10.7-2.6c2,0,3.9,0.2,5.8,0.7c1.9,0.5,3.5,1.3,4.9,2.4
		s2.6,2.6,3.4,4.4c0.9,1.8,1.3,4.1,1.4,6.8h-10.9C157.9,37.5,157.5,35.8,156.7,34.7z M146.6,68.5c0.2,1.4,0.5,2.5,0.9,3.5
		c0.4,1,1.1,1.7,1.9,2.3c0.8,0.6,1.9,0.8,3.2,0.8c1.4,0,2.5-0.3,3.3-0.8c0.8-0.6,1.4-1.3,1.9-2.3c0.4-1,0.7-2.2,0.8-3.5
		c0.1-1.3,0.2-2.8,0.2-4.4c0-3.8-0.5-6.5-1.4-8.1c-0.9-1.6-2.5-2.4-4.7-2.4c-2.3,0-3.9,0.8-4.8,2.4c-0.9,1.6-1.4,4.3-1.4,8.1
		C146.3,65.6,146.4,67.1,146.6,68.5z"/>
	<path d="M184.2,35.4L183,48.2h0.2c1.1-1.5,2.4-2.5,4.1-3.2c1.7-0.7,3.7-1,6.2-1c2.7,0,4.9,0.5,6.7,1.5c1.8,1,3.2,2.4,4.2,4.1
		c1,1.7,1.8,3.6,2.2,5.7c0.4,2.1,0.6,4.3,0.6,6.5c0,3.1-0.3,5.9-0.8,8.5c-0.5,2.5-1.5,4.7-2.8,6.5c-1.3,1.8-3.2,3.2-5.5,4.1
		c-2.3,0.9-5.3,1.4-8.8,1.4c-3.5,0-6.4-0.5-8.6-1.4c-2.2-0.9-3.9-2.2-5-3.8c-1.2-1.6-1.9-3.2-2.3-5.1c-0.4-1.8-0.6-3.5-0.6-5.1v-1.5
		h10.9c0,0.9,0.1,1.9,0.2,3c0.1,1.1,0.4,2,0.8,3c0.4,0.9,1,1.7,1.7,2.3c0.7,0.6,1.7,0.9,2.9,0.9c2.4,0,4.1-0.9,5.1-2.7
		c1-1.8,1.5-4.5,1.5-8.2c0-2.3-0.1-4.2-0.3-5.8c-0.2-1.5-0.6-2.7-1.1-3.6c-0.5-0.9-1.2-1.5-2-1.9c-0.8-0.4-1.9-0.6-3.2-0.6
		c-1.6,0-2.9,0.5-3.8,1.4c-0.9,0.9-1.4,2.2-1.6,3.8h-10.2l2.1-30.4h29.2v8.8H184.2z"/>
</g>
<g>
	<path d="M225.6,107.3H18c-9.9,0-18-8.1-18-18V18C0,8.1,8.1,0,18,0h207.6c9.9,0,18,8.1,18,18v71.4
		C243.5,99.3,235.5,107.3,225.6,107.3z M18,10c-4.4,0-8,3.6-8,8v71.4c0,4.4,3.6,8,8,8h207.6c4.4,0,8-3.6,8-8V18c0-4.4-3.6-8-8-8H18z
		"/>
</g>
</svg>
