<?xml version="1.0" standalone="no"?><!DOCTYPE svg PUBLIC "-//W3C//DTD SVG 1.1//EN" "http://www.w3.org/Graphics/SVG/1.1/DTD/svg11.dtd"><svg class="icon" width="200px" height="200.00px" viewBox="0 0 1024 1024" version="1.1" xmlns="http://www.w3.org/2000/svg"><path fill="#2c2c2c" d="M547.84 693.76H64.512c-22.528 0-40.96-18.432-40.96-40.96s18.432-40.96 40.96-40.96H547.84c22.528 0 40.96 18.432 40.96 40.96s-18.432 40.96-40.96 40.96zM547.84 405.504H64.512c-22.528 0-40.96-18.432-40.96-40.96s18.432-40.96 40.96-40.96H547.84c22.528 0 40.96 18.432 40.96 40.96s-18.432 40.96-40.96 40.96zM944.128 117.76H64.512c-22.528 0-40.96-18.432-40.96-40.96s18.432-40.96 40.96-40.96h879.104c22.528 0 40.96 18.432 40.96 40.96s-17.92 40.96-40.448 40.96zM944.128 981.504H64.512c-22.528 0-40.96-18.432-40.96-40.96s18.432-40.96 40.96-40.96h879.104c22.528 0 40.96 18.432 40.96 40.96s-17.92 40.96-40.448 40.96zM985.088 633.344V384c0-29.184-34.304-45.568-56.32-26.112-0.512 0.512-1.024 1.024-1.536 1.024l-1.024 1.024-152.576 116.736c-6.144 4.608-11.264 11.264-13.824 18.944-3.072 8.704-3.072 17.92 0 26.624 2.56 7.68 7.68 13.824 13.824 18.944l152.576 116.736 0.512 0.512 1.536 1.536c22.016 18.944 56.832 2.56 56.832-26.624z" /></svg>