<?xml version="1.0" standalone="no"?><!DOCTYPE svg PUBLIC "-//W3C//DTD SVG 1.1//EN" "http://www.w3.org/Graphics/SVG/1.1/DTD/svg11.dtd"><svg class="icon" width="200px" height="200.00px" viewBox="0 0 1024 1024" version="1.1" xmlns="http://www.w3.org/2000/svg"><path fill="#2c2c2c" d="M509.44 12.8c-274.944 1.024-498.688 226.816-496.64 501.76 2.048 275.968 226.304 498.176 501.76 496.64 274.432-1.024 497.664-226.304 496.64-501.76-1.024-274.944-225.792-497.664-501.76-496.64z m158.72 455.68c-13.312 14.336-26.624 29.696-40.448 44.032-35.84 37.376-60.416 80.384-64.512 133.632-0.512 3.584-1.024 7.168-1.536 10.24-0.512 1.024-1.536 2.048-2.56 4.096-30.208 0-61.952 0.512-94.72 1.024-6.656-59.392 9.216-110.592 46.592-154.112 22.016-26.112 47.104-50.176 70.656-76.288 32.256-34.816 38.4-77.312 16.896-115.2-22.016-39.936-63.488-59.392-107.52-51.712-39.424 6.656-73.216 43.52-79.872 87.04-0.512 3.072-0.512 6.144-1.536 10.752-1.536 26.112-22.528 46.592-49.152 46.592-27.136 0-49.152-22.016-49.152-49.152 0-3.072 0.512-6.144 1.024-9.216 1.536-34.304 11.776-64.512 29.184-92.16 40.96-67.584 121.856-104.96 198.144-92.672 80.896 12.8 146.944 73.216 164.864 151.552 13.312 56.32 4.096 108.032-36.352 151.552zM547.84 848.384H479.232c-8.192 0-14.848-6.656-14.848-14.848v-68.608c0-8.192 6.656-14.848 14.848-14.848H547.84c8.192 0 14.848 6.656 14.848 14.848v68.608c0 8.192-6.656 14.848-14.848 14.848z" /></svg>