<?xml version="1.0" encoding="utf-8"?>
<!-- Generator: Adobe Illustrator 24.2.3, SVG Export Plug-In . SVG Version: 6.00 Build 0)  -->
<svg version="1.1" id="Layer_1" xmlns="http://www.w3.org/2000/svg" xmlns:xlink="http://www.w3.org/1999/xlink" x="0px" y="0px"
	 viewBox="0 0 36 36" style="enable-background:new 0 0 36 36;" xml:space="preserve">
<style type="text/css">
	.st0{fill:#6E7C89;}
</style>
<g>
	<path class="st0" d="M33.4,1.1C33.3,0.5,32.7,0,32.1,0H4C3.4,0,2.9,0.5,2.7,1.1L0,20.6v13.9C0,35.3,0.7,36,1.5,36h33
		c0.8,0,1.5-0.7,1.5-1.5V20.6L33.4,1.1z M23.8,4.4H26l0.5,11.3h-3.2L23.8,4.4z M13.2,4.4h2.4l4.6,11.3h-2.6L16.5,13H12l-1.1,2.7H8.3
		L13.2,4.4z M33.4,33.4H2.6V20.6h30.8V33.4z"/>
	<polygon class="st0" points="14.5,7.2 13,11 15.9,11 	"/>
</g>
<g id="Shape备份-2">
	<path class="st0" d="M14.7,31.1h4c0.5,0,1-0.5,1-1v-1c0-0.5-0.5-1-1-1h-4c-0.5,0-1,0.5-1,1v1C13.7,30.7,14.1,31.1,14.7,31.1
		L14.7,31.1z M14.7,26.1h4c0.5,0,1-0.5,1-1v-1c0-0.5-0.5-1-1-1h-4c-0.5,0-1,0.5-1,1v1C13.7,25.7,14.1,26.1,14.7,26.1L14.7,26.1z
		 M22.7,26.1h4c0.5,0,1-0.5,1-1v-1c0-0.5-0.5-1-1-1h-4c-0.5,0-1,0.5-1,1v1C21.7,25.7,22.1,26.1,22.7,26.1L22.7,26.1z M6.7,28.1h4
		c0.5,0,1-0.8,1-1.7v-1.6c0-0.9-0.5-1.7-1-1.7h-4c-0.5,0-1,0.8-1,1.7v1.6C5.7,27.3,6.1,28.1,6.7,28.1L6.7,28.1z"/>
</g>
</svg>
