<?xml version="1.0" encoding="UTF-8"?>
<svg width="36px" height="36px" viewBox="0 0 36 36" version="1.1" xmlns="http://www.w3.org/2000/svg" xmlns:xlink="http://www.w3.org/1999/xlink">
    <title>离线_大</title>
    <g id="大视频平台" stroke="none" stroke-width="1" fill="none" fill-rule="evenodd">
        <g id="AI盒子logo" transform="translate(-116.000000, -24.000000)" fill-rule="nonzero">
            <g id="离线_大" transform="translate(116.000000, 24.000000)">
                <path d="M36,20.627027 L33.3549433,1.10918919 C33.2771475,0.467027027 32.713128,0 32.0713128,0 L4.02593193,0 C3.38411669,0 2.85899514,0.467027027 2.74230146,1.10918919 L0,20.627027 L0.0194489465,20.627027 L0,20.6659459 L0,34.5405405 C0,35.3383784 0.661264182,36 1.45867099,36 L34.5024311,36 C35.2998379,36 35.9611021,35.3383784 35.9611021,34.5405405 L35.9611021,20.6464865 L35.9416532,20.6075676 L35.9805511,20.6075676 L36,20.627027 Z M33.4327391,33.4313514 L2.58670989,33.4313514 L2.58670989,20.627027 L33.4327391,20.627027 L33.4327391,33.4313514 L33.4327391,33.4313514 Z" id="Shape备份" fill="#6E7C89"></path>
                <g id="AI备份" transform="translate(8.429057, 5.290000)" fill="#FFFFFF" stroke="#FFFFFF" stroke-width="0.5">
                    <path d="M4.66594292,0 L0,10.71 L2.08521462,10.71 L3.23255646,8.025 L8.09432938,8.025 L9.24167121,10.71 L11.3268858,10.71 L6.66094292,0 L4.66594292,0 Z M3.82755028,6.585 L5.64049776,1.89 L5.70168485,1.89 L7.49933556,6.585 L3.82755028,6.585 Z" id="形状"></path>
                    <polygon id="路径" points="15.3059429 0 14.8309329 10.71 17.5359529 10.71 17.0609429 0"></polygon>
                </g>
                <path d="M14.0044848,32.0075377 L17.9963348,32.0075377 C18.5437886,32.0075377 19,31.5552764 19,30.9899497 L19,30.040201 C19,29.4974874 18.5437886,29.0226131 17.9963348,29.0226131 L14.0044848,29.0226131 C13.4570311,29.0226131 13.0008197,29.4748744 13.0008197,30.040201 L13.0008197,30.9899497 C12.9780091,31.5552764 13.4342205,32.0075377 14.0044848,32.0075377 L14.0044848,32.0075377 Z M14.0044848,27.0075377 L17.9963348,27.0075377 C18.5437886,27.0075377 19,26.5552764 19,25.9899497 L19,25.040201 C19,24.4974874 18.5437886,24.0226131 17.9963348,24.0226131 L14.0044848,24.0226131 C13.4570311,24.0226131 13.0008197,24.4748744 13.0008197,25.040201 L13.0008197,25.9899497 C12.9780091,26.5552764 13.4342205,27.0075377 14.0044848,27.0075377 L14.0044848,27.0075377 Z M22.0044848,27.0075377 L25.9963348,27.0075377 C26.5437886,27.0075377 27,26.5552764 27,25.9899497 L27,25.040201 C27,24.4974874 26.5437886,24.0226131 25.9963348,24.0226131 L22.0044848,24.0226131 C21.4570311,24.0226131 21.0008197,24.4748744 21.0008197,25.040201 L21.0008197,25.9899497 C20.9780091,26.5552764 21.4342205,27.0075377 22.0044848,27.0075377 L22.0044848,27.0075377 Z M6.00448481,29 L9.99633485,29 C10.5437886,29 11,28.2424242 11,27.2954545 L11,25.7045455 C11,24.7954545 10.5437886,24 9.99633485,24 L6.00448481,24 C5.45703109,24 5.00081966,24.7575758 5.00081966,25.7045455 L5.00081966,27.2954545 C4.97800909,28.2424242 5.43422052,29 6.00448481,29 L6.00448481,29 Z" id="Shape备份-2" fill="#6E7C89"></path>
            </g>
        </g>
    </g>
</svg>