<?xml version="1.0" standalone="no"?><!DOCTYPE svg PUBLIC "-//W3C//DTD SVG 1.1//EN" "http://www.w3.org/Graphics/SVG/1.1/DTD/svg11.dtd"><svg class="icon" width="200px" height="200.00px" viewBox="0 0 1024 1024" version="1.1" xmlns="http://www.w3.org/2000/svg"><path fill="#2c2c2c" d="M656.384 804.864c-32.256-55.296-72.192-105.984-119.296-150.016-17.92-19.456-16.384-33.28-10.24-76.288v-4.608c4.608-29.184 11.776-46.08 110.08-62.464 50.176-7.68 62.976 11.776 81.408 39.936l6.144 8.704c11.264 18.944 28.672 33.28 49.152 40.96 9.216 4.096 19.456 8.704 33.792 16.896 35.328 19.456 35.328 41.472 35.328 90.112v6.144c2.56 47.616-11.264 95.232-39.424 133.632-43.008 36.864-92.672 65.536-145.92 84.48 26.112-50.176 5.632-110.08 0-126.976h-1.536l0.512-0.512z m-148.48-752.128c68.096 0 134.656 15.872 196.096 45.568-36.864 21.504-70.144 48.128-99.328 79.872l-18.432 27.136c-19.456 28.672-28.672 41.472-45.568 44.032-10.752 1.024-21.504 1.024-32.256 0-33.28-2.56-76.8-5.632-92.16 33.792-8.704 24.576-10.24 92.16 19.456 126.976 5.12 8.192 6.144 18.432 2.56 27.648-2.56 9.216-8.192 17.92-15.36 24.576-8.704-6.656-16.384-14.336-23.04-23.04-15.872-22.528-38.4-39.424-64-50.176l-30.72-7.68c-28.672-5.632-61.44-12.288-69.12-29.184-4.608-14.336-6.656-29.696-5.632-44.544 1.536-24.064-2.048-48.128-10.752-70.656-8.192-18.432-23.552-32.768-43.008-38.4 85.504-93.184 205.312-145.92 331.264-145.92z m-491.52 452.608c0 271.872 220.16 492.032 492.032 492.032s492.032-220.16 492.032-492.032-220.16-492.032-492.032-492.032-492.032 220.16-492.032 492.032z" /></svg>