<?xml version="1.0" standalone="no"?><!DOCTYPE svg PUBLIC "-//W3C//DTD SVG 1.1//EN" "http://www.w3.org/Graphics/SVG/1.1/DTD/svg11.dtd"><svg class="icon" width="200px" height="200.00px" viewBox="0 0 1024 1024" version="1.1" xmlns="http://www.w3.org/2000/svg"><path fill="#2c2c2c" d="M489.472 154.112c-14.336 0-25.6-11.264-25.6-25.6V40.448c0-14.336 11.264-25.6 25.6-25.6s25.6 11.264 25.6 25.6v88.576c0 13.824-11.776 25.088-25.6 25.088zM184.32 262.656c-6.656 0-13.312-2.56-17.92-7.68L103.936 192.512c-10.24-10.24-10.24-26.112 0-36.352 9.728-10.24 26.112-10.24 36.352 0l62.464 62.464c10.24 10.24 10.24 26.112 0 36.352-5.12 5.12-11.776 7.68-18.432 7.68zM129.536 577.536H40.96c-14.336 0-25.6-11.264-25.6-25.6s11.264-25.6 25.6-25.6h88.576c14.336 0 25.6 11.264 25.6 25.6s-11.776 25.6-25.6 25.6zM983.04 577.536h-88.576c-14.336 0-25.6-11.264-25.6-25.6s11.264-25.6 25.6-25.6h88.576c14.336 0 25.6 11.264 25.6 25.6s-11.264 25.6-25.6 25.6zM805.888 260.096c-6.656 0-13.312-2.56-17.92-7.68-10.24-10.24-10.24-26.112 0-36.352L850.432 154.112c9.728-10.24 26.112-10.24 36.352 0s10.24 26.112 0 36.352l-62.464 62.464c-5.12 4.608-11.776 7.168-18.432 7.168zM983.04 818.176h-156.672V493.568c0-177.664-143.872-321.536-321.536-321.536S182.784 315.904 182.784 493.568v324.096H40.96c-22.528 0-40.96 18.432-40.96 40.96s18.432 40.96 40.96 40.96H982.528c22.528 0 40.96-18.432 40.96-40.96 0.512-22.528-17.92-40.448-40.448-40.448z m-449.024-115.2c-15.872 0-27.648-9.216-31.232-22.016l-16.384-53.248H410.624L394.752 679.936c-3.584 14.336-14.336 23.04-30.208 23.04-16.896 0-30.208-11.264-30.208-24.576 0-3.072 1.536-9.216 1.536-9.216l68.608-181.248 10.752-30.72c4.608-13.824 17.408-23.04 34.304-23.04 17.92 0 31.232 12.288 34.816 25.6l7.68 22.016 69.632 184.32c1.024 2.048 3.584 7.68 3.584 11.776 0.512 13.312-13.824 25.088-31.232 25.088z m151.552-25.6c0 13.824-13.824 25.6-30.72 25.6s-30.72-11.264-30.72-25.6V459.264c0-13.824 13.824-25.6 30.72-25.6s30.72 11.264 30.72 25.6v218.112zM449.024 503.296h-1.536c-6.144 22.016-13.312 46.592-19.456 67.584l-5.632 17.92h52.224l-5.632-17.92c-6.656-20.992-13.312-46.08-19.968-67.584zM665.6 1008.128h-307.2c-11.264 0-20.48-9.216-20.48-20.48V942.08c0-11.264 9.216-20.48 20.48-20.48h306.688c11.264 0 20.48 9.216 20.48 20.48v45.056c0.512 11.776-8.704 20.992-19.968 20.992z" /></svg>