<?xml version="1.0" standalone="no"?><!DOCTYPE svg PUBLIC "-//W3C//DTD SVG 1.1//EN" "http://www.w3.org/Graphics/SVG/1.1/DTD/svg11.dtd"><svg class="icon" width="200px" height="200.00px" viewBox="0 0 1024 1024" version="1.1" xmlns="http://www.w3.org/2000/svg"><path fill="#2c2c2c" d="M516.608 863.744c-232.96 0-421.888-189.44-421.888-421.888s189.44-421.888 421.888-421.888 421.888 189.44 421.888 421.888-189.44 421.888-421.888 421.888z m0-762.368c-187.392 0-339.968 152.576-339.968 339.968 0 187.392 152.576 339.968 339.968 339.968s339.968-152.576 339.968-339.968c0-187.392-152.576-339.968-339.968-339.968zM516.608 661.504c-121.344 0-220.16-98.816-220.16-220.16s98.816-220.16 220.16-220.16 220.16 98.816 220.16 220.16-98.816 220.16-220.16 220.16z m0-358.4c-76.288 0-138.24 61.952-138.24 138.24s61.952 138.24 138.24 138.24 138.24-61.952 138.24-138.24-61.952-138.24-138.24-138.24zM695.808 1005.056h-358.4c-22.528 0-40.96-18.432-40.96-40.96s18.432-40.96 40.96-40.96h358.4c22.528 0 40.96 18.432 40.96 40.96s-18.432 40.96-40.96 40.96z" /></svg>