<?xml version="1.0" standalone="no"?><!DOCTYPE svg PUBLIC "-//W3C//DTD SVG 1.1//EN" "http://www.w3.org/Graphics/SVG/1.1/DTD/svg11.dtd"><svg t="1608782270677" class="icon" viewBox="0 0 1024 1024" version="1.1" xmlns="http://www.w3.org/2000/svg" p-id="1119" xmlns:xlink="http://www.w3.org/1999/xlink" width="200" height="200"><defs><style type="text/css"></style></defs><path d="M91.35122 568.32L23.87122 554.65a20.07 20.07 0 0 0-23.86 20.377V1024l107.52-39.168v-144.64c0-11.469 8.96-20.736 19.969-20.736H271.01122a19.917 19.917 0 0 0 16.128-8.5l75.623-107.11a21.197 21.197 0 0 0-6.656-30.464l-82.79-46.438a19.712 19.712 0 0 0-28.57 11.776l-20.992 66.509a20.07 20.07 0 0 1-19.047 14.233h-77.21a20.378 20.378 0 0 1-20.018-20.736v-110.08a20.582 20.582 0 0 0-16.18-20.326zM1015.00122 554.189L249.66122 29.389 203.78722 2.662a19.61 19.61 0 0 0-26.112 5.99L4.46522 259.84a21.197 21.197 0 0 0 5.53 29.542l23.193 15.36 694.938 441.652a105.318 105.318 0 0 0 80.742-16.487L1015.05122 588.8a21.197 21.197 0 0 0 0-34.611zM75.58122 388.096l-29.491 41.42a21.248 21.248 0 0 0 4.198 28.98l1.229 0.87L745.02122 911.718c8.602 5.632 19.814 3.994 26.573-3.788l89.395-103.117a22.118 22.118 0 0 0-0.512-29.287l-2.1-2.355a20.224 20.224 0 0 0-27.8-2.15l-61.748 49.51a20.275 20.275 0 0 1-24.218 0.922L102.66722 383.13a19.558 19.558 0 0 0-27.136 4.966z" p-id="1120"></path></svg>