<?xml version="1.0" standalone="no"?><!DOCTYPE svg PUBLIC "-//W3C//DTD SVG 1.1//EN" "http://www.w3.org/Graphics/SVG/1.1/DTD/svg11.dtd"><svg t="1595299575433" class="icon" viewBox="0 0 1024 1024" version="1.1" xmlns="http://www.w3.org/2000/svg" p-id="28587" xmlns:xlink="http://www.w3.org/1999/xlink" width="200" height="200"><defs><style type="text/css"></style></defs><path d="M91.350528 568.32l-67.4816-13.6704a20.0704 20.0704 0 0 0-23.8592 20.3776V1024l107.52-39.168V840.192c0-11.4688 8.96-20.736 19.968-20.736h143.5136a19.9168 19.9168 0 0 0 16.128-8.4992l75.6224-107.1104a21.1968 21.1968 0 0 0-6.656-30.464l-82.7904-46.4384a19.712 19.712 0 0 0-28.5696 11.776l-20.992 66.5088a20.0704 20.0704 0 0 1-19.0464 14.2336H127.497728a20.3776 20.3776 0 0 1-20.0192-20.736v-110.08a20.5824 20.5824 0 0 0-16.1792-20.3264z m923.648-14.1312L249.660928 29.3888 203.785728 2.6624a19.6096 19.6096 0 0 0-26.112 5.9904L4.464128 259.84a21.1968 21.1968 0 0 0 5.5296 29.5424l23.1936 15.36 694.9376 441.6512a105.3184 105.3184 0 0 0 80.7424-16.4864l206.1824-141.1072a21.1968 21.1968 0 0 0 0-34.6112zM75.580928 388.096L46.089728 429.5168a21.248 21.248 0 0 0 4.1984 28.9792l1.2288 0.8704 693.504 452.352c8.6016 5.632 19.8144 3.9936 26.5728-3.7888l89.3952-103.1168a22.1184 22.1184 0 0 0-0.512-29.2864l-2.0992-2.3552a20.224 20.224 0 0 0-27.8016-2.1504l-61.7472 49.5104a20.2752 20.2752 0 0 1-24.2176 0.9216L102.665728 383.1296a19.5584 19.5584 0 0 0-27.136 4.9664z" p-id="28588"></path></svg>