<?xml version="1.0" standalone="no"?><!DOCTYPE svg PUBLIC "-//W3C//DTD SVG 1.1//EN" "http://www.w3.org/Graphics/SVG/1.1/DTD/svg11.dtd"><svg class="icon" width="200px" height="200.00px" viewBox="0 0 1024 1024" version="1.1" xmlns="http://www.w3.org/2000/svg"><path fill="#2c2c2c" d="M242.176 859.136c-66.048 0-129.024-27.136-173.568-74.752C23.04 736.256 0.512 672.768 4.608 606.208 11.776 491.52 103.424 395.776 218.112 384.512c2.56-0.512 5.632-0.512 8.192-0.512 29.184-124.928 140.288-215.04 272.384-215.04 93.184 0 179.712 46.592 231.936 122.88h9.728c154.624 0 280.064 125.44 280.064 280.064 0 153.6-123.904 280.576-276.48 282.112h-1.024l-500.736 5.12z m0-391.168c-5.12 0-10.24 0.512-15.872 1.024-73.728 7.168-133.12 68.608-137.728 142.848-2.56 43.008 12.288 83.968 41.472 115.2 29.184 31.232 69.12 48.64 112.128 48.64l500.736-5.632c105.984-1.536 193.024-90.112 193.024-198.144s-87.552-195.584-195.584-195.584c-8.704 0-17.408 0.512-26.112 2.048l-28.672 4.096-13.824-25.6c-34.304-63.488-100.352-102.4-172.032-102.4-101.888 0-185.344 76.288-195.072 177.664l-4.096 42.496-42.496-4.096c-5.632-2.56-10.752-2.56-15.872-2.56zM624.128 609.28c-6.656 29.696-23.04 54.784-45.568 77.824-64 64-164.864 64-228.864 0s-64-164.864 0-228.864 164.864-64 228.864 0c25.088 25.088 38.912 52.736 45.568 87.04h105.472v-50.176H793.6v50.176h32.256v-50.176h64v114.688h-265.728v-0.512z m-228.864 31.744c38.912 38.912 98.304 38.912 137.216 0 38.912-38.912 38.912-98.304 0-137.216-38.912-38.912-98.304-38.912-137.216 0-38.912 38.912-36.864 100.864 0 137.216z" /></svg>