<?xml version="1.0" standalone="no"?><!DOCTYPE svg PUBLIC "-//W3C//DTD SVG 1.1//EN" "http://www.w3.org/Graphics/SVG/1.1/DTD/svg11.dtd"><svg t="1600391628669" class="icon" viewBox="0 0 1024 1024" version="1.1" xmlns="http://www.w3.org/2000/svg" p-id="4696" xmlns:xlink="http://www.w3.org/1999/xlink" width="200" height="200"><defs><style type="text/css"></style></defs><path d="M298.666667 597.333333C251.733333 597.333333 213.333333 558.933333 213.333333 512 213.333333 465.066667 251.733333 426.666667 298.666667 426.666667 345.6 426.666667 384 465.066667 384 512 384 558.933333 345.6 597.333333 298.666667 597.333333M539.733333 426.666667C504.746667 327.253333 410.026667 256 298.666667 256 157.44 256 42.666667 370.773333 42.666667 512 42.666667 653.226667 157.44 768 298.666667 768 410.026667 768 504.746667 696.746667 539.733333 597.333333L725.333333 597.333333 725.333333 768 896 768 896 597.333333 981.333333 597.333333 981.333333 426.666667 539.733333 426.666667Z" p-id="4697"></path></svg>