<?xml version="1.0" standalone="no"?><!DOCTYPE svg PUBLIC "-//W3C//DTD SVG 1.1//EN" "http://www.w3.org/Graphics/SVG/1.1/DTD/svg11.dtd"><svg class="icon" width="200px" height="200.00px" viewBox="0 0 1024 1024" version="1.1" xmlns="http://www.w3.org/2000/svg"><path fill="#2c2c2c" d="M812.032 562.176c-20.48 0-37.376 16.896-37.376 37.376v290.816H132.096V268.8h268.288c20.48 0 37.376-16.896 37.376-37.376s-16.896-37.376-37.376-37.376H94.72c-20.48 0-37.376 16.896-37.376 37.376v695.808c0 20.48 16.896 37.376 37.376 37.376h717.312c20.48 0 37.376-16.896 37.376-37.376V599.04c0-19.968-16.896-36.864-37.376-36.864zM970.752 96.256c0-22.528-18.432-40.96-40.96-40.96h-278.016c-22.528 0-40.96 18.432-40.96 40.96s18.432 40.96 40.96 40.96h185.856L483.328 491.008c-15.872 15.872-15.872 41.984 0 57.856 8.192 8.192 18.432 11.776 29.184 11.776s20.992-4.096 29.184-11.776l347.648-347.648v173.568c0 22.528 18.432 40.96 40.96 40.96s40.96-18.432 40.96-40.96l-0.512-278.528z" /></svg>