<?xml version="1.0" standalone="no"?><!DOCTYPE svg PUBLIC "-//W3C//DTD SVG 1.1//EN" "http://www.w3.org/Graphics/SVG/1.1/DTD/svg11.dtd"><svg class="icon" width="200px" height="200.00px" viewBox="0 0 1024 1024" version="1.1" xmlns="http://www.w3.org/2000/svg"><path fill="#2c2c2c" d="M100.352 214.016m-67.072 0a67.072 67.072 0 1 0 134.144 0 67.072 67.072 0 1 0-134.144 0ZM33.28 498.688c0 36.864 30.208 67.072 67.072 67.072s67.072-30.208 67.072-67.072-30.208-67.072-67.072-67.072c-36.864 0-67.072 30.208-67.072 67.072zM100.352 796.672m-67.072 0a67.072 67.072 0 1 0 134.144 0 67.072 67.072 0 1 0-134.144 0ZM962.048 281.088H305.152c-15.872 0-29.184-12.8-29.184-29.184V176.128c0-15.872 12.8-29.184 29.184-29.184h656.896c15.872 0 29.184 12.8 29.184 29.184v76.288c0 15.872-13.312 28.672-29.184 28.672zM962.048 566.272H305.152c-15.872 0-29.184-12.8-29.184-29.184V460.8c0-15.872 12.8-29.184 29.184-29.184h656.896c15.872 0 29.184 12.8 29.184 29.184v76.288c0 15.872-13.312 29.184-29.184 29.184zM962.048 863.744H305.152c-15.872 0-29.184-12.8-29.184-29.184v-76.288c0-15.872 12.8-29.184 29.184-29.184h656.896c15.872 0 29.184 12.8 29.184 29.184V834.56c0 15.872-13.312 29.184-29.184 29.184z" /></svg>