<?xml version="1.0" standalone="no"?><!DOCTYPE svg PUBLIC "-//W3C//DTD SVG 1.1//EN" "http://www.w3.org/Graphics/SVG/1.1/DTD/svg11.dtd"><svg class="icon" width="200px" height="200.00px" viewBox="0 0 1024 1024" version="1.1" xmlns="http://www.w3.org/2000/svg"><path fill="#2c2c2c" d="M892.416 186.88h-177.664l81.92-75.776c20.992-18.944 22.016-51.712 3.072-72.192-19.968-20.48-52.224-22.016-73.216-3.072l-162.304 150.016H455.68L293.376 35.84c-20.992-18.944-53.248-17.92-72.192 3.072-18.944 20.992-17.92 53.248 3.072 72.192l81.408 75.264H124.928c-56.832 0-102.912 46.08-102.912 102.912v587.776c0 56.832 46.08 102.912 102.912 102.912h767.488c56.832 0 102.912-46.08 102.912-102.912V289.792c0-56.832-46.08-102.912-102.912-102.912z m-221.696 394.24c-2.56 7.68-7.68 13.824-13.824 18.944L504.32 716.8l-0.512 0.512-1.536 1.536c-21.504 19.456-56.32 3.072-56.32-26.112V443.392c0-29.184 34.304-45.568 56.32-26.112 0.512 0.512 1.024 1.024 1.536 1.024l1.024 1.024 152.576 116.736c6.144 4.608 11.264 11.264 13.824 18.944 2.56 8.192 2.56 17.408-0.512 26.112z" /></svg>