<?xml version="1.0" encoding="utf-8"?>
<!-- Generator: Adobe Illustrator 24.2.3, SVG Export Plug-In . SVG Version: 6.00 Build 0)  -->
<svg version="1.1" id="Layer_1" xmlns="http://www.w3.org/2000/svg" xmlns:xlink="http://www.w3.org/1999/xlink" x="0px" y="0px"
	 viewBox="0 0 200 200" style="enable-background:new 0 0 200 200;" xml:space="preserve">
<style type="text/css">
	.st0{fill:#333333;}
</style>
<path class="st0" d="M155,7.2c2.9,2.9,2.9,7.5,0.1,10.4l-0.1,0.1l-16.7,16.7l31,0c16.1,0,29.2,13.1,29.2,29.2v102.2
	c0,16.1-13.1,29.2-29.2,29.2H30.6c-16.1,0-29.2-13.1-29.2-29.2V63.5c0-16.1,13.1-29.2,29.2-29.2l31,0L45,17.6
	c-2.9-2.9-2.9-7.6,0-10.5c2.9-2.9,7.6-2.9,10.5,0l27.2,27.1h34.7l27.2-27.1C147.5,4.3,152.2,4.3,155,7.2z M87.5,83.6
	c-6.4,0-11.6,5.2-11.6,11.6V134c0,2.1,0.6,4.2,1.6,5.9c3.4,5.6,10.6,7.4,16.2,4.1l31.5-19.2c1.7-1,3-2.4,3.9-3.9
	c3.5-5.5,1.8-12.7-3.7-16.2L93.6,85.4C91.8,84.2,89.7,83.6,87.5,83.6z"/>
</svg>
