<?xml version="1.0" standalone="no"?><!DOCTYPE svg PUBLIC "-//W3C//DTD SVG 1.1//EN" "http://www.w3.org/Graphics/SVG/1.1/DTD/svg11.dtd"><svg class="icon" width="200px" height="200.00px" viewBox="0 0 1024 1024" version="1.1" xmlns="http://www.w3.org/2000/svg"><path fill="#2c2c2c" d="M922.112 402.432h-58.368V324.608c0-166.4-156.16-300.544-348.16-300.544-192.512-0.512-348.16 134.144-348.16 300.544v77.824H109.568c-31.744 0-58.368 23.04-58.368 50.176v495.616c0 28.16 26.112 51.2 58.368 51.2h813.056c31.744 0 58.368-23.04 58.368-50.176v-496.64c0-28.16-26.112-50.176-58.88-50.176 0.512 0 0 0 0 0z m-174.592 0H284.16V324.608c-0.512-110.592 103.936-200.704 231.936-200.704s232.448 90.112 232.448 200.704v77.824h-1.024z" /></svg>