<?xml version="1.0" standalone="no"?><!DOCTYPE svg PUBLIC "-//W3C//DTD SVG 1.1//EN" "http://www.w3.org/Graphics/SVG/1.1/DTD/svg11.dtd"><svg class="icon" width="200px" height="200.00px" viewBox="0 0 1024 1024" version="1.1" xmlns="http://www.w3.org/2000/svg"><path fill="#2c2c2c" d="M506.88 915.968H138.752V108.032H506.88c22.528 0 40.96-18.432 40.96-40.96s-18.432-40.96-40.96-40.96H97.792c-22.528 0-40.96 18.432-40.96 40.96v889.856c0 22.528 18.432 40.96 40.96 40.96H506.88c22.528 0 40.96-18.432 40.96-40.96s-18.432-40.96-40.96-40.96zM977.408 482.816l-280.064-280.064c-15.872-15.872-41.984-15.872-57.856 0-15.872 15.872-15.872 41.984 0 57.856L849.92 471.04H350.72c-22.528 0-40.96 18.432-40.96 40.96s18.432 40.96 40.96 40.96h498.688l-210.432 210.432c-15.872 15.872-15.872 41.984 0 57.856 8.192 8.192 18.432 11.776 29.184 11.776 10.24 0 20.992-4.096 29.184-11.776l280.064-280.576c15.872-15.872 15.872-41.984 0-57.856z" /></svg>