<?xml version="1.0" encoding="utf-8"?>
<!-- Generator: Adobe Illustrator 24.2.3, SVG Export Plug-In . SVG Version: 6.00 Build 0)  -->
<svg version="1.1" id="Layer_1" xmlns="http://www.w3.org/2000/svg" xmlns:xlink="http://www.w3.org/1999/xlink" x="0px" y="0px"
	 viewBox="0 0 200 200" style="enable-background:new 0 0 200 200;" xml:space="preserve">
<path d="M70.6,96.6H15.6C6.9,96.6,0,89.7,0,81V26c0-8.5,7-15.6,15.6-15.6h55.1c8.6,0,15.6,6.9,15.6,15.6V81
	C86.2,89.7,79.2,96.6,70.6,96.6z M70.6,200H15.6C6.9,200,0,193.1,0,184.4v-55.1c0-8.6,6.9-15.6,15.6-15.6h55.1
	c8.6,0,15.6,6.9,15.6,15.6v55.1C86.2,193,79.2,200,70.6,200z M174,200H119c-8.6,0-15.6-6.9-15.6-15.6v-55.1
	c0-8.6,6.9-15.6,15.6-15.6H174c8.6,0,15.6,6.9,15.6,15.6v55.1C189.6,193,182.5,200,174,200z M193.3,42.6l-36-36
	c-6.1-6.1-15.9-6.1-22,0l-36,36c-6.1,6.1-6.1,15.9,0,22l36,36c6.1,6.1,15.9,6.1,22,0l36-36C199.4,58.4,199.4,48.6,193.3,42.6
	L193.3,42.6z M149.6,83.9c-1.7,1.7-4.6,1.7-6.3,0l-27.2-27.2c-1.7-1.7-1.7-4.6,0-6.3l27.2-27.2c1.7-1.7,4.6-1.7,6.3,0l27.2,27.2
	c1.7,1.7,1.7,4.6,0,6.3L149.6,83.9z"/>
</svg>
