<?xml version="1.0" standalone="no"?><!DOCTYPE svg PUBLIC "-//W3C//DTD SVG 1.1//EN" "http://www.w3.org/Graphics/SVG/1.1/DTD/svg11.dtd"><svg class="icon" width="200px" height="200.00px" viewBox="0 0 1024 1024" version="1.1" xmlns="http://www.w3.org/2000/svg"><path fill="#2c2c2c" d="M343.552 461.824H124.416c-62.464 0-113.152-50.688-113.152-113.152V72.704c0-31.232 25.088-56.32 56.32-56.32H343.04c62.464 0 113.152 50.688 113.152 113.152v219.136c0.512 62.464-50.176 113.152-112.64 113.152zM764.416 101.376c4.608 0 13.824 1.024 21.504 9.216l127.488 127.488c11.776 11.776 11.776 31.744 0 43.52l-127.488 127.488c-7.68 7.68-16.896 9.216-21.504 9.216s-13.824-1.024-21.504-9.216L615.424 281.6c-7.68-7.68-9.216-16.896-9.216-21.504s1.024-13.824 9.216-21.504l127.488-127.488c7.68-8.192 16.896-9.728 21.504-9.728m0-79.36c-28.16 0-56.32 10.752-78.336 32.256l-127.488 127.488c-43.008 43.008-43.008 113.152 0 156.16L686.08 465.408c21.504 21.504 49.664 32.256 78.336 32.256s56.32-10.752 78.336-32.256L970.24 337.92c43.008-43.008 43.008-113.152 0-156.16l-127.488-127.488c-21.504-21.504-49.664-32.256-78.336-32.256zM343.552 1007.616H68.096c-31.232 0-56.32-25.088-56.32-56.32V675.84c0-62.464 50.688-113.152 113.152-113.152h219.136c62.464 0 113.152 50.688 113.152 113.152v219.136c-0.512 61.952-51.2 112.64-113.664 112.64zM949.76 1007.616h-275.456c-62.464 0-113.152-50.688-113.152-113.152v-219.136c0-62.464 50.688-113.152 113.152-113.152h219.136c62.464 0 113.152 50.688 113.152 113.152v275.456c-0.512 31.232-25.6 56.832-56.832 56.832z" /></svg>