<?xml version="1.0" encoding="utf-8"?>
<!-- Generator: Adobe Illustrator 24.2.3, SVG Export Plug-In . SVG Version: 6.00 Build 0)  -->
<svg version="1.1" id="Layer_1" xmlns="http://www.w3.org/2000/svg" xmlns:xlink="http://www.w3.org/1999/xlink" x="0px" y="0px"
	 viewBox="0 0 200 200" style="enable-background:new 0 0 200 200;" xml:space="preserve">
<path d="M99.9,17.4c11.2,0,21.3,2.7,30.9,8.5s17,13.3,22.4,22.9s8,19.7,8,30.9c0,10.6-3.2,22.9-10.1,36.7
	c-6.4,10.1-13.8,20.8-22.4,31.9c-8.5,11.2-15.4,19.7-20.2,25.6l-7.5,9.1c-1.1-0.5-2.1-2.1-3.7-3.7s-4.8-4.8-9.1-9.6l-12.8-14.4
	c-4.3-4.8-9.1-11.2-13.8-18.1c-5.3-7.5-9.6-14.4-13.3-20.8c-5.9-12.2-8.5-24.5-8.5-35.1c0-8.5,1.6-16.5,4.8-24
	C47.7,49.9,52,43,57.3,37.1S69,27,77,23.3C83.9,19,91.4,17.4,99.9,17.4L99.9,17.4z M100.4,45.1c-8.5,0-16,3.2-22.4,9.1
	C71.7,60,69,68,69,76.5s3.2,16,9.1,22.4c5.9,6.4,13.3,9.1,22.4,9.1s16-3.2,22.4-9.1c6.4-5.9,9.1-13.3,9.1-22.4
	c0-8.5-3.2-16-9.1-22.4C116.4,47.8,108.9,45.1,100.4,45.1z"/>
</svg>
