<?xml version="1.0" encoding="UTF-8"?>
<svg width="16px" height="16px" viewBox="0 0 16 16" version="1.1" xmlns="http://www.w3.org/2000/svg" xmlns:xlink="http://www.w3.org/1999/xlink">
    <title>访问管理</title>
    <g id="页面-1" stroke="none" stroke-width="1" fill="none" fill-rule="evenodd">
        <g id="访问管理" fill-rule="nonzero">
            <rect id="矩形" opacity="0" x="0" y="0" width="16" height="16"></rect>
            <path d="M13.4140625,11.93125 C13.11875,11.23125 12.69375,10.603125 12.1546875,10.0640625 C11.615625,9.525 10.9875,9.1015625 10.2875,8.8046875 C10.28125,8.8015625 10.275,8.8 10.26875,8.796875 C11.2421875,8.09375 11.875,6.9484375 11.875,5.65625 C11.875,3.515625 10.140625,1.78125 8,1.78125 C5.859375,1.78125 4.125,3.515625 4.125,5.65625 C4.125,6.9484375 4.7578125,8.09375 5.73125,8.7984375 C5.725,8.8015625 5.71875,8.803125 5.7125,8.80625 C5.0125,9.1015625 4.384375,9.525 3.8453125,10.065625 C3.30625,10.6046875 2.8828125,11.2328125 2.5859375,11.9328125 C2.2953125,12.6171875 2.140625,13.34375 2.1249377,14.090625 C2.1234375,14.1609375 2.1796875,14.21875 2.25,14.21875 L13.75,14.21875 C13.8203125,14.21875 13.8765625,14.1609375 13.8750623,14.090625 C13.859375,13.34375 13.7046875,12.6171875 13.4140625,11.93125 Z" id="路径" fill="#000000"></path>
        </g>
    </g>
</svg>