<?xml version="1.0" standalone="no"?><!DOCTYPE svg PUBLIC "-//W3C//DTD SVG 1.1//EN" "http://www.w3.org/Graphics/SVG/1.1/DTD/svg11.dtd"><svg class="icon" width="200px" height="200.00px" viewBox="0 0 1024 1024" version="1.1" xmlns="http://www.w3.org/2000/svg"><path fill="#000000" d="M421.248 496.448c-25.984-41.664-36.352-88.448-36.352-140.416A257.472 257.472 0 0 1 644.864 96a257.472 257.472 0 0 1 259.968 260.032 257.472 257.472 0 0 1-259.968 259.968c-57.216 0-103.936-15.616-150.784-46.848l-119.552 119.616 57.152 57.28-72.832 72.768-57.216-57.216-36.352 36.48 57.216 57.152L249.664 928 119.68 798.08l301.568-301.696v0.064z m223.616-296.448c-88.384 0-155.968 67.648-155.968 156.032C488.896 444.352 556.48 512 644.864 512c88.384 0 155.968-67.584 155.968-155.968 0-88.448-72.768-156.032-155.968-156.032z" /></svg>