<?xml version="1.0" encoding="UTF-8"?>
<svg width="16px" height="16px" viewBox="0 0 16 16" version="1.1" xmlns="http://www.w3.org/2000/svg" xmlns:xlink="http://www.w3.org/1999/xlink">
    <title>车辆管理</title>
    <g id="页面-1" stroke="none" stroke-width="1" fill="none" fill-rule="evenodd">
        <g id="车辆管理" fill-rule="nonzero">
            <rect id="矩形" opacity="0" x="0" y="0" width="16" height="16"></rect>
            <path d="M14.984375,6.459375 L14.6140625,5.8125 C14.5796875,5.753125 14.503125,5.7328125 14.44375,5.7671875 L13.6515625,6.2296875 L12.428125,2.8515625 C12.2953125,2.4375 11.9109375,2.1578125 11.4765625,2.1578125 L4.70625,2.1578125 C4.1640625,2.1578125 3.6828125,2.5078125 3.515625,3.025 L2.35,6.23125 L1.55625,5.76875 C1.496875,5.734375 1.4203125,5.7546875 1.3859375,5.8140625 L1.015625,6.459375 C0.98125,6.51875 1.0015625,6.59375 1.0609375,6.628125 L2.0046875,7.178125 L1.778125,7.803125 C1.759375,7.853125 1.75,7.90625 1.75,7.959375 L1.75,13.4 C1.75,13.6453125 1.934375,13.84375 2.1609375,13.84375 L3.2171875,13.84375 C3.409375,13.84375 3.5765625,13.6984375 3.6171875,13.4953125 L3.7375,12.90625 L12.2625,12.90625 L12.3828125,13.4953125 C12.425,13.6984375 12.590625,13.84375 12.7828125,13.84375 L13.8390625,13.84375 C14.065625,13.84375 14.25,13.6453125 14.25,13.4 L14.25,7.959375 C14.25,7.90625 14.240625,7.853125 14.221875,7.803125 L13.9953125,7.178125 L14.9375,6.628125 C14.996875,6.59375 15.0171875,6.51875 14.984375,6.459375 Z M4.125,9.703125 C3.7796875,9.703125 3.5,9.4234375 3.5,9.078125 C3.5,8.7328125 3.7796875,8.453125 4.125,8.453125 C4.4703125,8.453125 4.75,8.7328125 4.75,9.078125 C4.75,9.4234375 4.4703125,9.703125 4.125,9.703125 Z M10.1875,10.875 C10.1875,10.94375 10.13125,11 10.0625,11 L5.9375,11 C5.86875,11 5.8125,10.94375 5.8125,10.875 L5.8125,9.5625 C5.8125,9.49375 5.86875,9.4375 5.9375,9.4375 L6.5625,9.4375 C6.63125,9.4375 6.6875,9.49375 6.6875,9.5625 L6.6875,10.125 L9.3125,10.125 L9.3125,9.5625 C9.3125,9.49375 9.36875,9.4375 9.4375,9.4375 L10.0625,9.4375 C10.13125,9.4375 10.1875,9.49375 10.1875,9.5625 L10.1875,10.875 Z M11.875,9.703125 C11.5296875,9.703125 11.25,9.4234375 11.25,9.078125 C11.25,8.7328125 11.5296875,8.453125 11.875,8.453125 C12.2203125,8.453125 12.5,8.7328125 12.5,9.078125 C12.5,9.4234375 12.2203125,9.703125 11.875,9.703125 Z M3.4375,6.53125 L4.5734375,3.4078125 L4.58125,3.3875 L4.5875,3.3671875 C4.6046875,3.315625 4.6515625,3.28125 4.70625,3.28125 L11.3875,3.28125 L12.565625,6.53125 L3.4375,6.53125 Z" id="形状" fill="#000000"></path>
        </g>
    </g>
</svg>