<?xml version="1.0" standalone="no"?><!DOCTYPE svg PUBLIC "-//W3C//DTD SVG 1.1//EN" "http://www.w3.org/Graphics/SVG/1.1/DTD/svg11.dtd"><svg class="icon" width="200px" height="200.00px" viewBox="0 0 1024 1024" version="1.1" xmlns="http://www.w3.org/2000/svg"><path fill="#000000" d="M912 848v54.4a9.6 9.6 0 0 1-9.6 9.6H121.6a9.6 9.6 0 0 1-9.6-9.6v-54.4a9.6 9.6 0 0 1 9.6-9.6h780.8a9.6 9.6 0 0 1 9.6 9.6zM881.28 112a31.36 31.36 0 0 1 30.72 32v608a31.36 31.36 0 0 1-30.72 32H142.72a31.36 31.36 0 0 1-30.72-32v-608c0-17.664 13.76-32 30.72-32h738.56zM608.64 404.736a6.528 6.528 0 0 0-9.152 0.768L470.848 558.08l-80.768-96-0.832-0.768a6.528 6.528 0 0 0-9.216 0.768L241.536 626.304a6.528 6.528 0 0 0 4.992 10.752h544.512a6.592 6.592 0 0 0 5.12-10.624L609.536 405.504zM304 256a64 64 0 0 0 0 128 64 64 0 0 0 0-128z" /></svg>