<?xml version="1.0" encoding="UTF-8"?>
<svg width="16px" height="16px" viewBox="0 0 16 16" version="1.1" xmlns="http://www.w3.org/2000/svg" xmlns:xlink="http://www.w3.org/1999/xlink">
    <title>告警管理</title>
    <g id="页面-1" stroke="none" stroke-width="1" fill="none" fill-rule="evenodd">
        <g id="告警管理" fill-rule="nonzero">
            <rect id="矩形" opacity="0" x="0" y="0" width="16" height="16"></rect>
            <path d="M8,3.8125 C10.7527969,3.8125 12.984375,6.04407813 12.984375,8.796875 L12.984375,12.4375 C12.984375,12.7136406 12.7605156,12.9375 12.484375,12.9375 L3.515625,12.9375 C3.23948437,12.9375 3.015625,12.7136406 3.015625,12.4375 L3.015625,8.796875 C3.015625,6.04407813 5.24720312,3.8125 8,3.8125 Z M7.5625,1.0625 L8.4375,1.0625 C8.50653559,1.0625 8.5625,1.11846441 8.5625,1.1875 L8.5625,2.6875 C8.5625,2.75653559 8.50653559,2.8125 8.4375,2.8125 L7.5625,2.8125 C7.49346441,2.8125 7.4375,2.75653559 7.4375,2.6875 L7.4375,1.1875 C7.4375,1.11846441 7.49346441,1.0625 7.5625,1.0625 Z M2.76960937,2.99464063 C2.79305161,2.97119718 2.82484682,2.9580267 2.858,2.9580267 C2.89115318,2.9580267 2.92294839,2.97119718 2.94639062,2.99464063 L4.00704687,4.05529687 C4.03049032,4.07873911 4.0436608,4.11053432 4.0436608,4.1436875 C4.0436608,4.17684068 4.03049032,4.20863589 4.00704687,4.23207813 L3.38832812,4.85079688 C3.36488589,4.87424032 3.33309068,4.8874108 3.2999375,4.8874108 C3.26678432,4.8874108 3.23498911,4.87424032 3.21154687,4.85079688 L2.15089062,3.79014063 C2.12744718,3.76669839 2.1142767,3.73490318 2.1142767,3.70175 C2.1142767,3.66859682 2.12744718,3.63680161 2.15089062,3.61335938 L2.76960937,2.99464063 L2.76960937,2.99464063 Z M13.2320781,2.99464063 L13.8507969,3.61335938 C13.8742403,3.63680161 13.8874108,3.66859682 13.8874108,3.70175 C13.8874108,3.73490318 13.8742403,3.76669839 13.8507969,3.79014063 L12.7901406,4.85079688 C12.7666984,4.87424032 12.7349032,4.8874108 12.70175,4.8874108 C12.6685968,4.8874108 12.6368016,4.87424032 12.6133594,4.85079687 L11.9946406,4.23207812 C11.9711972,4.20863589 11.9580267,4.17684068 11.9580267,4.1436875 C11.9580267,4.11053432 11.9711972,4.07873911 11.9946406,4.05529687 L13.0552969,2.99464062 C13.0787391,2.97119718 13.1105343,2.9580267 13.1436875,2.9580267 C13.1768407,2.9580267 13.2086359,2.97119718 13.2320781,2.99464062 L13.2320781,2.99464063 Z M3,13.9375 L13,13.9375 C13.2761406,13.9375 13.5,14.1613594 13.5,14.4375 L13.5,14.8125 C13.5,14.8815356 13.4440356,14.9375 13.375,14.9375 L2.625,14.9375 C2.55596441,14.9375 2.5,14.8815356 2.5,14.8125 L2.5,14.4375 C2.5,14.1613594 2.72385937,13.9375 3,13.9375 Z M5.3125,8.984375 L5.3125,12.9375 L6.3125,12.9375 L6.3125,8.984375 L5.3125,8.984375 Z" id="形状" fill="#000000"></path>
        </g>
    </g>
</svg>