<?xml version="1.0" standalone="no"?><!DOCTYPE svg PUBLIC "-//W3C//DTD SVG 1.1//EN" "http://www.w3.org/Graphics/SVG/1.1/DTD/svg11.dtd"><svg class="icon" width="200px" height="200.00px" viewBox="0 0 1024 1024" version="1.1" xmlns="http://www.w3.org/2000/svg"><path fill="#000000" d="M166.464 430.72l5.76 3.2 533.312 360.96 190.272-136.512a36.8 36.8 0 0 1 46.976 3.392l4.352 4.992a36.8 36.8 0 0 1-3.392 47.04l-5.056 4.352-211.072 151.552a36.8 36.8 0 0 1-36.416 3.712l-5.696-3.2-292.352-197.888-160 69.056-95.552-0.064v118.912a36.8 36.8 0 0 1-73.088 5.952L64 860.224V580.288a36.8 36.8 0 0 1 73.088-5.952l0.512 5.952v87.424h80.32l102.848-44.416-189.76-128.448a36.8 36.8 0 0 1 35.456-64.128zM303.36 136.64a36.8 36.8 0 0 1 43.264-3.008l590.272 371.52c22.144 13.888 23.04 45.76 1.92 60.992l-211.136 151.552a36.8 36.8 0 0 1-42.112 0.64L131.008 342.848A36.8 36.8 0 0 1 128 284.288z" /></svg>