<?xml version="1.0" encoding="UTF-8"?>
<svg width="16px" height="16px" viewBox="0 0 16 16" version="1.1" xmlns="http://www.w3.org/2000/svg" xmlns:xlink="http://www.w3.org/1999/xlink">
    <title>模版管理</title>
    <g id="页面-1" stroke="none" stroke-width="1" fill="none" fill-rule="evenodd">
        <g id="模版管理" fill-rule="nonzero">
            <rect id="矩形" opacity="0" x="0" y="0" width="16" height="16"></rect>
            <path d="M13.75,1.75 C14.0265625,1.75 14.25,1.9734375 14.25,2.25 L14.25,2.25 L14.25,13.75 C14.25,14.0265625 14.0265625,14.25 13.75,14.25 L13.75,14.25 L2.25,14.25 C1.9734375,14.25 1.75,14.0265625 1.75,13.75 L1.75,13.75 L1.75,2.25 C1.75,1.9734375 1.9734375,1.75 2.25,1.75 L2.25,1.75 Z M12.5,8.75 L8.80000001,8.75 C8.71715729,8.75 8.65,8.81715729 8.65,8.90000001 L8.65,8.90000001 L8.65,12.6 C8.65,12.6828427 8.71715729,12.75 8.80000001,12.75 L8.80000001,12.75 L12.5,12.75 C12.5828427,12.75 12.65,12.6828427 12.65,12.6 L12.65,12.6 L12.65,8.90000001 C12.65,8.81715729 12.5828427,8.75 12.5,8.75 L12.5,8.75 Z M7.19999999,8.75 L3.50000001,8.75 C3.41715729,8.75 3.35,8.81715729 3.35,8.90000001 L3.35,8.90000001 L3.35,12.6 C3.35,12.6828427 3.41715729,12.75 3.50000001,12.75 L3.50000001,12.75 L7.19999999,12.75 C7.28284271,12.75 7.35,12.6828427 7.35,12.6 L7.35,12.6 L7.35,8.90000001 C7.35,8.81715729 7.28284271,8.75 7.19999999,8.75 L7.19999999,8.75 Z M11,3.75 L10.3,3.75 C10.2171573,3.75 10.15,3.81715729 10.15,3.90000001 L10.15,3.90000001 L10.15,5.25 L8.80000001,5.25 C8.71715729,5.25 8.65,5.31715729 8.65,5.40000001 L8.65,5.40000001 L8.65,6.09999999 C8.65,6.18284271 8.71715729,6.25 8.80000001,6.25 L8.80000001,6.25 L10.15,6.25 L10.15,7.59999999 C10.15,7.68284271 10.2171573,7.75 10.3,7.75 L10.3,7.75 L11,7.75 C11.0828427,7.75 11.15,7.68284271 11.15,7.59999999 L11.15,7.59999999 L11.15,6.25 L12.5,6.25 C12.5828427,6.25 12.65,6.18284271 12.65,6.09999999 L12.65,6.09999999 L12.65,5.40000001 C12.65,5.31715729 12.5828427,5.25 12.5,5.25 L12.5,5.25 L11.15,5.25 L11.15,3.90000001 C11.15,3.81715729 11.0828427,3.75 11,3.75 L11,3.75 Z M7.19999999,3.25 L3.50000001,3.25 C3.41715729,3.25 3.35,3.31715729 3.35,3.40000001 L3.35,3.40000001 L3.35,7.09999999 C3.35,7.18284271 3.41715729,7.25 3.50000001,7.25 L3.50000001,7.25 L7.19999999,7.25 C7.28284271,7.25 7.35,7.18284271 7.35,7.09999999 L7.35,7.09999999 L7.35,3.40000001 C7.35,3.31715729 7.28284271,3.25 7.19999999,3.25 L7.19999999,3.25 Z" id="形状" fill="#000000"></path>
        </g>
    </g>
</svg>