<?xml version="1.0" encoding="UTF-8"?>
<svg width="16px" height="16px" viewBox="0 0 16 16" version="1.1" xmlns="http://www.w3.org/2000/svg" xmlns:xlink="http://www.w3.org/1999/xlink">
    <title>消息推送</title>
    <g id="页面-1" stroke="none" stroke-width="1" fill="none" fill-rule="evenodd">
        <g id="消息推送" fill-rule="nonzero">
            <rect id="矩形" opacity="0" x="0" y="0" width="16" height="16"></rect>
            <path d="M5,5.08878856 L5,6.588 L3.03125,6.58878856 C2.984375,6.58878856 2.94453125,6.61691356 2.92753906,6.65734324 L2.91875,6.70128856 C2.91875,6.73566356 2.934375,6.76847606 2.9625,6.79035106 L2.9625,6.79035106 L7.89375,10.6262886 C8.015625,10.7216011 8.1859375,10.7216011 8.3078125,10.6262886 L8.3078125,10.6262886 L13.2375,6.79035106 C13.2875,6.75128856 13.2953125,6.68097606 13.2578125,6.63253856 C13.2359375,6.60441356 13.203125,6.58878856 13.16875,6.58878856 L13.16875,6.58878856 L11,6.588 L11,5.08878856 L14.5,5.08878856 C14.7765625,5.08878856 15,5.29191356 15,5.54333401 L15,5.54333401 L15,13.6342431 C15,13.8856636 14.7765625,14.0887886 14.5,14.0887886 L14.5,14.0887886 L1.5,14.0887886 C1.2234375,14.0887886 1,13.8856636 1,13.6342431 L1,13.6342431 L1,5.54333401 C1,5.29191356 1.2234375,5.08878856 1.5,5.08878856 L1.5,5.08878856 L5,5.08878856 Z M7.89598994,2.05122439 C7.94929662,1.9829252 8.05257832,1.9829252 8.105885,2.05122439 L8.105885,2.05122439 L9.97161883,4.41504252 C10.0415838,4.50166587 9.97828216,4.63160091 9.8666713,4.63160091 L9.8666713,4.63160091 L8.60063763,4.63160091 L8.60063763,7.79618535 C8.60063763,7.86948204 8.54066761,7.92945205 8.46737093,7.92945205 L8.46737093,7.92945205 L7.53450401,7.92945205 C7.46120733,7.92945205 7.40123731,7.86948204 7.40123731,7.79618535 L7.40123731,7.79618535 L7.40123731,4.63160091 L6.13520364,4.63160091 C6.02359278,4.63160091 5.96029109,4.50333171 6.03025611,4.41504252 L6.03025611,4.41504252 Z" id="形状结合" fill="#000000"></path>
        </g>
    </g>
</svg>