<?xml version="1.0" standalone="no"?><!DOCTYPE svg PUBLIC "-//W3C//DTD SVG 1.1//EN" "http://www.w3.org/Graphics/SVG/1.1/DTD/svg11.dtd"><svg class="icon" width="200px" height="200.00px" viewBox="0 0 1024 1024" version="1.1" xmlns="http://www.w3.org/2000/svg"><path fill="#000000" d="M284.992 839.744l-7.808 105.152h-177.28a36.544 36.544 0 0 1-35.2-43.84l1.472-5.568 19.776-55.744h199.04z m473.792-297.152l47.36 0.064c13.12 0 25.088 7.424 31.36 19.008l2.24 5.184 34.816 98.176h-84.736l-6.4 0.576c-16.384 2.688-28.8 15.744-28.8 31.488 0 15.68 12.416 28.8 28.8 31.424l6.4 0.576 107.456-0.064 25.152 70.976h-270.72l-5.568 0.512a31.616 31.616 0 0 0-25.088 25.728l-0.512 5.76v112.896H339.712l9.984-134.656v-5.44a31.68 31.68 0 0 0-25.728-28.544l-5.312-0.512H108.672l74.048-208.896c4.48-12.672 15.36-21.696 28.16-23.68l5.568-0.512 47.296-0.064c27.008 45.376 62.272 94.208 105.728 147.264l19.2 23.04 29.44 34.112 16 17.984 6.72 6.912a103.424 103.424 0 0 0 140.288 0.64l7.104-7.296 15.552-17.472 29.696-34.368 14.912-17.92 14.336-17.6c39.04-48.448 71.04-93.376 96.064-135.296z m186.304 321.408l11.2 31.488a36.864 36.864 0 0 1-28.032 48.96l-5.632 0.448H682.88v-80.96h262.208zM511.232 79.104a261.44 261.44 0 0 1 261.44 261.44c0 81.152-57.408 188.672-171.52 326.784l-15.168 18.24-30.976 35.84-16.32 18.496a36.8 36.8 0 0 1-54.848 0l-8.256-9.28-8.128-9.152-30.976-35.904c-124.16-146.944-186.624-260.352-186.624-344.96a261.44 261.44 0 0 1 261.376-261.504zM510.72 229.76a96 96 0 1 0 0 192 96 96 0 0 0 0-192z" /></svg>