<?xml version="1.0" encoding="UTF-8"?>
<svg width="16px" height="16px" viewBox="0 0 16 16" version="1.1" xmlns="http://www.w3.org/2000/svg" xmlns:xlink="http://www.w3.org/1999/xlink">
    <title>概览</title>
    <g id="页面-1" stroke="none" stroke-width="1" fill="none" fill-rule="evenodd">
        <g id="概览" fill-rule="nonzero">
            <rect id="矩形" opacity="0" x="0" y="0" width="16" height="16"></rect>
            <path d="M14.45,6.025 C14.096875,5.190625 13.5921875,4.4421875 12.95,3.8 C12.3078125,3.1578125 11.559375,2.653125 10.725,2.3 C9.8609375,1.934375 8.9453125,1.75 8,1.75 C7.0546875,1.75 6.1390625,1.934375 5.275,2.3 C4.440625,2.653125 3.6921875,3.1578125 3.05,3.8 C2.4078125,4.4421875 1.903125,5.190625 1.55,6.025 C1.184375,6.8890625 1,7.8046875 1,8.75 C1,10.8234375 1.9109375,12.7765625 3.4984375,14.1109375 L3.525,14.1328125 C3.615625,14.2078125 3.7296875,14.25 3.846875,14.25 L12.1546875,14.25 C12.271875,14.25 12.3859375,14.2078125 12.4765625,14.1328125 L12.503125,14.1109375 C14.0890625,12.7765625 15,10.8234375 15,8.75 C15,7.8046875 14.8140625,6.8890625 14.45,6.025 Z M7.53125,3.625 C7.53125,3.55625 7.5875,3.5 7.65625,3.5 L8.34375,3.5 C8.4125,3.5 8.46875,3.55625 8.46875,3.625 L8.46875,4.875 C8.46875,4.94375 8.4125,5 8.34375,5 L7.65625,5 C7.5875,5 7.53125,4.94375 7.53125,4.875 L7.53125,3.625 Z M4.21875,9.09375 C4.21875,9.1625 4.1625,9.21875 4.09375,9.21875 L2.84375,9.21875 C2.775,9.21875 2.71875,9.1625 2.71875,9.09375 L2.71875,8.40625 C2.71875,8.3375 2.775,8.28125 2.84375,8.28125 L4.09375,8.28125 C4.1625,8.28125 4.21875,8.3375 4.21875,8.40625 L4.21875,9.09375 Z M5.6359375,5.8984375 L5.15,6.384375 C5.1015625,6.4328125 5.021875,6.4328125 4.9734375,6.384375 L4.0890625,5.5 C4.040625,5.4515625 4.040625,5.371875 4.0890625,5.3234375 L4.575,4.8375 C4.6234375,4.7890625 4.703125,4.7890625 4.7515625,4.8375 L5.6359375,5.721875 C5.684375,5.7703125 5.684375,5.85 5.6359375,5.8984375 L5.6359375,5.8984375 Z M10.184375,7.2046875 L8.8640625,8.525 C8.9421875,8.8171875 8.8671875,9.140625 8.6375,9.3703125 C8.2953125,9.7125 7.7421875,9.7125 7.4,9.3703125 C7.0578125,9.028125 7.0578125,8.475 7.4,8.1328125 C7.6296875,7.903125 7.953125,7.828125 8.2453125,7.90625 L9.565625,6.5859375 C9.6140625,6.5375 9.69375,6.5375 9.7421875,6.5859375 L10.184375,7.028125 C10.2328125,7.0765625 10.2328125,7.1546875 10.184375,7.2046875 L10.184375,7.2046875 Z M10.85625,6.3859375 L10.3703125,5.9 C10.321875,5.8515625 10.321875,5.771875 10.3703125,5.7234375 L11.2546875,4.8390625 C11.303125,4.790625 11.3828125,4.790625 11.43125,4.8390625 L11.9171875,5.325 C11.965625,5.3734375 11.965625,5.453125 11.9171875,5.5015625 L11.0328125,6.3859375 C10.984375,6.434375 10.9046875,6.434375 10.85625,6.3859375 Z M13.21875,9.09375 C13.21875,9.1625 13.1625,9.21875 13.09375,9.21875 L11.84375,9.21875 C11.775,9.21875 11.71875,9.1625 11.71875,9.09375 L11.71875,8.40625 C11.71875,8.3375 11.775,8.28125 11.84375,8.28125 L13.09375,8.28125 C13.1625,8.28125 13.21875,8.3375 13.21875,8.40625 L13.21875,9.09375 Z" id="形状" fill="#000000"></path>
        </g>
    </g>
</svg>