<?xml version="1.0" encoding="UTF-8"?>
<svg width="16px" height="16px" viewBox="0 0 16 16" version="1.1" xmlns="http://www.w3.org/2000/svg" xmlns:xlink="http://www.w3.org/1999/xlink">
    <title>录像回放</title>
    <g id="页面-1" stroke="none" stroke-width="1" fill="none" fill-rule="evenodd">
        <g id="录像回放" fill-rule="nonzero">
            <rect id="矩形" opacity="0" x="0" y="0" width="16" height="16"></rect>
            <path d="M14.25,4.7234375 L12.25,5.875 L12.25,3.5 C12.25,2.9484375 11.8015625,2.5 11.25,2.5 L2,2.5 C1.4484375,2.5 1,2.9484375 1,3.5 L1,12.375 L1,12.5 C1,13.0522847 1.44771525,13.5 2,13.5 L11.25,13.5 L11.25,13.5 C11.8015625,13.5 12.25,13.0515625 12.25,12.5 L12.25,10.125 L14.25,11.2765625 C14.5828125,11.46875 15,11.228125 15,10.8453125 L15,5.15625 C15,4.771875 14.5828125,4.53125 14.25,4.7234375 Z M6.5,4.925 C8.19827561,4.925 9.575,6.30172439 9.575,8 C9.575,8.74890588 9.30517503,9.45464635 8.83230505,10.0042404 L9.47487373,10.6464466 L7,11 L7.35355339,8.52512627 L8.01531031,9.18761952 C8.27730952,8.85407875 8.425,8.43944121 8.425,8 C8.425,6.93685186 7.56314814,6.075 6.5,6.075 C5.43685186,6.075 4.575,6.93685186 4.575,8 C4.575,8.55138524 4.80777264,9.0633121 5.20491325,9.42430697 L5.32891807,9.527966 L4.62849867,10.4400585 C3.87574839,9.86200204 3.425,8.96775595 3.425,8 C3.425,6.30172439 4.80172439,4.925 6.5,4.925 Z M13.875,6.234375 L13.875,9.765625 L12.25,8.83125 L12.25,7.1703125 L13.875,6.234375 Z" id="形状" fill="#000000"></path>
        </g>
    </g>
</svg>