<?xml version="1.0" encoding="UTF-8"?>
<svg width="16px" height="16px" viewBox="0 0 16 16" version="1.1" xmlns="http://www.w3.org/2000/svg" xmlns:xlink="http://www.w3.org/1999/xlink">
    <title>向上级联</title>
    <g id="页面-1" stroke="none" stroke-width="1" fill="none" fill-rule="evenodd">
        <g id="向上级联" fill-rule="nonzero">
            <rect id="矩形" opacity="0" x="0" y="0" width="16" height="16"></rect>
            <path d="M12.8,5.41999999 L2.8,5.41999999 C2.5234375,5.41999999 2.3,5.64343749 2.3,5.91999999 L2.3,9.41999999 L13.3,9.41999999 L13.3,5.91999999 C13.3,5.64343749 13.0765625,5.41999999 12.8,5.41999999 Z M4.3,8.04499999 C3.9546875,8.04499999 3.675,7.76531249 3.675,7.41999999 C3.675,7.07468749 3.9546875,6.79499999 4.3,6.79499999 C4.6453125,6.79499999 4.925,7.07468749 4.925,7.41999999 C4.925,7.76531249 4.6453125,8.04499999 4.3,8.04499999 Z M11.95,1.57 C11.9824555,1.57 12.0140356,1.58052668 12.04,1.6 L13.64,2.79999999 C13.7062742,2.84970562 13.7197056,2.94372583 13.67,3.01 C13.6614719,3.02137085 13.6513708,3.03147186 13.64,3.04 L12.04,4.23999999 C11.9737258,4.28970562 11.8797056,4.27627416 11.83,4.20999999 C11.8105267,4.18403556 11.8,4.15245552 11.8,4.11999998 L11.8,3.534 L2.31159115,3.53499999 L2.31159115,2.38499999 L11.8,2.384 L11.8,1.72000001 C11.8,1.63715729 11.8671573,1.57 11.95,1.57 Z M2.3,13.92 C2.3,14.1965625 2.5234375,14.42 2.8,14.42 L12.8,14.42 C13.0765625,14.42 13.3,14.1965625 13.3,13.92 L13.3,10.42 L2.3,10.42 L2.3,13.92 Z M4.3,11.795 C4.6453125,11.795 4.925,12.0746875 4.925,12.42 C4.925,12.7653125 4.6453125,13.045 4.3,13.045 C3.9546875,13.045 3.675,12.7653125 3.675,12.42 C3.675,12.0746875 3.9546875,11.795 4.3,11.795 Z" id="形状" fill="#000000"></path>
        </g>
    </g>
</svg>