<?xml version="1.0" encoding="UTF-8"?>
<svg width="16px" height="16px" viewBox="0 0 16 16" version="1.1" xmlns="http://www.w3.org/2000/svg" xmlns:xlink="http://www.w3.org/1999/xlink">
    <title>计费管理</title>
    <g id="页面-1" stroke="none" stroke-width="1" fill="none" fill-rule="evenodd">
        <g id="计费管理" fill-rule="nonzero">
            <rect id="矩形" opacity="0" x="0" y="0" width="16" height="16"></rect>
            <path d="M13.45625,1.5 C13.7558594,1.5 13.9979167,1.74205729 13.9979167,2.04166667 L13.9979167,2.04166667 L13.9979167,13.9583333 C13.9979167,14.2579427 13.7558594,14.5 13.45625,14.5 L13.45625,14.5 L3.70625,14.5 C3.40664062,14.5 3.16458333,14.2579427 3.16458333,13.9583333 L3.16458333,13.9583333 L3.164,11.872 L2.15000001,11.8729167 C2.06715729,11.8729167 2,11.8057594 2,11.7229167 L2,10.7770833 C2,10.6942406 2.06715729,10.6270833 2.15000001,10.6270833 L3.164,10.627 L3.164,8.622 L2.15000001,8.62291667 C2.06715729,8.62291667 2,8.55575938 2,8.47291666 L2,7.52708334 C2,7.44424062 2.06715729,7.37708333 2.15000001,7.37708333 L3.164,7.377 L3.164,5.372 L2.15000001,5.37291667 C2.06715729,5.37291667 2,5.30575938 2,5.22291666 L2,4.27708334 C2,4.19424062 2.06715729,4.12708333 2.15000001,4.12708333 L3.164,4.127 L3.16458333,2.04166667 C3.16458333,1.77201823 3.36064974,1.54898698 3.61827826,1.50707721 L3.70625,1.5 Z M7.23781343,4.75 L6.29497489,4.75 C6.27296968,4.75 6.25096447,4.75507813 6.23065197,4.76692708 C6.16463635,4.80247396 6.14093843,4.88541667 6.17648531,4.94973958 L6.17648531,4.94973958 L7.93520927,8.19296875 L6.97036552,8.19296875 C6.89588635,8.19296875 6.83494885,8.25390625 6.83494885,8.32838542 L6.83494885,8.32838542 L6.83494885,8.78710938 C6.83494885,8.86158854 6.89588635,8.92252604 6.97036552,8.92252604 L6.97036552,8.92252604 L8.25682385,8.92252604 L8.25682385,9.58268229 L6.97036552,9.58268229 C6.89588635,9.58268229 6.83494885,9.64361979 6.83494885,9.71809896 L6.83494885,9.71809896 L6.83494885,10.1768229 C6.83494885,10.2513021 6.89588635,10.3122396 6.97036552,10.3122396 L6.97036552,10.3122396 L8.25682385,10.3122396 L8.25682385,11.3854167 C8.25682385,11.4598958 8.31776135,11.5208333 8.39224052,11.5208333 L8.39224052,11.5208333 L9.23690197,11.5208333 C9.31138114,11.5208333 9.37231864,11.4598958 9.37231864,11.3854167 L9.37231864,11.3854167 L9.37231864,10.3105469 L10.6638551,10.3105469 C10.7383343,10.3105469 10.7992718,10.2496094 10.7992718,10.1751302 L10.7992718,10.1751302 L10.7992718,9.71640625 C10.7992718,9.64192708 10.7383343,9.58098958 10.6638551,9.58098958 L10.6638551,9.58098958 L9.37231864,9.58098958 L9.37231864,8.92083333 L10.6638551,8.92083333 C10.7383343,8.92083333 10.7992718,8.85989583 10.7992718,8.78541667 L10.7992718,8.78541667 L10.7992718,8.32669271 C10.7992718,8.25221354 10.7383343,8.19127604 10.6638551,8.19127604 L10.6638551,8.19127604 L9.6888551,8.19127604 L11.4441936,4.94804688 C11.4543499,4.92773438 11.4611207,4.90572917 11.4611207,4.88372396 C11.459428,4.8109375 11.3984905,4.75 11.3240113,4.75 L11.3240113,4.75 L10.4014853,4.75 C10.3507041,4.75 10.3033082,4.77877604 10.281303,4.82447917 L10.281303,4.82447917 L8.84757906,7.68177083 L8.79171968,7.68177083 L7.35799572,4.82447917 C7.33429781,4.77877604 7.28859468,4.75 7.23781343,4.75 L7.23781343,4.75 Z" id="形状结合" fill="#000000"></path>
        </g>
    </g>
</svg>