<?xml version="1.0" standalone="no"?><!DOCTYPE svg PUBLIC "-//W3C//DTD SVG 1.1//EN" "http://www.w3.org/Graphics/SVG/1.1/DTD/svg11.dtd"><svg class="icon" width="200px" height="200.00px" viewBox="0 0 1024 1024" version="1.1" xmlns="http://www.w3.org/2000/svg"><path fill="#000000" d="M96 704l5.76 0.512a32 32 0 0 1 25.728 25.728L128 736V896h160l5.76 0.512a32 32 0 0 1 0 62.976L288 960h-192l-5.76-0.512a32 32 0 0 1-25.728-25.728L64 928v-192l0.512-5.76A32 32 0 0 1 96 704z m832 0a32 32 0 0 1 31.488 26.24l0.512 5.76v192a32 32 0 0 1-26.24 31.488L928 960h-192a32 32 0 0 1-5.76-63.488L736 896H896v-160a32 32 0 0 1 26.24-31.488L928 704z m-377.536 148.736L550.4 633.152c123.2-4.672 222.464-45.44 240.576-97.536-21.504 159.232-123.52 299.904-240.512 317.12zM260.672 529.088c11.648 54.656 112 98.304 238.464 103.936v219.328c-116.672-18.944-218.048-156.544-237.504-313.216zM550.4 454.848c110.464 4.8 192.32 41.536 192.32 63.552s-81.92 58.752-192.32 63.488z m-51.2 0.256v126.592C390.592 576.32 310.656 540.16 310.656 518.4c0-21.76 80-57.92 188.416-63.36z m0-262.016V403.84c-134.656 5.952-239.68 55.04-239.68 114.624l0.128-1.792L256 474.56c0-163.328 99.008-269.632 243.2-281.472z m297.344 266.304c-1.28 26.816-2.176 44.736-2.944 53.76-6.144-57.856-110.784-104.512-243.2-109.504V192.832c141.44 10.24 240.128 110.72 246.144 266.56zM288 64a32 32 0 0 1 5.76 63.488L288 128H128v160a32 32 0 0 1-26.24 31.488L96 320a32 32 0 0 1-31.488-26.24L64 288v-192a32 32 0 0 1 26.24-31.488L96 64h192z m640 0l5.76 0.512a32 32 0 0 1 25.728 25.728L960 96v192l-0.512 5.76a32 32 0 0 1-25.728 25.728L928 320l-5.76-0.512a32 32 0 0 1-25.728-25.728L896 288V128h-160l-5.76-0.512a32 32 0 0 1 0-62.976L736 64h192z" /></svg>