<?xml version="1.0" encoding="UTF-8"?>
<svg width="16px" height="16px" viewBox="0 0 16 16" version="1.1" xmlns="http://www.w3.org/2000/svg" xmlns:xlink="http://www.w3.org/1999/xlink">
    <title>业务组管理</title>
    <g id="页面-1" stroke="none" stroke-width="1" fill="none" fill-rule="evenodd">
        <g id="业务组管理" fill-rule="nonzero">
            <rect id="矩形" opacity="0" x="0" y="0" width="16" height="16"></rect>
            <path d="M12.25,2.375 C12.3875,2.375 12.5,2.4875 12.5,2.625 L12.5,2.625 L12.5,6.75 C12.5,6.8875 12.3875,7 12.25,7 L12.25,7 L8.53125,7 L8.53125,8.4375 L13.03125,8.4375 L13.03125,10.625 L13.875,10.625 C13.94375,10.625 14,10.68125 14,10.75 L14,10.75 L14,13.5 C14,13.56875 13.94375,13.625 13.875,13.625 L13.875,13.625 L11.125,13.625 C11.05625,13.625 11,13.56875 11,13.5 L11,13.5 L11,10.75 C11,10.68125 11.05625,10.625 11.125,10.625 L11.125,10.625 L11.96875,10.625 L11.96875,9.5 L8.53125,9.5 L8.53125,10.625 L9.375,10.625 C9.44375,10.625 9.5,10.68125 9.5,10.75 L9.5,10.75 L9.5,13.5 C9.5,13.56875 9.44375,13.625 9.375,13.625 L9.375,13.625 L6.625,13.625 C6.55625,13.625 6.5,13.56875 6.5,13.5 L6.5,13.5 L6.5,10.75 C6.5,10.68125 6.55625,10.625 6.625,10.625 L6.625,10.625 L7.46875,10.625 L7.46875,9.5 L4.03125,9.5 L4.03125,10.625 L4.875,10.625 C4.94375,10.625 5,10.68125 5,10.75 L5,10.75 L5,13.5 C5,13.56875 4.94375,13.625 4.875,13.625 L4.875,13.625 L2.125,13.625 C2.05625,13.625 2,13.56875 2,13.5 L2,13.5 L2,10.75 C2,10.68125 2.05625,10.625 2.125,10.625 L2.125,10.625 L2.96875,10.625 L2.96875,8.4375 L7.46875,8.4375 L7.46875,7 L3.75,7 C3.6125,7 3.5,6.8875 3.5,6.75 L3.5,6.75 L3.5,2.625 C3.5,2.4875 3.6125,2.375 3.75,2.375 L3.75,2.375 Z M6.25,4.0625 C5.90482203,4.0625 5.625,4.34232203 5.625,4.6875 C5.625,5.03267797 5.90482203,5.3125 6.25,5.3125 C6.59517797,5.3125 6.875,5.03267797 6.875,4.6875 C6.875,4.34232203 6.59517797,4.0625 6.25,4.0625 Z" id="形状" fill="#000000"></path>
        </g>
    </g>
</svg>