<?xml version="1.0" standalone="no"?><!DOCTYPE svg PUBLIC "-//W3C//DTD SVG 1.1//EN" "http://www.w3.org/Graphics/SVG/1.1/DTD/svg11.dtd"><svg class="icon" width="200px" height="200.00px" viewBox="0 0 1024 1024" version="1.1" xmlns="http://www.w3.org/2000/svg"><path fill="#333333" d="M512 0a512 512 0 1 0 512 512A512 512 0 0 0 512 0z m-86.72 373.12a86.72 86.72 0 0 1 148-61.28 83.68 83.68 0 0 1 25.44 61.28V512a86.72 86.72 0 0 1-148 61.28A83.68 83.68 0 0 1 425.28 512z m240 138.72a148.64 148.64 0 0 1-39.2 102.24 150.24 150.24 0 0 1-97.12 49.92h-2.4v40.96h72.16a14.4 14.4 0 0 1 10.24 4.32 14.24 14.24 0 0 1 4.32 10.24 14.72 14.72 0 0 1-14.56 14.56H425.28a14.72 14.72 0 0 1-14.56-14.56 14.56 14.56 0 0 1 4.32-10.24 13.92 13.92 0 0 1 10.24-4.32h72.16v-40.64h-2.4A153.12 153.12 0 0 1 358.72 512v-34.88a14.56 14.56 0 0 1 29.12 0V512A124.48 124.48 0 0 0 512 636 124.48 124.48 0 0 0 636.16 512v-34.88a14.56 14.56 0 0 1 29.12 0z" /></svg>