<?xml version="1.0" encoding="utf-8"?>
<!-- Generator: Adobe Illustrator 24.2.3, SVG Export Plug-In . SVG Version: 6.00 Build 0)  -->
<svg version="1.1" id="Layer_1" xmlns="http://www.w3.org/2000/svg" xmlns:xlink="http://www.w3.org/1999/xlink" x="0px" y="0px"
	 viewBox="0 0 200 200" style="enable-background:new 0 0 200 200;" xml:space="preserve">
<path class="st0" d="M79.5,134.5c-4.4,0-7.9,3.5-7.9,7.9c0,4.4,3.5,7.9,7.9,7.9c2,0,4-0.8,5.5-2.2c0.5-2.7,1.2-5.4,2.1-8
	C86,136.8,83,134.5,79.5,134.5C79.5,134.5,79.5,134.5,79.5,134.5z"/>
<path class="st0" d="M35.3,162.5V14.2h88.4v93.1c4.7-1,9.4-1.4,14.2-1.1V12.6c0-7-5.7-12.6-12.6-12.6H33.7c-7,0-12.6,5.7-12.6,12.6
	v151.5c0,7,5.7,12.6,12.6,12.6l54.7,0c-1.9-4.4-3.3-9.2-3.8-14.2H35.3z"/>
<path class="st0" d="M136.3,114.8c-23.5,0-42.6,19.1-42.6,42.6c0,23.5,19.1,42.6,42.6,42.6s42.6-19.1,42.6-42.6
	C178.9,133.9,159.8,114.8,136.3,114.8z M157.5,178.6c-5.6,5.6-13.2,8.8-21.2,8.8c-8,0-15.6-3.1-21.2-8.8c-5.7-5.7-8.8-13.2-8.8-21.2
	c0-8,3.1-15.6,8.8-21.2c5.6-5.6,13.2-8.8,21.2-8.8c8,0,15.6,3.1,21.2,8.8c5.6,5.6,8.8,13.2,8.8,21.2
	C166.3,165.3,163.1,173,157.5,178.6z"/>
<path class="st0" d="M136.3,166.9c-3.5,0-6.3,2.8-6.3,6.3c0,3.5,2.8,6.3,6.3,6.3s6.3-2.8,6.3-6.3c0,0,0,0,0,0
	C142.6,169.7,139.8,166.9,136.3,166.9z"/>
<path class="st0" d="M132.4,160.6h7.9c0.9,0,1.6-0.7,1.6-1.6c0,0,0,0,0,0v-22.1c0-0.9-0.7-1.6-1.6-1.6c0,0,0,0,0,0h-7.9
	c-0.9,0-1.6,0.7-1.6,1.6c0,0,0,0,0,0V159C130.8,159.8,131.5,160.6,132.4,160.6z"/>
</svg>
