<?xml version="1.0" encoding="UTF-8"?>
<svg width="13.375px" height="15.78125px" viewBox="0 0 13.375 15.78125" version="1.1" xmlns="http://www.w3.org/2000/svg" xmlns:xlink="http://www.w3.org/1999/xlink">
    <title>mobile 绑定失败</title>
    <g id="页面-1" stroke="none" stroke-width="1" fill="none" fill-rule="evenodd">
        <g id="画板" transform="translate(-258.375000, -29.968750)" fill-rule="nonzero">
            <g id="mobile-绑定失败" transform="translate(255.000000, 29.000000)">
                <rect id="矩形" opacity="0" x="0" y="0" width="16" height="16"></rect>
                <path d="M11.625,0.96875 L4.375,0.96875 C3.8234375,0.96875 3.375,1.4171875 3.375,1.96875 L3.375,13.96875 C3.375,14.5203125 3.8234375,14.96875 4.375,14.96875 L11.625,14.96875 C12.1765625,14.96875 12.625,14.5203125 12.625,13.96875 L12.625,1.96875 C12.625,1.4171875 12.1765625,0.96875 11.625,0.96875 Z M11.5,13.84375 L4.5,13.84375 L4.5,2.09375 L11.5,2.09375 L11.5,13.84375 Z M7.375,12.25 C7.375,12.595178 7.65482203,12.875 8,12.875 C8.34517797,12.875 8.625,12.595178 8.625,12.25 C8.625,11.904822 8.34517797,11.625 8,11.625 C7.65482203,11.625 7.375,11.904822 7.375,12.25 Z" id="形状" fill="#999999"></path>
                <g id="编组" transform="translate(9.000000, 9.000000)">
                    <path d="M3.375,-0.5 C4.44510995,-0.5 5.41385576,-0.066297897 6.11507683,0.634923172 C6.8162979,1.33614424 7.25,2.30489005 7.25,3.375 C7.25,4.44510995 6.8162979,5.41385576 6.11507683,6.11507683 C5.41385576,6.8162979 4.44510995,7.25 3.375,7.25 C2.30489005,7.25 1.33614424,6.8162979 0.634923172,6.11507683 C-0.066297897,5.41385576 -0.5,4.44510995 -0.5,3.375 C-0.5,2.30489005 -0.066297897,1.33614424 0.634923172,0.634923172 C1.33614424,-0.066297897 2.30489005,-0.5 3.375,-0.5 Z" id="路径" stroke="#FFFFFF" fill="#FF4545"></path>
                    <path d="M5.0546875,5.0546875 C4.60625,5.503125 4.009375,5.75 3.375,5.75 C2.740625,5.75 2.14375,5.503125 1.6953125,5.0546875 C1.246875,4.60625 1,4.009375 1,3.375 C1,2.740625 1.246875,2.14375 1.6953125,1.6953125 C2.14375,1.246875 2.740625,1 3.375,1 C4.009375,1 4.60625,1.246875 5.0546875,1.6953125 C5.503125,2.14375 5.75,2.740625 5.75,3.375 C5.75,4.009375 5.503125,4.60625 5.0546875,5.0546875 Z" id="路径" fill="#FFFFFF"></path>
                </g>
                <g id="编组-7" transform="translate(11.000000, 11.000000)" fill="#FF4545">
                    <path d="M2.8,0.066587396 C2.8,0.0299643282 2.77093426,0 2.73540946,0 L2.20253749,0.00249702735 L1.4,0.98882283 L0.598269896,0.0033293698 L0.0645905421,0.000832342449 C0.0290657439,0.000832342449 0,0.0299643282 0,0.0674197384 C0,0.0832342449 0.00565167243,0.098216409 0.0153402537,0.110701546 L1.06574394,1.40083234 L0.0153402537,2.6901308 C0.00565167243,2.70261593 0,2.7175981 0,2.7334126 C0,2.77003567 0.0290657439,2.8 0.0645905421,2.8 L0.598269896,2.79750297 L1.4,1.81117717 L2.2017301,2.79667063 L2.73460208,2.79916766 C2.77012687,2.79916766 2.79919262,2.77003567 2.79919262,2.73258026 C2.79919262,2.71676576 2.79354095,2.70178359 2.78385236,2.68929845 L1.73506344,1.4 L2.78546713,0.109869203 C2.79515571,0.098216409 2.8,0.0824019025 2.8,0.066587396 Z" id="路径"></path>
                </g>
            </g>
        </g>
    </g>
</svg>