<?xml version="1.0" encoding="UTF-8"?>
<svg width="12.375px" height="15.78125px" viewBox="0 0 12.375 15.78125" version="1.1" xmlns="http://www.w3.org/2000/svg" xmlns:xlink="http://www.w3.org/1999/xlink">
    <title>mobile 绑定成功</title>
    <g id="页面-1" stroke="none" stroke-width="1" fill="none" fill-rule="evenodd">
        <g id="画板" transform="translate(-208.375000, -8.968750)" fill-rule="nonzero">
            <g id="mobile-绑定成功" transform="translate(205.000000, 8.000000)">
                <rect id="矩形" opacity="0" x="0" y="0" width="16" height="16"></rect>
                <path d="M11.625,0.96875 C12.1765625,0.96875 12.625,1.4171875 12.625,1.96875 L12.625933,9.38274184 C12.5429485,9.37760601 12.4592788,9.375 12.375,9.375 C12.0744496,9.375 11.7816448,9.40814164 11.5000405,9.47097002 L11.5,2.09375 L4.5,2.09375 L4.5,13.84375 L8.40222661,13.8442315 C8.4484635,14.2399929 8.55246372,14.6181018 8.70557266,14.9699038 L4.375,14.96875 C3.8234375,14.96875 3.375,14.5203125 3.375,13.96875 L3.375,1.96875 C3.375,1.4171875 3.8234375,0.96875 4.375,0.96875 Z M8,11.625 C8.27977185,11.625 8.51660914,11.8088247 8.59631837,12.0622805 C8.52421492,12.2671975 8.46930385,12.4794751 8.43208103,12.6977859 C8.32184498,12.8081372 8.16873081,12.875 8,12.875 C7.65482203,12.875 7.375,12.595178 7.375,12.25 C7.375,11.904822 7.65482203,11.625 8,11.625 Z" id="形状结合" fill="#999999"></path>
                <g id="编组-3" transform="translate(9.000000, 10.000000)" fill="#1AC45D">
                    <path d="M3.375,0 C5.2390625,0 6.75,1.5109375 6.75,3.375 C6.75,5.2390625 5.2390625,6.75 3.375,6.75 C1.5109375,6.75 0,5.2390625 0,3.375 C0,1.5109375 1.5109375,0 3.375,0 Z M3.375,1 C2.740625,1 2.14375,1.246875 1.6953125,1.6953125 C1.246875,2.14375 1,2.740625 1,3.375 C1,4.009375 1.246875,4.60625 1.6953125,5.0546875 C2.14375,5.503125 2.740625,5.75 3.375,5.75 C4.009375,5.75 4.60625,5.503125 5.0546875,5.0546875 C5.503125,4.60625 5.75,4.009375 5.75,3.375 C5.75,2.740625 5.503125,2.14375 5.0546875,1.6953125 C4.60625,1.246875 4.009375,1 3.375,1 Z" id="形状结合"></path>
                    <path d="M4.765625,2.1875 L4.0734375,2.1875 C4.0328125,2.1875 3.9953125,2.20625 3.971875,2.2390625 L2.9796875,3.6109375 L2.61875,3.1125 C2.5953125,3.0796875 2.5578125,3.0609375 2.5171875,3.0609375 L1.828125,3.0609375 C1.7265625,3.0609375 1.6671875,3.1765625 1.7265625,3.259375 L2.8796875,4.8546875 C2.9296875,4.9234375 3.03125,4.9234375 3.08125,4.8546875 L4.865625,2.3859375 C4.9265625,2.303125 4.8671875,2.1875 4.765625,2.1875 Z" id="路径"></path>
                </g>
            </g>
        </g>
    </g>
</svg>