<?xml version="1.0" encoding="UTF-8"?>
<svg width="13.375px" height="16.78125px" viewBox="0 0 13.375 16.78125" version="1.1" xmlns="http://www.w3.org/2000/svg" xmlns:xlink="http://www.w3.org/1999/xlink">
    <title>mobile 绑定成功</title>
    <g id="页面-1" stroke="none" stroke-width="1" fill="none" fill-rule="evenodd">
        <g id="AI告警列表-列表/大图模式切换" transform="translate(-368.375000, -120.968750)" fill-rule="nonzero">
            <g id="mobile-绑定成功" transform="translate(365.000000, 120.000000)">
                <rect id="矩形" opacity="0" x="0" y="0" width="16" height="16"></rect>
                <path d="M11.625,0.96875 L4.375,0.96875 C3.8234375,0.96875 3.375,1.4171875 3.375,1.96875 L3.375,13.96875 C3.375,14.5203125 3.8234375,14.96875 4.375,14.96875 L11.625,14.96875 C12.1765625,14.96875 12.625,14.5203125 12.625,13.96875 L12.625,1.96875 C12.625,1.4171875 12.1765625,0.96875 11.625,0.96875 Z M11.5,13.84375 L4.5,13.84375 L4.5,2.09375 L11.5,2.09375 L11.5,13.84375 Z M7.375,12.25 C7.375,12.595178 7.65482203,12.875 8,12.875 C8.34517797,12.875 8.625,12.595178 8.625,12.25 C8.625,11.904822 8.34517797,11.625 8,11.625 C7.65482203,11.625 7.375,11.904822 7.375,12.25 Z" id="形状" fill="#999999"></path>
                <g id="编组-3" transform="translate(9.000000, 10.000000)">
                    <path d="M3.375,-0.5 C4.44510995,-0.5 5.41385576,-0.066297897 6.11507683,0.634923172 C6.8162979,1.33614424 7.25,2.30489005 7.25,3.375 C7.25,4.44510995 6.8162979,5.41385576 6.11507683,6.11507683 C5.41385576,6.8162979 4.44510995,7.25 3.375,7.25 C2.30489005,7.25 1.33614424,6.8162979 0.634923172,6.11507683 C-0.066297897,5.41385576 -0.5,4.44510995 -0.5,3.375 C-0.5,2.30489005 -0.066297897,1.33614424 0.634923172,0.634923172 C1.33614424,-0.066297897 2.30489005,-0.5 3.375,-0.5 Z" id="路径" stroke="#FFFFFF" fill="#1AC45D"></path>
                    <path d="M5.0546875,5.0546875 C4.60625,5.503125 4.009375,5.75 3.375,5.75 C2.740625,5.75 2.14375,5.503125 1.6953125,5.0546875 C1.246875,4.60625 1,4.009375 1,3.375 C1,2.740625 1.246875,2.14375 1.6953125,1.6953125 C2.14375,1.246875 2.740625,1 3.375,1 C4.009375,1 4.60625,1.246875 5.0546875,1.6953125 C5.503125,2.14375 5.75,2.740625 5.75,3.375 C5.75,4.009375 5.503125,4.60625 5.0546875,5.0546875 Z" id="路径" fill="#FFFFFF"></path>
                    <path d="M4.765625,2.1875 L4.0734375,2.1875 C4.0328125,2.1875 3.9953125,2.20625 3.971875,2.2390625 L2.9796875,3.6109375 L2.61875,3.1125 C2.5953125,3.0796875 2.5578125,3.0609375 2.5171875,3.0609375 L1.828125,3.0609375 C1.7265625,3.0609375 1.6671875,3.1765625 1.7265625,3.259375 L2.8796875,4.8546875 C2.9296875,4.9234375 3.03125,4.9234375 3.08125,4.8546875 L4.865625,2.3859375 C4.9265625,2.303125 4.8671875,2.1875 4.765625,2.1875 Z" id="路径" fill="#1AC45D"></path>
                </g>
            </g>
        </g>
    </g>
</svg>