<?xml version="1.0" encoding="UTF-8"?>
<svg width="13.5px" height="15.84375px" viewBox="0 0 13.5 15.84375" version="1.1" xmlns="http://www.w3.org/2000/svg" xmlns:xlink="http://www.w3.org/1999/xlink">
    <title>mobile 未绑定</title>
    <g id="页面-1" stroke="none" stroke-width="1" fill="none" fill-rule="evenodd">
        <g id="AI告警列表-列表/大图模式切换" transform="translate(-389.375000, -120.968750)" fill-rule="nonzero">
            <g id="mobile-未绑定" transform="translate(386.000000, 120.000000)">
                <rect id="矩形" opacity="0" x="0" y="0" width="16" height="16"></rect>
                <path d="M11.625,0.96875 L4.375,0.96875 C3.8234375,0.96875 3.375,1.4171875 3.375,1.96875 L3.375,13.96875 C3.375,14.5203125 3.8234375,14.96875 4.375,14.96875 L11.625,14.96875 C12.1765625,14.96875 12.625,14.5203125 12.625,13.96875 L12.625,1.96875 C12.625,1.4171875 12.1765625,0.96875 11.625,0.96875 Z M11.5,13.84375 L4.5,13.84375 L4.5,2.09375 L11.5,2.09375 L11.5,13.84375 Z M7.375,12.25 C7.375,12.595178 7.65482203,12.875 8,12.875 C8.34517797,12.875 8.625,12.595178 8.625,12.25 C8.625,11.904822 8.34517797,11.625 8,11.625 C7.65482203,11.625 7.375,11.904822 7.375,12.25 Z" id="形状" fill="#999999"></path>
                <g id="编组" transform="translate(9.125000, 9.062500)">
                    <path d="M3.375,-0.5 C4.44510995,-0.5 5.41385576,-0.066297897 6.11507683,0.634923172 C6.8162979,1.33614424 7.25,2.30489005 7.25,3.375 C7.25,4.44510995 6.8162979,5.41385576 6.11507683,6.11507683 C5.41385576,6.8162979 4.44510995,7.25 3.375,7.25 C2.30489005,7.25 1.33614424,6.8162979 0.634923172,6.11507683 C-0.066297897,5.41385576 -0.5,4.44510995 -0.5,3.375 C-0.5,2.30489005 -0.066297897,1.33614424 0.634923172,0.634923172 C1.33614424,-0.066297897 2.30489005,-0.5 3.375,-0.5 Z" id="路径" stroke="#FFFFFF" fill="#FF8F34"></path>
                    <path d="M5.0546875,5.0546875 C4.60625,5.503125 4.009375,5.75 3.375,5.75 C2.740625,5.75 2.14375,5.503125 1.6953125,5.0546875 C1.246875,4.60625 1,4.009375 1,3.375 C1,2.740625 1.246875,2.14375 1.6953125,1.6953125 C2.14375,1.246875 2.740625,1 3.375,1 C4.009375,1 4.60625,1.246875 5.0546875,1.6953125 C5.503125,2.14375 5.75,2.740625 5.75,3.375 C5.75,4.009375 5.503125,4.60625 5.0546875,5.0546875 Z" id="路径" fill="#FFFFFF"></path>
                    <path d="M2.875,4.625 C2.875,4.90114237 3.09885763,5.125 3.375,5.125 C3.65114237,5.125 3.875,4.90114237 3.875,4.625 C3.875,4.34885763 3.65114237,4.125 3.375,4.125 C3.09885763,4.125 2.875,4.34885763 2.875,4.625 Z" id="路径" fill="#FF8F34"></path>
                    <path d="M3.0625,3.625 L3.6875,3.625 C3.75625,3.625 3.8125,3.56875 3.8125,3.5 L3.8125,1.75 C3.8125,1.68125 3.75625,1.625 3.6875,1.625 L3.0625,1.625 C2.99375,1.625 2.9375,1.68125 2.9375,1.75 L2.9375,3.5 C2.9375,3.56875 2.99375,3.625 3.0625,3.625 Z" id="路径" fill="#FF8F34"></path>
                </g>
            </g>
        </g>
    </g>
</svg>