<?xml version="1.0" standalone="no"?><!DOCTYPE svg PUBLIC "-//W3C//DTD SVG 1.1//EN" "http://www.w3.org/Graphics/SVG/1.1/DTD/svg11.dtd"><svg t="1628836881902" class="icon" viewBox="0 0 1024 1024" version="1.1" xmlns="http://www.w3.org/2000/svg" p-id="1194" xmlns:xlink="http://www.w3.org/1999/xlink" width="200" height="200"><defs><style type="text/css"></style></defs><path d="M513.536 202.752c28.672 0 51.712 23.552 51.712 52.224s-23.552 51.712-52.224 51.712-51.712-23.552-51.712-52.224 23.552-51.712 52.224-51.712z m-1.024 260.096c28.672 0 51.712 23.552 51.712 52.224s-23.552 51.712-52.224 51.712-51.712-23.552-51.712-52.224 23.552-52.224 52.224-51.712z m-1.024 259.584c28.672 0 51.712 23.552 51.712 52.224s-23.552 51.712-52.224 51.712-51.712-23.552-51.712-52.224 23.552-51.712 52.224-51.712z" p-id="1195"></path></svg>