<?xml version="1.0" encoding="utf-8"?>
<!-- Generator: Adobe Illustrator 24.2.3, SVG Export Plug-In . SVG Version: 6.00 Build 0)  -->
<svg version="1.1" id="Layer_1" xmlns="http://www.w3.org/2000/svg" xmlns:xlink="http://www.w3.org/1999/xlink" x="0px" y="0px"
	 viewBox="0 0 200 200" style="enable-background:new 0 0 200 200;" xml:space="preserve">
<path d="M156.6,81.2c10.3,0,18.8,8.4,18.8,18.8s-8.4,18.8-18.8,18.8c-10.3,0-18.8-8.4-18.8-18.8S146.2,81.2,156.6,81.2z"/>
<path d="M100.3,81.2c10.3,0,18.8,8.4,18.8,18.8s-8.4,18.8-18.8,18.8s-18.8-8.4-18.8-18.8S90,81.2,100.3,81.2z"/>
<path d="M44.1,81.2c10.3,0,18.8,8.4,18.8,18.8s-8.4,18.8-18.8,18.8s-18.8-8.4-18.8-18.8S33.7,81.2,44.1,81.2z"/>
</svg>
