<?xml version="1.0" standalone="no"?><!DOCTYPE svg PUBLIC "-//W3C//DTD SVG 1.1//EN" "http://www.w3.org/Graphics/SVG/1.1/DTD/svg11.dtd"><svg t="1630314559740" class="icon" viewBox="0 0 1024 1024" version="1.1" xmlns="http://www.w3.org/2000/svg" p-id="2240" xmlns:xlink="http://www.w3.org/1999/xlink" width="200" height="200"><defs><style type="text/css"></style></defs><path d="M1023.685 524.249c0.276-7.444-2.324-14.927-7.956-20.56L882.806 371.122c-10.83-10.791-28.475-10.791-39.345 0-10.83 10.831-10.83 28.436 0 39.227l88.103 87.907h-231.07c-14.887 0-26.938 12.012-26.938 26.86s12.051 26.86 26.939 26.86h234.89l-88.773 88.537c-10.555 10.516-10.555 27.49 0 38.046 10.555 10.515 27.53 10.515 38.085 0l128.787-128.473c3.387-3.387 5.278-7.523 6.499-11.855 2.284-3.978 3.938-8.27 3.938-13.115-0.04-0.354-0.197-0.59-0.236-0.866zM323.505 497.388H88.615l88.773-88.536c10.555-10.477 10.555-27.451 0-38.006s-27.53-10.556-38.085 0L10.516 499.318c-3.387 3.387-5.278 7.523-6.499 11.855C1.733 515.11 0.08 519.404 0.08 524.249c0 0.315 0.157 0.551 0.197 0.827-0.276 7.443 2.323 14.926 7.955 20.598l132.923 132.53c10.831 10.83 28.476 10.83 39.346 0 10.83-10.832 10.83-28.397 0-39.228L92.396 551.07h231.07c14.887 0 26.939-12.013 26.939-26.86s-12.012-26.822-26.9-26.822zM536.497 23.867c-3.072-3.072-6.813-5.002-10.673-6.262-4.057-2.403-8.468-4.135-13.509-4.135-0.512 0-0.827 0.236-1.339 0.315-7.522-0.394-15.202 2.087-20.953 7.837L357.022 154.585c-10.792 10.791-10.792 28.514 0 39.305 10.87 10.87 28.514 10.87 39.345 0l88.97-88.97v231.937c0 14.926 12.051 26.939 26.978 26.939 14.887 0 26.979-12.013 26.979-26.94V102.834L627.2 190.74c10.516 10.555 27.53 10.515 38.085-0.04s10.555-27.569 0-38.124L536.497 23.867zM627.2 833.22l-88.773 88.774v-234.85c0-14.888-12.091-26.94-26.978-26.94-14.927 0-26.979 12.052-26.979 26.94v231.108l-88.103-88.103c-10.831-10.87-28.475-10.87-39.345-0.04-10.831 10.831-10.831 28.515 0 39.306l132.923 132.963c5.71 5.671 13.193 8.231 20.598 7.956 0.315 0 0.551 0.196 0.866 0.196 4.884 0 9.177-1.693 13.155-3.977 4.332-1.182 8.507-3.072 11.933-6.499l128.749-128.748c10.555-10.555 10.555-27.57 0-38.124s-27.57-10.477-38.046 0.039z" p-id="2241" fill="#2c2c2c"></path></svg>