<?xml version="1.0" encoding="utf-8"?>
<!-- Generator: Adobe Illustrator 24.2.3, SVG Export Plug-In . SVG Version: 6.00 Build 0)  -->
<svg version="1.1" id="Layer_1" xmlns="http://www.w3.org/2000/svg" xmlns:xlink="http://www.w3.org/1999/xlink" x="0px" y="0px"
	 viewBox="0 0 200 200" style="enable-background:new 0 0 200 200;" xml:space="preserve">
<path d="M316,78.1c-10.6,0-18.8,8.1-18.8,18.1v38.1c0,10.6,8.1,18.8,18.8,18.8h16.2l35.6,36.9c4.4,4.4,8.7,6.9,13.1,6.9
	c1.3,0,2.5,0,3.8-0.6c3.8-1.9,6.2-5.6,6.2-10v-43.8l-66.9-64.4H316z M464.1,173.7l-11.2-10.6c8.1-14.4,13.1-30.6,13.1-47.5
	c0-22.5-8.1-44.4-23.1-61.9c-2.5-2.5-6.2-3.1-8.8-0.6c-2.5,2.5-3.1,6.2-0.6,8.8c12.5,15,20,34.4,20,53.8c0,13.8-3.8,26.9-10,38.1
	l-18.1-17.5c1.9-6.9,3.1-13.8,3.1-20.6c0-14.4-4.4-28.1-13.1-40c-1.9-3.1-5.6-3.8-8.7-1.2c-3.1,2.5-3.8,5.6-1.3,8.7
	c6.9,9.4,10.6,21.3,10.6,32.5c0,3.8-0.6,7.5-1.3,10.6L391,103.7V45.6c0-5-2.5-8.8-6.2-10c-5-1.9-11.3,0-16.9,6.2l-20.6,20.6
	l-26.9-26.2c-2.5-2.5-6.2-2.5-8.8,0s-2.5,6.3,0,8.8l143.8,137.5c1.3,1.2,2.5,1.9,4.4,1.9c1.9,0,3.1-0.6,4.4-1.9
	C466.6,180,466.6,176.2,464.1,173.7L464.1,173.7z"/>
<g>
	<path d="M60.8,58.4c-1.7,1.7-4.1,2.7-6.6,2.7h-12c-13.8,0.1-25,11.3-25,25v28.2c0,13.9,11.2,25.1,25,25h12.1c2.5,0,4.8,0.9,6.6,2.7
		l31.3,31.2c3.1,3.3,7.5,5.1,12.1,5.1c9.5,0,17.2-7.7,17.2-17.2v-44.2L61.9,57.3L60.8,58.4z"/>
	<path d="M190,152l-18.1-18.1c5.5-9.6,8.6-20.9,8.6-32.6c0-18.9-7.9-36.4-21.3-48.2c-2.6-2.3-6.5-2-8.8,0.4c-2.2,2.6-2,6.5,0.6,8.8
		c10.7,9.4,17,23.5,17,38.9c0,8.4-1.9,16.4-5.3,23.5l-11.1-11.1c1.2-3.9,1.8-8.1,1.8-12.4c0-11.6-4.7-22.4-12.8-29.8
		c-2.6-2.4-6.5-2.2-8.8,0.3c-2.3,2.5-2.1,6.5,0.4,8.8c5.4,5,8.7,12.5,8.7,20.6c0,0.6,0,1.2-0.1,1.8l-19.3-19.3V39.2
		c0-4.6-1.8-8.9-5.1-12.1c-6.7-6.7-17.6-6.7-24.2,0L78.6,40.6l-25-25c-2.3-2.3-6.1-2.3-8.5,0c-2.3,2.3-2.3,6.1,0,8.5l136.4,136.4
		c1.2,1.2,2.7,1.8,4.2,1.8s3.1-0.6,4.2-1.8C192.4,158.2,192.4,154.4,190,152z"/>
</g>
</svg>
