<?xml version="1.0" encoding="UTF-8"?>
<svg width="163.309891px" height="131.008867px" viewBox="0 0 163.309891 131.008867" version="1.1" xmlns="http://www.w3.org/2000/svg" xmlns:xlink="http://www.w3.org/1999/xlink">
    <title>暂无数据_彩色</title>
    <defs>
        <linearGradient x1="0%" y1="61.4544525%" x2="100%" y2="50%" id="linearGradient-1">
            <stop stop-color="#000000" stop-opacity="0.1" offset="0%"></stop>
            <stop stop-color="#000000" stop-opacity="0" offset="100%"></stop>
        </linearGradient>
        <linearGradient x1="50%" y1="0%" x2="50%" y2="100%" id="linearGradient-2">
            <stop stop-color="#E8EEF5" offset="0%"></stop>
            <stop stop-color="#CBD9E6" offset="100%"></stop>
        </linearGradient>
        <linearGradient x1="38.3472057%" y1="0%" x2="61.6527943%" y2="100%" id="linearGradient-3">
            <stop stop-color="#F9F9F9" offset="0%"></stop>
            <stop stop-color="#F9F9F9" stop-opacity="0.6" offset="100%"></stop>
        </linearGradient>
        <linearGradient x1="24.4644786%" y1="52.0161295%" x2="66.7063015%" y2="56.8768452%" id="linearGradient-4">
            <stop stop-color="#000000" stop-opacity="0.05" offset="0%"></stop>
            <stop stop-color="#000000" stop-opacity="0" offset="100%"></stop>
        </linearGradient>
        <linearGradient x1="50%" y1="50%" x2="50%" y2="90.5225806%" id="linearGradient-5">
            <stop stop-color="#DCE2EA" offset="0%"></stop>
            <stop stop-color="#DFE3E9" offset="100%"></stop>
        </linearGradient>
        <linearGradient x1="0%" y1="40.0322055%" x2="100%" y2="53.9872944%" id="linearGradient-6">
            <stop stop-color="#D0D6DF" offset="0%"></stop>
            <stop stop-color="#F7FAFF" offset="100%"></stop>
        </linearGradient>
        <linearGradient x1="6.46961413%" y1="34.7800238%" x2="107.979838%" y2="62.1931032%" id="linearGradient-7">
            <stop stop-color="#E8ECF2" offset="0%"></stop>
            <stop stop-color="#E6E9EF" offset="100%"></stop>
        </linearGradient>
        <linearGradient x1="66.607955%" y1="15.8461736%" x2="33.6299754%" y2="95.0858405%" id="linearGradient-8">
            <stop stop-color="#DFE3E9" offset="0%"></stop>
            <stop stop-color="#EEEFF1" offset="99.9399038%"></stop>
        </linearGradient>
        <linearGradient x1="75.0868056%" y1="0%" x2="50%" y2="88.2405977%" id="linearGradient-9">
            <stop stop-color="#D0D6DF" offset="0%"></stop>
            <stop stop-color="#DFE3E9" offset="100%"></stop>
        </linearGradient>
        <linearGradient x1="20.0176105%" y1="50%" x2="100%" y2="50%" id="linearGradient-10">
            <stop stop-color="#000000" stop-opacity="0.15" offset="0%"></stop>
            <stop stop-color="#000000" stop-opacity="0" offset="100%"></stop>
        </linearGradient>
        <linearGradient x1="76.0885338%" y1="0%" x2="27.1595228%" y2="98.137709%" id="linearGradient-11">
            <stop stop-color="#92BAFF" offset="0%"></stop>
            <stop stop-color="#D6E5FF" offset="100%"></stop>
        </linearGradient>
        <linearGradient x1="24.4644786%" y1="52.621775%" x2="66.7063015%" y2="58.9426504%" id="linearGradient-12">
            <stop stop-color="#000000" stop-opacity="0.05" offset="0%"></stop>
            <stop stop-color="#000000" stop-opacity="0" offset="100%"></stop>
        </linearGradient>
        <linearGradient x1="0%" y1="45.1765254%" x2="100%" y2="44.9323054%" id="linearGradient-13">
            <stop stop-color="#F7FBFF" offset="0%"></stop>
            <stop stop-color="#E2EFFF" offset="1.02641373%"></stop>
            <stop stop-color="#E2EFFF" offset="2.48923189%"></stop>
            <stop stop-color="#E2EFFF" offset="42.4244364%"></stop>
            <stop stop-color="#BAD5FE" offset="47.3335808%"></stop>
            <stop stop-color="#92BAFF" offset="50.8995302%"></stop>
            <stop stop-color="#BAD5FE" offset="96.4993553%"></stop>
            <stop stop-color="#BAD5FE" offset="98.2405648%"></stop>
            <stop stop-color="#E3EEFF" offset="100%"></stop>
        </linearGradient>
        <linearGradient x1="0%" y1="57.3964497%" x2="100%" y2="50%" id="linearGradient-14">
            <stop stop-color="#000000" stop-opacity="0.05" offset="0%"></stop>
            <stop stop-color="#000000" stop-opacity="0" offset="100%"></stop>
        </linearGradient>
        <linearGradient x1="0%" y1="12.2270113%" x2="100%" y2="12.2270113%" id="linearGradient-15">
            <stop stop-color="#FFFFFF" offset="0%"></stop>
            <stop stop-color="#E8ECF5" offset="1.35199415%"></stop>
            <stop stop-color="#E8EFF5" offset="44.5445371%"></stop>
            <stop stop-color="#F0F8FD" offset="47.7886202%"></stop>
            <stop stop-color="#DDE7ED" offset="51.5633153%"></stop>
            <stop stop-color="#D6E3EF" offset="98.5646709%"></stop>
            <stop stop-color="#EFF4F7" offset="100%"></stop>
        </linearGradient>
        <linearGradient x1="84.1795738%" y1="50%" x2="9.69601562%" y2="54.753931%" id="linearGradient-16">
            <stop stop-color="#F5F8FD" offset="0%"></stop>
            <stop stop-color="#F8FCFF" offset="100%"></stop>
        </linearGradient>
        <linearGradient x1="24.4644786%" y1="51.6730673%" x2="66.7063015%" y2="55.7066893%" id="linearGradient-17">
            <stop stop-color="#000000" stop-opacity="0.05" offset="0%"></stop>
            <stop stop-color="#000000" stop-opacity="0" offset="100%"></stop>
        </linearGradient>
    </defs>
    <g id="页面-1" stroke="none" stroke-width="1" fill="none" fill-rule="evenodd">
        <g id="优化方案" transform="translate(-769.636364, -354.482166)">
            <g id="暂无数据_彩色" transform="translate(751.000000, 320.000000)">
                <rect id="矩形" x="0" y="0" width="200" height="200"></rect>
                <g id="编组" transform="translate(18.636364, 34.545455)">
                    <g id="编组-3" transform="translate(98.690241, 0.000000)">
                        <path d="M39.2549279,79.9367112 L58.2560138,79.9367112 C58.2560138,63.1151654 58.2560138,54.7043925 58.2560138,54.7043925 C58.2560138,54.7043925 40.5287411,54.6303169 5.07419562,54.4821658 L39.2549279,79.9367112 Z" id="路径-11备份" fill="url(#linearGradient-1)"></path>
                        <polygon id="路径-53" fill="#92BAFF" points="13.9038908 18.1185294 47.8014684 38.0823411 47.8014684 71.9369684 47.3051633 72.2094385 47.3051633 38.5340757 13.2560138 18.4808506"></polygon>
                        <polygon id="路径-53备份" fill="#BAD5FE" points="13.2560138 18.5730748 47.3469229 38.5918789 47.3469229 72.2094385 13.2560138 52.1906344"></polygon>
                        <path d="M37.8014684,79.9367112 C13.5204498,64.7260091 1.37994056,57.1206581 1.37994056,57.1206581 C0.492288163,56.115374 0.0572089052,53.4177815 0.0747027845,49.0276203 L35.7862706,70.6084981 C35.760142,73.1161788 35.8998435,75.1300168 36.2053752,76.6500121 C36.4055406,77.6458181 36.6640257,78.5471544 37.0586204,79.1786262 C37.197096,79.4002294 37.444712,79.6529244 37.8014684,79.9367112 Z" id="路径-51" fill="url(#linearGradient-2)"></path>
                        <path d="M36.4184096,76.5162435 C36.7167776,77.8366064 37.0358809,79.0894433 38.0741546,79.7757804 C40.2028392,80.5255956 41.3505358,78.6552347 41.5172442,74.1646976 L41.5172442,28.2289498 C41.6203009,23.4768206 42.2542873,21.2435283 43.4192035,21.5290728 C44.5841197,21.8146172 45.2302688,23.8492082 45.3576507,27.6328458 L45.3576507,30.1133193 L45.9693516,30.1262281 L45.9693516,29.3653607 C46.1026772,24.0870165 45.2792829,21.1306236 43.4991687,20.496182 C41.7190545,19.8617403 40.7751596,22.1044613 40.6674841,27.224345 C40.6674841,56.3840504 40.6674841,71.8918509 40.6674841,73.7477464 C40.6674841,76.5315897 39.6738856,79.6289532 38.0741546,78.5765068 C37.0076673,77.874876 36.5059098,75.1208849 36.5688823,70.3145337 L35.9836416,70.5246585 C35.975119,73.1986856 36.1200416,75.1958806 36.4184096,76.5162435 Z" id="路径" fill="#D9E5EE"></path>
                        <path d="M40.9832865,27.747213 C41.1068729,23.2626321 41.707269,21.0455272 42.7802623,21.3236348 C43.8856485,21.6101383 44.4987777,23.6515624 44.6196502,27.4479072 L44.6196502,29.9367112 L40.9832865,27.747213 Z" id="路径" fill="#CBD9E6"></path>
                        <path d="M43.4864403,20.4143069 C41.7816962,19.7763538 40.8777658,22.0314876 40.7746493,27.1797081 C40.7746493,56.5008027 40.7746493,72.0944337 40.7746493,73.960601 C40.7746493,76.7598519 39.8231198,79.8743582 38.2911215,78.8160869 C37.2697892,78.1105728 36.7892762,75.3413393 36.8495824,70.5083865 L5.52874108,51.4790652 L5.52874108,5.61112884 C5.52874108,0.795846718 6.80403016,-0.954767351 9.35460832,0.359286637 C11.9051865,1.67334063 23.4129503,8.42042943 43.7105593,20.5143395 L43.4864403,20.4143069 Z" id="路径" fill="url(#linearGradient-3)"></path>
                        <polygon id="路径-52" fill="#F6F9FE" points="35.8719735 70.8458021 36.437832 70.6317723 1.0240858 49.0366192 0.0741956248 49.0276203"></polygon>
                        <path d="M24.1651047,55.2927225 L24.1651047,40.2970036 C24.1651047,40.0076879 24.3393529,39.8631066 24.5542988,39.9740721 C24.5640969,39.9791303 24.5738915,39.9846848 24.5836616,39.9907236 L35.5287411,46.755736 L35.5287411,62.3004457 C35.5287411,62.5923678 35.3529231,62.7382517 35.1360407,62.6262865 C35.1250936,62.620635 35.1141512,62.6143699 35.1032423,62.6075076 L24.4864457,55.9289044 C24.3047905,55.8146323 24.1651047,55.5380863 24.1651047,55.2927225 Z" id="路径-54" fill="#F7FAFE"></path>
                        <path d="M35.0741956,62.6639839 C35.1387044,62.6328843 35.1856635,62.5966446 35.2150729,62.5552649 C35.2444822,62.5138851 35.2644338,62.448707 35.2749276,62.3597306 L35.2749276,47.3446339 C35.2608634,47.2445704 35.2430721,47.1677938 35.2215537,47.1143041 C35.2000352,47.0608143 35.159218,46.9919043 35.0991022,46.907574 L37.6923976,46.7610554 L37.8014684,46.754893 L37.8014684,46.9182022 L37.8014684,61.8014662 C37.8014684,61.9671397 37.7169819,62.0868786 37.5793205,62.1163063 L35.2749276,62.6089144 L35.0741956,62.6639839 Z" id="路径-55" fill="#DAE5ED"></path>
                        <path d="M24.6196502,39.9367112 L24.6973703,39.9682572 L35.4644186,46.9710981 C35.5104799,47.0045152 35.5466146,47.0358072 35.5728228,47.0649741 C35.599031,47.094141 35.6337509,47.1422958 35.6769826,47.2094385 L37.7177465,47.051903 L37.8014684,47.0454402 L37.6396193,46.9398737 L27.6429817,40.4195411 C27.5144644,40.3357154 27.3852188,40.2846576 27.2615323,40.2688517 L24.7318468,39.9455832 L24.6196502,39.9367112 Z" id="路径-56" fill="#E8EEF5"></path>
                        <path d="M10.0741956,46.2018134 L10.0741956,31.2060945 C10.0741956,30.9167788 10.2484438,30.7721975 10.4633897,30.883163 C10.4731878,30.8882212 10.4829824,30.8937757 10.4927525,30.8998145 L21.437832,37.6648269 L21.437832,53.2095366 C21.437832,53.5014587 21.262014,53.6473426 21.0451316,53.5353774 C21.0341845,53.5297259 21.0232421,53.5234608 21.0123332,53.5165985 L10.3955366,46.8379953 C10.2138815,46.7237233 10.0741956,46.4471772 10.0741956,46.2018134 Z" id="路径-54" fill="#BAD5FE"></path>
                        <path d="M21.437832,53.5730748 C21.4977391,53.5422964 21.5413484,53.5064311 21.5686598,53.4654788 C21.5959713,53.4245265 21.6144996,53.3600216 21.6242449,53.2719643 L21.6242449,38.4119651 C21.611184,38.3129352 21.5946618,38.2369517 21.5746783,38.1840144 C21.5546949,38.1310772 21.5167894,38.062879 21.4609619,37.9794198 L22.2456326,37.6700827 L22.3469229,37.6639839 L22.3469229,37.8256062 L22.3469229,52.6581337 C22.3469229,52.7627691 22.3148554,52.8507348 22.255943,52.9077047 L21.6242449,53.5185741 L21.437832,53.5730748 Z" id="路径-55" fill="#699BFF"></path>
                        <path d="M10.5287411,30.8458021 L10.6065326,30.8773481 L21.3834688,37.880189 C21.4295723,37.9136061 21.4657402,37.9448981 21.4919725,37.974065 C21.5182047,38.0032319 21.5529565,38.0513867 21.5962279,38.1185294 L22.2631242,37.7826387 L22.3469229,37.7761759 L22.1849252,37.6706094 L12.179828,31.1507465 C12.0507239,31.0666153 11.9208896,31.0154939 11.7966864,30.9998871 L10.6410407,30.8546741 L10.5287411,30.8458021 Z" id="路径-56" fill="#92BAFF"></path>
                        <polygon id="路径-57" fill="#BAD5FE" points="9.61965017 10.8458021 9.61965017 14.3400461 35.0741956 29.0276203 35.0741956 25.5939156"></polygon>
                        <polygon id="路径-57备份" fill="#BAD5FE" points="10.0741956 17.6639839 10.0741956 19.124857 28.7105593 29.9367112 28.7105593 28.5216547"></polygon>
                        <polygon id="路径-57备份-2" fill="#BAD5FE" points="10.0741956 22.6639839 10.0741956 24.2176872 24.6196502 33.1185294 24.6196502 31.6025412"></polygon>
                        <path d="M12.9608473,37.4838617 C11.5860303,38.3178939 11.5860303,40.7089441 12.6850918,42.8944604 C13.80344,45.1183289 15.734725,46.4527309 17.1875439,45.5713789 C18.562361,44.7373467 18.562361,42.3462965 17.4632995,40.1607802 C16.3660522,37.9788715 14.4862555,36.6531811 13.0435847,37.4363314 L12.9608473,37.4838617 Z M16.1286365,40.8054354 C16.9313922,42.4017388 16.9313922,44.0117476 16.404392,44.3314521 C15.9553937,44.6038367 14.8032238,43.8077565 14.0197548,42.2498052 C13.2169991,40.6535018 13.2169991,39.043493 13.7439992,38.7237885 C14.1929976,38.4514039 15.3451675,39.2474841 16.1286365,40.8054354 Z" id="椭圆形" fill="#FFFFFF" fill-rule="nonzero"></path>
                        <path d="M15.9658009,44.5504413 C16.3308961,44.3984822 16.7682172,44.5088499 16.9777931,44.7954824 L17.0143464,44.8512706 L18.6297136,47.6192838 C18.8208956,47.9468839 18.6614131,48.3433426 18.2734994,48.5047993 C17.9084042,48.6567584 17.4710832,48.5463907 17.2615073,48.2597582 L17.2249539,48.20397 L15.6095867,45.4359568 C15.4184047,45.1083567 15.5778872,44.711898 15.9658009,44.5504413 Z" id="路径-58" fill="#FFFFFF" fill-rule="nonzero"></path>
                    </g>
                    <g id="编组-2" transform="translate(25.128073, 27.925761)">
                        <path d="M41.2346351,87.9068044 L97.8756173,87.9068044 C97.8756173,70.6879458 97.8756173,62.0785165 97.8756173,62.0785165 C97.8756173,62.0785165 89.1247305,62.0785165 71.6229568,62.0785165 L71.6229568,70.2729515 L41.2346351,87.9068044 Z" id="路径-11" fill="url(#linearGradient-4)"></path>
                        <polygon id="路径-59" fill="#BAD5FE" transform="translate(56.340684, 10.050563) rotate(-24.000000) translate(-56.340684, -10.050563) " points="64.0796953 2.49448202 56.5727039 17.6066443 48.6016723 13.5683038"></polygon>
                        <polygon id="路径-60" fill="#E2EFFF" transform="translate(55.392724, 17.149730) rotate(-24.000000) translate(-55.392724, -17.149730) " points="51.4072083 14.567629 51.4072083 15.6735705 59.1462198 19.7318315 59.3782398 18.6059696"></polygon>
                        <polygon id="路径-61" fill="#BAD5FE" transform="translate(50.919818, 9.146759) rotate(-24.000000) translate(-50.919818, -9.146759) " points="63.2434266 4.6212087 38.5962099 8.8706679 44.518189 13.6723092"></polygon>
                        <polygon id="路径-62" fill="#E2EFFF" transform="translate(43.514530, 15.533082) rotate(-24.000000) translate(-43.514530, -15.533082) " points="40.5535408 12.4347965 40.5535408 13.7488756 46.4755199 18.6313679 46.4755199 17.2364378"></polygon>
                        <polygon id="路径" fill="#BAD5FE" transform="translate(50.675691, 19.070137) rotate(-24.000000) translate(-50.675691, -19.070137) " points="48.5332846 14.6295259 48.5332846 23.5107485 52.8180972 19.4889071"></polygon>
                        <polygon id="路径" fill="#699BFF" transform="translate(54.613061, 10.162049) rotate(-24.000000) translate(-54.613061, -10.162049) " points="49.5352547 17.1172897 50.3444247 16.355365 48.4976568 15.3865712 48.4976568 14.2806297 63.9756798 3.20680797 45.2504422 12.2579085"></polygon>
                        <polygon id="路径-63" fill="#E2EFFF" transform="translate(60.104618, 8.990956) rotate(-24.000000) translate(-60.104618, -8.990956) " points="56.4671322 15.9841066 56.2351121 17.1099686 63.9741236 0.871944299"></polygon>
                        <polygon id="路径-39" fill="#F9F9F9" points="9.06255716 36.7448607 41.4760508 57.0941101 74.7660966 37.5812772 42.4186227 17.2188586"></polygon>
                        <polygon id="路径-41" fill="#E8ECF2" points="41.2346351 87.9068044 8.6094293 67.6723102 8.6094293 36.2502286 41.2346351 56.4847229"></polygon>
                        <polygon id="路径-41备份" fill="url(#linearGradient-5)" points="41.2346351 88.3599323 71.5942016 70.7287645 71.5942016 55.2815987 44.9822577 70.7287645 41.2346351 60.1677549"></polygon>
                        <polygon id="路径-42" fill="url(#linearGradient-6)" points="74.9404724 37.6096122 80.6567587 48.7610961 45.5493359 68.4223065 41.2346351 56.7969377"></polygon>
                        <polygon id="路径-43" fill="url(#linearGradient-7)" points="80.6567587 50.4062402 80.6567587 48.9378087 45.5697857 68.4747134 41.2346351 57.0030134 41.2346351 60.2044589 45.0246598 70.6879458"></polygon>
                        <polygon id="路径-44" fill="#E5E9F0" points="42.5940186 19.4844979 42.5940186 54.3570326 41.8567609 54.8284708 40.9829946 54.3192234 12.68758 36.8383636"></polygon>
                        <polygon id="路径-45" fill="#D7DDE6" points="42.5940186 19.4844979 42.5940186 54.375343 71.1410737 37.6310326"></polygon>
                        <polygon id="路径-46" fill="url(#linearGradient-8)" points="8.6094293 36.2502286 0 49.0348459 1.09360942 50.2971922 8.6094293 39.2513117"></polygon>
                        <polygon id="路径-47" fill="url(#linearGradient-9)" points="1.35938357 50.2971922 9.06255716 45.8405809 9.06255716 39.4221236"></polygon>
                        <polygon id="路径-48" fill="#E2EFFF" points="13.1407079 60.719133 13.1407079 63.7947566 35.7971008 77.9379916 35.7971008 74.8476653"></polygon>
                        <polygon id="路径-49" fill="#BAD5FE" points="13.1407079 60.9094257 14.2573171 60.2660051 36.7033565 74.104147 35.5518196 74.7660966"></polygon>
                        <polygon id="路径-50" fill="#92BAFF" points="35.3439729 74.5908638 36.7033565 73.8598408 36.7033565 77.2148855 35.3439729 77.9379916"></polygon>
                        <polygon id="路径-11" fill="url(#linearGradient-10)" points="35.3439729 77.7417198 38.0627401 78.8442473 38.0627401 74.5556813 36.6217297 73.8598408 36.6217297 77.0534152"></polygon>
                        <polygon id="路径-48" fill="#E2EFFF" points="13.1407079 48.9378087 13.1407079 52.0134322 35.7971008 66.1566673 35.7971008 63.066341"></polygon>
                        <polygon id="路径-49" fill="#BAD5FE" points="13.1407079 49.1281014 14.2573171 48.4846808 36.7033565 62.3228227 35.5518196 62.9847723"></polygon>
                        <polygon id="路径-50" fill="#92BAFF" points="35.3439729 63.2626673 36.7033565 62.5316444 36.7033565 65.8866891 35.3439729 66.6097951"></polygon>
                        <polygon id="路径-11" fill="url(#linearGradient-10)" points="35.3439729 66.4135234 38.0627401 67.5160508 38.0627401 63.2274849 36.6217297 62.5316444 36.6217297 65.7252187"></polygon>
                        <path d="M53.4400169,25.7530266 C52.8927609,26.1335905 52.363107,26.5091578 51.8510515,26.8797339 C51.6342104,27.0366625 51.5856417,27.3396627 51.7425702,27.5565037 C51.8994988,27.7733448 52.2024989,27.8219136 52.41934,27.664985 C52.926401,27.2980235 53.4510972,26.9259715 53.993425,26.5488347 C54.2131813,26.3960153 54.2674444,26.0939829 54.114625,25.8742266 C53.9618056,25.6544702 53.6597733,25.6002071 53.4400169,25.7530266 Z M50.2846128,28.0393904 C49.749082,28.4454458 49.2358962,28.8451869 48.7450484,29.2386266 C48.5361923,29.4060355 48.5025927,29.7110586 48.6700016,29.9199147 C48.8374105,30.1287709 49.1424336,30.1623705 49.3512897,29.9949616 C49.8352288,29.6070596 50.3415552,29.2126616 50.8702619,28.8117803 C51.0835515,28.6500578 51.1253549,28.3460504 50.9636324,28.1327608 C50.8019098,27.9194712 50.4979024,27.8776678 50.2846128,28.0393904 Z M47.2389717,30.486091 C46.721591,30.929967 46.2346043,31.365336 45.7779981,31.792236 C45.5824743,31.9750394 45.5721623,32.2817341 45.7549656,32.477258 C45.9377689,32.6727818 46.2444637,32.6830938 46.4399875,32.5002905 C46.8862821,32.0830312 47.3629997,31.6568429 47.8701269,31.2217637 C48.0732773,31.047475 48.0966743,30.7415002 47.9223856,30.5383498 C47.748097,30.3351994 47.4421221,30.3118023 47.2389717,30.486091 Z M44.3761013,33.1759267 C43.8929726,33.682282 43.4562758,34.1759608 43.0660035,34.6571201 C42.8973878,34.8650032 42.9292203,35.1702158 43.1371034,35.3388315 C43.3449865,35.5074472 43.6501991,35.4756147 43.8188148,35.2677316 C44.1921653,34.8074348 44.6116982,34.3331595 45.077406,33.8450625 C45.2621828,33.6514025 45.2549815,33.344619 45.0613216,33.1598422 C44.8676616,32.9750655 44.560878,32.9822667 44.3761013,33.1759267 Z M41.8973076,36.2779196 C41.5037617,36.9073699 41.1989633,37.5145589 40.9836226,38.1002271 C40.8912512,38.3514524 41.0200276,38.6299926 41.2712529,38.7223641 C41.5224782,38.8147355 41.8010184,38.685959 41.8933898,38.4347338 C42.0845158,37.914923 42.3595501,37.367027 42.719203,36.7917863 C42.8611034,36.5648261 42.7921488,36.2658056 42.5651887,36.1239052 C42.3382285,35.9820048 42.039208,36.0509594 41.8973076,36.2779196 Z M40.5975711,40.210319 C40.6124158,40.8965922 40.778707,41.5433448 41.0952564,42.144685 L41.1559739,42.2341403 C41.1897527,42.2735918 41.2247848,42.3120989 41.2610431,42.3496553 C41.4469565,42.5422243 41.7537772,42.5476198 41.9463462,42.3617064 C42.1389153,42.175793 42.1443108,41.8689724 41.9583974,41.6764033 L41.8922711,41.6037138 L41.5241225,41.9189271 L41.9529886,41.6931692 C41.7066452,41.2251974 41.5782649,40.7258906 41.5666592,40.1893569 C41.5608707,39.9217506 41.3392404,39.7095054 41.0716341,39.7152939 C40.8040278,39.7210825 40.5917826,39.9427128 40.5975711,40.210319 Z M43.2844378,43.3271301 C43.9356659,43.4420662 44.6569241,43.4460519 45.3739056,43.3463463 C45.6390233,43.3094782 45.8240562,43.0646704 45.7871881,42.7995527 C45.7503201,42.5344351 45.5055123,42.3494022 45.2403946,42.3862703 C44.6199813,42.4725468 43.9999758,42.4691207 43.4529096,42.3725683 C43.1893147,42.326046 42.937915,42.5020183 42.8913928,42.7656133 C42.8448706,43.0292082 43.0208428,43.2806079 43.2844378,43.3271301 Z M47.3748754,42.7573003 C48.2134585,42.3447149 48.7691223,41.7825593 48.8809387,41.1090138 L48.9021365,40.9379258 C48.9293775,40.6716467 48.7355988,40.4337016 48.4693197,40.4064606 C48.2030406,40.3792196 47.9650956,40.5729983 47.9378546,40.8392774 L47.9224681,40.9652201 C47.8742516,41.2542206 47.5334599,41.5989938 46.9469578,41.8875546 C46.7067842,42.0057207 46.6078775,42.2962125 46.7260437,42.5363862 C46.8442099,42.7765599 47.1347017,42.8754665 47.3748754,42.7573003 Z M48.1806886,38.7164942 C47.7748986,38.3934958 47.2622253,38.2122175 46.4184739,38.0359912 C46.3152429,38.0144536 46.2142784,37.9970669 46.1122204,37.983191 C45.8469917,37.9471305 45.6027485,38.1329079 45.5666879,38.3981366 C45.5306273,38.6633653 45.7164048,38.9076085 45.9816335,38.9436691 C46.0610607,38.9544681 46.1395508,38.9679846 46.2204011,38.9848528 L46.3572788,39.0142195 L46.6076735,39.0729244 C47.0784689,39.1907773 47.3739112,39.3132148 47.5770259,39.4748889 C47.7864508,39.6415857 48.0913577,39.6069478 48.2580546,39.3975229 C48.4247514,39.188098 48.3901135,38.8831911 48.1806886,38.7164942 Z M43.9484437,38.2131538 C43.2398998,38.4637886 42.6066097,38.8767524 42.1279871,39.4051183 C41.9482853,39.6034965 41.9634256,39.9099909 42.1618038,40.0896926 C42.360182,40.2693944 42.6666763,40.2542542 42.8463781,40.055876 C43.2149179,39.6490337 43.7117561,39.3250491 44.2716939,39.1269811 C44.5240403,39.0377181 44.6562455,38.7607888 44.5669825,38.5084424 C44.4777194,38.2560959 44.2007902,38.1238907 43.9484437,38.2131538 Z M40.9366876,41.0258985 C40.5990512,41.5298344 40.2417744,42.0891651 39.8830104,42.6782401 C39.7437811,42.9068485 39.8162372,43.20504 40.0448457,43.3442693 C40.2734542,43.4834986 40.5716456,43.4110424 40.7108749,43.182434 C41.0624054,42.6052361 41.4121553,42.057689 41.7419657,41.5654337 C41.8909542,41.3430623 41.8314656,41.0420156 41.6090942,40.8930271 C41.3867228,40.7440385 41.0856761,40.8035271 40.9366876,41.0258985 Z M38.8975401,44.3688879 C38.576921,44.94428 38.2694616,45.5229534 37.9792847,46.0993022 C37.8589154,46.3383793 37.9551472,46.6297682 38.1942243,46.7501374 C38.4333014,46.8705067 38.7246903,46.7742749 38.8450596,46.5351978 C39.1289913,45.9712533 39.430105,45.4045231 39.7442752,44.8407044 C39.8745637,44.6068849 39.7906353,44.3117171 39.5568159,44.1814286 C39.3229964,44.0511401 39.0278286,44.1350685 38.8975401,44.3688879 Z M37.1376828,47.8770522 C36.8619288,48.5011765 36.6143756,49.111012 36.3977691,49.70327 C36.3058304,49.954654 36.4350864,50.232972 36.6864704,50.3249107 C36.9378543,50.4168493 37.2161724,50.2875934 37.308111,50.0362094 C37.5171868,49.4645425 37.7568261,48.8742023 38.0243135,48.2687883 C38.1324884,48.023952 38.0217025,47.7377799 37.7768662,47.6296049 C37.5320299,47.52143 37.2458578,47.6322159 37.1376828,47.8770522 Z" id="路径-64" fill="url(#linearGradient-11)" fill-rule="nonzero" transform="translate(45.284786, 38.010380) rotate(-15.000000) translate(-45.284786, -38.010380) "></path>
                    </g>
                    <g id="编组-4" transform="translate(108.553841, 87.880397)">
                        <path d="M20.6651407,34.7835865 L54.7560498,34.7835865 C54.7560498,22.9654047 54.7560498,17.0563138 54.7560498,17.0563138 C54.7560498,17.0563138 48.7656723,17.0563138 36.7849173,17.0563138 L41.0429464,19.9709383 L41.0429464,22.8240782 L20.6651407,34.7835865 Z" id="路径-11备份-2" fill="url(#linearGradient-12)"></path>
                        <path d="M0.703584946,22.3545969 C0.422575291,22.1771271 0.242634936,21.8767928 0.214596332,21.5463279 L0.210595246,21.4555238 L0.210595246,19.3290411 L0.212176552,19.3460727 C0.230222907,19.4577169 0.283293536,19.5613472 0.364359091,19.6409058 L0.416301581,19.6856239 L0.434032426,19.69898 L19.3576207,31.5550406 C19.9884956,31.9502981 20.7866983,31.9624366 21.4293003,31.5865452 L40.8742666,20.2121715 L40.8742666,20.2121715 L40.9336596,20.1682535 C41.0340389,20.0825941 41.099012,19.9617177 41.1155271,19.8299058 L41.1196862,19.763201 L41.1196862,21.9459508 C41.1196862,22.2940303 40.9509621,22.6179113 40.6717612,22.8150264 L40.5996931,22.8616049 L21.4355593,34.1633973 C20.7898676,34.5441854 19.9854532,34.5319363 19.3516549,34.1316651 L0.703584946,22.3545969 L0.703584946,22.3545969 Z" id="路径" fill="url(#linearGradient-13)"></path>
                        <polygon id="路径" fill="#BAD5FE" points="3.84695888 19.494933 20.6651407 9.78358653 20.6651407 12.3086527 3.84695888 22.0563138"></polygon>
                        <polygon id="路径" fill="#699BFF" transform="translate(28.846959, 16.147223) scale(-1, 1) translate(-28.846959, -16.147223) " points="20.6651407 20.2579996 37.0287771 9.78358653 37.0287771 12.3434949 21.2004611 22.5108593 20.6651407 22.1464062"></polygon>
                        <path d="M20.241462,7.30011636 C20.5605846,7.11606547 20.9550562,7.12237715 21.2681272,7.31654337 L40.0150449,18.9433553 C40.1551094,19.0302231 40.2715316,19.1503635 40.3539547,19.2930888 C40.6301487,19.7713516 40.4663396,20.3829597 39.9880768,20.6591537 L20.6749657,31.8123657 C20.356145,31.9964828 19.9619427,31.990524 19.6488327,31.7968545 L0.863640875,20.1775544 C0.722963169,20.0905403 0.606067465,19.9699881 0.52342621,19.8266979 C0.24750273,19.3482789 0.411657731,18.7367636 0.890076667,18.4608401 Z M20.17636,9.83597035 L5.13107197,18.5131942 C4.65265303,18.7891177 4.48849803,19.4006331 4.76442151,19.879052 C4.84706277,20.0223423 4.96395847,20.1428944 5.10463618,20.2299085 L19.7054119,29.2610005 C20.0185219,29.45467 20.4127242,29.4606288 20.7315449,29.2765117 L35.7470815,20.6051246 C36.2253443,20.3289306 36.3891534,19.7173225 36.1129594,19.2390597 C36.0305363,19.0963343 35.9141141,18.9761939 35.7740496,18.8893261 L21.2030252,9.85239736 C20.8899542,9.65823115 20.4954826,9.65191946 20.17636,9.83597035 Z" id="形状结合" fill="#92BAFF"></path>
                        <path d="M6.11968615,21.4027099 L8.00900484,22.5108593 C22.5070348,18.1624722 29.7560498,15.9882787 29.7560498,15.9882787 C29.7560498,15.9882787 27.9741676,15.1321692 24.4104034,13.4199502 L19.2056319,13.4199502 L6.11968615,21.4027099 Z" id="路径-11备份-2" fill="url(#linearGradient-14)"></path>
                        <path d="M4.70685142,15.8225975 C4.47579904,15.6816655 4.32784808,15.4431648 4.30479412,15.1807368 L4.30150434,15.1086276 L4.30150434,13.4199502 L4.30280452,13.4334753 C4.31764264,13.5221339 4.36127849,13.6044286 4.42793239,13.6676075 L4.47064066,13.7031189 L4.48521935,13.7137252 L19.8877022,23.0338835 C20.5058922,23.407955 21.2777834,23.4195003 21.9068845,23.0640848 L37.7360785,14.1212596 L37.7360785,14.1212596 L37.7849128,14.0863836 C37.8674469,14.0183599 37.9208692,13.9223699 37.9344483,13.8176957 L37.937868,13.7647242 L37.937868,15.4980843 C37.937868,15.7745004 37.7991393,16.0317001 37.5695741,16.1882326 L37.5103182,16.2252214 L21.913091,25.1090704 C21.2808579,25.4691769 20.502936,25.4575235 19.8817731,25.0786411 L4.70685142,15.8225975 L4.70685142,15.8225975 Z" id="路径" fill="url(#linearGradient-15)"></path>
                        <polygon id="路径" fill="#E8EDF5" points="7.02877706 13.1510809 20.6651407 5.23813199 20.6651407 7.29559328 7.02877706 15.238132"></polygon>
                        <polygon id="路径" fill="#D8E4EE" transform="translate(27.483323, 10.919950) scale(-1, 1) translate(-27.483323, -10.919950) " points="20.6651407 14.0675199 34.3015043 5.69267744 34.3015043 7.74289484 20.6651407 16.1472229"></polygon>
                        <path d="M20.6419272,3.20559006 C20.9598072,3.02342469 21.3518554,3.02967856 21.6637634,3.22189018 L37.0255409,12.6885025 C37.1419265,12.7602245 37.2385333,12.8599071 37.3065735,12.9784828 C37.5319672,13.371283 37.3962574,13.8724283 37.0034571,14.097822 L21.1763435,23.1796189 C20.8587637,23.3618502 20.4669835,23.355946 20.1550392,23.1642276 L4.76171395,13.7036179 C4.64482555,13.6317792 4.5478308,13.5317599 4.47961417,13.4127213 C4.25444193,13.019794 4.39043427,12.5187253 4.78336157,12.2935531 Z M20.5882665,5.28245978 L8.54211061,12.1856704 C8.06293097,12.4602707 7.89708665,13.0713301 8.17168694,13.5505097 C8.25487796,13.6956787 8.37316425,13.8176535 8.51571107,13.9052616 L20.201675,21.0873579 C20.5136193,21.2790762 20.9053995,21.2849805 21.2229793,21.1027492 L33.2453204,14.2041787 C33.7243451,13.9293083 33.8898449,13.3181555 33.6149745,12.8391307 C33.5319986,12.6945263 33.4141854,12.5729621 33.2722518,12.4854963 L21.6101026,5.2987599 C21.2981946,5.10654828 20.9061464,5.10029441 20.5882665,5.28245978 Z" id="形状结合" fill="url(#linearGradient-16)"></path>
                        <polygon id="路径-8" fill="#BAD5FE" points="20.8129393 -0.216413467 13.3924134 3.87449562 20.8129393 7.96540472 28.3924134 3.95860928"></polygon>
                        <polygon id="路径-9" fill="#E2EFFF" points="12.937868 4.32904108 12.937868 13.0888585 20.6651407 17.0563138 20.6651407 8.28774754"></polygon>
                        <polygon id="路径-10" fill="#92BAFF" points="27.937868 12.8311609 20.2105952 17.0563138 20.2105952 8.2313085 27.937868 4.32904108"></polygon>
                    </g>
                    <g id="编组-14" transform="translate(0.000000, 63.737116)">
                        <g id="编组-6">
                            <polygon id="路径-8" fill="#BAD5FE" points="7.187078 0 -2.58070965e-14 3.92397193 7.187078 7.84794387 14.5281037 4.00465318"></polygon>
                            <polygon id="路径-9" fill="#E2EFFF" points="0 3.92397193 0 12.6069289 7.187078 16.5395729 7.187078 7.84794387"></polygon>
                            <polygon id="路径-10" fill="#92BAFF" points="14.5281037 12.3782766 7.187078 16.5395729 7.187078 7.84794387 14.5281037 4.00465318"></polygon>
                        </g>
                        <path d="M7.187078,16.5395729 L25.3249335,16.5395729 C25.3249335,11.5166442 25.3249335,9.00517986 25.3249335,9.00517986 C25.3249335,9.00517986 21.7259902,9.00517986 14.5281037,9.00517986 L14.5281037,12.3782766 L7.187078,16.5395729 Z" id="路径-11" fill="url(#linearGradient-17)"></path>
                    </g>
                    <g id="编组-7备份" transform="translate(90.431677, 114.406006)">
                        <g id="编组-6">
                            <polygon id="路径-8" fill="#BAD5FE" points="7.187078 0 -2.58070965e-14 3.92397193 7.187078 7.84794387 14.5281037 4.00465318"></polygon>
                            <polygon id="路径-9" fill="#E2EFFF" points="0 3.92397193 0 12.6069289 7.187078 16.5395729 7.187078 7.84794387"></polygon>
                            <polygon id="路径-10" fill="#92BAFF" points="14.5281037 12.3782766 7.187078 16.5395729 7.187078 7.84794387 14.5281037 4.00465318"></polygon>
                        </g>
                        <path d="M7.187078,16.5395729 L25.3249335,16.5395729 C25.3249335,11.5166442 25.3249335,9.00517986 25.3249335,9.00517986 C25.3249335,9.00517986 21.7259902,9.00517986 14.5281037,9.00517986 L14.5281037,12.3782766 L7.187078,16.5395729 Z" id="路径-11" fill="url(#linearGradient-17)"></path>
                    </g>
                </g>
            </g>
        </g>
    </g>
</svg>
