<?xml version="1.0" standalone="no"?><!DOCTYPE svg PUBLIC "-//W3C//DTD SVG 1.1//EN" "http://www.w3.org/Graphics/SVG/1.1/DTD/svg11.dtd"><svg t="1649319824597" class="icon" viewBox="0 0 1024 1024" version="1.1" xmlns="http://www.w3.org/2000/svg" p-id="1828" xmlns:xlink="http://www.w3.org/1999/xlink" width="200" height="200"><defs><style type="text/css">@font-face { font-family: feedback-iconfont; src: url("//at.alicdn.com/t/font_1031158_u69w8yhxdu.woff2?t=1630033759944") format("woff2"), url("//at.alicdn.com/t/font_1031158_u69w8yhxdu.woff?t=1630033759944") format("woff"), url("//at.alicdn.com/t/font_1031158_u69w8yhxdu.ttf?t=1630033759944") format("truetype"); }
</style></defs><path d="M827.306667 853.333333H354.133333a33.28 33.28 0 0 1 0-66.133333h473.173334a52.053333 52.053333 0 0 0 46.506666-55.04V359.68L554.666667 465.92a139.52 139.52 0 0 1-85.333334 0l-360.96-110.933333A32.853333 32.853333 0 0 1 85.333333 323.413333v-31.573333A116.48 116.48 0 0 1 196.693333 170.666667h630.613334A116.48 116.48 0 0 1 938.666667 291.84v440.32A116.48 116.48 0 0 1 827.306667 853.333333zM150.186667 298.666667l337.066666 104.533333a78.933333 78.933333 0 0 0 48.64 0l337.493334-113.066667a51.2 51.2 0 0 0-46.08-53.333333H196.693333a52.053333 52.053333 0 0 0-46.506666 55.04z" p-id="1829"></path><path d="M85.333333 455.68m32 0l161.706667 0q32 0 32 32l0 2.133333q0 32-32 32l-161.706667 0q-32 0-32-32l0-2.133333q0-32 32-32Z" p-id="1830"></path><path d="M85.333333 587.52m32 0l161.706667 0q32 0 32 32l0 2.133333q0 32-32 32l-161.706667 0q-32 0-32-32l0-2.133333q0-32 32-32Z" p-id="1831"></path><path d="M85.333333 719.786667m32 0l161.706667 0q32 0 32 32l0 2.133333q0 32-32 32l-161.706667 0q-32 0-32-32l0-2.133333q0-32 32-32Z" p-id="1832"></path></svg>