<?xml version="1.0" standalone="no"?><!DOCTYPE svg PUBLIC "-//W3C//DTD SVG 1.1//EN" "http://www.w3.org/Graphics/SVG/1.1/DTD/svg11.dtd"><svg class="icon" width="200px" height="200.00px" viewBox="0 0 1024 1024" version="1.1" xmlns="http://www.w3.org/2000/svg"><path fill="#2c2c2c" d="M408.576 673.792m-32.256 0a32.256 32.256 0 1 0 64.512 0 32.256 32.256 0 1 0-64.512 0ZM550.4 673.792m-32.256 0a32.256 32.256 0 1 0 64.512 0 32.256 32.256 0 1 0-64.512 0ZM692.736 673.792m-32.256 0a32.256 32.256 0 1 0 64.512 0 32.256 32.256 0 1 0-64.512 0ZM834.56 673.792m-32.256 0a32.256 32.256 0 1 0 64.512 0 32.256 32.256 0 1 0-64.512 0ZM408.576 785.408m-32.256 0a32.256 32.256 0 1 0 64.512 0 32.256 32.256 0 1 0-64.512 0ZM550.4 785.408m-32.256 0a32.256 32.256 0 1 0 64.512 0 32.256 32.256 0 1 0-64.512 0ZM692.736 785.408m-32.256 0a32.256 32.256 0 1 0 64.512 0 32.256 32.256 0 1 0-64.512 0ZM834.56 785.408m-32.256 0a32.256 32.256 0 1 0 64.512 0 32.256 32.256 0 1 0-64.512 0ZM307.2 710.144H180.736c-8.192 0-14.336-6.656-14.336-14.336v-43.52c0-8.192 6.656-14.336 14.336-14.336H307.2c8.192 0 14.336 6.656 14.336 14.336v43.52c0 7.68-6.144 14.336-14.336 14.336zM307.2 821.248H180.736c-8.192 0-14.336-6.656-14.336-14.336v-43.52c0-8.192 6.656-14.336 14.336-14.336H307.2c8.192 0 14.336 6.656 14.336 14.336v43.52c0 8.192-6.144 14.336-14.336 14.336zM1003.52 482.816L964.096 76.8c-3.072-29.696-27.648-52.224-57.856-52.224H122.368c-29.696 0-54.784 22.528-57.856 52.224L25.088 486.4c-0.512 6.656 0 12.8 1.536 18.944v413.696c0 38.4 31.232 70.144 70.144 70.144h837.632c38.4 0 70.144-31.232 70.144-70.144V482.816h-1.024z m-357.376-291.84h87.552c50.688 0 93.184 17.408 93.184 74.752 0 34.816-16.384 57.344-40.96 69.12l53.248 94.72h-64l-44.032-83.968h-27.648v83.968h-57.344V190.976z m-176.128 0l27.136 108.544c7.168 25.6 11.776 50.176 18.432 76.288h1.536c6.656-26.112 11.776-50.688 18.432-76.288l27.136-108.544h58.368l-71.68 238.592H481.28L409.6 190.976h60.416z m-274.944 0h58.368l59.392 114.176 23.552 52.736h1.536c-3.072-25.088-7.68-59.392-7.68-88.064V190.976h54.272v238.592H326.144L267.264 313.856l-23.552-52.224h-1.536c2.56 26.624 7.168 59.392 7.168 88.064v79.36H195.072V190.976z m727.04 716.8h-814.08v-343.04h814.08v343.04zM770.56 265.728c0-22.528-14.336-29.696-41.472-29.696h-25.6v64h25.6c27.136 0 41.472-11.776 41.472-34.304z" /></svg>