<?xml version="1.0" standalone="no"?><!DOCTYPE svg PUBLIC "-//W3C//DTD SVG 1.1//EN" "http://www.w3.org/Graphics/SVG/1.1/DTD/svg11.dtd"><svg t="1595298823330" class="icon" viewBox="0 0 1024 1024" version="1.1" xmlns="http://www.w3.org/2000/svg" p-id="22582" xmlns:xlink="http://www.w3.org/1999/xlink" width="200" height="200"><defs><style type="text/css"></style></defs><path d="M790.2208 261.9392s20.48-51.2-63.3856-42.5984l-3.8912 65.1264s56.32 11.0592 67.2768-22.528z" p-id="22583"></path><path d="M1024 586.752L948.3264 31.5392A36.5568 36.5568 0 0 0 912.1792 0H114.0736A36.6592 36.6592 0 0 0 77.824 31.3344L0 586.752h0.8192l-0.8192 0.9216v394.5472A41.7792 41.7792 0 0 0 41.7792 1024h940.4416a41.7792 41.7792 0 0 0 41.7792-41.7792V587.6736l-0.8192-0.9216zM687.104 182.5792h89.7024c63.7952 0 74.1376 47.3088 74.1376 47.3088 14.336 71.68-64.2048 79.36-55.0912 79.36a42.9056 42.9056 0 0 1 20.48 7.7824l78.9504 94.4128h-69.4272l-49.9712-67.072a43.9296 43.9296 0 0 0-49.0496-20.48l-6.4512 87.4496h-61.44z m-223.1296 0l51.2 181.1456 56.4224-181.1456H624.64l-77.2096 229.1712h-69.8368l-66.1504-229.1712z m-303.4112 0h52.3264L327.68 347.2384l-7.0656-164.6592h45.2608l23.3472 229.1712h-62.976l-124.8256-166.912-13.5168 166.912h-58.6752z m790.3232 768H73.1136V586.752h877.7728z" p-id="22584"></path><path d="M171.008 731.3408h96.8704A24.7808 24.7808 0 0 0 292.5568 706.56v-23.4496a24.7808 24.7808 0 0 0-24.6784-24.8832H171.008a24.7808 24.7808 0 0 0-24.6784 24.8832V706.56a24.7808 24.7808 0 0 0 24.6784 24.8832z m0 146.2272h96.8704a24.7808 24.7808 0 0 0 24.6784-24.8832V829.44a24.8832 24.8832 0 0 0-24.6784-24.9856H171.008A24.8832 24.8832 0 0 0 146.3296 829.44v23.2448a24.7808 24.7808 0 0 0 24.6784 24.8832z m230.912-146.2272h0.8192a36.5568 36.5568 0 0 0 0-73.1136h-0.8192a36.352 36.352 0 0 0-36.2496 36.5568 36.4544 36.4544 0 0 0 36.2496 36.4544z m0 145.92h0.8192a36.352 36.352 0 0 0 36.2496-36.5568 36.352 36.352 0 0 0-36.2496-36.5568h-0.8192a36.352 36.352 0 0 0-36.2496 36.5568 36.352 36.352 0 0 0 36.2496 36.5568z m146.3296-145.92h0.8192a36.5568 36.5568 0 0 0 0-73.1136h-0.8192A36.352 36.352 0 0 0 512 694.784a36.352 36.352 0 0 0 36.2496 36.4544z m-0.6144 146.2272h0.8192a36.5568 36.5568 0 0 0 0-73.1136h-0.8192a36.4544 36.4544 0 0 0-36.2496 36.5568 36.2496 36.2496 0 0 0 36.2496 36.4544z m146.8416-146.2272h0.8192a36.5568 36.5568 0 0 0 0-73.1136h-0.8192a36.2496 36.2496 0 0 0-36.1472 36.5568 36.352 36.352 0 0 0 36.1472 36.4544z m0 146.2272h0.8192a36.5568 36.5568 0 0 0 0-73.1136h-0.8192a36.352 36.352 0 0 0-36.1472 36.5568 36.2496 36.2496 0 0 0 36.1472 36.4544z m146.3296-146.2272h0.8192a36.5568 36.5568 0 0 0 0-73.1136h-0.8192a36.352 36.352 0 0 0-36.2496 36.5568 36.4544 36.4544 0 0 0 36.2496 36.4544z m0 146.2272h0.8192a36.5568 36.5568 0 0 0 0-73.1136h-0.8192a36.4544 36.4544 0 0 0-36.2496 36.5568 36.2496 36.2496 0 0 0 36.2496 36.4544z" p-id="22585"></path></svg>