<?xml version="1.0" standalone="no"?><!DOCTYPE svg PUBLIC "-//W3C//DTD SVG 1.1//EN" "http://www.w3.org/Graphics/SVG/1.1/DTD/svg11.dtd"><svg class="icon" width="200px" height="200.00px" viewBox="0 0 1024 1024" version="1.1" xmlns="http://www.w3.org/2000/svg"><path fill="#2c2c2c" d="M747.008 850.944h-87.04c-32.256 0-57.856-26.112-57.856-57.856V230.4c0-32.256 26.112-57.856 57.856-57.856h87.04c32.256 0 57.856 26.112 57.856 57.856v562.176c0.512 32.256-25.6 58.368-57.856 58.368zM337.408 850.944h-87.04c-32.256 0-57.856-26.112-57.856-57.856V230.4c0-32.256 26.112-57.856 57.856-57.856h87.04c32.256 0 57.856 26.112 57.856 57.856v562.176c0.512 32.256-25.6 58.368-57.856 58.368z" /></svg>