<?xml version="1.0" standalone="no"?><!DOCTYPE svg PUBLIC "-//W3C//DTD SVG 1.1//EN" "http://www.w3.org/Graphics/SVG/1.1/DTD/svg11.dtd"><svg class="icon" width="200px" height="200.00px" viewBox="0 0 1024 1024" version="1.1" xmlns="http://www.w3.org/2000/svg"><path fill="#2c2c2c" d="M1012.736 780.8c-20.48-107.52-90.624-200.192-186.88-249.856 53.248-46.592 83.456-113.152 83.456-185.344 0-67.584-26.624-130.56-75.776-177.664-48.64-47.104-113.152-71.168-180.736-68.608-9.216 0.512-17.408 3.584-24.064 8.704-46.08-40.96-106.496-67.072-172.544-69.632-158.208-5.632-288.256 120.832-288.256 277.504 0 99.328 52.224 186.368 130.56 235.52 17.408 10.752 15.36 36.864-4.096 44.032-136.192 51.712-239.104 171.52-267.264 317.44-8.192 41.472 24.064 80.384 66.56 80.384h703.488c42.496 0 74.24-38.4 66.56-80.384-1.536-8.192-3.584-15.872-5.12-24.064h65.024c27.136 0 52.736-12.288 70.144-33.28 16.896-20.48 24.064-47.616 18.944-74.752zM561.152 430.08c-31.744 31.744-73.728 48.128-115.712 48.128-41.984 0-83.968-15.872-115.712-48.128-6.144-6.144-6.144-15.872 0-21.504 6.144-6.144 15.872-6.144 21.504 0 51.712 51.712 136.192 51.712 187.904 0 6.144-6.144 15.872-6.144 21.504 0 6.656 5.632 6.656 15.36 0.512 21.504z m369.152 373.76c-1.024 1.536-3.584 3.072-7.168 3.072h-95.232c-45.568-93.184-123.904-167.424-220.16-207.36-23.552-9.728-26.112-41.472-5.12-55.808 74.24-51.2 121.856-136.704 120.32-233.984-1.024-45.568-13.312-89.088-33.792-126.976 32.768 5.12 63.488 20.48 87.552 44.032 32.768 31.232 50.688 73.728 50.688 118.784 0 57.344-29.184 109.056-77.312 139.776-19.456 12.288-30.208 33.792-27.648 56.32 2.048 22.528 16.896 41.472 37.888 49.664 88.576 33.792 154.624 112.128 172.032 204.8 0.512 3.584-1.024 6.144-2.048 7.68z" /></svg>