<?xml version="1.0" standalone="no"?><!DOCTYPE svg PUBLIC "-//W3C//DTD SVG 1.1//EN" "http://www.w3.org/Graphics/SVG/1.1/DTD/svg11.dtd"><svg t="1606997056093" class="icon" viewBox="0 0 1024 1024" version="1.1" xmlns="http://www.w3.org/2000/svg" p-id="14620" xmlns:xlink="http://www.w3.org/1999/xlink" width="200" height="200"><defs><style type="text/css"></style></defs><path d="M901.12 481.28H122.88c-39.3216 0-71.68-32.3584-71.68-71.68V163.84c0-39.3216 32.3584-71.68 71.68-71.68h778.24c39.3216 0 71.68 32.3584 71.68 71.68v245.76c0 39.3216-32.3584 71.68-71.68 71.68z m-778.24-327.68c-5.7344 0-10.24 4.5056-10.24 10.24v245.76c0 5.7344 4.5056 10.24 10.24 10.24h778.24c5.7344 0 10.24-4.5056 10.24-10.24V163.84c0-5.7344-4.5056-10.24-10.24-10.24H122.88zM901.12 931.84H122.88c-39.3216 0-71.68-32.3584-71.68-71.68v-245.76c0-39.3216 32.3584-71.68 71.68-71.68h778.24c39.3216 0 71.68 32.3584 71.68 71.68v245.76c0 39.3216-32.3584 71.68-71.68 71.68z m-778.24-327.68c-5.7344 0-10.24 4.5056-10.24 10.24v245.76c0 5.7344 4.5056 10.24 10.24 10.24h778.24c5.7344 0 10.24-4.5056 10.24-10.24v-245.76c0-5.7344-4.5056-10.24-10.24-10.24H122.88z" fill="#231815" p-id="14621"></path><path d="M204.8 286.72m-40.96 0a40.96 40.96 0 1 0 81.92 0 40.96 40.96 0 1 0-81.92 0Z" fill="#231815" p-id="14622"></path><path d="M327.68 286.72m-40.96 0a40.96 40.96 0 1 0 81.92 0 40.96 40.96 0 1 0-81.92 0Z" fill="#231815" p-id="14623"></path><path d="M204.8 737.28m-40.96 0a40.96 40.96 0 1 0 81.92 0 40.96 40.96 0 1 0-81.92 0Z" fill="#231815" p-id="14624"></path><path d="M327.68 737.28m-40.96 0a40.96 40.96 0 1 0 81.92 0 40.96 40.96 0 1 0-81.92 0Z" fill="#231815" p-id="14625"></path></svg>