<?xml version="1.0" standalone="no"?><!DOCTYPE svg PUBLIC "-//W3C//DTD SVG 1.1//EN" "http://www.w3.org/Graphics/SVG/1.1/DTD/svg11.dtd"><svg class="icon" width="200px" height="200.00px" viewBox="0 0 1024 1024" version="1.1" xmlns="http://www.w3.org/2000/svg"><path fill="#2c2c2c" d="M517.12 230.912c22.528 0 40.96 18.432 40.96 40.96v215.04h150.016c22.528 0 40.96 18.432 40.96 40.96s-18.432 40.96-40.96 40.96H517.12c-22.528 0-40.96-18.432-40.96-40.96v-256c0-22.528 18.432-40.96 40.96-40.96zM512.512 46.08c-139.776 0-271.36 64.512-358.4 170.496L138.24 87.04c-2.56-22.528-23.04-38.4-45.568-35.84s-38.4 23.04-35.84 45.568l28.672 233.984c2.56 20.992 19.968 35.84 40.448 35.84 1.536 0 3.072 0 5.12-0.512l233.984-28.672c22.528-2.56 38.4-23.04 35.84-45.568s-23.04-38.4-45.568-35.84l-142.848 17.408C283.648 183.296 394.752 128 512.512 128c209.408 0 379.904 170.496 379.904 379.904s-170.496 379.904-379.904 379.904-379.904-170.496-379.904-379.904c0-22.528-18.432-40.96-40.96-40.96s-40.96 18.432-40.96 40.96c0 254.464 207.36 461.824 461.824 461.824s461.824-207.36 461.824-461.824S766.976 46.08 512.512 46.08z" /></svg>