<?xml version="1.0" encoding="utf-8"?>
<!-- Generator: Adobe Illustrator 24.2.3, SVG Export Plug-In . SVG Version: 6.00 Build 0)  -->
<svg version="1.1" id="Layer_1" xmlns="http://www.w3.org/2000/svg" xmlns:xlink="http://www.w3.org/1999/xlink" x="0px" y="0px"
	 viewBox="0 0 200 200" style="enable-background:new 0 0 200 200;" xml:space="preserve">
<style type="text/css">
	.st0{fill:#2C2C2C;}
</style>
<path class="st0" d="M100.9,48.3c4.1,0,7.5,3.4,7.5,7.5v39.5h27.6c4.1,0,7.5,3.4,7.5,7.5s-3.4,7.5-7.5,7.5h-35.1
	c-4.1,0-7.5-3.4-7.5-7.5V55.8C93.4,51.7,96.8,48.3,100.9,48.3z M100.1,14.3c-25.7,0-49.9,11.9-65.9,31.3l-2.9-23.8
	c-0.5-4.1-4.2-7.1-8.4-6.6c-4.1,0.5-7.1,4.2-6.6,8.4l5.3,43c0.5,3.9,3.7,6.6,7.4,6.6c0.3,0,0.6,0,0.9-0.1l43-5.3
	c4.1-0.5,7.1-4.2,6.6-8.4s-4.2-7.1-8.4-6.6l-26.3,3.2C58,39.5,78.5,29.4,100.1,29.4c38.5,0,69.8,31.3,69.8,69.8S138.6,169,100.1,169
	s-69.8-31.3-69.8-69.8c0-4.1-3.4-7.5-7.5-7.5s-7.5,3.4-7.5,7.5c0,46.8,38.1,84.9,84.9,84.9S185,146,185,99.2S146.9,14.3,100.1,14.3z
	"/>
</svg>
