<?xml version="1.0" standalone="no"?><!DOCTYPE svg PUBLIC "-//W3C//DTD SVG 1.1//EN" "http://www.w3.org/Graphics/SVG/1.1/DTD/svg11.dtd"><svg class="icon" width="200px" height="200.00px" viewBox="0 0 1024 1024" version="1.1" xmlns="http://www.w3.org/2000/svg"><path fill="#2c2c2c" d="M987.648 476.672c-7.168-20.48-20.48-37.888-37.888-51.2l-411.648-314.88c-1.024-0.512-1.536-1.536-2.56-2.048-1.024-1.024-2.56-2.048-3.584-3.072-58.368-52.224-151.552-7.68-151.552 70.656v80.896L189.44 110.592c-1.024-0.512-1.536-1.536-2.56-2.048-1.024-1.024-2.56-2.048-3.584-3.072C124.928 53.248 31.744 97.792 31.744 176.128v673.28c0 78.336 93.184 122.88 151.552 70.656 1.536-1.024 2.56-2.56 4.096-3.584l1.536-1.536 191.488-146.432v80.896c0 78.336 93.184 122.88 151.552 70.656 1.536-1.024 2.56-2.56 4.096-3.584l1.536-1.536 412.16-315.392c16.896-13.312 30.72-30.72 37.888-51.2 8.192-23.04 8.192-48.128 0-71.68z" /></svg>