<?xml version="1.0" standalone="no"?><!DOCTYPE svg PUBLIC "-//W3C//DTD SVG 1.1//EN" "http://www.w3.org/Graphics/SVG/1.1/DTD/svg11.dtd"><svg class="icon" width="200px" height="200.00px" viewBox="0 0 1024 1024" version="1.1" xmlns="http://www.w3.org/2000/svg"><path fill="#2c2c2c" d="M656.384 1009.152c-36.352 0-66.048-29.696-66.048-67.072V79.872c0-36.864 29.696-67.072 66.048-67.072 36.352 0 66.048 29.696 66.048 67.072v862.72c0 36.864-29.696 66.56-66.048 66.56zM376.32 1009.152c-36.352 0-66.048-29.696-66.048-67.072v-239.104c0-36.864 29.696-67.072 66.048-67.072s66.048 29.696 66.048 67.072V942.08c0 37.376-29.696 67.072-66.048 67.072zM81.408 1009.152C45.056 1009.152 15.36 979.456 15.36 942.08V410.112C15.36 373.248 45.056 343.04 81.408 343.04s66.048 29.696 66.048 67.072V942.08c0 37.376-29.696 67.072-66.048 67.072zM936.448 1009.152c-36.352 0-66.048-29.696-66.048-67.072V482.304c0-36.864 29.696-67.072 66.048-67.072 36.352 0 66.048 29.696 66.048 67.072V942.08c0 37.376-29.696 67.072-66.048 67.072z" /></svg>