<?xml version="1.0" encoding="UTF-8"?>
<svg width="11px" height="16px" viewBox="0 0 11 16" version="1.1" xmlns="http://www.w3.org/2000/svg" xmlns:xlink="http://www.w3.org/1999/xlink">
    <title>pointer</title>
    <g id="Web端" stroke="none" stroke-width="1" fill="none" fill-rule="evenodd">
        <g id="电子地图--点位编辑" transform="translate(-1160.000000, -73.000000)" fill="#333333" fill-rule="nonzero">
            <g id="工具" transform="translate(1140.000000, 68.000000)">
                <path d="M28.3328125,14.015625 L24.7366975,14.1691573 C24.6929475,14.1691573 24.66326,14.2113448 24.6773225,14.2519698 L24.9984375,15.346875 L26.4515625,19.4765625 L25.74375,19.725 L24.4078125,15.928125 L24.0174231,14.7777563 C24.0017981,14.7324438 23.9408606,14.7215063 23.9096106,14.7590063 L21.1405824,16.9558449 L22,7.73125 L28.3328125,14.015625 Z M21,5.0078125 L20,18.546875 C20,18.78125 20.29375,18.8875 20.4421875,18.70625 C20.5411458,18.5854167 21.5244792,17.7984375 23.3921875,16.3453125 C23.4234375,16.3078125 23.4828125,16.31875 23.5,16.3640625 L25.0484375,20.7640625 C25.09375,20.89375 25.2375,20.9625 25.3671875,20.9171875 L27.4890625,20.1703125 C27.61875,20.125 27.6875,19.98125 27.6421875,19.8515625 L25.9703125,15.0984375 C25.95625,15.0578125 25.9859375,15.015625 26.0296875,15.015625 L29.953125,15.015625 C30.165625,15.015625 30.28125,14.765625 30.14375,14.603125 L21,5.0078125 Z" id="pointer"></path>
            </g>
        </g>
    </g>
</svg>