<?xml version="1.0" standalone="no"?><!DOCTYPE svg PUBLIC "-//W3C//DTD SVG 1.1//EN" "http://www.w3.org/Graphics/SVG/1.1/DTD/svg11.dtd"><svg class="icon" width="200px" height="200.00px" viewBox="0 0 1024 1024" version="1.1" xmlns="http://www.w3.org/2000/svg"><path fill="#2c2c2c" d="M398.848 655.872V406.528c0-29.184 34.304-45.568 56.32-26.112 0.512 0.512 1.024 1.024 1.536 1.024l1.024 1.024L609.28 499.2c6.144 4.608 11.264 11.264 13.824 18.944 3.072 8.704 3.072 17.92 0 26.624-2.56 7.68-7.68 13.824-13.824 18.944l-152.576 116.736-0.512 0.512-1.536 1.536c-21.504 18.944-55.808 2.048-55.808-26.624zM951.808 123.392H257.536L190.464 35.84c-4.096-5.12-9.216-9.216-15.36-11.264-6.656-2.56-14.336-2.56-21.504 0-6.144 2.048-11.264 6.144-15.36 11.264L44.032 135.168c-7.68 7.68-12.288 17.92-12.288 29.184 0 9.728 3.584 18.432 8.704 25.6 4.096 8.192 12.288 13.824 23.04 14.336 3.072 0.512 6.144 1.024 9.216 1.024h838.144v315.392c0 22.528 18.432 40.96 40.96 40.96s40.96-18.432 40.96-40.96V164.352c0-22.528-18.432-40.96-40.96-40.96zM72.704 900.096h694.272l67.072 88.064c4.096 5.12 9.216 9.216 15.36 11.264 6.656 2.56 14.336 2.56 21.504 0 6.144-2.048 11.264-6.144 15.36-11.264l94.72-99.328c7.68-7.68 12.288-17.92 12.288-29.184 0-9.728-3.584-18.432-8.704-25.6-4.096-8.192-12.288-13.824-23.04-14.336-3.072-0.512-6.144-1.024-9.216-1.024H113.664V502.784c0-22.528-18.432-40.96-40.96-40.96s-40.96 18.432-40.96 40.96v356.352c0 23.04 18.432 40.96 40.96 40.96z" /></svg>