<?xml version="1.0" encoding="utf-8"?>
<!-- Generator: Adobe Illustrator 24.2.3, SVG Export Plug-In . SVG Version: 6.00 Build 0)  -->
<svg version="1.1" id="Layer_1" xmlns="http://www.w3.org/2000/svg" xmlns:xlink="http://www.w3.org/1999/xlink" x="0px" y="0px"
	 viewBox="0 0 200 200" style="enable-background:new 0 0 200 200;" xml:space="preserve">
<path d="M140.1,98L77.5,62c-1.9-1-4.2,0.3-4.2,2.4v72.3c0,2.1,2.3,3.5,4.2,2.4l62.6-36C141.9,101.8,141.9,99,140.1,98z"/>
<path d="M193.3,21.9H53.6V3.2c0-1.2-1.4-2.1-2.5-1.5L13.9,34.1c-0.6,0.4-0.9,1.1-0.7,1.8h40.4v0h132.8v79.9c0,3.9,3.1,7,7,7
	s7-3.1,7-7V28.9C200.3,25.1,197.2,21.9,193.3,21.9z"/>
<path d="M7.5,178.1h139.8v18.7c0,1.2,1.4,2.1,2.5,1.5l37.2-32.4c0.6-0.4,0.9-1.1,0.7-1.8h-40.4v0H14.5V84.2c0-3.9-3.1-7-7-7
	s-7,3.1-7,7v86.9C0.5,174.9,3.6,178.1,7.5,178.1z"/>
</svg>
