<?xml version="1.0" encoding="UTF-8"?>
<svg width="16px" height="16px" viewBox="0 0 16 16" version="1.1" xmlns="http://www.w3.org/2000/svg" xmlns:xlink="http://www.w3.org/1999/xlink">
    <title>polygon</title>
    <g id="Web端" stroke="none" stroke-width="1" fill="none" fill-rule="evenodd">
        <g id="电子地图--点位编辑" transform="translate(-1188.000000, -73.000000)" fill="#333333" fill-rule="nonzero">
            <g id="工具" transform="translate(1174.000000, 68.000000)">
                <path d="M30,11.3277266 C30,10.5164315 29.3453396,9.8587543 28.5377662,9.85875431 C28.3816201,9.85872038 28.2264797,9.88385313 28.0782592,9.93319448 L23.4567961,6.59139275 C23.4601227,6.55097765 23.462243,6.51023204 23.462243,6.46895391 C23.462243,5.65765889 22.8075826,5 22.0000274,5 C21.1924357,5 20.5377753,5.65765889 20.5377753,6.46895391 C20.5377753,6.50020629 20.5390731,6.53112817 20.5409922,6.56188477 L15.9986543,9.96121512 C15.82787,9.89341304 15.6458701,9.85864331 15.4622338,9.85873594 C14.6546421,9.85873594 14,10.5164315 14,11.3277082 C14,12.0084116 14.4609327,12.5807599 15.0863118,12.7474332 L16.8122412,17.9789575 C16.4813377,18.2482569 16.2696245,18.6595875 16.2696245,19.1207713 C16.2696245,19.9320663 16.9242666,20.5897436 17.7318583,20.5897436 C18.2499826,20.5897436 18.7048104,20.3187733 18.9645397,19.9104541 L24.9173484,19.8615006 C25.1710825,20.2970141 25.6413186,20.5897436 26.1798959,20.5897436 C26.9874693,20.5897436 27.6421297,19.9320663 27.6421297,19.1207713 C27.6421297,18.7249935 27.4860545,18.3660501 27.2327225,18.1019289 L28.9018259,12.7507567 C29.5332732,12.5881966 30,12.0127267 30,11.3277266 Z M16.0512821,12.676972 C16.5762067,12.4560953 16.9449363,11.9361093 16.9449363,11.3297297 C16.9449363,11.0540629 16.8686512,10.7962881 16.7362269,10.5762877 L20.9078095,7.46153846 C21.1748803,7.76649005 21.5663971,7.95926884 22.0030693,7.95926882 C22.432,7.95926882 22.8175786,7.77344608 23.0842304,7.47780571 L27.3041561,10.5222644 C27.1507298,10.7535843 27.0611476,11.0311317 27.0611476,11.3297115 C27.0611476,11.9337541 27.4270174,12.452097 27.9487179,12.674416 L26.3976419,17.6357994 C26.3218902,17.6237871 26.2453165,17.6177377 26.1686227,17.6177064 C25.422912,17.6177064 24.8084234,18.1792825 24.7221746,18.9034216 L19.2007753,18.9487179 C19.13531,18.2028162 18.5107848,17.6177064 17.7495912,17.6177064 C17.7281156,17.6177064 17.706822,17.6184002 17.6855649,17.6193313 L16.0512821,12.676972 Z" id="polygon"></path>
            </g>
        </g>
    </g>
</svg>