<?xml version="1.0" standalone="no"?><!DOCTYPE svg PUBLIC "-//W3C//DTD SVG 1.1//EN" "http://www.w3.org/Graphics/SVG/1.1/DTD/svg11.dtd"><svg t="1640862703663" class="icon" viewBox="0 0 1024 1024" version="1.1" xmlns="http://www.w3.org/2000/svg" p-id="26157" xmlns:xlink="http://www.w3.org/1999/xlink" width="200" height="200"><defs><style type="text/css"></style></defs><path d="M512 181.333333c44.8 0 85.333333 10.666667 123.733333 34.133334 38.4 23.466667 68.266667 53.333333 89.6 91.733333 21.333333 38.4 32 78.933333 32 123.733333 0 42.666667-12.8 91.733333-40.533333 147.2-25.6 40.533333-55.466667 83.2-89.6 128s-61.866667 78.933333-81.066667 102.4l-29.866666 36.266667c-4.266667-2.133333-8.533333-8.533333-14.933334-14.933333s-19.2-19.2-36.266666-38.4l-51.2-57.6c-17.066667-19.2-36.266667-44.8-55.466667-72.533334-21.333333-29.866667-38.4-57.6-53.333333-83.2-23.466667-49.066667-34.133333-98.133333-34.133334-140.8 0-34.133333 6.4-66.133333 19.2-96 12.8-29.866667 29.866667-57.6 51.2-81.066666s46.933333-40.533333 78.933334-55.466667c27.733333-17.066667 57.6-23.466667 91.733333-23.466667z m2.133333 110.933334c-34.133333 0-64 12.8-89.6 36.266666s-36.266667 55.466667-36.266666 89.6 12.8 64 36.266666 89.6 53.333333 36.266667 89.6 36.266667 64-12.8 89.6-36.266667c25.6-23.466667 36.266667-53.333333 36.266667-89.6 0-34.133333-12.8-64-36.266667-89.6-25.6-25.6-55.466667-36.266667-89.6-36.266666z" p-id="26158"></path></svg>