<?xml version="1.0" standalone="no"?><!DOCTYPE svg PUBLIC "-//W3C//DTD SVG 1.1//EN" "http://www.w3.org/Graphics/SVG/1.1/DTD/svg11.dtd"><svg class="icon" width="200px" height="200.00px" viewBox="0 0 1024 1024" version="1.1" xmlns="http://www.w3.org/2000/svg"><path fill="#2c2c2c" d="M48.128 272.384c-22.528 0-40.96-18.432-40.96-40.96V77.312C7.168 38.4 40.448 6.144 81.92 6.144h145.408c22.528 0 40.96 18.432 40.96 40.96s-18.432 40.96-40.96 40.96h-138.24v143.36c0 22.528-18.432 40.96-40.96 40.96zM975.36 272.384c-22.528 0-40.96-18.432-40.96-40.96v-143.36h-138.24c-22.528 0-40.96-18.432-40.96-40.96s18.432-40.96 40.96-40.96H942.08c40.96 0 74.752 31.744 74.752 71.168v154.112c-0.512 22.528-18.944 40.96-41.472 40.96zM227.328 1016.832H81.92c-40.96 0-74.752-31.744-74.752-71.168v-154.112c0-22.528 18.432-40.96 40.96-40.96s40.96 18.432 40.96 40.96v143.36h138.24c22.528 0 40.96 18.432 40.96 40.96s-18.432 40.96-40.96 40.96zM942.08 1016.832h-145.408c-22.528 0-40.96-18.432-40.96-40.96s18.432-40.96 40.96-40.96h138.24v-143.36c0-22.528 18.432-40.96 40.96-40.96s40.96 18.432 40.96 40.96v154.112c-0.512 39.424-33.792 71.168-74.752 71.168zM898.048 382.976c-2.048-22.528-28.16-34.304-47.104-22.016l-138.752 67.072v189.952l141.824 50.688c12.288 5.632 27.136 3.072 35.84-6.656 5.12-5.632 8.192-13.312 8.192-22.016V386.048c0.512-1.024 0.512-2.048 0-3.072zM632.32 291.328H202.752c-25.6 0-46.592 20.992-46.592 46.592v352.768c0 25.6 20.992 46.592 46.592 46.592h429.056c25.6 0 46.592-20.992 46.592-46.592V337.92c0.512-26.112-20.48-46.592-46.08-46.592z m-148.992 240.128l-72.192 72.192c-9.728 9.728-25.088 9.728-34.816 0v-179.2c9.728-9.728 25.088-9.728 34.816 0L483.328 496.64c9.728 9.728 9.728 25.088 0 34.816z" /></svg>