<?xml version="1.0" standalone="no"?><!DOCTYPE svg PUBLIC "-//W3C//DTD SVG 1.1//EN" "http://www.w3.org/Graphics/SVG/1.1/DTD/svg11.dtd"><svg t="1670912652499" class="icon" viewBox="0 0 1536 1024" version="1.1" xmlns="http://www.w3.org/2000/svg" p-id="2464" xmlns:xlink="http://www.w3.org/1999/xlink" width="300" height="200"><path d="M1433.856 771.84l-4.224-518.4L1103.36 502.144 1433.6 771.84z m-63.36-607.744a96.384 96.384 0 0 1 105.6-8.192 110.72 110.72 0 0 1 55.68 96.64L1536 770.944a110.848 110.848 0 0 1-56.32 98.816 96.512 96.512 0 0 1-107.776-10.752L1041.536 589.184a112.64 112.64 0 0 1-40.32-89.088 112.128 112.128 0 0 1 43.136-87.552l326.144-248.32zM163.456 102.4a54.144 54.144 0 0 0-53.76 54.4v710.4c0 30.08 24.064 54.4 53.76 54.4h769.28c29.696 0 53.888-24.32 53.888-54.4v-710.4A54.144 54.144 0 0 0 932.736 102.4h-769.28zM162.432 0h771.584c89.6 0 162.432 72.192 162.432 161.28v701.44c0 89.088-72.704 161.28-162.432 161.28H162.304C72.704 1024 0 951.808 0 862.72V161.28C0 72.192 72.704 0 162.304 0z" p-id="2465"></path></svg>