<?xml version="1.0" standalone="no"?><!DOCTYPE svg PUBLIC "-//W3C//DTD SVG 1.1//EN" "http://www.w3.org/Graphics/SVG/1.1/DTD/svg11.dtd"><svg class="icon" width="200px" height="200.00px" viewBox="0 0 1024 1024" version="1.1" xmlns="http://www.w3.org/2000/svg"><path fill="#2c2c2c" d="M1004.032 513.024c0-25.6-20.48-46.08-46.08-46.08s-46.08 20.48-46.08 46.08c0 3.072 0.512 6.656 1.024 11.264-1.536 50.688-11.776 99.328-31.232 145.92-20.48 49.152-49.664 93.184-87.04 131.072-37.376 37.888-81.408 68.096-130.048 89.088-50.688 21.504-104.448 32.768-159.744 33.28-55.296 0.512-109.568-10.24-160.256-31.232-49.152-20.48-93.184-49.664-131.072-87.552-11.776-11.776-23.04-24.064-33.28-37.376l71.68-56.32c6.144-5.12 4.096-14.848-3.584-16.896l-209.92-50.176c-6.144-1.536-11.776 3.072-11.776 9.216l0.512 216.064c0 8.192 9.216 12.288 15.36 7.68l67.072-53.248c92.672 116.736 236.032 191.488 396.288 190.464 273.92-1.536 495.104-222.208 498.688-494.592v-2.048c-0.512-2.048-0.512-3.584-0.512-4.608zM1004.032 155.648c0-8.192-9.216-12.288-15.36-7.68L921.6 201.216c-92.672-117.248-236.032-191.488-396.288-190.464-273.92 1.536-495.104 221.696-498.688 494.592 0 1.024 0 2.048 0.512 3.072-0.512 3.072-0.512 6.144-0.512 8.704 0 25.6 20.48 46.08 46.08 46.08s46.08-20.48 46.08-46.08c0-3.072-0.512-7.68-1.024-12.288 1.024-51.712 11.264-102.4 31.232-150.016 20.48-49.152 49.664-93.184 87.04-131.072S317.44 155.648 366.08 134.656c50.688-21.504 104.448-32.768 159.744-33.28 55.296-0.512 109.568 10.24 159.744 31.232 49.152 20.48 93.184 49.664 131.072 87.552 11.776 11.776 23.04 24.064 33.28 37.376l-71.68 56.32c-6.144 5.12-4.096 14.848 3.584 16.896l209.92 50.176c6.144 1.536 11.776-3.072 11.776-9.216l0.512-216.064z" /></svg>