<?xml version="1.0" standalone="no"?><!DOCTYPE svg PUBLIC "-//W3C//DTD SVG 1.1//EN" "http://www.w3.org/Graphics/SVG/1.1/DTD/svg11.dtd"><svg class="icon" width="200px" height="200.00px" viewBox="0 0 1024 1024" version="1.1" xmlns="http://www.w3.org/2000/svg"><path fill="#2c2c2c" d="M66.048 11.264h104.96c31.232 0 56.832 25.088 56.832 56.32v104.96c0 31.232-25.088 56.32-56.832 56.32H66.048c-31.232 0-56.832-25.088-56.832-56.32V67.584c-0.512-31.232 25.6-56.32 56.832-56.32z m0 260.096h104.96c31.232 0 56.832 25.088 56.832 56.32v104.96c0 31.232-25.088 56.32-56.832 56.32H66.048c-31.232 0-56.832-25.088-56.832-56.32V328.192C8.704 296.96 34.816 271.36 66.048 271.36z m260.608 0h104.96c31.232 0 56.832 25.088 56.832 56.32v104.96c0 31.232-25.088 56.32-56.832 56.32H326.656c-31.232 0-56.832-25.088-56.832-56.32V328.192C269.824 296.96 294.912 271.36 326.656 271.36z m0-260.096h104.96c31.232 0 56.832 25.088 56.832 56.32v104.96c0 31.232-25.088 56.32-56.832 56.32H326.656c-31.232 0-56.832-25.088-56.832-56.32V67.584c0-31.232 25.088-56.32 56.832-56.32z m260.608 0h104.96c31.232 0 56.832 25.088 56.832 56.32v104.96c0 31.232-25.088 56.32-56.832 56.32h-104.96c-31.232 0-56.832-25.088-56.832-56.32V67.584c0-31.232 25.088-56.32 56.832-56.32z m0 260.096h104.96c31.232 0 56.832 25.088 56.832 56.32v104.96c0 31.232-25.088 56.32-56.832 56.32h-104.96c-31.232 0-56.832-25.088-56.832-56.32V328.192c0-31.232 25.088-56.832 56.832-56.832zM66.048 533.504h104.96c31.232 0 56.832 25.088 56.832 56.32v104.96c0 31.232-25.088 56.32-56.832 56.32H66.048c-31.232 0-56.832-25.088-56.832-56.32v-104.96c-0.512-30.72 25.6-56.32 56.832-56.32z m260.608 0h104.96c31.232 0 56.832 25.088 56.832 56.32v104.96c0 31.232-25.088 56.32-56.832 56.32H326.656c-31.232 0-56.832-25.088-56.832-56.32v-104.96c0-30.72 25.088-56.32 56.832-56.32z m260.608 0h104.96c31.232 0 56.832 25.088 56.832 56.32v104.96c0 31.232-25.088 56.32-56.832 56.32h-104.96c-31.232 0-56.832-25.088-56.832-56.32v-104.96c0-30.72 25.088-56.32 56.832-56.32z m261.12-522.24h104.96c31.232 0 56.832 25.088 56.832 56.32v104.96c0 31.232-25.088 56.32-56.832 56.32h-104.96c-31.232 0-56.832-25.088-56.832-56.32V67.584c0-31.232 25.088-56.32 56.832-56.32z m0 260.096h104.96c31.232 0 56.832 25.088 56.832 56.32v104.96c0 31.232-25.088 56.32-56.832 56.32h-104.96c-31.232 0-56.832-25.088-56.832-56.32V328.192c0-31.232 25.088-56.832 56.832-56.832z m0 262.144h104.96c31.232 0 56.832 25.088 56.832 56.32v104.96c0 31.232-25.088 56.32-56.832 56.32h-104.96c-31.232 0-56.832-25.088-56.832-56.32v-104.96c0-30.72 25.088-56.32 56.832-56.32zM66.048 793.6h104.96c31.232 0 56.832 25.088 56.832 56.32v104.96c0 31.232-25.088 56.32-56.832 56.32H66.048c-31.232 0-56.832-25.088-56.832-56.32V849.92c-0.512-30.72 25.6-56.32 56.832-56.32z m260.608 0h104.96c31.232 0 56.832 25.088 56.832 56.32v104.96c0 31.232-25.088 56.32-56.832 56.32H326.656c-31.232 0-56.832-25.088-56.832-56.32V849.92c0-30.72 25.088-56.32 56.832-56.32z m260.608 0h104.96c31.232 0 56.832 25.088 56.832 56.32v104.96c0 31.232-25.088 56.32-56.832 56.32h-104.96c-31.232 0-56.832-25.088-56.832-56.32V849.92c0-30.72 25.088-56.32 56.832-56.32z m261.12 0h104.96c31.232 0 56.832 25.088 56.832 56.32v104.96c0 31.232-25.088 56.32-56.832 56.32h-104.96c-31.232 0-56.832-25.088-56.832-56.32V849.92c0-30.72 25.088-56.32 56.832-56.32z" /></svg>