<?xml version="1.0" standalone="no"?><!DOCTYPE svg PUBLIC "-//W3C//DTD SVG 1.1//EN" "http://www.w3.org/Graphics/SVG/1.1/DTD/svg11.dtd"><svg class="icon" width="200px" height="200.00px" viewBox="0 0 1024 1024" version="1.1" xmlns="http://www.w3.org/2000/svg"><path fill="#2c2c2c" d="M109.568 62.976h314.88c28.672 0 51.712 23.04 51.712 51.712v804.864c0 28.672-23.04 51.712-51.712 51.712H109.568c-28.672 0-51.712-23.04-51.712-51.712V114.176c0-28.16 23.04-51.2 51.712-51.2zM599.552 62.976h314.88c28.672 0 51.712 23.04 51.712 51.712v804.864c0 28.672-23.04 51.712-51.712 51.712h-314.88c-28.672 0-51.712-23.04-51.712-51.712V114.176c0.512-28.16 23.552-51.2 51.712-51.2z" /></svg>