<?xml version="1.0" encoding="utf-8"?>
<!-- Generator: Adobe Illustrator 24.2.3, SVG Export Plug-In . SVG Version: 6.00 Build 0)  -->
<svg version="1.1" id="Layer_1" xmlns="http://www.w3.org/2000/svg" xmlns:xlink="http://www.w3.org/1999/xlink" x="0px" y="0px"
	 viewBox="0 0 226.8 226.8" style="enable-background:new 0 0 226.8 226.8;" xml:space="preserve">
<style type="text/css">
	.st0{fill:#2C2C2C;}
</style>
<rect x="-0.1" y="-0.2" class="st0" width="44.3" height="44.8"/>
<rect x="60.7" y="-0.2" class="st0" width="44.3" height="44.8"/>
<rect x="121.2" y="-0.2" class="st0" width="44.3" height="44.8"/>
<rect x="182.2" y="-0.2" class="st0" width="44.3" height="44.8"/>
<rect x="-0.1" y="60.4" class="st0" width="44.3" height="44.8"/>
<rect x="60.7" y="60.4" class="st0" width="44.3" height="44.8"/>
<rect x="121.2" y="60.4" class="st0" width="44.3" height="44.8"/>
<rect x="182.2" y="60.4" class="st0" width="44.3" height="44.8"/>
<rect x="-0.1" y="121.5" class="st0" width="44.3" height="44.8"/>
<rect x="60.7" y="121.5" class="st0" width="44.3" height="44.8"/>
<rect x="121.2" y="121.5" class="st0" width="44.3" height="44.8"/>
<rect x="182.2" y="121.5" class="st0" width="44.3" height="44.8"/>
<rect x="-0.1" y="182.2" class="st0" width="44.3" height="44.8"/>
<rect x="60.7" y="182.2" class="st0" width="44.3" height="44.8"/>
<rect x="121.2" y="182.2" class="st0" width="44.3" height="44.8"/>
<rect x="182.2" y="182.2" class="st0" width="44.3" height="44.8"/>
</svg>
