<?xml version="1.0" standalone="no"?><!DOCTYPE svg PUBLIC "-//W3C//DTD SVG 1.1//EN" "http://www.w3.org/Graphics/SVG/1.1/DTD/svg11.dtd"><svg class="icon" width="200px" height="200.00px" viewBox="0 0 1024 1024" version="1.1" xmlns="http://www.w3.org/2000/svg"><path fill="#2c2c2c" d="M76.288 24.064h179.2c30.72 0 55.296 24.576 55.296 55.296v179.2c0 30.72-24.576 55.296-55.296 55.296h-179.2c-30.72 0-55.296-24.576-55.296-55.296V79.872c0-30.72 24.576-55.808 55.296-55.808z m0 346.112h179.2c30.72 0 55.296 24.576 55.296 55.296v179.2c0 30.72-24.576 55.296-55.296 55.296h-179.2c-30.72 0-55.296-24.576-55.296-55.296v-179.2c0-30.72 24.576-55.296 55.296-55.296z m346.112 0h179.2c30.72 0 55.296 24.576 55.296 55.296v179.2c0 30.72-24.576 55.296-55.296 55.296h-179.2c-30.72 0-55.296-24.576-55.296-55.296v-179.2c-0.512-30.72 24.576-55.296 55.296-55.296z m0-346.112h179.2c30.72 0 55.296 24.576 55.296 55.296v179.2c0 30.72-24.576 55.296-55.296 55.296h-179.2c-30.72 0-55.296-24.576-55.296-55.296V79.872c-0.512-30.72 24.576-55.808 55.296-55.808z m345.6 0h179.712c30.72 0 55.296 24.576 55.296 55.296v179.2c0 30.72-24.576 55.296-55.296 55.296h-179.2c-30.72 0-55.296-24.576-55.296-55.296V79.872c-0.512-30.72 24.064-55.808 54.784-55.808z m0 346.112h179.712c30.72 0 55.296 24.576 55.296 55.296v179.2c0 30.72-24.576 55.296-55.296 55.296h-179.2c-30.72 0-55.296-24.576-55.296-55.296v-179.2c-0.512-30.72 24.064-55.296 54.784-55.296zM76.288 715.776h179.2c30.72 0 55.296 24.576 55.296 55.296v179.2c0 30.72-24.576 55.296-55.296 55.296h-179.2c-30.72 0-55.296-24.576-55.296-55.296v-179.2c0-30.208 24.576-55.296 55.296-55.296z m346.112 0h179.2c30.72 0 55.296 24.576 55.296 55.296v179.2c0 30.72-24.576 55.296-55.296 55.296h-179.2c-30.72 0-55.296-24.576-55.296-55.296v-179.2c-0.512-30.208 24.576-55.296 55.296-55.296z m345.6 0h179.712c30.72 0 55.296 24.576 55.296 55.296v179.2c0 30.72-24.576 55.296-55.296 55.296h-179.2c-30.72 0-55.296-24.576-55.296-55.296v-179.2c-0.512-30.208 24.064-55.296 54.784-55.296z" /></svg>