<?xml version="1.0" standalone="no"?><!DOCTYPE svg PUBLIC "-//W3C//DTD SVG 1.1//EN" "http://www.w3.org/Graphics/SVG/1.1/DTD/svg11.dtd"><svg class="icon" width="200px" height="200.00px" viewBox="0 0 1024 1024" version="1.1" xmlns="http://www.w3.org/2000/svg"><path fill="#000000" d="M138.24 880.64h-25.6c-20.48 0-35.84-15.36-35.84-35.84V189.44c-5.12-20.48 15.36-35.84 35.84-35.84h296.96c20.48 0 35.84 15.36 35.84 35.84v174.08c0 20.48 15.36 35.84 35.84 35.84s35.84-15.36 35.84-35.84V189.44c0-61.44-51.2-112.64-112.64-112.64H112.64C51.2 76.8 0 128 0 189.44v650.24c0 61.44 51.2 112.64 112.64 112.64h25.6c20.48 0 35.84-15.36 35.84-35.84s-15.36-35.84-35.84-35.84zM634.88 153.6c87.04 0 168.96 35.84 230.4 102.4h-56.32c-20.48 0-35.84 15.36-35.84 35.84s15.36 35.84 35.84 35.84h122.88c10.24 0 20.48-5.12 25.6-10.24 15.36-10.24 15.36-15.36 15.36-25.6v-128c0-20.48-15.36-35.84-35.84-35.84s-35.84 15.36-35.84 35.84v15.36A381.12 381.12 0 0 0 640 76.8c-20.48 0-35.84 15.36-35.84 35.84s10.24 40.96 30.72 40.96z m276.48 276.48H312.32c-61.44 0-112.64 51.2-112.64 112.64v302.08c0 61.44 51.2 112.64 112.64 112.64h599.04c61.44 0 112.64-51.2 112.64-112.64v-302.08c0-61.44-51.2-112.64-112.64-112.64z m40.96 409.6c0 20.48-15.36 35.84-35.84 35.84H312.32c-20.48 0-35.84-15.36-35.84-35.84V537.6c0-20.48 15.36-35.84 35.84-35.84h599.04c20.48 0 35.84 15.36 35.84 35.84v302.08z" /></svg>