<?xml version="1.0" standalone="no"?><!DOCTYPE svg PUBLIC "-//W3C//DTD SVG 1.1//EN" "http://www.w3.org/Graphics/SVG/1.1/DTD/svg11.dtd"><svg class="icon" width="200px" height="200.00px" viewBox="0 0 1024 1024" version="1.1" xmlns="http://www.w3.org/2000/svg"><path fill="#2c2c2c" d="M974.848 918.528L763.904 721.92c54.784-70.144 87.552-158.208 87.552-253.952 0-227.328-184.832-412.16-412.16-412.16C211.456 55.808 26.624 240.64 26.624 467.968s184.832 412.16 412.16 412.16c94.72 0 181.76-32.256 251.392-85.504l214.016 199.68c9.728 9.216 22.528 13.824 35.328 13.824 13.824 0 27.648-5.632 37.888-16.384 19.456-20.48 18.432-53.248-2.56-73.216zM438.784 776.704c-170.496 0-308.736-138.752-308.736-308.736s138.752-308.736 308.736-308.736c170.496 0 308.736 138.752 308.736 308.736s-138.24 308.736-308.736 308.736z" /></svg>