<?xml version="1.0" standalone="no"?><!DOCTYPE svg PUBLIC "-//W3C//DTD SVG 1.1//EN" "http://www.w3.org/Graphics/SVG/1.1/DTD/svg11.dtd"><svg class="icon" width="200px" height="200.00px" viewBox="0 0 1024 1024" version="1.1" xmlns="http://www.w3.org/2000/svg"><path fill="#2c2c2c" d="M589.824 345.088C498.176 345.088 423.424 419.84 423.424 512c0 91.648 74.752 166.4 166.4 166.4s166.4-74.752 166.4-166.4c0-92.16-74.24-166.912-166.4-166.912zM924.16 219.136h-102.912c-18.432 0-35.328-8.192-46.592-23.04-29.696-37.888-58.368-74.24-58.88-74.24H428.032c-0.512 0-27.648 34.304-57.344 71.68-12.8 16.384-32.256 25.6-52.736 25.6H100.352c-48.128 0-87.04 38.912-87.04 87.04V814.08c0 48.128 38.912 87.04 87.04 87.04h823.296c48.128 0 87.04-38.912 87.04-87.04V306.176c0.512-47.616-38.4-87.04-86.528-87.04zM232.448 439.808c-27.136 0-49.664-22.016-49.664-49.664 0-27.136 22.016-49.664 49.664-49.664 27.136 0 49.664 22.016 49.664 49.664 0 27.648-22.528 49.664-49.664 49.664z m357.376 310.272c-131.072 0-238.08-107.008-238.08-238.08s107.008-238.08 238.08-238.08 238.08 107.008 238.08 238.08-106.496 238.08-238.08 238.08z" /></svg>