<?xml version="1.0" standalone="no"?><!DOCTYPE svg PUBLIC "-//W3C//DTD SVG 1.1//EN" "http://www.w3.org/Graphics/SVG/1.1/DTD/svg11.dtd"><svg class="icon" width="200px" height="200.00px" viewBox="0 0 1024 1024" version="1.1" xmlns="http://www.w3.org/2000/svg"><path fill="#2c2c2c" d="M563.712 49.152l108.032 229.376c7.68 17.92 24.064 30.208 43.008 33.28l241.664 36.352c47.104 7.68 65.536 68.096 31.744 102.4l-175.104 177.664c-13.312 14.336-19.456 34.816-15.36 54.272l40.96 251.392c7.68 48.64-41.472 86.528-83.456 63.488l-216.064-118.784c-16.896-9.728-37.376-9.728-54.272 0l-216.064 118.784c-41.472 23.04-91.136-14.848-83.456-63.488l41.472-251.392c3.584-19.456-3.072-39.936-16.896-54.272L35.84 450.048c-33.792-34.816-15.36-94.72 30.72-102.4l242.176-36.352c18.432-3.072 34.816-15.36 43.008-33.28L460.288 49.152c12.288-28.672 45.568-41.472 74.24-29.184 12.8 5.12 23.552 15.872 29.184 29.184z" /></svg>