<?xml version="1.0" standalone="no"?><!DOCTYPE svg PUBLIC "-//W3C//DTD SVG 1.1//EN" "http://www.w3.org/Graphics/SVG/1.1/DTD/svg11.dtd"><svg class="icon" width="200px" height="200.00px" viewBox="0 0 1024 1024" version="1.1" xmlns="http://www.w3.org/2000/svg"><path fill="#2c2c2c" d="M125.44 209.92h773.12c14.336 0 25.6-11.264 25.6-25.6s-11.264-25.6-25.6-25.6h-773.12c-14.336 0-25.6 11.264-25.6 25.6s11.264 25.6 25.6 25.6zM183.296 102.4h656.896c14.336 0 25.6-11.264 25.6-25.6s-11.264-25.6-25.6-25.6H183.296c-14.336 0-25.6 11.264-25.6 25.6s11.776 25.6 25.6 25.6zM382.976 783.872m-25.088 0a25.088 25.088 0 1 0 50.176 0 25.088 25.088 0 1 0-50.176 0ZM668.672 482.816m-25.088 0a25.088 25.088 0 1 0 50.176 0 25.088 25.088 0 1 0-50.176 0ZM194.56 482.816m-25.088 0a25.088 25.088 0 1 0 50.176 0 25.088 25.088 0 1 0-50.176 0ZM893.952 274.944H130.048c-50.688 0-91.648 40.96-91.648 91.648v512.512c0 50.688 40.96 91.648 91.648 91.648h763.392c50.688 0 91.648-40.96 91.648-91.648V366.592c0-50.688-40.96-91.648-91.136-91.648z m-65.536 483.328c-36.352 0-66.048-29.696-66.048-66.048 0-12.8 3.584-24.576 10.24-34.816l-80.896-112.128c-7.168 2.56-14.848 4.096-23.04 4.096-9.728 0-18.944-2.048-27.136-6.144l-197.12 216.576c3.072 7.68 4.608 15.872 4.608 24.064 0 36.352-29.696 66.048-66.048 66.048s-66.048-29.696-66.048-66.048c0-17.408 6.656-33.28 17.92-45.056L205.824 547.84c-3.584 0.512-7.168 1.024-11.264 1.024-36.352 0-66.048-29.696-66.048-66.048s29.184-66.56 66.048-66.56 66.048 29.696 66.048 66.048c0 17.92-7.168 33.792-18.432 46.08l128.512 189.952c4.096-1.024 8.192-1.024 12.288-1.024 12.8 0 25.088 3.584 35.328 10.24l193.024-211.968c-5.632-9.728-8.704-20.992-8.704-32.768 0-36.352 29.696-66.048 66.048-66.048 36.352 0 66.048 29.696 66.048 66.048 0 13.824-4.096 26.112-11.264 36.864l79.872 111.104c7.68-3.072 15.872-5.12 24.576-5.12 36.352 0 66.048 29.696 66.048 66.048s-28.672 66.56-65.536 66.56zM828.416 692.224m-25.088 0a25.088 25.088 0 1 0 50.176 0 25.088 25.088 0 1 0-50.176 0Z" /></svg>