<?xml version="1.0" encoding="UTF-8"?>
<svg width="16px" height="16px" viewBox="0 0 16 16" version="1.1" xmlns="http://www.w3.org/2000/svg" xmlns:xlink="http://www.w3.org/1999/xlink">
    <title>第四步</title>
    <g id="大视频平台" stroke="none" stroke-width="1" fill="none" fill-rule="evenodd">
        <g id="接入凭证" transform="translate(-1143.000000, -663.000000)" fill-rule="nonzero">
            <g id="第四步" transform="translate(1143.000000, 663.000000)">
                <rect id="矩形" opacity="0" x="0" y="0" width="16" height="16"></rect>
                <path d="M10.075,1 C10.3925637,1 10.65,1.25743627 10.65,1.575 L10.65,1.575 L10.649,5.36 L14.435,5.36 C14.7208074,5.36 14.9579115,5.56852338 15.0024742,5.84173201 L15.01,5.935 L15.01,14.435 C15.01,14.7525637 14.7525637,15.01 14.435,15.01 L14.435,15.01 L5.935,15.01 C5.61743627,15.01 5.36,14.7525637 5.36,14.435 L5.36,14.435 L5.359,10.649 L1.575,10.65 C1.28919264,10.65 1.05208853,10.4414766 1.00752578,10.168268 L1,10.075 L1,1.575 C1,1.25743627 1.25743627,1 1.575,1 L1.575,1 Z M13.86,6.51 L10.649,6.51 L10.65,10.075 C10.65,10.3608074 10.4414766,10.5979115 10.168268,10.6424742 L10.075,10.65 L6.509,10.649 L6.51,13.86 L13.86,13.86 L13.86,6.51 Z M9.5,2.15 L2.15,2.15 L2.15,9.5 L5.359,9.5 L5.36,5.935 C5.36,5.64919264 5.56852338,5.41208853 5.84173201,5.36752578 L5.935,5.36 L9.5,5.36 L9.5,2.15 Z M9.5,6.51 L6.51,6.51 L6.509,9.5 L9.5,9.5 L9.5,6.51 Z" id="combine" fill="#000000"></path>
            </g>
        </g>
    </g>
</svg>