<?xml version="1.0" standalone="no"?><!DOCTYPE svg PUBLIC "-//W3C//DTD SVG 1.1//EN" "http://www.w3.org/Graphics/SVG/1.1/DTD/svg11.dtd"><svg t="1584686021740" class="icon" viewBox="0 0 1024 1024" version="1.1" xmlns="http://www.w3.org/2000/svg" p-id="7148" xmlns:xlink="http://www.w3.org/1999/xlink" width="200" height="200"><defs><style type="text/css"></style></defs><path d="M853.32678 716.802458a136.532241 136.532241 0 0 0-133.596798 108.611397l-339.555684-0.068266c-8.874596-5.939152-14.335885-46.489228-17.544393-74.410071h98.508012c15.564675 20.616368 40.072213 34.13306 67.92479 34.13306A85.332651 85.332651 0 1 0 445.43671 682.669397H353.413979c-12.356168-67.310395-40.82314-136.532241-130.251758-136.532241H68.266394a34.13306 34.13306 0 0 0 0 68.266121h154.964093c34.406125 0 50.243865 21.094231 60.415517 68.26612H68.266394a34.13306 34.13306 0 1 0 0 68.266121h225.687794c7.099677 64.033621 16.588667 142.744458 87.721965 142.744458h339.350885c0.88746 0 1.570121-0.409597 2.389314-0.477863A136.122644 136.122644 0 0 0 989.859021 853.334699a136.532241 136.532241 0 0 0-136.532241-136.532241z m0 204.798361a68.266121 68.266121 0 1 1 0-136.532241 68.266121 68.266121 0 0 1 0 136.532241zM68.266394 477.871036h410.142852c1.433589 0 2.662379-0.682661 4.027701-0.819194A136.259177 136.259177 0 0 0 750.927599 443.737975a136.259177 136.259177 0 1 0-268.490652-33.313866C481.071624 410.21931 479.842834 409.604915 478.409246 409.604915H68.266394a34.13306 34.13306 0 0 0 0 68.266121z m546.128964-102.399181a68.266121 68.266121 0 1 1 0 136.532241 68.266121 68.266121 0 0 1 0-136.532241z m-546.128964-27.98911h154.964093c115.369744 0 129.705629-96.25523 138.238894-153.735303 7.099677-48.605478 11.468708-57.207009 20.206772-57.207009h318.393186c15.564675 20.616368 40.072213 34.13306 67.92479 34.13306A85.332651 85.332651 0 1 0 684.368131 68.274312H381.676153C310.952452 68.274312 300.644268 137.769223 293.885922 183.712322c-10.03512 67.92479-19.251046 95.572569-70.723701 95.572569H68.266394a34.13306 34.13306 0 0 0 0 68.266121z" p-id="7149"></path></svg>