<?xml version="1.0" standalone="no"?><!DOCTYPE svg PUBLIC "-//W3C//DTD SVG 1.1//EN" "http://www.w3.org/Graphics/SVG/1.1/DTD/svg11.dtd"><svg class="icon" width="200px" height="200.00px" viewBox="0 0 1024 1024" version="1.1" xmlns="http://www.w3.org/2000/svg"><path fill="#2c2c2c" d="M924.16 644.608c4.608-25.6 7.168-51.712 7.168-78.848 0-173.568-103.424-323.072-251.392-391.168-13.312-87.04-88.576-153.6-179.2-153.6s-165.888 67.072-179.2 153.6c-147.968 68.096-251.392 218.112-251.392 391.168 0 31.232 3.584 61.44 9.728 91.136-44.544 33.28-73.728 86.016-73.728 145.92 0 99.84 81.408 181.248 181.248 181.248 41.984 0 80.384-14.336 111.104-37.888 60.416 32.256 129.024 50.688 202.24 50.688 78.336 0 151.552-20.992 215.04-57.856 31.744 28.16 73.728 45.056 119.808 45.056 99.84 0 181.248-81.408 181.248-181.248 0-67.584-37.376-126.976-92.672-158.208z m-256-372.736c101.888 58.368 171.008 168.448 171.008 293.888 0 18.944-1.536 37.376-4.608 55.296-12.288 0-24.064 1.536-35.328 3.584l-157.184-309.248c10.752-12.8 19.456-27.648 26.112-43.52zM500.736 122.368c44.032 0 79.872 35.84 79.872 79.872s-35.84 79.872-79.872 79.872-79.872-35.84-79.872-79.872 35.84-79.872 79.872-79.872zM333.312 271.872c7.168 17.408 17.408 33.792 29.696 48.128l-154.112 302.592c-7.168-1.024-14.336-1.536-21.504-1.536-6.656 0-13.824 0.512-20.48 1.024-3.072-18.432-4.608-37.376-4.608-56.832 0-124.928 69.12-235.008 171.008-293.376zM189.44 883.2c-44.032 0-79.872-35.84-79.872-79.872s35.84-79.872 79.872-79.872 79.872 35.84 79.872 79.872-35.84 79.872-79.872 79.872z m311.296 21.504c-52.224 0-101.376-11.776-145.408-32.768 6.656-15.872 10.752-32.256 12.8-50.176H655.36c1.536 14.336 4.608 27.648 9.216 40.96-48.64 26.624-104.448 41.984-163.84 41.984z m168.96-175.104H353.28c-12.8-29.184-33.28-54.272-58.368-72.704l144.384-284.16c18.944 6.656 39.936 10.752 61.44 10.752 23.552 0 45.568-4.608 66.048-12.288l150.016 294.912c-19.968 17.408-36.352 38.912-47.104 63.488z m165.888 153.088c-44.032 0-79.872-35.84-79.872-79.872s35.84-79.872 79.872-79.872 79.872 35.84 79.872 79.872-35.84 79.872-79.872 79.872z" /></svg>