<?xml version="1.0" encoding="utf-8"?>
<!-- Generator: Adobe Illustrator 24.2.3, SVG Export Plug-In . SVG Version: 6.00 Build 0)  -->
<svg version="1.1" id="Layer_1" xmlns="http://www.w3.org/2000/svg" xmlns:xlink="http://www.w3.org/1999/xlink" x="0px" y="0px"
	 viewBox="0 0 18 15" style="enable-background:new 0 0 18 15;" xml:space="preserve">
<style type="text/css">
	.st0{fill:#070707;}
</style>
<desc>Created with Sketch.</desc>
<g id="视频监控windows客户端">
	<g id="实时预览-配色3-copy-3" transform="translate(-942.000000, -474.000000)">
		<path id="Shape" class="st0" d="M955.7,485.1C955.7,485.1,955.8,485.1,955.7,485.1l1.4,0l-0.5-0.6c-0.2-0.2-0.2-0.4-0.2-0.6
			c0-0.2,0.1-0.5,0.2-0.6c0.2-0.2,0.4-0.3,0.6-0.3c0.2,0,0.4,0.1,0.6,0.2l0,0l2,2.1c0.3,0.3,0.3,0.9,0,1.2l0,0l-2,2.1
			c-0.2,0.2-0.4,0.3-0.6,0.3c-0.2,0-0.4-0.1-0.6-0.3c-0.2-0.2-0.2-0.4-0.2-0.6c0-0.2,0.1-0.4,0.2-0.6l0,0l0.5-0.6h-2.5
			c-0.1,0-0.2,0-0.2,0l-8.5,0c-0.1,0-0.1,0-0.2,0l0,0h-2.8c-0.5,0-0.9-0.4-0.9-0.9c0-0.5,0.4-0.9,0.8-0.9l0,0l0.3,0c0,0,0,0,0.1,0
			H955.7z M957.2,474c0.2,0,0.4,0.1,0.6,0.2l0,0l2,2.1c0.3,0.3,0.3,0.9,0,1.2l0,0l-2,2.1c-0.2,0.2-0.4,0.3-0.6,0.3
			c-0.2,0-0.4-0.1-0.6-0.3c-0.2-0.2-0.2-0.4-0.2-0.6c0-0.2,0.1-0.4,0.2-0.6l0,0l0.5-0.6l-1.4,0v0h-10.8v0l-2.1,0v0
			c-0.5,0-0.9-0.4-0.9-0.9c0-0.5,0.4-0.9,0.8-0.9l0,0h2.8c0.1,0,0.1,0,0.2,0l8.6,0c0,0,0.1,0,0.2,0l0.1,0h2.5l-0.5-0.6
			c-0.2-0.2-0.2-0.4-0.2-0.6c0-0.2,0.1-0.5,0.2-0.6C956.8,474.1,957,474,957.2,474z"/>
	</g>
</g>
</svg>
