<?xml version="1.0" standalone="no"?><!DOCTYPE svg PUBLIC "-//W3C//DTD SVG 1.1//EN" "http://www.w3.org/Graphics/SVG/1.1/DTD/svg11.dtd"><svg class="icon" width="200px" height="200.00px" viewBox="0 0 1024 1024" version="1.1" xmlns="http://www.w3.org/2000/svg"><path fill="#2c2c2c" d="M64.512 8.192h894.976c31.744 0 57.344 25.6 57.344 57.344v131.584c0 31.744-25.6 57.344-57.344 57.344H64.512c-31.744 0-57.344-25.6-57.344-57.344V65.536C7.68 34.304 33.28 8.192 64.512 8.192z m0 300.032h188.416c31.744 0 57.344 25.6 57.344 57.344v213.504c0 31.744-25.6 57.344-57.344 57.344H64.512c-31.744 0-57.344-25.6-57.344-57.344V365.568c0.512-31.744 26.112-57.344 57.344-57.344z m0 382.464h188.416c31.744 0 57.344 25.6 57.344 57.344v211.968c0 31.744-25.6 57.344-57.344 57.344H64.512c-31.744 0-57.344-25.6-57.344-57.344v-211.968c0.512-31.744 26.112-57.344 57.344-57.344z m353.28-382.464h188.416c31.744 0 57.344 25.6 57.344 57.344V578.56c0 31.744-25.6 57.344-57.344 57.344H417.792c-31.744 0-57.344-25.6-57.344-57.344V365.568c0.512-31.744 26.112-57.344 57.344-57.344z m-56.832 381.44h245.76c31.744 0 57.344 25.6 57.344 57.344v211.968c0 31.744-25.6 57.344-57.344 57.344H417.792c-31.744 0-57.344-25.6-57.344-57.344v-268.288l0.512-1.024z m410.112-381.44h188.416c31.744 0 57.344 25.6 57.344 57.344V578.56c0 31.744-25.6 57.344-57.344 57.344h-188.416c-31.744 0-57.344-25.6-57.344-57.344V365.568c0.512-31.744 26.112-57.344 57.344-57.344z m0 381.44h188.416c31.744 0 57.344 25.6 57.344 57.344v211.968c0 31.744-25.6 57.344-57.344 57.344h-188.416c-31.744 0-57.344-25.6-57.344-57.344v-211.968c0.512-31.744 26.112-57.344 57.344-57.344z" /></svg>