<?xml version="1.0" encoding="utf-8"?>
<!-- Generator: Adobe Illustrator 24.2.3, SVG Export Plug-In . SVG Version: 6.00 Build 0)  -->
<svg version="1.1" id="Layer_1" xmlns="http://www.w3.org/2000/svg" xmlns:xlink="http://www.w3.org/1999/xlink" x="0px" y="0px"
	 viewBox="0 0 200 200" style="enable-background:new 0 0 200 200;" xml:space="preserve">
<path d="M178.6,33.9c-0.3-1.1-1-2.5-2.2-4.1c-1.2-1.6-2.9-3.6-5.2-5.9c-2.2-2.3-5.3-5.2-9-8.5c-3.5-3.1-6.4-5.6-8.7-7.5
	c-2.3-1.9-4.3-3.4-5.9-4.4c-1.6-1.1-3-1.7-4.1-2c-1.1-0.3-2.3-0.4-3.6-0.4h-0.4V27c0,1,0.2,2.2,0.5,3.7c0.4,1.5,0.9,2.9,1.6,4.3
	c0.7,1.4,1.6,2.6,2.6,3.7c1.1,1.1,2.3,1.6,3.9,1.6H179l0-3.4C179,36.1,178.9,35.1,178.6,33.9z"/>
<path d="M179,57.3h-31c-6.1,0-11.7-2.3-16-6.6c-2.3-2.3-4.3-5.1-5.8-8.1c-1.3-2.6-2.3-5.3-2.9-8c-0.7-2.8-1-5.3-1-7.6V1.2l-80.8,0
	C30.2,1.2,21,10.3,21,21.7v57v99.6v2.8c0,9.8,7.9,17.7,17.7,17.7h2.8h74.7h45.1c9.8,0,17.7-7.9,17.7-17.7l0-102.4l0,0L179,57.3
	L179,57.3z M153.5,160.6c0,3.5-2.9,6.4-6.4,6.4H52.9c-3.5,0-6.4-2.9-6.4-6.4v-0.1c0-3.5,2.9-6.4,6.4-6.4h94.2c3.5,0,6.4,2.9,6.4,6.4
	L153.5,160.6L153.5,160.6z M153.5,129.5c0,3.5-2.9,6.4-6.4,6.4H52.9c-3.5,0-6.4-2.9-6.4-6.4v-0.1c0-3.5,2.9-6.4,6.4-6.4h94.2
	c3.5,0,6.4,2.9,6.4,6.4L153.5,129.5L153.5,129.5z M153.5,98.3c0,3.5-2.9,6.4-6.4,6.4l-94.2,0c-3.5,0-6.4-2.9-6.4-6.4v-0.1
	c0-3.5,2.9-6.4,6.4-6.4h94.2c3.5,0,6.4,2.9,6.4,6.4L153.5,98.3L153.5,98.3z"/>
</svg>
