<?xml version="1.0" standalone="no"?><!DOCTYPE svg PUBLIC "-//W3C//DTD SVG 1.1//EN" "http://www.w3.org/Graphics/SVG/1.1/DTD/svg11.dtd"><svg class="icon" width="200px" height="200.00px" viewBox="0 0 1024 1024" version="1.1" xmlns="http://www.w3.org/2000/svg"><path fill="#2c2c2c" d="M807.424 26.624H216.576c-40.448 0-72.704 32.768-72.704 72.704v824.832c0 40.448 32.768 72.704 72.704 72.704h590.848c40.448 0 72.704-32.768 72.704-72.704V99.328c0-39.936-32.768-72.192-72.704-72.704z m-332.8 801.792c0 23.552-18.944 43.008-43.008 43.008H300.032c-23.552 0-43.008-19.456-43.008-43.008v-131.584c0-23.552 19.456-43.008 43.008-43.008h131.584c23.552 0 43.008 19.456 43.008 43.008v131.584z m0.512-276.48c-0.512 17.92-14.848 32.256-32.256 32.256h-153.6c-17.92 0-32.256-14.336-32.256-32.256V314.368c0-17.92 14.336-32.256 32.256-32.256h153.6c17.92 0 32.256 14.336 32.256 32.256v237.568z m-29.184-339.456h-158.72c-16.384 0-30.208-13.312-30.208-30.208 0-16.896 13.312-30.208 30.208-30.208h158.72c16.384 0 30.208 13.312 30.208 30.208s-13.824 30.208-30.208 30.208z m321.024 619.008c0 22.016-17.92 39.936-39.936 39.936h-138.24c-22.016 0-39.936-17.92-39.936-39.936V480.768c0.512-22.016 17.92-39.936 39.936-39.936h138.24c22.016 0 39.936 17.92 39.936 39.936v350.72z m0-504.32c0 23.552-19.456 43.008-43.008 43.008h-131.584c-23.552 0-43.008-19.456-43.008-43.008V195.584c0-23.552 19.456-43.008 43.008-43.008h131.584c23.552 0 43.008 19.456 43.008 43.008v131.584z" /></svg>