<?xml version="1.0" standalone="no"?><!DOCTYPE svg PUBLIC "-//W3C//DTD SVG 1.1//EN" "http://www.w3.org/Graphics/SVG/1.1/DTD/svg11.dtd"><svg class="icon" width="200px" height="200.00px" viewBox="0 0 1024 1024" version="1.1" xmlns="http://www.w3.org/2000/svg"><path fill="#2c2c2c" d="M931.328 664.064h-317.44c-22.528 0-40.96-18.432-40.96-40.96s18.432-40.96 40.96-40.96h317.44c22.528 0 40.96 18.432 40.96 40.96s-18.432 40.96-40.96 40.96zM931.328 811.52h-317.44c-22.528 0-40.96-18.432-40.96-40.96s18.432-40.96 40.96-40.96h317.44c22.528 0 40.96 18.432 40.96 40.96s-18.432 40.96-40.96 40.96zM931.328 959.488h-317.44c-22.528 0-40.96-18.432-40.96-40.96s18.432-40.96 40.96-40.96h317.44c22.528 0 40.96 18.432 40.96 40.96s-18.432 40.96-40.96 40.96zM510.464 200.704c-22.528 0-40.96 18.432-40.96 40.96v215.04H319.488c-22.528 0-40.96 18.432-40.96 40.96s18.432 40.96 40.96 40.96h190.976c22.528 0 40.96-18.432 40.96-40.96v-256c0-23.04-18.432-40.96-40.96-40.96zM510.464 878.08v-0.512c-209.408 0-379.904-170.496-379.904-379.904 0-22.528-18.432-40.96-40.96-40.96s-40.96 18.432-40.96 40.96c0 251.392 202.24 456.704 452.608 461.824H509.952v-0.512c1.024 0 1.536 0 2.56-0.512 22.016-4.608 36.352-26.624 31.232-48.64-3.072-17.408-16.896-29.696-33.28-31.744zM972.288 485.888c-6.144-249.344-210.944-450.56-461.824-450.56-139.776 0-271.36 64.512-358.4 170.496l-15.36-129.024c-2.56-22.528-23.04-38.4-45.568-35.84s-38.4 23.04-35.84 45.568l28.672 233.984c2.56 20.992 19.968 35.84 40.448 35.84 1.536 0 3.072 0 5.12-0.512L363.52 328.192c22.528-2.56 38.4-23.04 35.84-45.568s-23.04-38.4-45.568-35.84l-142.848 17.408C282.112 173.568 392.704 117.76 510.464 117.76c209.408 0 379.904 170.496 379.904 379.904h0.512c0 1.536 0.512 3.072 0.512 4.096 4.608 22.016 26.624 36.352 48.64 31.232 22.016-4.608 35.84-25.6 32.256-47.104z" /></svg>