<?xml version="1.0" standalone="no"?><!DOCTYPE svg PUBLIC "-//W3C//DTD SVG 1.1//EN" "http://www.w3.org/Graphics/SVG/1.1/DTD/svg11.dtd"><svg t="1640861982518" class="icon" viewBox="0 0 1024 1024" version="1.1" xmlns="http://www.w3.org/2000/svg" p-id="19348" xmlns:xlink="http://www.w3.org/1999/xlink" width="200" height="200"><defs><style type="text/css"></style></defs><path d="M603.751424 768a75.6224 75.6224 0 0 1-71.168-51.2H25.191424A25.3952 25.3952 0 0 1 0.001024 691.2c0-14.1312 11.264-25.6 25.1392-25.6h507.4432c10.3936-29.8496 38.3488-51.2 71.168-51.2 32.8704 0 60.8256 21.3504 71.168 51.2h323.9424c13.8752 0 25.1392 11.4688 25.1392 25.6s-11.264 25.6-25.1392 25.6h-323.9424c-10.3424 29.8496-38.2976 51.2-71.168 51.2zM230.708224 307.2c10.3424-29.8496 38.2976-51.2 71.168-51.2 32.8704 0 60.8256 21.3504 71.168 51.2H998.913024c13.8752 0 25.1392 11.4688 25.1392 25.6s-11.264 25.6-25.1392 25.6H373.044224c-10.3424 29.8496-38.2976 51.2-71.168 51.2a75.6224 75.6224 0 0 1-71.168-51.2H25.140224A25.3952 25.3952 0 0 1 0.001024 332.8c0-14.1312 11.264-25.6 25.1392-25.6h205.568z" p-id="19349"></path></svg>