<?xml version="1.0" standalone="no"?><!DOCTYPE svg PUBLIC "-//W3C//DTD SVG 1.1//EN" "http://www.w3.org/Graphics/SVG/1.1/DTD/svg11.dtd"><svg t="1606284128450" class="icon" viewBox="0 0 1024 1024" version="1.1" xmlns="http://www.w3.org/2000/svg" p-id="2705" xmlns:xlink="http://www.w3.org/1999/xlink" width="200" height="200"><defs><style type="text/css"></style></defs><path d="M242.02930252 1012.57124978c-57.2250643 0-103.77746963-46.55604622-103.77746963-103.776256V192.58117689a34.48164503 34.48164503 0 0 1 34.44159526-34.44038164 34.47436325 34.47436325 0 0 1 34.44159526 34.44038164v700.02157036c0 34.51562667 16.55754903 51.08652563 51.07196207 51.08652564h507.52413393c34.50955852 0 51.07196208-16.56968533 51.07196207-51.085312V192.58117689a34.48771318 34.48771318 0 0 1 34.45494519-34.44038164 34.48771318 34.48771318 0 0 1 34.44766341 34.44038164v716.79635911c0 27.50934282-10.74062222 53.42883082-30.24971853 72.92214992a102.49709037 102.49709037 0 0 1-72.93064533 30.27156386H242.02930252z" p-id="2706"></path><path d="M345.4608877 795.30484622a30.81891082 30.81891082 0 0 1-30.79827911-30.79099733V388.41609482c0-16.97625125 13.81474608-30.79099733 30.78978371-30.79099734s30.79342459 13.81474608 30.79342459 30.7897837v376.10382223a30.61016652 30.61016652 0 0 1-9.01726814 21.77494281 30.60409837 30.60409837 0 0 1-21.76766105 9.00998637z m166.5391123 0a30.82619259 30.82619259 0 0 1-30.79099733-30.79099733V388.41609482a30.82619259 30.82619259 0 0 1 30.79706548-30.79949274 30.83347437 30.83347437 0 0 1 30.7934246 30.79949274v376.10382221A30.84075615 30.84075615 0 0 1 512 795.30363259z m166.5391123 0a30.8468243 30.8468243 0 0 1-30.80556089-30.80434725v-376.09168594a30.83347437 30.83347437 0 0 1 30.80556089-30.7897837 30.81891082 30.81891082 0 0 1 30.79221095 30.7897837v376.1026086a30.82619259 30.82619259 0 0 1-30.79099733 30.79221096z m-636.40067793-579.82369185a34.48164503 34.48164503 0 0 1-34.44038162-34.44038162 34.48164503 34.48164503 0 0 1 34.44038162-34.44038164h224.75449838v-60.46909629c0-41.19665778 33.52773215-74.71589452 74.73045807-74.71589452h342.6428397c41.20272592 0 74.71589452 33.52045037 74.71589451 74.71589452v60.46788266h222.86487705a34.47436325 34.47436325 0 0 1 34.44038162 34.44038163 34.48164503 34.48164503 0 0 1-34.44038162 34.44159526H42.13843437zM335.78097778 146.60524563h354.32645214v-66.29573215H335.78097778v66.29573215z" p-id="2707"></path></svg>