<?xml version="1.0" encoding="UTF-8"?>
<svg width="18px" height="18px" viewBox="0 0 18 18" version="1.1" xmlns="http://www.w3.org/2000/svg" xmlns:xlink="http://www.w3.org/1999/xlink">
    <title>unfold</title>
    <g id="Web端" stroke="none" stroke-width="1" fill="none" fill-rule="evenodd">
        <g id="电子地图--点位查看" transform="translate(-1339.000000, -71.000000)" fill="#333333" fill-rule="nonzero">
            <path d="M1356.02703,72.6216216 L1339.81081,72.6216216 C1339.36486,72.6216216 1339,72.2567568 1339,71.8108108 C1339,71.3648649 1339.36486,71 1339.81081,71 L1356.02703,71 C1356.47297,71 1356.83784,71.3648649 1356.83784,71.8108108 C1356.83784,72.2567568 1356.47297,72.6216216 1356.02703,72.6216216 Z M1356.02703,89 L1339.81081,89 C1339.36486,89 1339,88.6351351 1339,88.1891892 C1339,87.7432432 1339.36486,87.3783784 1339.81081,87.3783784 L1356.02703,87.3783784 C1356.47297,87.3783784 1356.83784,87.7432432 1356.83784,88.1891892 C1356.83784,88.6351351 1356.47297,89 1356.02703,89 Z M1348.81081,83.5371622 L1355.90541,83.5371622 C1356.35135,83.5371622 1356.71622,83.1722973 1356.71622,82.7263514 C1356.71622,82.2804054 1356.35135,81.9155405 1355.90541,81.9155405 L1348.81081,81.9155405 C1348.36486,81.9155405 1348,82.2804054 1348,82.7263514 C1348,83.1722973 1348.36486,83.5371622 1348.81081,83.5371622 Z M1343.44932,75.1351351 C1343.76351,74.8209459 1344.28041,74.8209459 1344.59459,75.1351351 C1344.90878,75.4493243 1344.90878,75.9662162 1344.59459,76.2804054 L1344.59459,76.2804054 L1341.16892,79.7060811 L1344.59459,83.1317568 C1344.90878,83.4459459 1344.90878,83.9628378 1344.59459,84.277027 C1344.43243,84.4290541 1344.21959,84.5101351 1344.01689,84.5101351 C1343.81419,84.5101351 1343.61149,84.4290541 1343.44932,84.2871622 L1343.44932,84.2871622 L1339.44595,80.2837838 C1339.13176,79.9695946 1339.13176,79.4527027 1339.44595,79.1385135 L1339.44595,79.1385135 Z M1355.90541,76.4628378 C1356.35135,76.4628378 1356.71622,76.8277027 1356.71622,77.2736486 C1356.71622,77.7195946 1356.35135,78.0844595 1355.90541,78.0844595 L1355.90541,78.0844595 L1348.81081,78.0844595 C1348.36486,78.0844595 1348,77.7195946 1348,77.2736486 C1348,76.8277027 1348.36486,76.4628378 1348.81081,76.4628378 L1348.81081,76.4628378 Z" id="unfold"></path>
        </g>
    </g>
</svg>