<?xml version="1.0" encoding="utf-8"?>
<!-- Generator: Adobe Illustrator 24.2.3, SVG Export Plug-In . SVG Version: 6.00 Build 0)  -->
<svg version="1.1" id="Layer_1" xmlns="http://www.w3.org/2000/svg" xmlns:xlink="http://www.w3.org/1999/xlink" x="0px" y="0px"
	 viewBox="0 0 200 200" style="enable-background:new 0 0 200 200;" xml:space="preserve">
<path d="M194.8,48.1c-5.9-7.6-16.8-8.9-24.4-3L157,55.5l0-9.1c0-9.6-7.8-17.4-17.4-17.4H18.9C9.3,29,1.5,36.8,1.5,46.4v114.8
	c0,9.6,7.8,17.4,17.4,17.4h120.8c9.6,0,17.4-7.8,17.4-17.4V154l13.4,10.4c3.1,2.4,6.8,3.7,10.7,3.7c9.6,0,17.4-7.8,17.4-17.4V58.8
	C198.5,54.9,197.2,51.2,194.8,48.1z M99,108.8L63.1,133v0c-1,0.6-2.1,1-3.2,1c-3.2,0-5.8-2.6-5.8-5.8V80.3c0-1.1,0.3-2.2,1-3.2
	c1.8-2.7,5.4-3.4,8-1.6L99,99.2c0.6,0.4,1.2,1,1.6,1.6C102.4,103.4,101.7,107,99,108.8z"/>
</svg>
