<?xml version="1.0" encoding="UTF-8"?>
<svg width="42px" height="42px" viewBox="0 0 42 42" version="1.1" xmlns="http://www.w3.org/2000/svg" xmlns:xlink="http://www.w3.org/1999/xlink">
    <title>view1</title>
    <g id="Web端" stroke="none" stroke-width="1" fill="none" fill-rule="evenodd">
        <g id="view1" fill="#BDCBD9" fill-rule="nonzero">
            <path d="M6.53401335,3.73575501 C4.9874416,3.73575501 3.73370189,4.99018931 3.73370189,6.53764143 L3.73370189,35.4624053 C3.73370189,37.0098107 4.9874416,38.264245 6.53401335,38.264245 L35.4659867,38.264245 C37.0125584,38.264245 38.2662981,37.0098575 38.2662981,35.4624053 L38.2662981,6.53759465 C38.2662981,4.99018931 37.0125584,3.73575501 35.4659867,3.73575501 L6.53401335,3.73575501 L6.53401335,3.73575501 Z M6.53401335,0 L35.4659867,0 C39.0746229,0 42,2.92699777 42,6.53764143 L42,35.4624053 C42,39.0730022 39.0746229,42 35.4659867,42 L6.53401335,42 C2.92537709,42 0,39.0730022 0,35.4623586 L0,6.53759465 C0,2.92699777 2.92537709,0 6.53401335,0 Z" id="Shape"></path>
            <path d="M2.7727878,27 L38.2272122,27 C39.2063024,27 40,27.8954231 40,29 C40,30.1045769 39.2063024,31 38.2272122,31 L2.7727878,31 C1.79369756,31 1,30.1045769 1,29 C1,27.8954231 1.79369756,27 2.7727878,27 Z" id="Shape"></path>
            <path d="M9.05901507,37 C7.36956133,37 6,35.6698509 6,34.0289934 C6,32.3881359 7.36956133,31.0579868 9.05901507,31.0579868 C10.7484219,31.0579868 12.1179833,32.3881359 12.1179833,34.0289934 C12.1179833,35.6698509 10.7484688,37 9.05901507,37 Z M17.7989912,31.0579868 C19.4884449,31.0579868 20.8580062,32.3881359 20.8580062,34.0289934 C20.8580062,35.6698509 19.4884449,37 17.7989912,37 C16.1095843,37 14.740023,35.6698509 14.740023,34.0289934 C14.740023,32.3881359 16.1095843,31.0579868 17.7989912,31.0579868 Z M26.2725074,11.760868 C27.3764057,10.6925757 29.1522421,10.7157994 30.2561404,11.7840917 L30.2561404,11.7840917 L33.6158309,15.1283112 C34.1437823,15.6392336 34.1197845,16.4752885 33.5918331,16.9862109 C33.0638818,17.4971333 32.1999614,17.4739096 31.67201,16.9629872 L31.67201,16.9629872 L28.3123195,13.6652152 C28.3123195,13.6419914 28.2883217,13.6419914 28.2883217,13.6419914 C28.2403261,13.5955439 28.1683328,13.6187677 28.1203372,13.6652152 L28.1203372,13.6652152 L24.2326953,19.1460193 C24.1846998,19.2389143 24.0887086,19.3318093 24.0167152,19.4247043 C22.9848103,20.5394441 21.1849761,20.6323391 20.0330822,19.633718 L20.0330822,19.633718 L17.441321,17.1255534 C17.3933254,17.0791059 17.321332,17.0791059 17.2733365,17.1255534 L17.2733365,17.1255534 L10.9139223,23.9997823 C10.4099687,24.5339284 9.54604832,24.5803759 8.99409917,24.0926773 C8.44215002,23.6049786 8.39415444,22.7689237 8.89810801,22.2347776 L8.89810801,22.2347776 L15.2575222,15.3605487 C16.2894271,14.2458088 18.0892613,14.1529139 19.2411552,15.1515349 L19.2411552,15.1515349 L21.8569142,17.6596995 C21.880912,17.6829233 21.9289076,17.6829233 21.9529054,17.6829233 C21.9769031,17.6829233 22.0009009,17.6596995 22.0248987,17.6364758 L22.0248987,17.6364758 L25.9125406,12.1556717 C26.0325295,12.0163292 26.1525185,11.8769867 26.2725074,11.760868 Z M16.9613652,7 C17.9692723,7 18.7851972,7.78960737 18.7851972,8.76500472 C18.7851972,9.74040206 17.9692723,10.5300094 16.9613652,10.5300094 C15.953458,10.5300094 15.1375332,9.74040206 15.1375332,8.76500472 C15.1375332,7.78960737 15.953458,7 16.9613652,7 Z" id="Shape"></path>
        </g>
    </g>
</svg>