<?xml version="1.0" encoding="utf-8"?>
<!-- Generator: Adobe Illustrator 24.2.3, SVG Export Plug-In . SVG Version: 6.00 Build 0)  -->
<svg version="1.1" id="Layer_1" xmlns="http://www.w3.org/2000/svg" xmlns:xlink="http://www.w3.org/1999/xlink" x="0px" y="0px"
	 viewBox="0 0 200 200" style="enable-background:new 0 0 200 200;" xml:space="preserve">
<path d="M116.4,27.1c3.3,3.2,5.1,7.5,5.1,12.1v121.9c0,9.5-7.7,17.2-17.2,17.2c-4.6,0-9-1.8-12.1-5.1L60.9,142
	c-1.8-1.8-4.1-2.7-6.6-2.7H42.2c-13.8,0.1-25-11.1-25-25V86.1c0-13.7,11.2-24.9,25-25h12c2.5,0,4.9-1,6.6-2.7l31.4-31.3
	C98.8,20.4,109.7,20.4,116.4,27.1z M159.2,53.1c13.4,11.8,21.3,29.3,21.3,48.2s-7.9,36.5-21.3,48.2c-2.6,2.3-6.5,2-8.8-0.6
	s-2-6.5,0.6-8.8c10.7-9.4,17-23.5,17-38.9s-6.3-29.5-17-38.9c-2.6-2.3-2.8-6.2-0.6-8.8C152.7,51.1,156.6,50.8,159.2,53.1L159.2,53.1
	z M140.6,71.4c8.1,7.4,12.8,18.2,12.8,29.8s-4.7,22.5-12.8,29.8c-2.5,2.3-6.5,2.1-8.8-0.4s-2.2-6.4,0.3-8.8l0.1-0.1l0.2-0.2
	c5.4-5,8.5-12.4,8.5-20.4c0-8.1-3.3-15.6-8.7-20.6c-2.5-2.3-2.7-6.3-0.4-8.8C134.1,69.2,138,69,140.6,71.4L140.6,71.4z"/>
</svg>
