<?xml version="1.0" standalone="no"?><!DOCTYPE svg PUBLIC "-//W3C//DTD SVG 1.1//EN" "http://www.w3.org/Graphics/SVG/1.1/DTD/svg11.dtd"><svg class="icon" width="200px" height="200.00px" viewBox="0 0 1024 1024" version="1.1" xmlns="http://www.w3.org/2000/svg"><path fill="#2c2c2c" d="M834.56 11.776H268.8c-4.096 0-7.68 0-11.264 0.512-67.072 3.072-120.832 58.88-120.832 126.976V988.16c0 9.728 8.192 17.92 17.92 17.92 5.632 0 10.24-2.56 13.824-6.144l70.144-56.832c18.432-14.336 44.544-12.8 60.928 4.096l44.544 45.056c6.656 6.656 14.848 10.752 23.552 12.8 2.56 0.512 5.12 1.024 7.68 1.024h2.048c10.752 0 22.016-3.584 30.72-11.776l54.784-49.664c17.408-15.36 44.544-14.848 61.952 0.512l55.808 49.152c7.68 6.656 16.896 10.752 26.624 11.264H614.912c10.24-1.024 20.48-5.632 28.672-13.312l48.64-47.104h0.512c8.192-7.68 18.944-12.288 30.72-12.288 7.68 0 14.848 2.048 20.992 5.12l112.64 62.976c3.072 2.048 6.144 3.584 10.24 3.584 9.728 0 18.432-8.192 18.432-17.92V256c45.056-19.456 77.312-64.512 77.312-116.736-1.024-70.144-58.368-127.488-128.512-127.488zM199.168 139.264c0-35.328 28.672-64 64-64s64 28.672 64 64-28.672 64-64 64-64-28.672-64-64z m520.192 603.648H286.72c-16.384 0-30.208-13.312-30.208-30.208s13.312-30.208 30.208-30.208h432.128c16.384 0 30.208 13.312 30.208 30.208s-13.312 30.208-29.696 30.208z m-462.336-182.784c0-16.384 13.312-30.208 30.208-30.208h317.44c16.384 0 30.208 13.312 30.208 30.208s-13.312 30.208-30.208 30.208H286.72c-16.384 0-29.696-13.312-29.696-30.208z m462.336-122.88H286.72c-16.384 0-30.208-13.312-30.208-30.208s13.312-30.208 30.208-30.208h432.128c16.384 0 30.208 13.312 30.208 30.208s-13.312 30.208-29.696 30.208zM834.56 206.336H370.688a125.35296 125.35296 0 0 0 0-134.144H834.56c36.864 0 67.072 30.208 67.072 67.072s-29.696 67.072-67.072 67.072z" /></svg>