<?xml version="1.0" standalone="no"?><!DOCTYPE svg PUBLIC "-//W3C//DTD SVG 1.1//EN" "http://www.w3.org/Graphics/SVG/1.1/DTD/svg11.dtd"><svg class="icon" width="200px" height="200.00px" viewBox="0 0 1024 1024" version="1.1" xmlns="http://www.w3.org/2000/svg"><path fill="#2c2c2c" d="M594.944 468.48h-50.176v-50.176c0-20.992-16.896-37.376-37.376-37.376s-37.376 16.896-37.376 37.376v50.176H419.84c-20.992 0-37.376 16.896-37.376 37.376s16.896 37.376 37.376 37.376h50.176v50.176c0 20.992 16.896 37.376 37.376 37.376s37.376-16.896 37.376-37.376v-50.176h50.176c20.992 0 37.376-16.896 37.376-37.376s-16.384-37.376-37.376-37.376zM815.616 801.792c11.776 0 23.04-5.632 30.208-15.872 12.288-16.896 8.704-40.448-8.192-52.736l-109.056-79.872c28.16-42.496 45.056-93.184 45.056-147.456 0-146.944-119.296-266.752-266.752-266.752S240.64 358.912 240.64 506.368 359.936 773.12 507.392 773.12c65.024 0 124.928-23.04 171.008-62.464l115.2 84.48c6.656 4.608 14.336 6.656 22.016 6.656zM506.88 692.224c-102.912 0-186.368-83.456-186.368-186.368S404.48 320 506.88 320s186.368 83.456 186.368 186.368-83.456 185.856-186.368 185.856zM46.592 256c19.456 0 34.816-15.872 34.816-34.816V84.992h135.68c19.456 0 34.816-15.872 34.816-34.816S236.032 15.36 217.088 15.36H46.592c-18.944-0.512-34.816 15.36-34.816 34.816V220.16c-0.512 19.456 15.36 35.84 34.816 35.84zM217.088 940.032H81.92v-135.68c0-19.456-15.872-34.816-34.816-34.816s-34.816 15.872-34.816 34.816v171.008c0 19.456 15.872 34.816 34.816 34.816h171.008c19.456 0 34.816-15.872 34.816-34.816-0.512-19.456-15.872-35.328-35.84-35.328zM977.92 14.336h-171.008c-19.456 0-34.816 15.872-34.816 34.816s15.872 34.816 34.816 34.816h135.68V220.16c0 19.456 15.872 34.816 34.816 34.816 19.456 0 34.816-15.872 34.816-34.816V49.664c0.512-19.456-14.848-35.328-34.304-35.328zM977.92 769.024c-19.456 0-34.816 15.872-34.816 34.816v135.68h-135.68c-19.456 0-34.816 15.872-34.816 34.816 0 19.456 15.872 34.816 34.816 34.816h171.008c19.456 0 34.816-15.872 34.816-34.816v-171.008c-0.512-18.432-15.872-34.304-35.328-34.304z" /></svg>