<?xml version="1.0" standalone="no"?><!DOCTYPE svg PUBLIC "-//W3C//DTD SVG 1.1//EN" "http://www.w3.org/Graphics/SVG/1.1/DTD/svg11.dtd"><svg class="icon" width="200px" height="200.00px" viewBox="0 0 1024 1024" version="1.1" xmlns="http://www.w3.org/2000/svg"><path fill="#2c2c2c" d="M984.576 905.728L765.952 701.44c56.832-70.656 91.136-160.768 91.136-258.56 0-227.328-184.832-412.672-412.672-412.672-227.328 0-412.16 185.344-412.16 412.672s184.832 412.672 412.672 412.672c96.256 0 185.344-33.28 255.488-89.088l221.696 206.848c8.704 8.192 19.968 12.288 31.232 12.288 12.288 0 24.576-5.12 33.792-14.848 17.408-18.432 16.384-47.616-2.56-65.024zM444.928 763.392c-176.64 0-320.512-143.872-320.512-320.512s143.872-320.512 320.512-320.512 320.512 143.872 320.512 320.512-143.872 320.512-320.512 320.512zM588.288 482.304H295.424c-22.528 0-40.96-18.432-40.96-40.96s18.432-40.96 40.96-40.96h292.864c22.528 0 40.96 18.432 40.96 40.96s-18.432 40.96-40.96 40.96z" /></svg>