<?xml version="1.0" encoding="utf-8"?>
<!-- Generator: Adobe Illustrator 24.2.3, SVG Export Plug-In . SVG Version: 6.00 Build 0)  -->
<svg version="1.1" id="Layer_1" xmlns="http://www.w3.org/2000/svg" xmlns:xlink="http://www.w3.org/1999/xlink" x="0px" y="0px"
	 viewBox="0 0 200 200" style="enable-background:new 0 0 200 200;" xml:space="preserve">
<path d="M45.45,90.91h72.73V72.73H45.45V90.91z M145.71,132.85c11.62-14.47,17.94-32.48,17.93-51.04C163.64,36.63,127.01,0,81.82,0
	S0,36.63,0,81.82s36.63,81.82,81.82,81.82c19.32,0,37.04-6.73,51.04-17.93l40.97,40.97l12.85-12.85L145.71,132.85L145.71,132.85z
	 M81.82,145.45c-35.15,0-63.64-28.49-63.64-63.64s28.49-63.64,63.64-63.64c35.15,0,63.64,28.49,63.64,63.64
	S116.96,145.45,81.82,145.45z M72.73,45.45v72.73h18.18V45.45H72.73z"/>
</svg>
