<?xml version="1.0" encoding="utf-8"?>
<!-- Generator: Adobe Illustrator 24.2.3, SVG Export Plug-In . SVG Version: 6.00 Build 0)  -->
<svg version="1.1" id="Layer_1" xmlns="http://www.w3.org/2000/svg" xmlns:xlink="http://www.w3.org/1999/xlink" x="0px" y="0px"
	 viewBox="0 0 17 17" style="enable-background:new 0 0 17 17;" xml:space="preserve">
<style type="text/css">
	.st0{fill:#FFFFFF;}
</style>
<g id="Web端">
	<g id="fullscreen-exit" transform="translate(-2.000000, -2.000000)">
		<path id="Shape" class="st0" d="M8.2,5.3c0-0.1-0.2-0.2-0.3-0.1L7.1,6L4.5,3.5c-0.1-0.1-0.2-0.1-0.2,0L3.5,4.3
			c-0.1,0.1-0.1,0.2,0,0.2L6,7.1L5.2,7.9C5.1,8,5.2,8.2,5.3,8.2l3.1,0.4c0.1,0,0.2-0.1,0.2-0.2L8.2,5.3z M8.4,12.5l-3.1,0.4
			c-0.1,0-0.2,0.2-0.1,0.3L6,13.9l-2.6,2.6c-0.1,0.1-0.1,0.2,0,0.2l0.8,0.8c0.1,0.1,0.2,0.1,0.2,0L7.1,15l0.8,0.8
			c0.1,0.1,0.2,0,0.3-0.1l0.4-3.1C8.5,12.5,8.5,12.5,8.4,12.5z M12.6,8.5l3.1-0.4c0.1,0,0.2-0.2,0.1-0.3L15,7.1l2.6-2.6
			c0.1-0.1,0.1-0.2,0-0.2l-0.8-0.8c-0.1-0.1-0.2-0.1-0.2,0L13.9,6l-0.8-0.8c-0.1-0.1-0.2,0-0.3,0.1l-0.4,3.1
			C12.5,8.5,12.5,8.5,12.6,8.5z M15,13.9l0.8-0.8c0.1-0.1,0-0.2-0.1-0.3l-3.1-0.4c-0.1,0-0.2,0.1-0.2,0.2l0.4,3.1
			c0,0.1,0.2,0.2,0.3,0.1l0.8-0.8l2.6,2.6c0.1,0.1,0.2,0.1,0.2,0l0.8-0.8c0.1-0.1,0.1-0.2,0-0.2L15,13.9z"/>
	</g>
</g>
</svg>
