<?xml version="1.0" encoding="utf-8"?>
<!-- Generator: Adobe Illustrator 24.2.3, SVG Export Plug-In . SVG Version: 6.00 Build 0)  -->
<svg version="1.1" id="Layer_1" xmlns="http://www.w3.org/2000/svg" xmlns:xlink="http://www.w3.org/1999/xlink" x="0px" y="0px"
	 viewBox="0 0 16 16" style="enable-background:new 0 0 16 16;" xml:space="preserve">
<style type="text/css">
	.st0{fill:#FFFFFF;}
</style>
<g id="Web端">
	<g id="电子地图--点位查看" transform="translate(-1373.000000, -71.000000)">
		<g id="zoom-in" transform="translate(1373.000000, 71.000000)">
			<path class="st0" d="M3.5,2.4l0.9-0.9c0.1-0.1,0-0.3-0.1-0.3L1.1,0.9c-0.2,0-0.2,0-0.2,0.2l0.4,3.2c0,0.1,0.2,0.2,0.3,0.1
				l0.9-0.9l2.7,2.6c0.1,0.1,0.2,0.1,0.2,0l0.9-0.9c0.1-0.1,0.1-0.2,0-0.2L3.5,2.4z M10.7,6.2c0.1,0.1,0.2,0.1,0.2,0l2.7-2.6
				l0.9,0.9c0.1,0.1,0.3,0,0.3-0.1l0.4-3.2c0-0.1-0.1-0.2-0.2-0.2l-3.2,0.4c-0.1,0-0.2,0.2-0.1,0.3l0.9,0.9L9.8,5.1
				c-0.1,0.1-0.1,0.2,0,0.2L10.7,6.2L10.7,6.2z M14.7,11.7c0-0.1-0.2-0.2-0.3-0.1l-0.9,0.9l-2.7-2.6c-0.1-0.1-0.2-0.1-0.2,0
				l-0.9,0.9c-0.1,0.1-0.1,0.2,0,0.2l2.7,2.6l-0.9,0.9c-0.1,0.1,0,0.3,0.1,0.3l3.2,0.4c0.1,0,0.2-0.1,0.2-0.2L14.7,11.7z M5.3,9.7
				c-0.1-0.1-0.2-0.1-0.2,0l-2.7,2.6l-0.9-0.9c-0.1-0.1-0.3,0-0.3,0.1l-0.4,3.2C0.9,14.9,1,15,1.1,15l3.2-0.4c0.1,0,0.2-0.2,0.1-0.3
				l-0.9-0.9l2.7-2.6c0.1-0.1,0.1-0.2,0-0.2L5.3,9.7L5.3,9.7z"/>
		</g>
	</g>
</g>
</svg>
