<?xml version="1.0" encoding="utf-8"?>
<!-- Generator: Adobe Illustrator 24.2.3, SVG Export Plug-In . SVG Version: 6.00 Build 0)  -->
<svg version="1.1" id="Layer_1" xmlns="http://www.w3.org/2000/svg" xmlns:xlink="http://www.w3.org/1999/xlink" x="0px" y="0px"
	 viewBox="0 0 200 200" style="enable-background:new 0 0 200 200;" xml:space="preserve">
<style type="text/css">
	.st0{fill:#FCFCFC;}
</style>
<g>
	<path class="st0" d="M60.8,58.4c-1.7,1.7-4.1,2.7-6.6,2.7h-12c-13.8,0.1-25,11.3-25,25v28.2c0,13.9,11.2,25.1,25,25h12.1
		c2.5,0,4.8,0.9,6.6,2.7l31.3,31.2c3.1,3.3,7.5,5.1,12.1,5.1c9.5,0,17.2-7.7,17.2-17.2v-44.2L61.9,57.3L60.8,58.4z"/>
	<path class="st0" d="M190,152l-18.1-18.1c5.5-9.6,8.6-20.9,8.6-32.6c0-18.9-7.9-36.4-21.3-48.2c-2.6-2.3-6.5-2-8.8,0.4
		c-2.2,2.6-2,6.5,0.6,8.8c10.7,9.4,17,23.5,17,38.9c0,8.4-1.9,16.4-5.3,23.5l-11.1-11.1c1.2-3.9,1.8-8.1,1.8-12.4
		c0-11.6-4.7-22.4-12.8-29.8c-2.6-2.4-6.5-2.2-8.8,0.3s-2.1,6.5,0.4,8.8c5.4,5,8.7,12.5,8.7,20.6c0,0.6,0,1.2-0.1,1.8l-19.3-19.3
		V39.2c0-4.6-1.8-8.9-5.1-12.1c-6.7-6.7-17.6-6.7-24.2,0L78.6,40.6l-25-25c-2.3-2.3-6.1-2.3-8.5,0c-2.3,2.3-2.3,6.1,0,8.5
		l136.4,136.4c1.2,1.2,2.7,1.8,4.2,1.8s3.1-0.6,4.2-1.8C192.4,158.2,192.4,154.4,190,152z"/>
</g>
</svg>
