<?xml version="1.0" encoding="utf-8"?>
<!-- Generator: Adobe Illustrator 24.2.3, SVG Export Plug-In . SVG Version: 6.00 Build 0)  -->
<svg version="1.1" id="Layer_1" xmlns="http://www.w3.org/2000/svg" xmlns:xlink="http://www.w3.org/1999/xlink" x="0px" y="0px"
	 viewBox="0 0 200 200" style="enable-background:new 0 0 200 200;" xml:space="preserve">
<style type="text/css">
	.st0{fill:#FFFFFF;}
</style>
<path class="st0" d="M145.9,166.2h-17c-6.3,0-11.3-5.1-11.3-11.3V45c0-6.3,5.1-11.3,11.3-11.3h17c6.3,0,11.3,5.1,11.3,11.3v109.8
	C157.3,161.1,152.2,166.2,145.9,166.2L145.9,166.2z M65.9,166.2h-17c-6.3,0-11.3-5.1-11.3-11.3V45c0-6.3,5.1-11.3,11.3-11.3h17
	c6.3,0,11.3,5.1,11.3,11.3v109.8C77.3,161.1,72.2,166.2,65.9,166.2L65.9,166.2z"/>
</svg>
