<?xml version="1.0" encoding="utf-8"?>
<!-- Generator: Adobe Illustrator 24.2.3, SVG Export Plug-In . SVG Version: 6.00 Build 0)  -->
<svg version="1.1" id="Layer_1" xmlns="http://www.w3.org/2000/svg" xmlns:xlink="http://www.w3.org/1999/xlink" x="0px" y="0px"
	 viewBox="0 0 200 200" style="enable-background:new 0 0 200 200;" xml:space="preserve">
<style type="text/css">
	.st0{fill:#FFFFFF;}
</style>
<path class="st0" d="M50.6,163.5V36.3c0-14.8,17.6-23.2,28.6-13.3c0.2,0.2,0.4,0.4,0.7,0.6c0.2,0.2,0.3,0.3,0.5,0.4l77.8,59.5
	c3.2,2.5,5.8,5.8,7.1,9.6c1.5,4.4,1.5,9.2,0,13.5c-1.3,3.9-3.9,7.2-7.1,9.6l-77.9,59.6l-0.3,0.3c-0.2,0.2-0.5,0.5-0.8,0.7
	C68.1,186.7,50.6,178.3,50.6,163.5L50.6,163.5z"/>
</svg>
