<?xml version="1.0" standalone="no"?><!DOCTYPE svg PUBLIC "-//W3C//DTD SVG 1.1//EN" "http://www.w3.org/Graphics/SVG/1.1/DTD/svg11.dtd"><svg t="1631600514767" class="icon" viewBox="0 0 1024 1024" version="1.1" xmlns="http://www.w3.org/2000/svg" p-id="13754" xmlns:xlink="http://www.w3.org/1999/xlink" width="200" height="200"><defs><style type="text/css"></style></defs><path d="M866.745478 636.555995c-16.97469-18.14994-38.182323-27.715449-61.317364-27.715448l-9.504192 0.020439c-44.148502 0.408782-78.962458 0.490539-110.829091-49.176526a32.007664 32.007664 0 0 0-53.971544 34.41948c50.911807 79.32423 116.672636 79.038082 165.207374 78.6293l9.097453-0.040878c3.721964 0 8.38004 0.878882 14.511776 7.460279 37.520095 40.040239 45.301269 181.989936 41.618139 279.975084h-95.342369V896.255471a32.038323 32.038323 0 0 0-64.076646 0v63.872254H541.943313v-159.690855a32.038323 32.038323 0 0 0-64.076646 0v159.690855h-160.195701V896.255471a32.038323 32.038323 0 0 0-64.076645 0v63.872254H158.251951c-3.715832-97.964709 4.034683-239.83265 41.618139-279.975084 6.131736-6.581397 10.795944-7.460279 14.511776-7.460279l9.095409 0.040878c48.064638 0.4701 114.295567 0.715369 165.207374-78.6293a32.007664 32.007664 0 0 0-53.971544-34.41948c-31.866634 49.667065-66.672414 49.585308-110.829091 49.176526l-9.502148-0.020439c-23.145261 0-44.352893 9.565509-61.317364 27.715448-73.965092 78.976765-59.101763 329.39688-57.170266 357.684624A32.007664 32.007664 0 0 0 127.85489 1023.99998H891.963266a32.009708 32.009708 0 0 0 31.960654-29.759361c1.923321-28.287744 16.78665-278.707859-57.178442-357.684624zM285.632643 321.405183h33.22788c10.325844 145.587861 90.49421 255.489017 191.044467 255.489017s180.718623-109.901155 191.044467-255.489017H734.173249a31.936127 31.936127 0 1 0 0-63.872254h-0.586603c-4.803194-132.956484-43.451528-212.791692-191.647421-222.500275v-1.062834a32.038323 32.038323 0 0 0-64.076645 0v1.001517c-149.228069 9.320239-187.101761 86.600557-191.696476 222.561592h-0.537549a31.936127 31.936127 0 1 0 0.004088 63.872254zM509.90499 513.021946c-63.263168 0-117.580133-84.924549-126.777738-191.616763H636.67864c-9.197605 106.692213-63.510482 191.616763-126.77365 191.616763zM477.866667 98.86403v62.850298a32.038323 32.038323 0 0 0 64.076646 0V98.925347c93.676581 6.172615 123.472732 43.535328 127.623917 158.607582H350.210047c3.934531-116.584748 32.792526-152.802871 127.65662-158.668899z m0 605.774678h64.076646V640.766454H477.866667v63.872254z m-192.234024 31.946347a31.925908 31.925908 0 1 0 0 63.851815h96.117012a31.925908 31.925908 0 1 0 0-63.851815h-96.117012z" p-id="13755"></path></svg>