<?xml version="1.0" encoding="utf-8"?>
<!-- Generator: Adobe Illustrator 24.2.3, SVG Export Plug-In . SVG Version: 6.00 Build 0)  -->
<svg version="1.1" id="Layer_1" xmlns="http://www.w3.org/2000/svg" xmlns:xlink="http://www.w3.org/1999/xlink" x="0px" y="0px"
	 viewBox="0 0 211.5 200" style="enable-background:new 0 0 211.5 200;" xml:space="preserve">
<path d="M206,198.5h-51.8c-2.6,0-4.4-1.8-4.4-4.4s2.2-4.4,4.4-4.4h47v-41.5c0-2.6,2.2-4.4,4.4-4.4c2.6,0,4.4,1.8,4.4,4.4v45.9
	C210.4,196.7,208.6,198.5,206,198.5z M205.8,58c-2.6,0-4.4-1.8-4.4-4.4V10.2h-47.4c-2.6,0-4.4-1.8-4.4-4.4s2.2-4.4,4.4-4.4h51.4
	c2.6,0,4.4,1.8,4.4,4.4v47.7C210.2,56.1,208.4,58,205.8,58z M52.8,10.2H10.6v43.4c0,2.6-2.2,4.4-4.4,4.4c-2.6,0-4.4-1.8-4.4-4.4V5.8
	c0-2.6,2.2-4.4,4.4-4.4h47c2.6,0,4.4,1.8,4.4,4.4S55.4,10.2,52.8,10.2z M5.8,143.5c2.6,0,4.4,1.8,4.4,4.4v41.5h42.6
	c2.6,0,4.4,1.8,4.4,4.4c0,2.6-2.2,4.4-4.4,4.4h-47c-2.6,0-4.4-1.8-4.4-4.4v-45.6C1.5,145.7,3.3,143.5,5.8,143.5L5.8,143.5z M206,200
	h-51.8c-3.2,0-5.8-2.6-5.9-5.8c0-3.2,2.6-5.8,5.8-5.9c0,0,0,0,0.1,0h45.6v-40.1c0-3.2,2.6-5.8,5.8-5.8c3.2,0,5.8,2.6,5.8,5.8v45.9
	C211.8,197.4,209.3,200,206,200L206,200z M208.9,148.2c0-1.6-1.3-2.9-2.9-2.9s-2.9,1.3-2.9,2.9l0,0v43h-48.8c-1.6,0-2.9,1.3-2.9,2.9
	c0,1.6,1.3,2.9,2.9,2.9l0,0h51.4c1.6,0,2.9-1.2,2.9-2.8c0,0,0-0.1,0-0.1v-45.9H208.9z M205.8,59.4c-3.2,0-5.8-2.5-5.8-5.7
	c0-0.1,0-0.1,0-0.2V11.7h-45.9c-3.2,0-5.8-2.5-5.8-5.7c0-0.1,0-0.1,0-0.2c0-3.2,2.5-5.8,5.7-5.8c0.1,0,0.1,0,0.2,0h51.4
	c3.6,0,6.2,2.6,6.2,5.8v47.7c0,3.2-2.5,5.8-5.7,5.8C205.9,59.4,205.9,59.4,205.8,59.4L205.8,59.4z M208.7,5.8c0-1.6-1.2-2.9-2.8-2.9
	c0,0-0.1,0-0.1,0h-51.8c-1.6,0-2.9,1.2-2.9,2.8c0,0,0,0.1,0,0.1c0,1.6,1.2,2.9,2.8,2.9c0,0,0.1,0,0.1,0h48.5v44.8
	c0,1.6,1.3,2.9,2.9,2.9c1.6,0,2.9-1.3,2.9-2.9V5.8L208.7,5.8z M52.8,11.7H12v41.9c0,3.2-2.5,5.8-5.7,5.8c-0.1,0-0.1,0-0.2,0
	c-3.2,0-5.8-2.5-5.8-5.7c0-0.1,0-0.1,0-0.2V5.8C0,2.6,2.6,0,5.8,0h47c3.2,0,5.8,2.5,5.8,5.7c0,0.1,0,0.1,0,0.2
	C59,9.1,56.1,11.7,52.8,11.7z M52.8,2.9h-47c-1.6,0-2.9,1.2-2.9,2.8c0,0,0,0.1,0,0.1v47.7c0,1.6,1.2,2.9,2.8,2.9c0,0,0.1,0,0.1,0
	c1.6,0,2.9-1.2,2.9-2.8c0,0,0-0.1,0-0.1V8.7h44.1c1.6,0,2.9-1.2,2.9-2.8c0,0,0-0.1,0-0.1C56.1,4,54.7,2.9,52.8,2.9z M5.8,142.4
	c3.2,0,5.8,2.5,5.8,5.7c0,0.1,0,0.1,0,0.2v40.1h41.2c3.2,0,5.8,2.6,5.9,5.8c0,3.2-2.6,5.8-5.8,5.9c0,0,0,0-0.1,0h-47
	c-3.2,0-5.8-2.5-5.8-5.7c0-0.1,0-0.1,0-0.2v-45.9c0-3.2,2.5-5.8,5.7-5.8C5.7,142.4,5.8,142.4,5.8,142.4L5.8,142.4z M2.9,194.2
	c0,1.6,1.2,2.9,2.8,2.9c0,0,0.1,0,0.1,0h47c1.6,0,2.9-1.3,2.9-2.9s-1.3-2.9-2.9-2.9H9.1v-43c0-1.6-1.2-2.9-2.8-2.9c0,0-0.1,0-0.1,0
	c-1.6,0-2.9,1.2-2.9,2.8c0,0,0,0.1,0,0.1v45.9L2.9,194.2z"/>
<path d="M124.8,63.8H83.6c-5.4-0.1-10.6,1.9-14.5,5.6c-3.8,3.6-6,8.5-5.9,13.8l2.4,39c0.1,8.2,5.5,15.5,13.4,18v28.1
	c0.7,12.8,10.9,22.9,23.7,23.7c13.9,0.8,25.7-9.8,26.5-23.7v-28.1c7.7-2.4,13.1-9.5,13.3-17.7l2.5-39.8
	C144.4,71.9,135.5,63.6,124.8,63.8z M132.2,122.1c-0.1,4.9-3.9,8.9-8.8,9.2l-4.7,0.5v36.4c0.4,5.4-2.3,10.5-7,13.1
	c-4.8,2.8-10.8,2.8-15.6,0c-4.7-2.6-7.5-7.8-7-13.1v-36.4l-4.5-0.5c-5-0.3-8.9-4.5-8.9-9.5L73,83.2c-0.2-2.7,0.8-5.4,2.9-7.3
	c2.1-1.9,4.9-2.9,7.7-2.7h41.5v0c5.2-0.2,9.5,3.8,9.8,9L132.2,122.1z"/>
<path d="M122.8,18c-8.3-7.6-20.2-9.8-30.7-5.5c-10.3,3.9-17,13.7-17.1,24.7c0.1,14.5,12.6,26.3,28,26.2h0
	c11.1,0.2,21.3-6.3,25.9-16.4C133.3,36.9,130.8,25.3,122.8,18z M102.3,55.6c-9.8-0.4-17.4-8.7-16.9-18.5c0-4.5,1.9-8.8,5.2-11.9
	c3.4-3.2,7.9-4.9,12.5-4.9v-0.2c0.3,0,0.5,0,0.8,0c9.8,0.4,17.4,8.7,16.9,18.5S112.1,56,102.3,55.6z"/>
</svg>
