<?xml version="1.0" standalone="no"?><!DOCTYPE svg PUBLIC "-//W3C//DTD SVG 1.1//EN" "http://www.w3.org/Graphics/SVG/1.1/DTD/svg11.dtd"><svg t="1631600349624" class="icon" viewBox="0 0 1083 1024" version="1.1" xmlns="http://www.w3.org/2000/svg" p-id="4266" xmlns:xlink="http://www.w3.org/1999/xlink" width="211.5234375" height="200"><defs><style type="text/css"></style></defs><path d="M843.572449 479.461356v-23.207942c0-204.215491-134.589665-315.595214-301.716248-315.595214S240.139952 252.037922 240.139952 456.253414v32.538919c0 9.329977 0 13.878965 4.664988 18.543954 18.659954 190.336526 143.919642 375.891064 297.051261 375.891064S820.363507 692.890825 838.907461 507.336287c4.664988-9.329977 4.664988-13.878965 4.664988-18.543954v-9.329977z m-278.507306 78.957803V419.165506c143.918642 4.664988 222.759445 41.752896 232.089422 64.961838v4.664989c-9.213977 27.873931-88.17078 64.961838-232.089422 69.626826zM291.339824 493.457321v-9.329977c9.329977-23.209942 88.16978-60.29685 227.423434-64.961838v139.253653c-134.704665-4.664988-218.209457-41.752896-227.423434-64.961838z m501.148753-69.626826c-51.081873-27.873931-139.252653-46.417884-227.423434-46.417885V187.076084c130.039676 9.329977 218.210457 102.165746 227.424434 236.754411zM518.648258 187.076084v185.671538c-88.17078 4.664988-176.341561 18.543954-227.424433 46.417884 13.994965-129.923676 97.500757-218.210457 227.424433-232.089422zM300.552802 558.419159c51.082873 27.873931 134.589665 41.752896 218.094456 46.417885v232.089422c-97.384757-18.659954-185.555538-139.253653-218.094456-278.507307z m264.512341 278.390307V604.721044c83.505792 0 167.127584-18.543954 218.093457-46.417884-27.756931 143.919642-120.5927 259.963353-218.093457 278.507306z" p-id="4267"></path><path d="M1054.784923 1016.533019H789.806583c-13.061967 0-22.391944-9.329977-22.391944-22.391945s11.195972-22.392944 22.391944-22.392944h240.719401v-212.72947c0-13.061967 11.196972-22.391944 22.392944-22.391944 13.062967 0 22.392944 9.329977 22.392944 22.391944v235.122414c1.865995 13.061967-7.463981 22.391944-20.526949 22.391945z m-0.932997-719.827208c-13.061967 0-22.391944-9.329977-22.391945-22.391944V52.25442H788.873586c-13.061967 0-22.391944-9.329977-22.391945-22.392944s11.195972-22.391944 22.391945-22.391945h263.112344c13.062967 0 22.392944 9.329977 22.392945 22.391945v244.452391c1.865995 13.061967-7.463981 22.391944-20.526949 22.391944zM270.579876 52.25442H54.118415v222.059447c0 13.061967-11.195972 22.391944-22.392944 22.391944-13.061967 0-22.391944-9.329977-22.391944-22.391944V29.861476c0-13.061967 11.195972-22.391944 22.391944-22.391945h240.719401c13.062967 0 22.392944 9.329977 22.392944 22.391945s-11.195972 22.392944-24.25794 22.392944zM29.860476 734.76072c13.061967 0 22.391944 9.329977 22.391944 22.391945v212.72947H270.579876c13.061967 0 22.391944 9.329977 22.391944 22.392944s-11.195972 22.391944-22.391944 22.391944H29.860476c-13.062967 0-22.392944-9.329977-22.392945-22.391944V759.01866c0-13.061967 9.329977-24.25794 22.391945-24.25794z m1024.924447 289.23628H789.806583a29.856926 29.856926 0 1 1 0-59.712851h233.255419V759.01866a29.856926 29.856926 0 1 1 59.713852 0v235.122414c1.865995 16.793958-11.195972 29.855926-27.989931 29.855926z m14.928963-264.97834a14.927963 14.927963 0 1 0-29.856925 0v220.193452h-250.049378a14.927963 14.927963 0 1 0 0 29.856925h263.111345a14.717963 14.717963 0 0 0 14.928963-14.927963V759.01866z m-15.86196-454.848867a29.471927 29.471927 0 0 1-29.856926-29.855926V59.718401H788.873586a29.471927 29.471927 0 0 1-29.856926-29.856925A29.471927 29.471927 0 0 1 788.873586 0.00555h263.112344c18.659954 0 31.722921 13.061967 31.722921 29.855926v244.452391a29.471927 29.471927 0 0 1-29.856925 29.856926z m14.928962-274.308317a14.717963 14.717963 0 0 0-14.928962-14.927963H788.873586a14.717963 14.717963 0 0 0-14.927963 14.927963 14.717963 14.717963 0 0 0 14.927963 14.928962h248.184381v229.523429a14.927963 14.927963 0 1 0 29.856926 0V29.861476zM270.579876 59.718401H61.582397v214.595466a29.471927 29.471927 0 0 1-29.856926 29.856926A29.471927 29.471927 0 0 1 1.870545 274.313867V29.861476C0.00355 13.067517 13.065517 0.00555 29.859476 0.00555h240.7194a29.471927 29.471927 0 0 1 29.857926 29.855926c1.865995 16.794958-13.062967 29.856926-29.856926 29.856925z m0-44.784888H29.860476A14.717963 14.717963 0 0 0 14.930513 29.861476v244.452391a14.717963 14.717963 0 0 0 14.927963 14.927963 14.717963 14.717963 0 0 0 14.928962-14.927963V44.790438H270.579876a14.717963 14.717963 0 0 0 14.927963-14.928962c1.865995-9.329977-5.597986-14.927963-14.927963-14.927963zM29.860476 729.161734a29.471927 29.471927 0 0 1 29.855925 29.856926v205.265489H270.579876a29.856926 29.856926 0 1 1 0 59.712851H29.860476A29.471927 29.471927 0 0 1 0.00255 994.141074V759.01866a29.471927 29.471927 0 0 1 29.855926-29.855926zM14.930513 994.142074a14.717963 14.717963 0 0 0 14.927963 14.927963h240.7194a14.927963 14.927963 0 1 0 0-29.856925H46.655434V759.01866a14.717963 14.717963 0 0 0-14.928963-14.927963 14.717963 14.717963 0 0 0-14.927963 14.927963v235.122414z" p-id="4268"></path></svg>