<?xml version="1.0" standalone="no"?><!DOCTYPE svg PUBLIC "-//W3C//DTD SVG 1.1//EN" "http://www.w3.org/Graphics/SVG/1.1/DTD/svg11.dtd"><svg t="1635471412133" class="icon" viewBox="0 0 1024 1024" version="1.1" xmlns="http://www.w3.org/2000/svg" p-id="6759" xmlns:xlink="http://www.w3.org/1999/xlink" width="32" height="32"><defs><style type="text/css"></style></defs><path d="M740.221842 650.449235c15.585977-2.709715 26.021653-17.539468 23.311939-33.122375-9.233292-53.105498-38.59297-99.43978-82.671884-130.462331-44.078914-31.024597-97.614202-43.022862-150.706397-33.791617-63.438844 11.030218-118.266567 52.164057-146.666384 110.033046-6.969739 14.19735-1.106194 31.360242 13.093203 38.327934 14.192234 6.970762 31.358195 1.111311 38.327934-13.093203 20.349467-41.463344 59.622936-70.935586 105.055684-78.833463 78.483492-13.634532 153.485697 39.117926 167.134555 117.630071 2.419096 13.925151 14.515598 23.741727 28.181853 23.738657C736.910423 650.875954 738.564086 650.735761 740.221842 650.449235zM882.973056 722.739678c60.984956-42.826388 99.793844-113.548102 99.793844-192.504362 0-110.980627-78.606289-206.862371-185.54895-229.924623C749.245356 177.323615 631.013581 95.860255 497.749438 95.860255c-84.630493 0-164.515914 32.616862-224.946238 91.842755-55.183833 54.084803-88.542592 124.833123-95.246271 201.093994C100.332103 415.109276 46.295396 488.906026 46.295396 571.996442c0 73.77526 42.059931 138.427746 103.435791 171.018002-41.37534 35.94977-76.797084 81.588203-79.493495 120.80846-1.249457 18.168802 4.777817 34.349319 16.968463 45.554522 11.388375 10.470469 26.189476 14.687514 44.236504 14.687514 29.667693 0 68.102051-11.400654 114.549919-25.178449 43.686988-12.963243 93.204775-27.650757 130.237203-29.210275 4.091178-0.172939 7.936763-1.209548 11.391445-2.904143 40.585347 14.292518 84.923158 22.021549 130.562615 22.021549 57.394175 0 112.538099-12.128225 160.773683-34.104749 2.556219 0.748037 5.252631 1.167592 8.049327 1.167592 33.320896 0 78.623685 11.390421 118.595049 21.441335 40.330544 10.138918 74.159 18.644639 100.789521 18.644639 19.221784 0 34.692127-4.432962 46.14497-15.882736 11.208273-11.208273 16.32378-26.881231 14.407128-44.128033C962.710099 797.833981 924.906098 754.756883 882.973056 722.739678zM229.701542 843.968717c-34.201963 10.149151-84.690868 25.140587-102.263082 22.776749 0.703011-5.622044 4.808516-18.267039 19.073404-37.464263 16.480346-22.180162 40.293705-44.717458 67.24452-63.797002l27.483958 0c17.232476 21.956058 38.161135 41.459251 61.883419 58.128909C278.360775 829.53703 253.242701 836.985676 229.701542 843.968717zM279.195793 720.507848l-8.54256-12.30321-30.736025 0-1.957585-0.024559c-74.098625-0.972141-134.38364-62.062498-134.38364-136.183635 0-63.769372 45.190225-119.757524 107.452267-133.128043l22.122857-4.751211 0.496304-22.621207c1.524726-69.341275 29.667693-134.290519 79.249949-182.88426 49.656957-48.667419 115.305119-75.469855 184.851055-75.469855 114.301256 0 215.150128 72.916706 250.943332 181.442422l5.597485 16.97051 17.701151 2.431376c87.507006 12.027941 153.49593 87.799672 153.49593 176.25119 0 86.874603-62.059428 160.607908-147.559731 175.323051l-12.096503 2.080382-6.834662 10.194176c-47.018873 70.117964-139.29551 113.679086-240.811578 113.679086C418.318364 831.512011 326.742692 788.978289 279.195793 720.507848zM819.569004 821.744553c-20.639063-5.188162-42.590004-10.694573-64.299445-15.044648 16.70138-14.151301 31.608905-29.892821 44.319391-47.063899 8.788154-1.977028 17.346063-4.476965 25.695219-7.379061 0.356111 0.248663 0.692778 0.515746 1.063215 0.750083 50.498114 31.943526 78.724992 69.726038 83.130326 85.717244C892.053875 839.972707 849.048409 829.15636 819.569004 821.744553z" p-id="6760"></path></svg>