<?xml version="1.0" standalone="no"?><!DOCTYPE svg PUBLIC "-//W3C//DTD SVG 1.1//EN" "http://www.w3.org/Graphics/SVG/1.1/DTD/svg11.dtd"><svg t="1631600678599" class="icon" viewBox="0 0 1024 1024" version="1.1" xmlns="http://www.w3.org/2000/svg" p-id="28104" xmlns:xlink="http://www.w3.org/1999/xlink" width="200" height="200"><defs><style type="text/css"></style></defs><path d="M843.093333 910.9504h-90.453333L532.667733 534.698667v-94.037334a123.665067 123.665067 0 1 0-52.906666 0v91.511467l-221.354667 378.7776h-90.453333a26.453333 26.453333 0 0 0 0 52.906667H843.093333a26.453333 26.453333 0 0 0 0-52.906667zM505.480533 593.032533l93.064534 159.266134H412.398933z m-49.152-322.7648a70.5536 70.5536 0 1 1 0 99.771734 70.621867 70.621867 0 0 1 0-99.771734zM381.474133 805.205333h247.995734l61.781333 105.813334H319.6928z" p-id="28105"></path><path d="M337.237333 489.130667a26.453333 26.453333 0 0 0 37.410134-37.410134 186.299733 186.299733 0 0 1 0-263.133866 26.453333 26.453333 0 1 0-37.410134-37.410134C244.053333 244.360533 244.053333 395.946667 337.237333 489.130667z m300.544 0a26.453333 26.453333 0 0 0 37.410134 0c93.166933-93.184 93.166933-244.770133 0-337.92a26.453333 26.453333 0 1 0-37.410134 37.376 186.299733 186.299733 0 0 1 0 263.133866 26.436267 26.436267 0 0 0 0 37.410134z" p-id="28106"></path><path d="M274.261333 578.56a26.453333 26.453333 0 0 0 18.773334-45.1584c-117.572267-117.572267-117.572267-308.906667 0-426.478933a26.453333 26.453333 0 0 0-37.410134-37.410134c-138.24 138.24-138.24 363.093333 0 501.316267a26.350933 26.350933 0 0 0 18.773334 7.7312z m445.201067-45.1584a26.453333 26.453333 0 1 0 37.393067 37.4272c138.24-138.24 138.24-363.093333 0-501.316267a26.453333 26.453333 0 1 0-37.410134 37.410134c117.589333 117.589333 117.589333 308.906667 0 426.478933z" p-id="28107"></path></svg>