<svg t="1644907118988" class="icon" viewBox="0 0 1024 1024" version="1.1" xmlns="http://www.w3.org/2000/svg" p-id="1773"
  width="64" height="64">
  <path
    d="M908.967663 562.106211s-63.514826-9.527224-123.853911-12.702965c-76.217791-6.351483-161.962807-6.351483-238.180598 0-63.514826 3.175741-123.853911 12.702965-123.853911 12.702965l-60.339084 155.611324-41.284637 38.108896v149.259841l38.108895 41.284637h12.702966v63.514826s6.351483 9.527224 12.702965 12.702966c3.175741 0 38.108896 3.175741 60.339085 0 6.351483 0 12.702965-9.527224 12.702965-12.702966v-63.514826h416.022111v63.514826s6.351483 12.702965 12.702965 12.702966c19.054448 3.175741 57.163344 0 60.339085 0 6.351483-3.175741 12.702965-12.702965 12.702965-12.702966v-63.514826h12.702965l38.108896-41.284637v-149.259841l-41.284637-38.108896-60.339085-155.611324zM480.242587 854.274411h-114.326687c-6.351483 0-9.527224-6.351483-9.527224-9.527224v-63.514826c0-6.351483 6.351483-9.527224 9.527224-9.527224h101.623722c6.351483 0 9.527224 6.351483 9.527224 9.527224l12.702965 63.514826c3.175741 3.175741-3.175741 9.527224-9.527224 9.527224z m-92.096498-130.205393l53.987602-133.381135c190.544478-12.702965 254.059304-12.702965 444.603783 0l53.987602 133.381135c-200.071702-9.527224-352.507285-9.527224-552.578987 0z m587.512142 57.163343v63.514826c0 6.351483-6.351483 9.527224-9.527224 9.527224h-114.326687c-6.351483 0-12.702965-6.351483-9.527224-9.527224l12.702965-63.514826c0-6.351483 6.351483-9.527224 9.527224-9.527224h101.623722c3.175741-3.175741 9.527224 3.175741 9.527224 9.527224z m-597.039366-231.829115c6.351483-15.878707 22.230189-28.581672 38.108896-31.757413 15.878707-3.175741 69.866309-9.527224 127.029652-12.702965 50.811861-3.175741 104.799463-3.175741 158.787065-3.175742v-22.230189L661.259841 444.603783l-60.339084-155.611324s-63.514826-9.527224-123.853911-12.702965c-76.217791-6.351483-161.962807-6.351483-238.180598 0-63.514826 3.175741-123.853911 12.702965-123.853911 12.702965l-63.514826 155.611324-41.284637 38.108896v149.259841l38.108895 41.284637h12.702966v63.514826s6.351483 9.527224 12.702965 12.702965c3.175741 0 38.108896 3.175741 60.339085 0 6.351483 0 12.702965-9.527224 12.702965-12.702965v-63.514826h181.017254l50.811861-123.853911zM134.086785 314.398389c190.544478-12.702965 254.059304-12.702965 444.603782 0l53.987603 133.381135c-200.071702-9.527224-352.507285-9.527224-552.578988 0l53.987603-133.381135z m41.284637 263.586529H61.044735c-6.351483 0-9.527224-6.351483-9.527224-9.527224v-63.514826c0-6.351483 6.351483-9.527224 9.527224-9.527224H162.668456c6.351483 0 9.527224 6.351483 9.527224 9.527224l12.702965 63.514826c0 6.351483-6.351483 9.527224-9.527223 9.527224z m301.695424-339.80432c63.514826 3.175741 123.853911 12.702965 127.029652 12.702965 12.702965 0 25.40593 9.527224 28.581672 22.230189l50.811861 133.381135h187.368737v63.514826s6.351483 12.702965 12.702965 12.702966c19.054448 3.175741 57.163344 0 60.339085 0 6.351483-3.175741 12.702965-12.702965 12.702965-12.702966v-63.514826h12.702965l38.108896-41.284637V219.12615l-41.284637-38.108896L908.967663 25.40593s-63.514826-9.527224-123.853911-12.702965c-76.217791-6.351483-161.962807-6.351483-238.180598 0-63.514826 3.175741-123.853911 12.702965-123.853911 12.702965l-60.339084 155.611324L321.455522 219.12615v19.054448c50.811861-3.175741 104.799463 0 155.611324 0z m498.591385 3.175741v63.514826c0 6.351483-6.351483 9.527224-9.527224 9.527224h-114.326687c-6.351483 0-12.702965-6.351483-9.527224-9.527224l12.702965-63.514826c0-6.351483 6.351483-9.527224 9.527224-9.527224h101.623722c3.175741 0 9.527224 3.175741 9.527224 9.527224z m-533.52454-190.544478c190.544478-12.702965 254.059304-12.702965 444.603783 0l53.987602 133.381135c-200.071702-9.527224-352.507285-9.527224-552.578987 0l53.987602-133.381135z"
    fill="#2c2c2c" p-id="1774"></path>
</svg>
