<?xml version="1.0" encoding="utf-8"?>
<!-- Generator: Adobe Illustrator 24.2.3, SVG Export Plug-In . SVG Version: 6.00 Build 0)  -->
<svg version="1.1" id="Layer_1" xmlns="http://www.w3.org/2000/svg" xmlns:xlink="http://www.w3.org/1999/xlink" x="0px" y="0px"
	 viewBox="0 0 211.5 200" style="enable-background:new 0 0 211.5 200;" xml:space="preserve">
<style type="text/css">
	.st0{fill:#2C2C2C;}
</style>
<path d="M206,198.5h-51.8c-2.6,0-4.4-1.8-4.4-4.4s2.2-4.4,4.4-4.4h47v-41.5c0-2.6,2.2-4.4,4.4-4.4c2.6,0,4.4,1.8,4.4,4.4v45.9
	C210.4,196.7,208.6,198.5,206,198.5z M205.8,58c-2.6,0-4.4-1.8-4.4-4.4V10.2h-47.4c-2.6,0-4.4-1.8-4.4-4.4s2.2-4.4,4.4-4.4h51.4
	c2.6,0,4.4,1.8,4.4,4.4v47.7C210.2,56.1,208.4,58,205.8,58z M52.8,10.2H10.6v43.4c0,2.6-2.2,4.4-4.4,4.4c-2.6,0-4.4-1.8-4.4-4.4V5.8
	c0-2.6,2.2-4.4,4.4-4.4h47c2.6,0,4.4,1.8,4.4,4.4S55.4,10.2,52.8,10.2z M5.8,143.5c2.6,0,4.4,1.8,4.4,4.4v41.5h42.6
	c2.6,0,4.4,1.8,4.4,4.4c0,2.6-2.2,4.4-4.4,4.4h-47c-2.6,0-4.4-1.8-4.4-4.4v-45.6C1.5,145.7,3.3,143.5,5.8,143.5L5.8,143.5z M206,200
	h-51.8c-3.2,0-5.8-2.6-5.9-5.8c0-3.2,2.6-5.8,5.8-5.9c0,0,0,0,0.1,0h45.6v-40.1c0-3.2,2.6-5.8,5.8-5.8c3.2,0,5.8,2.6,5.8,5.8v45.9
	C211.8,197.4,209.3,200,206,200L206,200z M208.9,148.2c0-1.6-1.3-2.9-2.9-2.9s-2.9,1.3-2.9,2.9l0,0v43h-48.8c-1.6,0-2.9,1.3-2.9,2.9
	c0,1.6,1.3,2.9,2.9,2.9l0,0h51.4c1.6,0,2.9-1.2,2.9-2.8c0,0,0-0.1,0-0.1v-45.9H208.9z M205.8,59.4c-3.2,0-5.8-2.5-5.8-5.7
	c0-0.1,0-0.1,0-0.2V11.7h-45.9c-3.2,0-5.8-2.5-5.8-5.7c0-0.1,0-0.1,0-0.2c0-3.2,2.5-5.8,5.7-5.8c0.1,0,0.1,0,0.2,0h51.4
	c3.6,0,6.2,2.6,6.2,5.8v47.7c0,3.2-2.5,5.8-5.7,5.8C205.9,59.4,205.9,59.4,205.8,59.4L205.8,59.4z M208.7,5.8c0-1.6-1.2-2.9-2.8-2.9
	c0,0-0.1,0-0.1,0h-51.8c-1.6,0-2.9,1.2-2.9,2.8c0,0,0,0.1,0,0.1c0,1.6,1.2,2.9,2.8,2.9c0,0,0.1,0,0.1,0h48.5v44.8
	c0,1.6,1.3,2.9,2.9,2.9c1.6,0,2.9-1.3,2.9-2.9V5.8L208.7,5.8z M52.8,11.7H12v41.9c0,3.2-2.5,5.8-5.7,5.8c-0.1,0-0.1,0-0.2,0
	c-3.2,0-5.8-2.5-5.8-5.7c0-0.1,0-0.1,0-0.2V5.8C0,2.6,2.6,0,5.8,0h47c3.2,0,5.8,2.5,5.8,5.7c0,0.1,0,0.1,0,0.2
	C59,9.1,56.1,11.7,52.8,11.7z M52.8,2.9h-47c-1.6,0-2.9,1.2-2.9,2.8c0,0,0,0.1,0,0.1v47.7c0,1.6,1.2,2.9,2.8,2.9c0,0,0.1,0,0.1,0
	c1.6,0,2.9-1.2,2.9-2.8c0,0,0-0.1,0-0.1V8.7h44.1c1.6,0,2.9-1.2,2.9-2.8c0,0,0-0.1,0-0.1C56.1,4,54.7,2.9,52.8,2.9z M5.8,142.4
	c3.2,0,5.8,2.5,5.8,5.7c0,0.1,0,0.1,0,0.2v40.1h41.2c3.2,0,5.8,2.6,5.9,5.8c0,3.2-2.6,5.8-5.8,5.9c0,0,0,0-0.1,0h-47
	c-3.2,0-5.8-2.5-5.8-5.7c0-0.1,0-0.1,0-0.2v-45.9c0-3.2,2.5-5.8,5.7-5.8C5.7,142.4,5.8,142.4,5.8,142.4L5.8,142.4z M2.9,194.2
	c0,1.6,1.2,2.9,2.8,2.9c0,0,0.1,0,0.1,0h47c1.6,0,2.9-1.3,2.9-2.9s-1.3-2.9-2.9-2.9H9.1v-43c0-1.6-1.2-2.9-2.8-2.9c0,0-0.1,0-0.1,0
	c-1.6,0-2.9,1.2-2.9,2.8c0,0,0,0.1,0,0.1v45.9L2.9,194.2z"/>
<path class="st0" d="M167.3,71.4c-0.4-3.6-2.8-6.3-5.9-6.7l-22.5-5.1c-19.4-4.3-39.9-4.3-59.3-0.4l-25.7,5.5
	c-3.2,0.8-5.9,3.6-5.9,6.7C36.1,72.6,27,82.5,27,94.4v15c0,11.9,9.1,21.7,21.3,22.9c0.4,2.8,2.8,5.1,5.5,5.9l25.3,5.9
	c9.9,2,19.8,3.2,29.6,3.2c10.7,0,21.3-1.2,31.6-3.6l21.7-5.5c2.8-0.4,5.1-2.8,5.5-5.9c11.9-0.8,21.3-11.1,21.3-22.9v-15
	C188.6,82.5,179.5,72.6,167.3,71.4z M37.7,109.4v-15c0-5.5,4-10.7,9.9-11.5v37.9C42,119.7,37.7,114.9,37.7,109.4z M137.2,132.3
	c-18.6,4.3-37.5,4.3-56.1,0.4l-21.7-5.1V75l22.5-5.1c17.8-4,36.4-3.6,54.1,0.4l19.4,4.3v52.9L137.2,132.3z M177.5,109.4
	c0,5.5-4,10.7-9.9,11.5V82.9c5.5,0.8,9.9,5.9,9.9,11.5V109.4z"/>
<path class="st0" d="M125.8,87.6c-13-4-26.9-4-39.9,0l-4-11.9c15.4-4.7,32-4.7,47.4,0L125.8,87.6z"/>
</svg>
