<svg t="1640332109280" class="icon" viewBox="0 0 1587 1024" version="1.1" xmlns="http://www.w3.org/2000/svg" p-id="2645"
  width="32" height="32">
  <path
    d="M92.825507 121.012103C-36.095964 214.708009-9.267191 459.597364 143.385457 669.670754c152.627047 210.09899 377.266823 311.295689 506.188293 217.650983 128.921471-93.695906 102.092698-338.585261-50.559949-548.684252C448.409152 131.354493 227.737372 30.055394 98.047902 117.376907l-5.196795 3.635196z m464.767535 247.730952c138.239862 190.23341 161.715038 404.607595 61.875139 477.157923-99.8399 72.524727-296.447704-16.076784-434.687566-206.335794C46.591953 449.382975 23.116777 235.008789 122.956677 162.458462c99.8399-72.524727 296.447704 16.051184 434.687565 206.310193zM988.056612 338.637485c-152.627047 210.09899-179.455821 455.013945-50.53435 548.684252 128.921471 93.670306 353.535646-7.551992 506.188294-217.650983 152.627047-210.07339 179.455821-454.988345 50.55995-548.658651-128.947071-93.670306-353.561246 7.526392-506.213894 217.625382z m476.108324-176.204623c99.8399 72.550327 76.339124 286.898913-61.875138 477.157922-138.239862 190.23341-334.847665 278.834921-434.687566 206.310194-99.8399-72.550327-76.339124-286.924513 61.875139-477.183523 136.191864-187.391813 328.985271-276.146924 430.156369-209.40779l4.531196 3.123197z"
    fill="#2c2c2c" p-id="2646"></path>
  <path
    d="M313.983686 114.765709A1276.414724 1276.414724 0 0 1 784.306416 25.600998c162.559837 0 325.119675 29.87517 487.653912 89.651111a51.199949 51.199949 0 0 1 33.535967 48.051152v580.863419a51.199949 51.199949 0 0 1-18.585582 39.42396C1113.752486 926.822497 946.226254 998.400026 784.306416 998.400026c-161.919838 0-323.762876-71.603128-485.554715-214.834986a51.199949 51.199949 0 0 1-17.254382-38.348761V162.407262a51.199949 51.199949 0 0 1 32.486367-47.641553z"
    fill="#2c2c2c" p-id="2647"></path>
  <path
    d="M1271.960328 115.252109a51.199949 51.199949 0 0 1 33.535967 48.051152v580.863419a51.199949 51.199949 0 0 1-18.585582 39.42396c-141.900658 117.375883-280.06372 186.623813-414.386786 207.820593-120.908679-283.391717-105.727894-657.663342-49.63835-965.247035 149.68305 4.351996 299.391701 34.047966 449.074751 89.087911z"
    fill="#2c2c2c" p-id="2648"></path>
  <path
    d="M887.602312 119.194505a12.799987 12.799987 0 1 1-1.971198 25.523174 1316.939483 1316.939483 0 0 0-101.324698-3.916796 12.799987 12.799987 0 1 1 0-25.599974c34.431966 0 68.863931 1.331199 103.295896 3.993596z m179.046221 25.779174a12.799987 12.799987 0 1 1-5.273594 25.036775 1373.822626 1373.822626 0 0 0-99.9679-17.279983 12.799987 12.799987 0 1 1 3.430396-25.343974c33.945566 4.556795 67.865532 10.41919 101.811098 17.587182z m175.001425 48.332752a12.799987 12.799987 0 0 1-8.294391 24.243175 1502.897697 1502.897697 0 0 0-97.126303-29.61917 12.799987 12.799987 0 0 1 6.655993-24.729575c32.921567 8.831991 65.843134 18.867181 98.764701 30.10557z m76.646324 156.031844a12.799987 12.799987 0 0 1-25.599975 0l-0.0512-85.580715a38.297562 38.297562 0 0 0-3.276796-13.695986 12.799987 12.799987 0 1 1 23.372776-10.41919c3.199997 7.167993 5.068795 14.899185 5.478395 23.449577l0.0768 86.246314z m0 179.19982a12.799987 12.799987 0 1 1-25.599975 0v-102.399897a12.799987 12.799987 0 0 1 25.599975 0v102.399897z m0 179.199821a12.799987 12.799987 0 1 1-25.599975 0v-102.399897a12.799987 12.799987 0 0 1 25.599975 0v102.399897z m-102.655898 146.713454a12.799987 12.799987 0 0 1-14.796785-20.88958 1286.910713 1286.910713 0 0 0 62.361538-47.155152l15.718384-12.799988c0.639999-0.511999 1.228799-1.075199 1.817598-1.612798a12.799987 12.799987 0 0 1 17.663983 18.559981l-3.071997 2.713598a1341.387459 1341.387459 0 0 1-79.692721 61.183939z m-156.467043 91.903908a12.799987 12.799987 0 1 1-10.751989-23.244777 901.221499 901.221499 0 0 0 88.959911-47.743952 12.799987 12.799987 0 0 1 13.311986 21.862378 926.770273 926.770273 0 0 1-91.519908 49.100751z m-173.619027 55.859144a12.799987 12.799987 0 1 1-4.454395-25.215975 633.804166 633.804166 0 0 0 97.100703-25.446375 12.799987 12.799987 0 1 1 8.371191 24.191976 659.378541 659.378541 0 0 1-101.017499 26.470374z m-182.630217 3.071997a12.799987 12.799987 0 0 1 3.660796-25.318375 541.311459 541.311459 0 0 0 98.150302 5.247995 12.799987 12.799987 0 0 1 0.972799 25.599974 564.786635 564.786635 0 0 1-102.783897-5.503994z m-175.001425-52.659148a12.799987 12.799987 0 0 1 10.649589-23.295976 653.055347 653.055347 0 0 0 94.207906 34.867165 12.799987 12.799987 0 0 1-6.963193 24.627175 678.604121 678.604121 0 0 1-97.894302-36.198364z m-156.159844-93.363106a12.799987 12.799987 0 1 1 15.180785-20.58238 930.763869 930.763869 0 0 0 84.300716 55.654345 12.799987 12.799987 0 0 1-12.876787 22.118378 956.312644 956.312644 0 0 1-86.630314-57.190343z m-103.065497-147.097453a12.799987 12.799987 0 1 1 25.599975 0v33.049567c0 11.007989 4.710395 21.452779 12.927987 28.748771 6.323194 5.606394 12.646387 11.084789 18.943981 16.460784a12.799987 12.799987 0 0 1-16.563184 19.50718 1284.350716 1284.350716 0 0 1-19.35358-16.793583 63.999936 63.999936 0 0 1-21.555179-47.923152v-33.023967z m0-179.199821a12.799987 12.799987 0 1 1 25.599975 0v102.399898a12.799987 12.799987 0 1 1-25.599975 0v-102.399898z m0-179.199821a12.799987 12.799987 0 1 1 25.599975 0v102.399898a12.799987 12.799987 0 1 1-25.599975 0v-102.399898z m71.347129-160.15344a12.799987 12.799987 0 1 1 8.780791 24.063976c-10.08639 3.660796-20.14718 7.449593-30.15677 11.391989a38.399962 38.399962 0 0 0-24.371175 35.737564v12.159988a12.799987 12.799987 0 1 1-25.599975 0v-12.159988a63.999936 63.999936 0 0 1 40.60156-59.57114c10.23999-3.993596 20.47998-7.884792 30.745569-11.622389z m173.823826-50.07355a12.799987 12.799987 0 1 1 5.350395 25.036775 1262.846737 1262.846737 0 0 0-98.227102 25.139175 12.799987 12.799987 0 1 1-7.321593-24.524775 1288.446712 1288.446712 0 0 1 100.1983-25.651175z m179.68622-25.215974a12.799987 12.799987 0 1 1 1.766399 25.523174 1261.489939 1261.489939 0 0 0-100.7871 11.033589 12.799987 12.799987 0 0 1-3.788796-25.318375c34.022366-5.119995 68.300732-8.857591 102.809497-11.263988zM797.055203 128.000896a12.799987 12.799987 0 0 1-12.799987 12.799987l-12.979187 0.0768a12.799987 12.799987 0 0 1-0.256-25.599974l13.235187-0.0768a12.799987 12.799987 0 0 1 12.799987 12.799987z"
    fill="#2c2c2c" p-id="2649"></path>
  <path
    d="M784.306416 0.001024A1302.014698 1302.014698 0 0 0 304.639695 90.932133a76.799923 76.799923 0 0 0-48.742351 71.475129V745.216279a76.799923 76.799923 0 0 0 25.881574 57.497542C447.922752 949.811274 615.602584 1024 784.306416 1024c168.447832 0 341.503658-73.932726 518.911481-220.671779a76.799923 76.799923 0 0 0 27.878372-59.161541V163.303261a76.799923 76.799923 0 0 0-50.30395-72.089528C1115.467685 30.464994 949.93825 0.001024 784.306416 0.001024z m0 51.199949c159.487841 0 319.052481 29.337571 478.821921 88.063912a25.599974 25.599974 0 0 1 16.767983 24.038376v580.863419a25.599974 25.599974 0 0 1-9.292791 19.71198C1101.694898 903.55212 939.64706 972.800051 784.306416 972.800051c-155.110245 0-311.167689-69.043131-468.581932-208.409391a25.599974 25.599974 0 0 1-8.627191-19.174381V162.407262a25.599974 25.599974 0 0 1 16.230384-23.807977A1250.814749 1250.814749 0 0 1 784.306416 51.200973z"
    fill="#2c2c2c" p-id="2650"></path>
  <path
    d="M780.799219 307.200717a25.599974 25.599974 0 0 1 25.599975 25.599974v166.399834H972.799027a25.599974 25.599974 0 0 1 0 51.199949h-166.425433L806.399194 716.800307a25.599974 25.599974 0 0 1-51.199949 0l-0.0256-166.399833H588.799411a25.599974 25.599974 0 0 1 0-51.199949h166.399834V332.800691a25.599974 25.599974 0 0 1 25.599974-25.599974z"
    fill="#2c2c2c" p-id="2651"></path>
</svg>
