<?xml version="1.0" encoding="utf-8"?>
<!-- Generator: Adobe Illustrator 24.2.3, SVG Export Plug-In . SVG Version: 6.00 Build 0)  -->
<svg version="1.1" id="Layer_1" xmlns="http://www.w3.org/2000/svg" xmlns:xlink="http://www.w3.org/1999/xlink" x="0px" y="0px"
	 viewBox="0 0 200 200" style="enable-background:new 0 0 200 200;" xml:space="preserve">
<g>
	<path d="M181,120.8l-34-67c-2.3-4.5-6.8-7.6-11.9-8l-6.2-0.5V29.4c0-6.9-2.7-13.4-7.6-18.3c-4.9-4.9-11.4-7.6-18.3-7.6
		c-14.3,0-25.9,11.6-25.9,25.9v15.8l-6.2,0.5c-5.1,0.4-9.6,3.5-11.9,8l-34,67c-1,2-0.3,4.4,1.7,5.5l17.9,10.2c1,0.6,2.1,0.7,3.2,0.4
		c1.1-0.3,2-1,2.5-2l17.9-32.2l2,17.3l-9.1,73.4c-0.1,1.1,0.2,2.2,0.9,3c0.7,0.9,1.7,1.4,2.8,1.5c0.1,0,0.3,0,0.4,0h26.2
		c2,0,3.8-1.5,4.1-3.5l7.6-34.3l7.6,34.2c0.3,2,2.1,3.6,4.1,3.6h26.2c2.3,0,4.2-1.9,4.2-4.2c0-0.1,0-0.3,0-0.4l-9.1-73.4l2-17.3
		l17.9,32.3c0.5,1,1.4,1.7,2.5,2c1.1,0.3,2.2,0.2,3.2-0.4l17.9-10.2C181.3,125.2,182.1,122.7,181,120.8z M49.3,119.2l-4.4,7.9
		L34.2,121l4.1-8.1L49.3,119.2z M131.1,88.8l-3.6,30.6c0,0.3,0,0.6,0,0.9l8.7,69.3h-18l-11.1-57V64.3c7.6-1,14.7-5,19.5-10.9
		l7.7,0.7c2.2,0.2,4.2,1.5,5.2,3.5l24.3,48l-11.3,6.4l-13.7-24.7c-0.9-1.6-2.7-2.4-4.5-2.1C132.7,85.5,131.4,87,131.1,88.8z
		 M120.6,29.4v18.3c-7.5,9.6-21.5,11.3-31.1,4c-1.5-1.1-2.9-2.5-4-4V29.4c0-9.7,7.9-17.6,17.6-17.6
		C112.7,11.8,120.6,19.7,120.6,29.4z M78.4,120.3c0-0.3,0-0.6,0-0.9l-3.6-30.6c-0.1-1.1-0.7-2.1-1.6-2.8c-0.9-0.7-2-1-3.1-0.9
		c-1.3,0.2-2.5,0.9-3.2,2.1L53.4,112L42,105.5l24.3-48c1-2,3-3.3,5.2-3.5l7.7-0.7c4.9,5.9,11.9,9.9,19.5,10.9l0,68.1l-11.1,57.2h-18
		L78.4,120.3z M171.8,121l-10.8,6.1l-4.4-7.9l11.1-6.3L171.8,121z"/>
	<path d="M97.6,25.6c-2.8,0-5.4,1.2-7.3,3.1c-1.9,2-3,4.6-2.9,7.4c0.1,5.7,4.6,10.2,10.3,10.3h0h10.7c2.8,0,5.4-1.2,7.3-3.2
		s3-4.6,2.9-7.4c-0.1-5.7-4.6-10.2-10.3-10.3H97.6z"/>
</g>
</svg>
