<?xml version="1.0" standalone="no"?><!DOCTYPE svg PUBLIC "-//W3C//DTD SVG 1.1//EN" "http://www.w3.org/Graphics/SVG/1.1/DTD/svg11.dtd"><svg t="1631600641258" class="icon" viewBox="0 0 1025 1024" version="1.1" xmlns="http://www.w3.org/2000/svg" p-id="25671" xmlns:xlink="http://www.w3.org/1999/xlink" width="200.1953125" height="200"><defs><style type="text/css"></style></defs><path d="M606.291 238.743c15.552-41.343 49.437-84.718 98.312-79.822 69.383 2.255 110.515 96.674 59.996 146.407-54.006 47.176-131.108 52.616-188.832 93.567-18.49 19.584-24.335 47.164-34.513 71.499 78.026-22.244 152.856-54.478 226.15-88.907 72.345-32.253 104.138-127.603 69.087-197.784-30.778-68.065-114.958-106.683-185.816-80.118-54.544 17.106-86.81 68.628-106.617 119.056-30.33 76.334-61.918 152.13-93.47 227.945-75.832 31.576-151.635 63.17-227.957 93.476-50.422 19.808-101.956 52.06-119.056 106.617-26.559 70.87 12.07 155.014 80.13 185.81 70.157 35.051 165.525 3.252 197.766-69.087 34.435-73.3 66.67-148.118 88.919-226.138-24.347 10.172-51.921 16.005-71.517 34.495-40.933 57.736-46.379 134.844-93.555 188.838-49.74 50.531-144.158 9.405-146.413-59.99-4.902-48.887 38.473-82.766 79.834-98.318 87.07-35.07 173.782-71.045 260.537-107.028v0.013l107.015-260.53zM873.017 707.284c-79.556 23.453-142.278 86.211-165.664 165.803 17.71 7.211 35.384 14.555 53.021 21.96 17.015-65.824 68.791-117.63 134.59-134.717-7.374-17.668-14.718-35.33-21.947-53.046zM860.306 644.725c-6.782-16.537-13.842-33.062-21.917-48.977-113.773 38.738-203.9 128.89-242.579 242.675 15.849 8.13 32.362 15.292 48.93 22.044 32.93-102.03 113.573-182.715 215.566-215.742zM909.132 823.675c-44.638 5.428-80.033 40.92-85.328 85.588 45.617 18.804 91.5 36.961 138.3 52.737-15.999-46.753-34.174-92.654-52.972-138.325z" p-id="25672"></path><path d="M802.709 542.176c-61.139-49.739-154.917-53.498-219.429-7.682-76.485 49.606-103.848 158.399-60.576 238.493 5.488 10.958 12.119 20.726 19.475 29.72 48.506-117.775 142.75-212.018 260.53-260.53zM124.217 268.814l61.205-0.32 7.435 6.129c-32.235 66.155-20.926 148.195 34.041 203.157l250.89-250.89c-54.968-54.955-137.002-66.27-203.163-34.03l-6.13-7.434 0.321-61.205c15.262-6.927 22.938-24.498 17.227-40.546-6.045-16.96-24.674-25.81-41.628-19.771-16.948 6.026-25.803 24.667-19.753 41.61a32.425 32.425 0 0 0 14.174 17.16l-0.387 73.45 10.137 12.307a178.162 178.162 0 0 0-21.7 18.46 178.702 178.702 0 0 0-18.46 21.699l-12.305-10.137-73.464 0.381c-3.747-6.377-9.653-11.515-17.154-14.186-16.942-6.045-35.589 2.817-41.609 19.765-6.032 16.966 2.823 35.59 19.777 41.621 16.06 5.724 33.625-1.94 40.546-17.22z" p-id="25673"></path></svg>