<svg t="1644907675651" class="icon" viewBox="0 0 1024 1024" version="1.1" xmlns="http://www.w3.org/2000/svg" p-id="4281"
  width="64" height="64">
  <path
    d="M758.090187 673.781265h-7.314151a37.431241 37.431241 0 0 0-9.895615 74.001993c156.608869 27.105381 209.098655 74.001993 209.098655 91.211759 0 39.152217-166.504485 111.00299-437.988541 111.00299h-8.604883c-266.321127 0-430.244147-72.711261-430.244147-111.00299 0-17.64001 49.478077-62.385401 202.214749-90.781515h9.895615a37.431241 37.431241 0 1 0-15.919033-73.141505C146.713254 695.723716 0 743.480816 0 838.134529c0 118.747385 249.971849 183.284007 496.931989 185.865471h15.058546c254.274291 0 511.990535-64.106378 511.990534-185.865471 0-100.67713-167.795217-145.852766-265.890882-164.353264zM514.141755 246.979071h4.302442a123.48007 123.48007 0 0 0-4.302442-246.96014 123.049826 123.049826 0 0 0-123.48007 119.607873v8.174638a123.48007 123.48007 0 0 0 123.48007 119.177629z m-55.931739-122.189338a53.780518 53.780518 0 1 1 53.780519 52.489786 53.780518 53.780518 0 0 1-53.780519-52.489786z"
    p-id="4282" fill="#2c2c2c"></path>
  <path
    d="M372.591431 638.071h22.372696l18.930742 199.20304v3.441953a86.048829 86.048829 0 0 0 86.04883 65.397111h45.605879c37.000997 0 80.8859-31.407823 82.176632-66.687843l18.930743-201.354261h25.814648a86.048829 86.048829 0 0 0 64.966867-86.048829V419.937218a152.736672 152.736672 0 0 0-153.166917-149.724963h-129.073244A152.736672 152.736672 0 0 0 304.182612 425.960636v129.073244c1.720977 38.721973 32.268311 83.03712 68.408819 83.03712z m89.490783-46.036123v-2.151221c-2.151221-13.337569-13.767813-31.838067-27.105382-31.838067H386.789488a5.593174 5.593174 0 0 1-3.872197-6.023418V420.367462c0-52.489786 21.512207-71.850773 75.292725-71.850772h129.073244c52.059542 0 71.420528 21.512207 71.420529 75.722969v129.073244a17.64001 17.64001 0 0 0 0 3.872198h-56.792228c-13.767813 2.581465-22.372696 23.233184-23.663428 33.989287l-21.081963 227.599154a15.919033 15.919033 0 0 1-15.919033 14.198057h-43.024415a15.919033 15.919033 0 0 1-14.198057-15.488789z"
    p-id="4283" fill="#2c2c2c"></path>
</svg>
