<svg t="1647398994931" class="icon" viewBox="0 0 1024 1024" version="1.1" xmlns="http://www.w3.org/2000/svg" p-id="2548"
  width="64" height="64">
  <path
    d="M519.739539 878.846005l-93.265959-119.315379a116.243656 116.243656 0 0 1-15.900687-30.024592l-52.27953-175.449621-12.045975 25.055627a144.762501 144.762501 0 0 1-61.103206 73.450331l-6.324137 4.57747 28.60919 96.367797a473.707955 473.707955 0 0 0 30.717235 63.542517l98.566188 121.845034c8.974251 16.412641 24.754478 28.006891 43.094475 31.771258 3.402988 0.391494 6.836091 0.632414 10.239078 0.692644 12.949423-0.090345 25.447122-4.69793 35.324821-13.069883 28.60919-25.748271 3.192183-65.650562-5.631493-79.443203zM172.092709 185.088208A92.543201 92.543201 0 1 0 79.910888 92.243858v0.361379a92.392626 92.392626 0 0 0 92.181821 92.482971z m166.746405 260.915812L302.098891 301.241519l57.579759 47.310565 41.709187 125.338367a41.317693 41.317693 0 0 0 51.195393 38.848268c14.515399-3.192183 30.416086-15.539307 21.923674-55.080219l-46.979301-140.154915a142.955605 142.955605 0 0 0-15.900687-25.417007l-80.557456-90.043661a131.692618 131.692618 0 0 0-57.941138-30.024592 102.17998 102.17998 0 0 0-40.956314 5.661609c-69.264354 21.53218-97.150786 80.497226-76.672629 161.71721l35.6862 157.109625c-7.769654 12.347124-21.923674 37.402751-30.717235 53.303437l-83.418375 147.92457-5.631493 10.961837a198.246628 198.246628 0 0 0-20.478157 54.71884l-19.09287 184.996056a73.902055 73.902055 0 0 0 13.431262 55.411483c9.034481 11.353331 22.285053 18.490571 36.740223 19.785514 2.589885 0.301149 5.179769 0.421609 7.769653 0.361379 8.673102 0.361379 17.195629-2.409195 24.03172-7.769654 12.196549-12.708503 18.942295-29.693328 18.701375-47.310565 5.721838-70.770101 17.918387-140.817444 36.408959-209.35904l49.810105-90.043661a28.60919 28.60919 0 0 1 4.577471-2.108046c125.428711-63.542516 132.144342-155.332844 115.520897-221.344784z m-291.813737-3.884827c11.744825-0.271034 23.158386-3.553563 33.216775-9.51632L159.052942 387.370238l-26.832409-94.982511-101.758371 54.71884a49.749875 49.749875 0 0 0-25.085742 68.150102c5.541148 11.77494 15.599537 20.809421 27.916546 25.085743 4.517241 1.084138 9.124826 1.686436 13.792641 1.746666z m589.650461-6.715631a24.995397 24.995397 0 0 1-4.968965-35.294706 16.743905 16.743905 0 0 1 3.553563-3.523448l1.415402-1.415402 107.028485-81.912627a25.296547 25.296547 0 0 1 35.324821 4.57747 25.597696 25.597696 0 0 1-3.162069 34.632177l-1.776781 1.054023-80.557455 61.765735 80.557455 61.79585a25.447122 25.447122 0 0 1 6.022988 33.879304l-1.084138 1.776781a25.778386 25.778386 0 0 1-33.909419 5.661608l-1.415402-1.084137-107.028485-81.912628z m376.225904 220.682256a25.176087 25.176087 0 0 0 4.607586-35.294706c-1.054023-1.084138-2.108046-2.49954-3.192184-3.553562l-1.415402-1.054023-107.389864-81.912628a25.115857 25.115857 0 0 0-31.801373 38.848269l1.415402 1.054022 80.918835 62.127115-80.918835 61.79585a25.386892 25.386892 0 0 0-6.022987 33.879304l1.084137 1.415402a25.477236 25.477236 0 0 0 33.909419 6.022987l1.415402-1.415402 107.389864-81.912628z m-362.463378-48.364588a25.176087 25.176087 0 0 0-25.085742 25.055627 24.905053 24.905053 0 0 0 23.339076 25.417007h314.03856c13.852871 0.210805 25.236317-10.841377 25.447121-24.634019v-0.421609a25.417007 25.417007 0 0 0-23.308961-25.417006h-314.399939z m348.339473-220.682256a25.296547 25.296547 0 0 1 1.776781 50.502748h-314.09879a25.296547 25.296547 0 0 1-2.108045-50.502748h314.430054z"
    p-id="2549" fill="#2c2c2c"></path>
</svg>
