<svg t="1649323818341" class="icon" viewBox="0 0 1024 1024" version="1.1" xmlns="http://www.w3.org/2000/svg" p-id="3847"
    width="64" height="64">
    <path
        d="M855.04 379.392h-1.536l-287.232-228.864c-30.72-23.04-70.144-23.04-100.864 0L177.664 377.856h-1.536c-14.848 15.36-19.968 39.424-12.8 60.928 6.656 20.992 24.576 35.328 44.544 35.84h46.592v326.144c-0.512 49.664 34.816 90.112 78.336 90.112H698.368c43.52 0 78.336-39.936 78.848-89.088V476.16h46.08c19.968-0.512 37.376-14.336 44.544-35.84 7.168-21.504 2.048-45.568-12.8-60.928z m-280.064 457.728H346.112c-24.064 0-44.032-22.528-44.032-50.176V453.12c0-8.192-5.632-14.336-12.288-14.336H229.888c-6.656 0-12.288-5.12-14.336-12.288-2.048-6.656-1.024-13.824 3.584-18.944l266.24-205.312c18.432-13.824 42.496-13.824 60.928 0l265.728 204.288c4.608 5.12 5.632 12.288 3.584 18.944-2.048 7.168-7.68 11.776-13.824 12.288h-57.856c-6.656-1.024-13.312 4.608-14.336 12.288V785.92c0 27.648-19.968 50.176-44.032 50.176h-111.104 0.512z"
        fill="#585858" p-id="3848"></path>
    <path
        d="M639.488 486.912H397.824c-3.584 0-7.168 1.536-9.728 4.096s-3.072 6.144-2.56 9.728l31.232 234.496c2.048 9.728 10.24 17.408 20.48 17.92h161.28c9.728 0 18.432-6.656 20.48-16.384l33.28-236.032c0.512-3.584-0.512-7.168-2.56-9.728-2.56-3.072-6.144-4.608-10.24-4.096z m-50.176 231.936H448L421.376 522.24h194.048l-26.112 196.608z"
        fill="#585858" p-id="3849"></path>
    <path
        d="M545.28 691.712c9.216 1.024 17.408-5.12 18.944-14.336l17.408-116.224c1.024-9.216-5.12-17.408-14.336-18.944-9.216-1.024-17.408 5.12-18.944 14.336l-16.384 116.224c-1.536 9.216 4.608 17.408 13.312 18.944zM396.8 457.728h241.664c6.656 0 12.288-7.68 12.288-16.896s-5.12-16.896-12.288-16.896H542.72c-3.584-12.288-14.848-20.48-26.624-19.968-12.288 0-23.04 8.192-26.624 19.968h-92.16c-6.656 0-12.288 7.68-12.288 16.896s4.608 16.896 11.776 16.896zM495.104 695.808c9.216-1.536 15.36-9.728 14.336-18.944l-16.384-116.224c-1.024-9.216-9.728-15.36-18.944-14.336-9.216 1.024-15.36 9.728-14.336 18.944l16.384 116.224c1.536 9.216 9.728 15.36 18.944 14.336z"
        fill="#585858" p-id="3850"></path>
</svg>
