<svg t="1642732738240" class="icon" viewBox="0 0 1024 1024" version="1.1" xmlns="http://www.w3.org/2000/svg" p-id="6625"
  width="64" height="64">
  <path
    d="M954.56 592L880 537.76a65.44 65.44 0 0 1-25.12-39.04l-7.84-35.68h23.68a54.88 54.88 0 0 0 36-12.48 58.56 58.56 0 0 0 18.88-57.28l-16-82.72a54.88 54.88 0 0 0-52.8-43.2h-52.8l-32-146.08A32 32 0 0 0 741.6 96H480a32 32 0 0 0-32 27.2 32 32 0 0 0 30.56 38.08H608a337.6 337.6 0 0 1 25.92 130.56c0 113.6-56.64 208-147.52 252.8V430.4a96 96 0 0 0-93.28-97.92H164.64a94.56 94.56 0 0 0-91.68 80L33.76 638.88a106.4 106.4 0 0 0 5.28 57.92 94.72 94.72 0 0 0 66.56 57.76v10.24A160 160 0 0 0 260.32 928 160 160 0 0 0 416 764.8v-8.16h187.2v8.16A160 160 0 0 0 757.12 928 160 160 0 0 0 912 764.8v-8.32h7.04a83.04 83.04 0 0 0 70.24-66.24A93.6 93.6 0 0 0 954.56 592z m-97.44-275.84a7.84 7.84 0 0 1 7.36 5.12l16 82.72a8.16 8.16 0 0 1-1.44 7.04 7.36 7.36 0 0 1-6.08 3.04h-36.8l-21.44-97.92zM353.12 756.8a96 96 0 0 1-92.8 105.92 96 96 0 0 1-92.96-105.76h185.6z m70.24-65.28H124.96a29.92 29.92 0 0 1-23.84-11.84 33.12 33.12 0 0 1-6.56-26.72l39.52-228.32a32 32 0 0 1 30.56-26.88h227.52a32 32 0 0 1 31.2 32z m355.2 168.8A97.92 97.92 0 1 1 848 787.2a96 96 0 0 1-69.44 73.12z m57.6-275.04l83.04 60.16a27.36 27.36 0 0 1 9.76 28.8A20.32 20.32 0 0 1 912 691.2h-16a151.68 151.68 0 0 0-276.96 0h-133.6v-76c128-48 209.6-172.64 209.6-323.36a410.4 410.4 0 0 0-21.28-130.56h43.2L800 537.12a64.96 64.96 0 0 0 23.04 37.28z"
    p-id="6626" fill="#2c2c2c"></path>
</svg>
