<svg t="1649323646578" class="icon" viewBox="0 0 1024 1024" version="1.1" xmlns="http://www.w3.org/2000/svg" p-id="2240"
    width="64" height="64">
    <path
        d="M661.76 348.373333a42.666667 42.666667 0 0 1 1.792 1.877334l116.864 126.336a42.666667 42.666667 0 0 1 0.384 57.514666l-211.328 234.581334A256 256 0 0 1 379.264 853.333333H173.952c-34.901333 0-63.573333-27.52-65.066667-62.378666a59.861333 59.861333 0 0 1 57.258667-62.293334l1.28-0.042666h231.04l-85.76-63.573334a42.666667 42.666667 0 0 0-67.84 30.336l-0.298667 2.858667H151.808a42.666667 42.666667 0 0 1-35.2-66.816l84.309333-123.093333a85.333333 85.333333 0 0 1 130.261334-12.586667l67.285333 66.261333 202.922667-212.266666a42.666667 42.666667 0 0 1 60.330666-1.365334z m187.221333 250.88c4.266667 4.266667 6.613333 9.984 6.613334 15.957334V810.666667a42.666667 42.666667 0 0 1-42.666667 42.666666H705.706667a42.666667 42.666667 0 0 1-32.128-70.741333l8.32-9.514667h97.066666v-117.418666a42.666667 42.666667 0 0 1 12.373334-30.037334l25.941333-26.197333a22.4 22.4 0 0 1 31.701333-0.128zM831.232 170.666667a121.898667 121.898667 0 1 1 0 243.797333 121.898667 121.898667 0 0 1 0-243.797333z m-290.517333 73.002666a33.962667 33.962667 0 0 1 47.658666 6.229334 44.8 44.8 0 0 1-3.114666 58.282666l-72.789334 76.288a47.36 47.36 0 0 1-62.208 5.546667 35.242667 35.242667 0 0 1-3.968-53.589333l91.306667-90.026667a33.962667 33.962667 0 0 1 3.114667-2.730667z"
        p-id="2241"></path>
</svg>
