<?xml version="1.0" standalone="no"?><!DOCTYPE svg PUBLIC "-//W3C//DTD SVG 1.1//EN" "http://www.w3.org/Graphics/SVG/1.1/DTD/svg11.dtd"><svg t="1686640012671" class="icon" viewBox="0 0 1388 1024" version="1.1" xmlns="http://www.w3.org/2000/svg" p-id="4198" xmlns:xlink="http://www.w3.org/1999/xlink" width="271.09375" height="200"><path d="M903.529412 0a60.235294 60.235294 0 0 1 60.235294 60.235294v361.411765a60.235294 60.235294 0 0 1-60.235294 60.235294H361.411765a60.235294 60.235294 0 0 1-60.235294-60.235294V60.235294a60.235294 60.235294 0 0 1 60.235294-60.235294h542.117647z m0 60.235294H361.411765v361.411765h542.117647V60.235294z" p-id="4199"></path><path d="M602.352941 421.647059a60.235294 60.235294 0 0 1 60.235294 60.235294v361.411765a60.235294 60.235294 0 0 1-60.235294 60.235294H60.235294a60.235294 60.235294 0 0 1-60.235294-60.235294V481.882353a60.235294 60.235294 0 0 1 60.235294-60.235294h542.117647z m0 60.235294H60.235294v361.411765h542.117647V481.882353z" p-id="4200"></path><path d="M1204.705882 421.647059a60.235294 60.235294 0 0 1 60.235294 60.235294v289.129412l-60.235294-84.269177V481.882353h-542.117647v361.411765h309.729883l-43.008 60.235294H662.588235a60.235294 60.235294 0 0 1-60.235294-60.235294V481.882353a60.235294 60.235294 0 0 1 60.235294-60.235294h542.117647z" p-id="4201"></path><path d="M741.737412 552.357647c5.601882 0 9.336471 3.794824 9.33647 9.396706v204.498823a9.336471 9.336471 0 0 1-9.33647 9.336471c-5.601882 0-9.336471-3.734588-9.336471-9.336471V561.754353c0-5.601882 3.734588-9.336471 9.336471-9.336471z m120.470588 0c5.601882 0 9.336471 3.794824 9.336471 9.396706v204.498823a9.336471 9.336471 0 0 1-9.336471 9.336471c-5.601882 0-9.336471-3.734588-9.336471-9.336471V561.754353c0-5.601882 3.734588-9.336471 9.336471-9.336471z m113.543529 0c5.601882 0 9.336471 3.794824 9.336471 9.396706v204.498823a10.059294 10.059294 0 0 1-9.336471 9.336471c-5.601882 0-9.336471-3.734588-9.33647-9.336471V561.754353c0-5.601882 3.734588-9.336471 9.33647-9.336471z m-821.850353 0c5.601882 0 9.336471 3.794824 9.336471 9.396706v204.498823a9.336471 9.336471 0 0 1-9.336471 9.336471c-5.601882 0-9.336471-3.734588-9.33647-9.336471V561.754353c0-5.601882 3.734588-9.336471 9.33647-9.336471z m123.301648 0c5.601882 0 9.336471 3.794824 9.33647 9.396706v204.498823a9.336471 9.336471 0 0 1-9.33647 9.336471c-5.601882 0-9.336471-3.734588-9.336471-9.336471V561.754353c0-5.601882 3.734588-9.336471 9.336471-9.336471z m124.205176 0c5.601882 0 9.336471 3.794824 9.336471 9.396706v204.498823a10.059294 10.059294 0 0 1-9.336471 9.336471c-5.601882 0-9.336471-3.734588-9.336471-9.336471V561.754353c0-5.601882 3.734588-9.336471 9.336471-9.336471z m123.241412 0c5.601882 0 9.336471 3.794824 9.33647 9.396706v204.498823a10.059294 10.059294 0 0 1-9.33647 9.336471c-5.601882 0-9.336471-3.734588-9.336471-9.336471V561.754353c0-5.601882 3.734588-9.336471 9.336471-9.336471z m574.343529 0c5.662118 0 9.396706 3.794824 9.396706 9.396706l-0.120471 96.075294a60.235294 60.235294 0 0 0-12.830117 13.131294l-5.782588 8.07153V561.754353c0-5.601882 3.734588-9.336471 9.33647-9.336471zM441.524706 120.470588c5.601882 0 9.336471 3.734588 9.33647 9.336471V334.305882a9.336471 9.336471 0 0 1-9.33647 9.396706c-5.601882 0-9.336471-3.794824-9.336471-9.396706V129.807059c0-5.601882 3.734588-9.336471 9.336471-9.336471z m123.301647 0c5.601882 0 9.336471 3.734588 9.336471 9.336471V334.305882a9.336471 9.336471 0 0 1-9.336471 9.396706c-5.601882 0-9.336471-3.794824-9.336471-9.396706V129.807059c0-5.601882 3.734588-9.336471 9.336471-9.336471z m123.301647 0c5.601882 0 9.336471 3.734588 9.336471 9.336471V334.305882c0 5.601882-3.734588 9.396706-9.336471 9.396706s-9.396706-3.794824-9.396706-9.396706V129.807059c0-5.601882 3.794824-9.336471 9.396706-9.336471z m123.241412 0c5.601882 0 9.336471 3.734588 9.33647 9.336471V334.305882c0 5.601882-3.734588 9.396706-9.33647 9.396706s-9.336471-3.794824-9.336471-9.396706V129.807059c0-5.601882 3.734588-9.336471 9.336471-9.336471zM1141.458824 884.434824c-8.312471 0-15.058824-4.939294-15.058824-10.962824v-98.544941c0-6.023529 6.746353-10.962824 15.058824-10.962824s15.058824 4.879059 15.058823 10.962824V873.411765c0 6.023529-6.746353 10.962824-15.058823 10.962823zM1141.458824 932.321882c-8.312471 0-15.058824-4.517647-15.058824-10.059294v-9.999059c0-5.541647 6.746353-10.059294 15.058824-10.059294s15.058824 4.517647 15.058823 10.059294v9.999059c0 5.541647-6.746353 10.059294-15.058823 10.059294z" p-id="4202"></path><path d="M1179.467294 656.986353a60.235294 60.235294 0 0 1 14.034824 13.974588l184.139294 257.807059A60.235294 60.235294 0 0 1 1328.609882 1024h-368.278588a60.235294 60.235294 0 0 1-49.031529-95.232l184.139294-257.807059a60.235294 60.235294 0 0 1 84.028235-13.974588z m-38.00847 23.672471l-204.257883 294.490352h415.62353L1141.458824 680.658824z" p-id="4203"></path></svg>