<svg t="1662344445653" class="icon" viewBox="0 0 1024 1024" version="1.1" xmlns="http://www.w3.org/2000/svg" p-id="3598" width="64" height="64"><path d="M921.7 550.2c-9.2-27.7-29.7-47.1-63.8-60.2V370.7c0-6.5-3.2-12.6-8.5-16.3l-109.2-77c-9-6.4-21.5-4.2-27.9 4.8-0.2 0.3-0.5 0.7-0.7 1L643 332.6v-112c0-6.5-3.2-12.6-8.5-16.3l-109.2-77c-9-6.4-21.5-4.2-27.9 4.8-0.2 0.3-0.5 0.7-0.7 1l-99.1 71.2c-5.2 3.8-8.3 9.8-8.3 16.2v202.1l-75.5-53.2c-9-6.4-21.5-4.2-27.9 4.8-0.2 0.3-0.5 0.7-0.7 1l-99.1 71.2c-5.2 3.8-8.3 9.8-8.3 16.2V671c-4.2 0.4-8.4 2.1-11.8 5.2-26.6 24.4-45.9 48.7-57.4 72-13.1 26.8-15.9 51.9-8.3 74.9 8.5 25.6 29 45.6 61 59.4 27.9 12 63.8 19 106.7 20.8 7.1 0.3 14.3 0.4 21.6 0.4 81.5 0 178.8-17.6 276.9-50.2 106.8-35.5 202.3-84.9 268.8-138.9 33.4-27.1 57.9-54.2 73-80.5 17.5-30 22-58.3 13.4-83.9zM744.9 329.5L818 381v205.4l-73.1 41.9V329.5zM530 179.4l73.1 51.5v480L530 741.8V179.4zM318.5 421.6l71 50 2.1 299.5-73.1 8.4V421.6z m555.3 192.8c-12.5 21.7-34.4 45.7-63.5 69.4-62.8 51.1-153.8 97.9-256.2 132-94 31.3-186.9 48.1-264.1 48.1-6.8 0-13.6-0.1-20.1-0.4-37.5-1.5-69.5-7.6-92.4-17.5-21-9.1-34.1-21-38.9-35.3-7.7-23.2 6.6-55.3 39.5-89.8V777c0 11 9 20 20 20s20-9 20-20V473l60.5-43.5V802c0 5.7 2.4 11.1 6.7 14.9 3.7 3.3 8.4 5.1 13.3 5.1 0.8 0 1.5 0 2.3-0.1l113.1-13c10.1-1.2 17.7-9.7 17.7-19.9l-2.1-558.2 60.5-43.5V772c0 6.7 3.4 13 8.9 16.7 3.3 2.2 7.2 3.3 11.1 3.3 2.6 0 5.3-0.5 7.8-1.6L631 742.6c7.4-3.1 12.2-10.4 12.2-18.4v-32.4c0.8-2.2 1.3-4.6 1.3-7.1V380.9l60.5-43.5v325.4c0 7.1 3.8 13.7 10 17.3 6.2 3.6 13.8 3.6 20 0l113.1-64.8c6.2-3.6 10.1-10.2 10.1-17.4v-64.2c17 9.3 22.7 19.6 25.9 29 4.5 14.4 1.1 31.8-10.3 51.7z" fill="" p-id="3599"></path></svg>
