<svg t="1651394256183" class="icon" viewBox="0 0 1024 1024" version="1.1" xmlns="http://www.w3.org/2000/svg" p-id="2081" width="64" height="64"><path d="M512.999805 875.728959H194.961921c-15.396993 0-27.994532-12.497559-27.994532-27.994532V672.068737l24.995118-61.987893h197.461434c16.496778 0 29.794181-13.297403 29.79418-29.794181s-13.297403-29.794181-29.79418-29.794181H216.157782l60.988088-150.970514h167.567272c16.496778 0 29.794181-13.297403 29.794181-29.79418S461.20992 339.933607 444.713142 339.933607H257.049795c-12.197618 0-23.095489 7.398555-27.59461 18.596368L156.169498 539.894552l-49.590314-23.395431c-14.89709-6.998633-32.593634-0.699863-39.692248 14.197227-6.998633 14.89709-0.699863 32.593634 14.197227 39.692248l52.689709 24.895138-24.195274 59.888303c-1.399727 3.599297-2.19957 7.398555-2.19957 11.197813V847.834407c0 48.290568 39.292326 87.582894 87.582893 87.582894h1.399727v45.291154c0 23.795352 19.496192 43.291545 43.291545 43.291545 23.795352 0 43.291545-19.496192 43.291544-43.291545v-45.291154H512.999805c16.496778 0 29.794181-13.297403 29.794181-29.794181 0-16.596758-13.297403-29.894161-29.794181-29.894161z" fill="" p-id="2082"></path><path d="M279.545401 742.754931m-52.289787 0a52.289787 52.289787 0 1 0 104.579574 0 52.289787 52.289787 0 1 0-104.579574 0Z" fill="" p-id="2083"></path><path d="M711.361062 288.543644C574.987698 288.543644 464.009373 399.521968 464.009373 535.895333v122.376098c0 16.496778 13.297403 29.794181 29.794181 29.794181h48.790471l65.887131 312.338996c2.899434 13.797305 15.097051 23.595392 29.194298 23.595392h149.370826c14.097247 0 26.294864-9.898067 29.194298-23.695372l65.58719-312.239016h47.190783c16.496778 0 29.794181-13.297403 29.794181-29.794181V535.895333c0-136.373365-110.978325-247.351689-247.45167-247.351689z m187.863308 339.933607h-41.591876c-14.097247 0-26.294864 9.898067-29.194298 23.695372l-65.58719 312.239015H661.770748l-65.887132-312.338996c-2.899434-13.797305-15.097051-23.595392-29.194298-23.595391h-43.091583V535.895333c0-103.57977 84.183558-187.763327 187.763327-187.763328S899.22437 432.315563 899.22437 535.895333v92.581918z" fill="" p-id="2084"></path><path d="M713.360672 268.947471c74.08553 0 134.373755-60.288225 134.373755-134.373755S787.446202 0.09998 713.360672 0.09998C639.275142 0.09998 578.986917 60.388205 578.986917 134.473736S639.275142 268.947471 713.360672 268.947471z m0-209.259129c41.191955 0 74.785393 33.593439 74.785393 74.785394 0 41.291935-33.593439 74.785393-74.785393 74.785393-41.291935 0-74.785393-33.593439-74.785394-74.785393 0-41.191955 33.493458-74.785393 74.785394-74.785394z" fill="" p-id="2085"></path></svg>
