<?xml version="1.0" standalone="no"?><!DOCTYPE svg PUBLIC "-//W3C//DTD SVG 1.1//EN" "http://www.w3.org/Graphics/SVG/1.1/DTD/svg11.dtd"><svg t="1631600580965" class="icon" viewBox="0 0 1252 1024" version="1.1" xmlns="http://www.w3.org/2000/svg" p-id="21106" xmlns:xlink="http://www.w3.org/1999/xlink" width="244.53125" height="200"><defs><style type="text/css"></style></defs><path d="M626.389486 284.444444a57.084636 57.084636 0 0 0-56.950059 56.888889l28.468912 312.888889c0 17.066667 11.390012 28.444444 28.468913 28.444445s28.468913-11.377778 28.468913-28.444445L683.339546 341.333333A57.084636 57.084636 0 0 0 626.389486 284.444444z m0 455.111112a56.888889 56.888889 0 1 0 56.95006 56.888888A57.084636 57.084636 0 0 0 626.389486 739.555556z m612.161147 113.777777l-512.501601-796.444444S700.418447 0 626.389486 0c-68.327838 0-99.659546 56.888889-99.659546 56.888889l-512.489367 796.444444S0 873.238327 0 910.222222c0 62.577778 51.248937 113.777778 113.887885 113.777778h1025.003202c62.638949 0 113.887885-51.2 113.887886-113.777778 0-39.822222-14.228339-56.888889-14.22834-56.888889z m-99.659546 113.777778H113.887885A57.084636 57.084636 0 0 1 56.937826 910.222222c0-11.377778 2.850562-19.917228 2.850561-22.755555l2.850562-2.838328 512.501601-796.444444 2.850561-2.838327s17.127838-28.444444 48.398375-28.444445c34.170036 0 45.560048 22.755556 48.398375 25.593883 0 2.838327 2.850562 2.838327 2.850562 8.563919L1190.140024 887.466667l2.850561 2.838327c0 2.850562 2.850562 8.563919 2.850562 22.755556 0 28.444444-25.630585 54.038327-56.95006 54.038327z" fill="" p-id="21107"></path></svg>
