<?xml version="1.0" encoding="utf-8"?>
<!-- Generator: Adobe Illustrator 24.2.3, SVG Export Plug-In . SVG Version: 6.00 Build 0)  -->
<svg version="1.1" id="Layer_1" xmlns="http://www.w3.org/2000/svg" xmlns:xlink="http://www.w3.org/1999/xlink" x="0px" y="0px"
	 viewBox="0 0 200 200" style="enable-background:new 0 0 200 200;" xml:space="preserve">
<style type="text/css">
	.st0{fill:url(#SVGID_1_);}
	.st1{fill:url(#SVGID_2_);}
</style>
<linearGradient id="SVGID_1_" gradientUnits="userSpaceOnUse" x1="1.6" y1="101.7121" x2="182.4966" y2="101.7121">
	<stop  offset="0" style="stop-color:#16E8FF"/>
	<stop  offset="1" style="stop-color:#007FDF"/>
</linearGradient>
<path class="st0" d="M19,111.9l-12.8-2.6c-2.1-0.4-4.1,1-4.5,3c-0.1,0.3-0.1,0.6-0.1,0.9v78.7c0,3.3,3.3,5.6,6.3,4.4l5.2-1.9
	c5.3-1.9,8.9-7,8.9-12.7v-18.1c0-2.2,1.7-3.9,3.8-3.9h27.3c1.2,0,2.4-0.6,3.1-1.6l14.4-19.4c1.3-1.8,0.8-4.3-1-5.6
	c-0.1-0.1-16-10-16-10c-1.8-1-4.1-0.4-5.1,1.4c-0.1,0.3-0.3,0.5-0.3,0.8l-4,12.7c-0.5,1.6-2,2.7-3.6,2.7H25.9
	c-2.1,0-3.8-1.8-3.8-3.9v-20.9C22.1,113.9,20.8,112.3,19,111.9L19,111.9z M133.7,143L17,62.1c-4.8-3.3-6.2-9.8-3.3-14.5l23.1-36.3
	c3-4.8,9.5-5.8,13.4-2.8l127.1,95.3c6.7,5,6.8,13.8,1,17.7l-33.4,21.9C141.5,145.6,137.1,145.4,133.7,143L133.7,143z"/>
<linearGradient id="SVGID_2_" gradientUnits="userSpaceOnUse" x1="9.6735" y1="126.9846" x2="166.5013" y2="126.9846">
	<stop  offset="0" style="stop-color:#16E8FF"/>
	<stop  offset="1" style="stop-color:#007FDF"/>
</linearGradient>
<path class="st1" d="M16,77.6l-5.6,7.9c-1.2,1.8-0.9,4.2,0.8,5.5l0.2,0.2l132,86.1c1.6,1.1,3.8,0.8,5.1-0.7l17-19.6
	c1.4-1.6,1.3-4-0.1-5.6L165,151c-1.4-1.5-3.7-1.7-5.3-0.4l-11.8,9.4c-1.3,1.1-3.2,1.1-4.6,0.2L21.1,76.7
	C19.4,75.5,17.1,75.9,16,77.6z"/>
</svg>
