<?xml version="1.0" standalone="no"?><!DOCTYPE svg PUBLIC "-//W3C//DTD SVG 1.1//EN" "http://www.w3.org/Graphics/SVG/1.1/DTD/svg11.dtd"><svg t="1631600616681" class="icon" viewBox="0 0 1024 1024" version="1.1" xmlns="http://www.w3.org/2000/svg" p-id="24062" xmlns:xlink="http://www.w3.org/1999/xlink" width="200" height="200"><defs><style type="text/css"></style></defs><path d="M193.6 952v-52c0-4.8 4-8 8-8H840c4.8 0 8 4 8 8v52c0 4.8-4 8-8 8H202.4c-4.8 0-8.8-4-8.8-8z m435.2-500.8c50.4-80 57.6-168 41.6-260.8l4-2.4c8.8 9.6 20 17.6 27.2 28 37.6 55.2 59.2 116.8 69.6 182.4 10.4 63.2 8.8 125.6-16 185.6-4 10.4-9.6 20-16 33.6 32-20.8 50.4-48.8 62.4-80 8.8-24 15.2-48 21.6-72.8 2.4-8 13.6-8 16-0.8 5.6 16 8 32.8 8 50.4 2.4 68-16.8 131.2-48 191.2-26.4 54.4-64 102.4-108.8 142.4l-9.6 7.2c-0.8 0.8-1.6 0-4.8 0 21.6-76 48-148 99.2-206.4 5.6-6.4-0.8-16-8.8-13.6-35.2 12-62.4 35.2-86.4 67.2-4 5.6-12.8 4-14.4-3.2-14.4-61.6-16-120 4-176.8 3.2-8-7.2-14.4-13.6-8.8-23.2 20.8-48.8 58.4-80 116.8-0.8-10.4 0-18.4-2.4-25.6-5.6-20.8-9.6-42.4-17.6-62.4-13.6-35.2-27.2-70.4-22.4-110.4 0.8-7.2-8-12-13.6-7.2-12 10.4-20 22.4-24.8 36-8 24-13.6 48.8-16.8 74.4-4 33.6-3.2 67.2-7.2 100.8-1.6 14.4-6.4 28-16 40.8-4 5.6-13.6 4-15.2-3.2-12-51.2-34.4-93.6-68-130.4-6.4-6.4-17.6 0-14.4 8.8 19.2 49.6 28.8 100.8 22.4 155.2-0.8 6.4-7.2 9.6-12.8 6.4l-65.6-40.8-4 3.2c32 55.2 35.2 116.8 36.8 179.2-2.4-0.8-4-0.8-4.8-1.6-52-60.8-104-120.8-136-194.4-13.6-31.2-24-64-32-96.8-5.6-22.4-3.2-44 6.4-67.2 3.2-7.2 13.6-6.4 16 1.6 12.8 44.8 42.4 73.6 78.4 98.4 5.6 4 13.6-0.8 12.8-8-20-124 20.8-222.4 107.2-302.4 5.6-5.6 16 0 13.6 8-16.8 67.2-20 132.8 8.8 196.8 3.2 7.2 13.6 6.4 16-1.6 9.6-38.4 36.8-67.2 58.4-99.2 28-40.8 54.4-83.2 60-133.6 6.4-59.2 1.6-119.2-18.4-176-2.4-4.8-3.2-10.4-2.4-16 4 3.2 8.8 6.4 12.8 10.4 53.6 48.8 80.8 112 95.2 182.4 12 59.2 12 119.2 1.6 179.2-0.8 4.8-1.6 9.6-1.6 15.2-1.6 0 2.4 0.8 2.4 0.8z" p-id="24063"></path></svg>