<?xml version="1.0" standalone="no"?><!DOCTYPE svg PUBLIC "-//W3C//DTD SVG 1.1//EN" "http://www.w3.org/Graphics/SVG/1.1/DTD/svg11.dtd"><svg t="1631600479500" class="icon" viewBox="0 0 1303 1024" version="1.1" xmlns="http://www.w3.org/2000/svg" p-id="11433" xmlns:xlink="http://www.w3.org/1999/xlink" width="254.4921875" height="200"><defs><style type="text/css"></style></defs><path d="M1275.835926 797.510608H291.847242c-15.207921 0-27.700141 12.492221-27.700142 27.700142v171.089109c0 15.207921 12.492221 27.700141 27.700142 27.700141h983.988684c15.207921 0 27.700141-12.492221 27.700142-27.700141v-171.089109c0-15.388967-12.492221-27.700141-27.700142-27.700142zM1248.135785 968.599717h-928.769448v-115.869873h928.769448v115.869873zM176.520509 797.510608c-15.207921 0-27.700141 12.492221-27.700141 27.700142v171.089109c0 15.207921 12.492221 27.700141 27.700141 27.700141s27.700141-12.492221 27.700142-27.700141v-171.089109c0-15.388967-12.311174-27.700141-27.700142-27.700142z m-148.820368 0c-15.207921 0-27.700141 12.492221-27.700141 27.700142v171.089109c0 15.207921 12.492221 27.700141 27.700141 27.700141s27.700141-12.492221 27.700142-27.700141v-171.089109c0-15.388967-12.492221-27.700141-27.700142-27.700142z m193.900991-120.758133c-56.305516 0-102.110325-45.804809-102.110326-102.110325S165.295615 472.531825 221.601132 472.531825c29.691655 0 57.75389 12.854314 77.125884 35.304101 2.896747 3.439887 6.698727 5.612447 10.500707 7.241867 49.787836 38.019802 110.981612 59.021216 174.166902 59.021217 158.234795 0 287.140028-128.905233 287.140028-287.140028C770.534653 128.905233 641.810467 0 483.394625 0c-15.207921 0-27.700141 12.492221-27.700141 27.700141s12.492221 27.700141 27.700141 27.700142c127.818953 0 231.739745 103.920792 231.739746 231.739745s-103.920792 231.739745-231.739746 231.739746c-56.305516 0-110.619519-20.458274-152.984441-57.572843-0.905233-0.724187-1.810467-1.08628-2.896747-1.62942-28.786421-26.613861-66.263083-42.364922-106.093352-42.364923-86.721358 0-157.329562 70.608204-157.329562 157.510609 0 86.721358 70.608204 157.329562 157.329562 157.329561 15.207921 0 27.700141-12.492221 27.700141-27.700141 0.181047-15.388967-12.311174-27.700141-27.519094-27.700142z m0 0" p-id="11434"></path></svg>